<svg xmlns="http://www.w3.org/2000/svg" viewBox="0 0 48 48"><defs><style>.cls-1{fill:#fff;}.cls-2{fill:none;}</style></defs><title>Developer_icons_Geocoding_and_Search_Localized_lookup (12)</title><g id="Layer_2" data-name="Layer 2"><g id="Geocoging_and_Search" data-name="Geocoging and Search"><g id="Developer_icons_Geocoding_and_Search_Localized_lookup"><g id="Developer_Icons_48x48px_AllWhite_Geocoding_and_Search_Localized_lookup"><path class="cls-1" d="M42.38,28.87a7.62,7.62,0,0,1-1.3,1.81A19,19,0,0,1,43,38H35c0-.69-.05-1.38-.1-2L33.28,34.6l-.6-.51A37.75,37.75,0,0,1,33,38H25V31.46a38.54,38.54,0,0,0,4.36-.32l-.25-.25a8.24,8.24,0,0,1-1.25-1.6c-.94.09-1.89.15-2.86.17V20.12a5.7,5.7,0,0,1,2.44,1.38,8.13,8.13,0,0,1,1.67-2.39l.4-.37A21,21,0,0,0,3,39a20.6,20.6,0,0,0,1.21,7H6.34A18.72,18.72,0,0,1,5,40h8a37.72,37.72,0,0,0,.61,6h2A36.74,36.74,0,0,1,15,40h8v6h2V40h8a36.74,36.74,0,0,1-.65,6h2A37.72,37.72,0,0,0,35,40h8a18.72,18.72,0,0,1-1.32,6h2.13a20.88,20.88,0,0,0-1.41-17.13ZM13,38H5a18.93,18.93,0,0,1,3.4-9.86A24,24,0,0,0,14,30.26,38,38,0,0,0,13,38Zm1.47-9.68a23.52,23.52,0,0,1-4.81-1.78,18.93,18.93,0,0,1,8.71-5.69A19.77,19.77,0,0,0,14.48,28.32ZM23,38H15a36.67,36.67,0,0,1,.92-7.29,39.79,39.79,0,0,0,7.07.75Zm0-8.54a38.89,38.89,0,0,1-6.54-.69c1.45-4.67,3.84-8,6.54-8.65ZM20,10H15V8h5ZM34,8H23v2H34ZM46,2V15H2V2ZM44,4H4v9H44ZM12.71,10.63,11.29,12,9.48,10.23A2.5,2.5,0,1,1,11.07,7.9a2.31,2.31,0,0,1-.18.91ZM9.07,7.9a.5.5,0,0,0-.5-.5.51.51,0,0,0-.5.5.5.5,0,0,0,.5.5A.5.5,0,0,0,9.07,7.9ZM35,24a1,1,0,1,0,1,1,1,1,0,0,0-1-1m0-1.33A2.33,2.33,0,1,1,32.67,25,2.33,2.33,0,0,1,35,22.67ZM41.58,25a6.57,6.57,0,0,1-1.92,4.66c-1.09,1.08-3.77,3.34-4.07,3.59l-.59.5-.59-.49c-.3-.26-3-2.52-4.07-3.6A6.59,6.59,0,1,1,41.58,25Zm-9.94-3.36a4.76,4.76,0,0,0,0,6.72c.77.77,2.5,2.26,3.36,3,.86-.73,2.59-2.22,3.36-3a4.75,4.75,0,0,0-6.72-6.72Z"/><path class="cls-2" d="M0,0H48V48H0Z"/></g></g></g></g></svg>