<svg xmlns="http://www.w3.org/2000/svg" viewBox="0 0 96 96"><defs><style>.cls-1{fill:none;}.cls-2{fill:#fff;}</style></defs><title>Developer_Icons_96x96px_AllWhite_Fleet_Telematics_Easy_data_upload</title><g id="Layer_2" data-name="Layer 2"><g id="Fleet_Telematics" data-name="Fleet Telematics"><g id="Developer_Icons_96x96px_AllWhite_Fleet_Telematics_Easy_data_upload"><path class="cls-1" d="M96,0H0V96H96V0Z"/><path class="cls-2" d="M72.91,61h-5V59h5a11,11,0,0,0,0-22,10.79,10.79,0,0,0-2.78.37l-1.21.32,0-1.26a20,20,0,0,0-37.14-9.64l-.36.59-.68-.12A15.42,15.42,0,0,0,27.91,27a16,16,0,0,0,0,32h3v2h-3a18,18,0,0,1,0-36,17.74,17.74,0,0,1,2.47.18A22.09,22.09,0,0,1,48.91,15a21.86,21.86,0,0,1,21.9,20.18,12.59,12.59,0,0,1,2.1-.18,13,13,0,0,1,0,26ZM48.62,67.71l-9.71,9.7-9.71-9.7,1.42-1.42,7.29,7.3V48h2V73.59l7.29-7.3Zm9.29-27.12-9.71,9.7,1.42,1.42,7.29-7.3V70h2V44.41l7.29,7.3,1.42-1.42Z"/></g></g></g></svg>