<svg xmlns="http://www.w3.org/2000/svg" viewBox="0 0 96 96"><defs><style>.cls-1,.cls-2{fill:#fff;}.cls-1{opacity:0;}</style></defs><title>Developer_Icons_96x96px_AllWhite_Fleet_Telematics_Advanced_Data_Sets</title><g id="Layer_2" data-name="Layer 2"><g id="Fleet_Telematics" data-name="Fleet Telematics"><g id="Developer_Icons_96x96px_AllWhite_Fleet_Telematics_Advanced_Data_Sets"><rect class="cls-1" width="96" height="96"/><path class="cls-2" d="M70,65.45,78,63V60.91l-8,2.44Zm0-13.09,8-2.45V47.82l-8,2.45Zm-13,4,8-2.45V51.79l-8,2.45ZM70,37.18v2.09l8-2.45V34.73ZM57,69.42,65,67V64.88l-8,2.45Zm0-26.18,8-2.44V38.71l-8,2.44ZM89,72,48,85.05,7,72v-2.1L48,83l41-13.1ZM45,29.36v46l2,.65V30.84l37-11.3V17.45ZM12,64.81V17.92L49,6.61V4.52L10,16.44V64.17ZM66,11,27,22.9V69.62l2,.65V24.38l37-11.3Z"/></g></g></g></svg>