<svg xmlns="http://www.w3.org/2000/svg" viewBox="0 0 96 96"><defs><style>.cls-1,.cls-2{fill:#fff;}.cls-1{opacity:0;}</style></defs><title>Here.com_icons_Tracking_Fully_featured_solution (4)</title><g id="Layer_2" data-name="Layer 2"><g id="Tracking"><g id="Here.com_icons_Tracking_Fully_featured_solution"><g id="Here.com_icons_96x96px_AllWhite_Tracking_Fully_featured_solution"><rect id="_Path_" data-name="&lt;Path&gt;" class="cls-1" width="96" height="96"/><path class="cls-2" d="M85.18,61.87,72.91,55.06l12.24-6.94L59.46,39.91,48,46.53,36.54,39.91,10.85,48.12l12.24,6.94L10.82,61.87,24,66.08v19.3l24,7.67,24-7.67V66.08Zm-25.49,6L50.47,62.7l20.29-6.55,9.41,5.22ZM28.39,55.07,48,48.74l19.61,6.33L48,61.39Zm31.3-13,20.5,6.54L70.76,54,50.45,47.43Zm-23.38,0,9.24,5.34L25.24,54l-9.43-5.35ZM25.24,56.15,45.53,62.7l-9.22,5.21L15.83,61.37ZM26,66.72l10.54,3.37L47,64.16V90.63L26,83.92Zm44,17.2L49,90.63V64.16l10.46,5.93L70,66.72ZM43.84,32.25l.9-1.57-2.07-3A9,9,0,0,0,43,25.5a9.17,9.17,0,0,0-.29-2.24l2-3.05-.93-1.55-3.6.35a9,9,0,0,0-3.9-2.2L35,14.24V14h-.12l-.23-.45-1.81,0-1.45,3.29A9,9,0,0,0,27.73,19l-3.66-.27-.89,1.57,2.07,3A9,9,0,0,0,25,25.5a9.17,9.17,0,0,0,.29,2.24l-2,3.05.93,1.55,3.6-.35a9,9,0,0,0,3.9,2.2L33,36.76V37h.12l.23.45,1.81-.05,1.45-3.29A9,9,0,0,0,40.19,32ZM27,25.5a7,7,0,1,1,7,7A7,7,0,0,1,27,25.5Zm42.87-7.73,2.81-2.36-.73-1.76L68.26,14a11,11,0,0,0-3.16-3.15l.32-3.66-1.76-.73L61.3,9.23a10.86,10.86,0,0,0-4.47,0L54.47,6.42l-1.76.73L53,10.81A10.9,10.9,0,0,0,49.87,14l-3.65-.31-.73,1.76,2.81,2.36a11,11,0,0,0,0,4.46l-2.81,2.36.73,1.76L49.88,26A10.87,10.87,0,0,0,53,29.19l-.32,3.66,1.76.73,2.36-2.81a11,11,0,0,0,4.47,0l2.36,2.81,1.76-.73-.32-3.66A10.9,10.9,0,0,0,68.26,26l3.65.31.73-1.76-2.81-2.36A11,11,0,0,0,69.83,17.77ZM62.51,28.31a9,9,0,1,1-6.89-16.62A9.08,9.08,0,0,1,59.07,11a9,9,0,0,1,3.44,17.31Z"/></g></g></g></g></svg>