<svg xmlns="http://www.w3.org/2000/svg" viewBox="0 0 72 72"><defs><style>.cls-1{fill:#fff;}.cls-2{fill:none;}</style></defs><title>Here.com_Icons_Indoor_Positioning_Flexible_tools (8)</title><g id="Layer_2" data-name="Layer 2"><g id="Indoor_Positioning" data-name="Indoor Positioning"><g id="Here.com_Icons_Indoor_Positioning_Flexible_tools"><g id="Here.com_Icons_72x72px_AllWhite_Indoor_Positioning_Flexible_tools"><path class="cls-1" d="M69,24l-6.16,5.73-1-1,4-3.7H48.43l-8,8.34-1.39-1.45L47.57,23h18.3l-4-3.7,1-1ZM24.43,50H6.13l4,3.7-.95,1L3,49l6.16-5.72.95,1-4,3.7H23.57l8-8.33,1.39,1.44Zm38.41-6.72-1,1,4,3.7H48.43l-24-25H6.13l4-3.7-.95-1L3,24l6.16,5.73.95-1-4-3.7H23.57l24,25h18.3l-4,3.7,1,1L69,49Z"/><path class="cls-2" d="M72,72H0V0H72Z"/></g></g></g></g></svg>