<svg xmlns="http://www.w3.org/2000/svg" viewBox="0 0 72 72"><defs><style>.cls-1{fill:#fff;}.cls-2{fill:none;}</style></defs><title>Here.com_icons_Tracking_Easy_integration (4)</title><g id="Layer_2" data-name="Layer 2"><g id="Tracking"><g id="Here.com_icons_Tracking_Easy_integration"><g id="Here.com_Icons_72x72px_AllWhite_Tracking_Easy_integration"><path class="cls-1" d="M57.62,30.34a7.38,7.38,0,0,0-.82,0A19,19,0,0,0,37.73,13.13,19.25,19.25,0,0,0,21.55,22a16.24,16.24,0,0,0-2.85-.26,15.63,15.63,0,0,0-2.75,31A17,17,0,0,0,18.7,53h7.46l1.1-2H18.7a15,15,0,0,1-2.42-.21,13.63,13.63,0,0,1,2.42-27,14.49,14.49,0,0,1,3.12.35l.72.16.36-.63a17.18,17.18,0,0,1,32,7.92l0,1.15,1.13-.21a9.08,9.08,0,0,1,1.57-.14,9.33,9.33,0,1,1,0,18.66H53.84l-1.1,2h4.88a11.33,11.33,0,1,0,0-22.66Zm-8.19,25a10,10,0,0,1-18.87,0l-2,3.6-1-.58,2.6-4.72.09-.17L31,52l6,3.92-.66,1-4-2.63a8,8,0,0,0,15.21.37Zm2-10.22-2,3.6a10,10,0,0,0-18.88,0l1.88.65a8,8,0,0,1,15.22.34l-4-2.63-.66,1L49,52l.78-1.42.09-.17,2.6-4.72Z"/><rect id="_Path_" data-name="&lt;Path&gt;" class="cls-2" width="72" height="72"/></g></g></g></g></svg>