<svg version="1.1" id="Ebene_1" xmlns="http://www.w3.org/2000/svg" x="0" y="0" viewBox="0 0 72 72" xml:space="preserve" enable-background="new 0 0 48 48" height="72" width="72" data-color="color-2"><title>Observation sensor 72px</title><g class="nc-icon-wrapper" stroke-width="2" fill="#00afaa" stroke="#00afaa"><path class="st0" d="M43.5 49.5h-15c-0.83 0-1.5 0.68-1.5 1.5v15c0 0.83 0.68 1.5 1.5 1.5h15c0.83 0 1.5-0.68 1.5-1.5v-15c0-0.83-0.68-1.5-1.5-1.5z m-7.5-7.5v6m0-18c3.31 0 6 2.69 6 6s-2.69 6-6 6-6-2.69-6-6 2.69-6 6-6z" fill="none" stroke="#0f1621" stroke-linecap="square" stroke-miterlimit="10"/><path class="st1" d="M58.5 15c-5.69-6.5-13.92-10.5-22.5-10.5s-16.82 4-22.5 10.5m39 6c-4.28-4.65-10.1-7.5-16.5-7.5s-12.23 2.85-16.5 7.5m27 6c-2.73-2.79-6.42-4.5-10.5-4.5s-7.77 1.71-10.5 4.5" fill="none" stroke-linecap="square" stroke-miterlimit="10" data-color="color-2"/></g></svg>