<svg version="1.1" id="Ebene_1" xmlns="http://www.w3.org/2000/svg" x="0" y="0" viewBox="0 0 72 72" xml:space="preserve" enable-background="new 0 0 48 48" height="72" width="72" data-color="color-2"><title>Satellite 72px</title><g class="nc-icon-wrapper" stroke-width="2" fill="#00afaa" stroke="#00afaa"><path class="st0" d="M4.5 58.5l18-18 9 9-18 18-9-9z m36-36l18-18 9 9-18 18-9-9z m-13.2 4.35l-0.6 0.6c-1.8 1.8-1.8 4.65 0 6.3l9.45 9.45 6.9-6.9-9.45-9.45c-1.65-1.8-4.5-1.8-6.3 0z m11.7 4.65l4.5-4.5m-12 12l-4.5 4.5m16.5 0l3 3" fill="none" stroke="#0f1621" stroke-linecap="square" stroke-miterlimit="9.9999"/><path class="st1" d="M48.75 59.25c6 0 10.5-4.5 10.5-10.5m-10.5 6c3 0 6-3 6-6" fill="none" stroke-linecap="square" stroke-miterlimit="10" data-color="color-2"/></g></svg>