<svg xmlns="http://www.w3.org/2000/svg" viewBox="0 0 96 96"><defs><style>.cls-1{fill:#0f1621;}.cls-2{fill:#00afaa;}.cls-3{fill:none;}</style></defs><title>HERE_Icons_96x96px_GreyandAqua_Currency_Dollar</title><g id="Layer_2" data-name="Layer 2"><g id="HERE_Icons_Currency_Dollar"><g id="HERE_Icons_96x96px_GreyandAqua_Currency_Dollar"><path class="cls-1" d="M26.91,72.73C32.16,77.5,37.53,80,44,80.5v2c-7-.55-12.78-3.18-18.43-8.3ZM52,45.75v2.13c10.58,3.79,14.09,8,14.09,16.16,0,8.52-5.38,14.49-14.09,16.13v2c9.81-1.74,16.09-8.6,16.09-18.15C68.09,53.76,62.46,49.36,52,45.75ZM29.39,28.93c0,8.77,5.11,12.88,14.61,16.3V43.09c-9.43-3.54-12.61-7.33-12.61-14.16S36.32,17,44,15.69v-2C35.23,15,29.39,20.92,29.39,28.93ZM52,13.6v2c5,.65,9.11,2.68,13.61,6.63l1.32-1.5C62.08,16.5,57.54,14.28,52,13.6Z"/><path class="cls-2" d="M49,92H47V4h2Z"/><rect id="_Path_" data-name="&lt;Path&gt;" class="cls-3" width="96" height="96"/></g></g></g></svg>