<svg xmlns="http://www.w3.org/2000/svg" viewBox="0 0 96 96"><defs><style>.cls-1{fill:#00afaa;}.cls-2{fill:#0f1621;}.cls-3{fill:none;}</style></defs><title>HERE_Icons_96x96px_GreyandAqua_Collections</title><g id="Layer_2" data-name="Layer 2"><g id="HERE_Icons_Collections"><g id="HERE_Icons_96x96px_GreyandAqua_Collections"><path class="cls-1" d="M57.16,69.9,57,69.79l-.75.55L55.4,71l2,6-5.11-3.71-1.7,1.24L61.15,82.2ZM20.59,77l7-21.61L9.23,42h9.52l-1.37-1L16,40H3.07L25.26,56.12,16.78,82.2,36.25,68.05l.53-1.62.52-1.61ZM39,13.92,31.47,37h2.1L39,20.39,44.37,37h2l.06-.19Z"/><path class="cls-2" d="M79.18,82.2,57,66.08,34.81,82.2l8.48-26.08L21.1,40H48.52L57,13.92,65.47,40H92.89L70.71,56.12ZM57,63.61,75.38,77l-7-21.61L86.74,42H64L57,20.39,50,42H27.26L45.64,55.35,38.62,77Z"/><rect id="_Path_" data-name="&lt;Path&gt;" class="cls-3" width="96" height="96"/></g></g></g></svg>