<svg xmlns="http://www.w3.org/2000/svg" viewBox="0 0 96 96"><defs><style>.cls-1{fill:#00afaa;}.cls-2{fill:#0f1621;}.cls-3{fill:none;}</style></defs><title>HERE_Icons_96x96px_GreyandAqua_Analytics</title><g id="Layer_2" data-name="Layer 2"><g id="HERE_Icons_Analytics"><g id="HERE_Icons_96x96px_GreyandAqua_Analytics"><path class="cls-1" d="M81,12v8.77L77,24.9c.28.68.54,1.36.78,2.06l4.76-5H91V12Zm8,8H83V14h6ZM64.46,38H57.2L45,30.79V23H35v8.8L22.54,42H13V52H23V44.2L36.69,33H44.8L57,40.21V48H67V38.23l4.37-4.55c-.15-.78-.34-1.54-.55-2.3ZM21,50H15V44h6ZM43,31H37V25h6ZM65,46H59V40h6Z"/><path class="cls-2" d="M66.85,65.43a37,37,0,1,0-1.42,1.42L91.29,92.71l1.42-1.42ZM40,75A35,35,0,1,1,75,40,35,35,0,0,1,40,75Z"/><rect id="_Path_" data-name="&lt;Path&gt;" class="cls-3" width="96" height="96"/></g></g></g></svg>