<svg xmlns="http://www.w3.org/2000/svg" viewBox="0 0 72 72"><defs><style>.cls-1{fill:#00afaa;}.cls-2{fill:#0f1621;}.cls-3{fill:none;}</style></defs><title>Developer_Icons_Venues_Fast_and_easy</title><g id="Layer_2" data-name="Layer 2"><g id="Venues"><g id="Developer_Icons_Venues_Fast_and_easy"><g id="Developer_icons_72x72px_GreyandAqua_Venues_Fast_and_easy"><path class="cls-1" d="M32,3a16,16,0,0,0-6,30.83V31.65A14,14,0,1,1,46,19a13.87,13.87,0,0,1-2,7.22l1.75,1A16,16,0,0,0,32,3Z"/><path class="cls-2" d="M58,37.5v14a48,48,0,0,1-3.06,16.89l-1.88-.7A45.93,45.93,0,0,0,56,51.46v-14a2.5,2.5,0,0,0-5,0V44H49V33.5a2.5,2.5,0,0,0-5,0V42H42V31.5a2.5,2.5,0,0,0-5,0V40H35V20.5a2.5,2.5,0,0,0-5,0V47.92a2,2,0,0,1-3.62,1.18l-3.44-4.73a6,6,0,0,0-7.27-2,.32.32,0,0,0-.14.15.23.23,0,0,0,0,.21l7.66,13.84c1.43,2.59,5.29,8.77,10.19,10.28l-.59,1.91C27.41,67.1,23.38,61,21.46,57.54L13.8,43.7a2.23,2.23,0,0,1-.16-1.82,2.25,2.25,0,0,1,1.25-1.35,8,8,0,0,1,9.67,2.67L28,47.92V20.5a4.5,4.5,0,0,1,9,0v7.26A4.5,4.5,0,0,1,43.73,30a4.4,4.4,0,0,1,2.77-1A4.51,4.51,0,0,1,51,33.5v.26a4.5,4.5,0,0,1,7,3.74Z"/><rect class="cls-3" width="72" height="72"/></g></g></g></g></svg>