<svg xmlns="http://www.w3.org/2000/svg" viewBox="0 0 96 96"><defs><style>.cls-1{fill:#fff;}.cls-2{fill:none;}</style></defs><title>Developer_icons_XYZ_Built_on_open_source (4)</title><g id="Layer_2" data-name="Layer 2"><g id="XYZ"><g id="Developer_icons_XYZ_Built_on_open_source"><g id="Developer_Icons_96x96px_AllWhite_XYZ_Built_on_open_source"><path class="cls-1" d="M48,64l-.64-.54c-.24-.19-5.69-4.79-7.85-6.94a12,12,0,0,1,17-17h0a12,12,0,0,1,0,17c-2.16,2.15-7.61,6.75-7.85,6.94Zm0-26a10,10,0,0,0-7.07,17.07c1.67,1.67,5.53,5,7.07,6.29,1.54-1.31,5.4-4.62,7.07-6.29A10,10,0,0,0,48,38Zm0,7a3,3,0,1,1-3,3,3,3,0,0,1,3-3m0-2a5,5,0,1,0,5,5,5,5,0,0,0-5-5Zm41,4H85A37,37,0,0,0,49,11V7H47v4A37,37,0,0,0,11,47H7v2h4A37,37,0,0,0,47,85v4h2V85A37,37,0,0,0,85,49h4ZM48,83A35,35,0,1,1,83,48,35,35,0,0,1,48,83Zm1-59V21H47v3A24,24,0,0,0,24,47H21v2h3A24,24,0,0,0,47,72v3h2V72A24,24,0,0,0,72,49h3.36V47H72A24,24,0,0,0,49,24ZM48,70A22,22,0,1,1,70,48,22,22,0,0,1,48,70Z"/><rect id="_Path_" data-name="&lt;Path&gt;" class="cls-2" width="96" height="96"/></g></g></g></g></svg>