<svg xmlns="http://www.w3.org/2000/svg" viewBox="0 0 48 48"><defs><style>.cls-1{fill:#0f1621;}.cls-2{fill:#00afaa;}.cls-3{fill:none;}</style></defs><title>HERE_Icons_48x48px_GreyandAqua_Car_with_WiFi</title><g id="Layer_2" data-name="Layer 2"><g id="HERE_Icons_Car_with_WiFi"><g id="HERE_Icons_48x48px_GreyandAqua_Car_with_WiFi"><path class="cls-1" d="M35.18,35,24,37,12.82,35l.36-2L24,35l10.82-2ZM46,33H43.92A6.77,6.77,0,0,1,44,34v7a5,5,0,0,1-5,5H36.93l-3-3H14.07l-3,3H9a5,5,0,0,1-5-5V34a6.77,6.77,0,0,1,.08-1H2V31H4.69a6.87,6.87,0,0,1,1-1.56l5.38-6.6A5,5,0,0,1,15,21h5.16a3.91,3.91,0,0,0,0,2H15a3,3,0,0,0-2.33,1.1l-5.4,6.63A5,5,0,0,0,6,34v7a3,3,0,0,0,3,3h1.24l3-3H34.76l3,3H39a3,3,0,0,0,3-3V34a5,5,0,0,0-1.22-3.26L35.36,24.1A3,3,0,0,0,33,23H27.87a3.91,3.91,0,0,0,0-2H33a5,5,0,0,1,3.88,1.84l5.4,6.63a6.72,6.72,0,0,1,1,1.53H46Z"/><path class="cls-2" d="M24,3A20,20,0,0,0,8.59,10.25l1.57,1.27a17.95,17.95,0,0,1,27.68,0l1.57-1.27A20,20,0,0,0,24,3Zm0,6a14,14,0,0,0-10.73,5l1.55,1.26a12,12,0,0,1,18.36,0L34.73,14A14,14,0,0,0,24,9Zm0,6a8,8,0,0,0-6.06,2.79L19.5,19a6,6,0,0,1,9,0l1.56-1.25A8,8,0,0,0,24,15Zm1.5,7A1.5,1.5,0,1,1,24,20.5,1.5,1.5,0,0,1,25.5,22Z"/><rect id="_Path_" data-name="&lt;Path&gt;" class="cls-3" width="48" height="48"/></g></g></g></svg>