<svg xmlns="http://www.w3.org/2000/svg" viewBox="0 0 48 48"><defs><style>.cls-1{fill:#00afaa;}.cls-2{fill:#0f1621;}.cls-3{fill:none;}</style></defs><title>HERE_Icons_48x48px_GreyandAqua_Maps</title><g id="Layer_2" data-name="Layer 2"><g id="HERE_Icons_Maps"><g id="HERE_Icons_48x48px_GreyandAqua_Maps"><path class="cls-1" d="M31,39.32l-.65-.56c-.17-.15-4.15-3.56-5.72-5.16a9.26,9.26,0,0,1,0-12.92,8.91,8.91,0,0,1,12.74,0,9.26,9.26,0,0,1,0,12.92c-1.57,1.6-5.55,5-5.72,5.16ZM31,20a6.85,6.85,0,0,0-4.94,2.09,7.24,7.24,0,0,0,0,10.11c1.14,1.16,3.73,3.43,4.94,4.48,1.21-1,3.8-3.32,4.94-4.48a7.24,7.24,0,0,0,0-10.11A6.85,6.85,0,0,0,31,20Zm0,11a4,4,0,1,1,4-4A4,4,0,0,1,31,31Zm0-6a2,2,0,1,0,2,2A2,2,0,0,0,31,25Z"/><path class="cls-2" d="M42,5H6A4,4,0,0,0,2,9V39a4,4,0,0,0,4,4H42a4,4,0,0,0,4-4V9A4,4,0,0,0,42,5ZM30.59,7,14,23.58,9.42,19l12-12ZM4,9A2,2,0,0,1,6,7H18.58L8,17.58l-4-4Zm0,7.42L12.58,25,8.5,29.08,4,24.58Zm0,11L7.08,30.5,4,33.58ZM6,41a2,2,0,0,1-2-2V36.42l4.5-4.5L17.58,41Zm38-2a2,2,0,0,1-2,2H20.42L9.92,30.5,33,7.41l11,11Zm0-23.42L35.41,7H42a2,2,0,0,1,2,2Z"/><rect id="_Path_" data-name="&lt;Path&gt;" class="cls-3" width="48" height="48"/></g></g></g></svg>