<svg xmlns="http://www.w3.org/2000/svg" viewBox="0 0 96 96"><defs><style>.cls-1{fill:#fff;}.cls-2{fill:none;}</style></defs><title>Here.com_icons_XYZ_Highly_accurate_here_maps (10)</title><g id="Layer_2" data-name="Layer 2"><g id="XYZ"><g id="Here.com_icons_XYZ_Highly_accurate_here_maps"><g id="Here.com_Icons_96x96px_AllWhite_XYZ_Highly_accurate_maps"><path class="cls-1" d="M77.22,28h-2.5A39,39,0,1,1,68,21.28v-2.5A41,41,0,1,0,77.22,28ZM54.08,47.58l-1.55,1.56A8.75,8.75,0,0,1,53,52a9,9,0,1,1-9-9,8.82,8.82,0,0,1,2.87.48l1.55-1.56a11,11,0,1,0,5.66,5.66ZM65,36.67l-1.44,1.44A23.74,23.74,0,0,1,68,52,24,24,0,1,1,44,28a23.74,23.74,0,0,1,13.89,4.45L59.33,31A26,26,0,1,0,65,36.67ZM83,13V1.59l-11,11v10L43.29,51.29l1.42,1.42L73.42,24h10l11-11Zm-.41,9H74V13.41l7-7V15h8.59Z"/><path class="cls-2" d="M0,0H96V96H0Z"/></g></g></g></g></svg>