<svg xmlns="http://www.w3.org/2000/svg" viewBox="0 0 48 48"><defs><style>.cls-1{fill:#00afaa;}.cls-2{fill:#0f1621;}.cls-3{fill:none;}</style></defs><title>HERE_Icons_48x48px_GreyandAqua_Analytics</title><g id="Layer_2" data-name="Layer 2"><g id="HERE_Icons_Analytics"><g id="HERE_Icons_48x48px_GreyandAqua_Analytics"><path class="cls-1" d="M40,6v4.41L38.31,12a19.57,19.57,0,0,1,.77,2l2.14-2H46V6Zm4,4H42V8h2ZM31.77,18H27.45L23,14.88V11H17v4.33L12.87,19H8v6h6V20.67L18.12,17h4.42L27,20.12V24h6V19.59l.94-.87a12.88,12.88,0,0,0-.42-2.34ZM12,23H10V21h2Zm9-8H19V13h2Zm10,7H29V20h2Z"/><path class="cls-2" d="M33.41,32A18,18,0,1,0,32,33.41l12.3,12.3,1.42-1.42ZM4,20A16,16,0,1,1,20,36,16,16,0,0,1,4,20Z"/><rect id="_Path_" data-name="&lt;Path&gt;" class="cls-3" width="48" height="48"/></g></g></g></svg>