<?xml version="1.0" encoding="UTF-8"?>
<svg xmlns="http://www.w3.org/2000/svg" xmlns:xlink="http://www.w3.org/1999/xlink" width="96pt" height="96pt" viewBox="0 0 96 96" version="1.1">
<g id="surface1">
<path style=" stroke:none;fill-rule:nonzero;fill:rgb(100%,100%,100%);fill-opacity:1;" d="M 86.667969 13.332031 L 9.332031 13.332031 C 6.386719 13.332031 4 15.722656 4 18.667969 L 4 78.667969 C 4 81.613281 6.386719 84 9.332031 84 L 86.667969 84 C 89.613281 84 92 81.613281 92 78.667969 L 92 18.667969 C 92 15.722656 89.613281 13.332031 86.667969 13.332031 Z M 6.667969 27.226562 L 28.773438 49.332031 L 18.667969 59.441406 L 6.667969 47.441406 Z M 6.667969 51.226562 L 16.773438 61.332031 L 6.667969 71.441406 Z M 89.332031 47.441406 L 81.011719 55.761719 C 81.757812 56.265625 82.402344 56.90625 82.90625 57.652344 L 89.332031 51.226562 L 89.332031 78.667969 C 89.332031 80.140625 88.140625 81.332031 86.667969 81.332031 L 59.226562 81.332031 L 73.652344 66.90625 C 72.90625 66.402344 72.265625 65.757812 71.761719 65.011719 L 55.441406 81.332031 L 40.558594 81.332031 L 34.90625 75.679688 C 34.402344 76.425781 33.757812 77.066406 33.011719 77.574219 L 36.773438 81.332031 L 9.332031 81.332031 C 7.859375 81.332031 6.667969 80.140625 6.667969 78.667969 L 6.667969 75.226562 L 18.667969 63.226562 L 23.761719 68.320312 C 24.265625 67.574219 24.90625 66.933594 25.652344 66.425781 L 20.558594 61.332031 L 34.988281 46.90625 C 34.242188 46.402344 33.597656 45.757812 33.09375 45.011719 L 30.667969 47.441406 L 18.558594 35.332031 L 22.988281 30.90625 C 22.242188 30.402344 21.597656 29.757812 21.09375 29.011719 L 16.667969 33.441406 L 6.667969 23.441406 L 6.667969 18.667969 C 6.667969 17.195312 7.859375 16 9.332031 16 L 34.105469 16 L 30.347656 19.761719 C 31.09375 20.265625 31.734375 20.90625 32.238281 21.652344 L 37.894531 16 L 62.121094 16 L 42.347656 35.773438 C 43.09375 36.269531 43.738281 36.910156 44.238281 37.652344 L 46.667969 35.226562 L 70.921875 59.480469 C 71.183594 58.578125 71.636719 57.738281 72.253906 57.027344 L 48.558594 33.332031 L 65.332031 16.546875 L 89.332031 40.546875 Z M 89.332031 36.773438 L 68.546875 16 L 86.667969 16 C 88.140625 16 89.332031 17.195312 89.332031 18.667969 Z M 65.332031 45.878906 L 52.785156 33.332031 L 65.332031 20.785156 L 77.878906 33.332031 Z M 56.546875 33.332031 L 65.332031 42.121094 L 74.121094 33.332031 L 65.332031 24.546875 Z M 56 48.785156 L 43.453125 61.332031 L 47.453125 65.332031 L 38.121094 74.667969 L 42.121094 78.667969 L 45.878906 78.667969 L 41.878906 74.667969 L 51.214844 65.332031 L 47.214844 61.332031 L 56 52.546875 L 66.121094 62.667969 L 50.121094 78.667969 L 53.878906 78.667969 L 69.878906 62.667969 Z M 29.238281 24.652344 C 28.996094 23.726562 28.273438 23.003906 27.347656 22.761719 C 27.125 22.695312 26.898438 22.664062 26.667969 22.667969 C 25.195312 22.667969 24 23.859375 24 25.332031 C 23.996094 25.5625 24.027344 25.792969 24.09375 26.011719 C 24.339844 26.9375 25.0625 27.660156 25.988281 27.90625 C 26.207031 27.972656 26.4375 28.003906 26.667969 28 C 28.140625 28 29.332031 26.804688 29.332031 25.332031 C 29.335938 25.101562 29.304688 24.875 29.238281 24.652344 Z M 29.332031 69.332031 C 29.101562 69.328125 28.875 69.359375 28.652344 69.425781 C 27.726562 69.671875 27.003906 70.394531 26.761719 71.320312 C 26.695312 71.539062 26.664062 71.769531 26.667969 72 C 26.667969 73.472656 27.859375 74.667969 29.332031 74.667969 C 29.5625 74.671875 29.792969 74.640625 30.011719 74.574219 C 30.9375 74.328125 31.660156 73.605469 31.90625 72.679688 C 31.972656 72.460938 32.003906 72.230469 32 72 C 32 70.527344 30.804688 69.332031 29.332031 69.332031 Z M 41.238281 40.652344 C 40.996094 39.726562 40.273438 39.003906 39.347656 38.761719 C 39.125 38.695312 38.898438 38.664062 38.667969 38.667969 C 37.195312 38.667969 36 39.859375 36 41.332031 C 35.996094 41.5625 36.027344 41.792969 36.09375 42.011719 C 36.339844 42.9375 37.0625 43.660156 37.988281 43.90625 C 38.207031 43.972656 38.4375 44.003906 38.667969 44 C 40.140625 44 41.332031 42.804688 41.332031 41.332031 C 41.335938 41.101562 41.304688 40.875 41.238281 40.652344 Z M 79.90625 60.652344 C 79.660156 59.726562 78.9375 59.003906 78.011719 58.761719 C 77.792969 58.695312 77.5625 58.664062 77.332031 58.667969 C 75.859375 58.667969 74.667969 59.859375 74.667969 61.332031 C 74.664062 61.5625 74.695312 61.792969 74.761719 62.011719 C 75.003906 62.9375 75.726562 63.660156 76.652344 63.90625 C 76.875 63.972656 77.101562 64.003906 77.332031 64 C 78.804688 64 80 62.804688 80 61.332031 C 80.003906 61.101562 79.972656 60.875 79.90625 60.652344 Z M 79.90625 60.652344 "/>
</g>
</svg>
