<?xml version="1.0" encoding="utf-8"?>
<!-- Generator: Adobe Illustrator 22.1.0, SVG Export Plug-In . SVG Version: 6.00 Build 0)  -->
<svg version="1.1" id="lui-icon-truck-ondark-outline-large"
	 xmlns="http://www.w3.org/2000/svg" xmlns:xlink="http://www.w3.org/1999/xlink" x="0px" y="0px" viewBox="0 0 48 48"
	 enable-background="new 0 0 48 48" xml:space="preserve">
<g>
	<g id="lui-icon-truck-ondark-outline-large-bounding-box" opacity="0">
		<path fill="#0f1621" d="M47,1v46H1V1H47 M48,0H0v48h48V0L48,0z"/>
	</g>
	<g>
		<path fill="none" stroke="#0f1621" stroke-width="2" stroke-miterlimit="10" d="M5,33V6c0-1.1,0.9-2,2-2h34c1.1,0,2,0.9,2,2v27"/>
	</g>
	<path fill="none" stroke="#000000" stroke-width="2" stroke-miterlimit="10" d="M35.5789,14.2632"/>
	<path fill="none" stroke="#000000" stroke-width="2" stroke-miterlimit="10" d="M11.4211,14.2632"/>
	<line fill="none" stroke="#0f1621" stroke-width="2" stroke-miterlimit="10" x1="13" y1="35" x2="22" y2="35"/>
	<line fill="none" stroke="#0f1621" stroke-width="2" stroke-miterlimit="10" x1="26" y1="35" x2="35" y2="35"/>
	<line fill="none" stroke="#00b6b2" stroke-width="2" stroke-miterlimit="10" x1="13" y1="20" x2="35" y2="20"/>
	<g>
		<path fill="#0f1621" d="M37.8999,14v27.46c0,1.4006-1.1396,2.54-2.54,2.54H32v-1v-2h-2H18h-2v2v1h-3.46
			C11.1396,44,10,42.8605,10,41.46V14H37.8999 M37.8999,12H10c-1.1001,0-2,0.9-2,2v27.46c0,2.5,2.04,4.54,4.54,4.54H18v-3h12v3
			h5.3599c2.5,0,4.54-2.04,4.54-4.54V14C39.8999,12.9,39,12,37.8999,12L37.8999,12z"/>
	</g>
</g>
</svg>
