<svg xmlns="http://www.w3.org/2000/svg" viewBox="0 0 96 96"><defs><style>.cls-1{fill:#0f1621;}.cls-2{fill:#00afaa;}.cls-3{fill:none;}</style></defs><title>HERE_Icons_96x96px_GreyandAqua_Ground_Transport</title><g id="Layer_2" data-name="Layer 2"><g id="HERE_Icons_Ground_Transport"><g id="HERE_Icons_96x96px_GreyandAqua_Ground_Transport"><path class="cls-1" d="M58,49H47V47H58Zm24-2H71v2H82ZM89,8V56H84v4a3,3,0,0,1-3,3H76a3,3,0,0,1-3-3V56H61.79l-.58-.7A12.09,12.09,0,0,0,59.93,54H75v6a1,1,0,0,0,1,1h5a1,1,0,0,0,1-1V54h5V8a3,3,0,0,0-3-3H45a3,3,0,0,0-3,3V51H40V8a5,5,0,0,1,5-5H84A5,5,0,0,1,89,8Zm4,10H91V36h2ZM38,18H36V36h2ZM74,74H70c0,.16,0,.33,0,.49V86a7,7,0,0,1-7,7H57.53l-5-6H24.16l-4.67,6H14a7,7,0,0,1-7-7V74.49c0-.16,0-.33,0-.49H3V72H7.29a11.05,11.05,0,0,1,2.27-4.57l8.54-10.2A9,9,0,0,1,25,54H52a9,9,0,0,1,6.9,3.23l8.54,10.2A11.05,11.05,0,0,1,69.71,72H74Zm-6,.49a9,9,0,0,0-2.1-5.78l-8.53-10.2A7,7,0,0,0,52,56H25a7,7,0,0,0-5.37,2.51L11.1,68.71A9,9,0,0,0,9,74.49V86a5,5,0,0,0,5,5h4.51l4.67-6H53.47l5,6H63a5,5,0,0,0,5-5Z"/><path class="cls-2" d="M82,15H47V13H82ZM55.18,75l-.36-2L39,76,23.18,73l-.36,2L39,78Z"/><rect id="_Path_" data-name="&lt;Path&gt;" class="cls-3" width="96" height="96"/></g></g></g></svg>