<svg xmlns="http://www.w3.org/2000/svg" viewBox="0 0 72 72"><defs><style>.cls-1{fill:#fff;opacity:0;}.cls-2{fill:#00b6b2;}.cls-3{fill:#0f1621;}</style></defs><title>lui-icon-fleetconnectivity-onlight-outline-xlarge</title><g id="Layer_2" data-name="Layer 2"><g id="lui-icon-fleetconnectivity-onlight-outline-xlarge"><rect class="cls-1" width="72" height="72"/><path class="cls-2" d="M29.2,53.82l-9.77-9.77H39Zm-4.94-7.77L29.2,51l4.94-4.94Z"/><path class="cls-3" d="M21,41H7a4,4,0,0,1-4-4V9A4,4,0,0,1,7,5H21a4,4,0,0,1,4,4V37A4,4,0,0,1,21,41ZM7,7A2,2,0,0,0,5,9V37a2,2,0,0,0,2,2H21a2,2,0,0,0,2-2V9a2,2,0,0,0-2-2Z"/><path class="cls-3" d="M24,60a4,4,0,1,0,4,4A4,4,0,0,0,24,60Zm0,6a2,2,0,1,1,2-2A2,2,0,0,1,24,66ZM66,26.07l-4.18-3.49-5.16-7.36A2.86,2.86,0,0,0,54.29,14H48V9H27v2H46l0,11h2V16h6.3a.87.87,0,0,1,.71.37l5.22,7.46,4.47,3.77a.86.86,0,0,1,.31.66v3.88a.87.87,0,0,1-.86.86H61l1.4,2h1.72A2.86,2.86,0,0,0,67,32.14V28.26A2.85,2.85,0,0,0,66,26.07ZM57,60a4,4,0,1,0,4,4A4,4,0,0,0,57,60Zm0,6a2,2,0,1,1,2-2A2,2,0,0,1,57,66Zm4.79-28.42-5.16-7.36A2.86,2.86,0,0,0,54.29,29H48V24H27v2H46l0,11h2V31h6.3a.87.87,0,0,1,.71.37l5.22,7.46,4.47,3.77a.86.86,0,0,1,.31.66v3.88a.87.87,0,0,1-.86.86H61l1.4,2h1.72A2.86,2.86,0,0,0,67,47.14V43.26a2.85,2.85,0,0,0-1-2.19Zm0,15-5.16-7.36A2.86,2.86,0,0,0,54.29,44H48V39H26.65a6.21,6.21,0,0,1-1.19,2H46V56H14V43H12V65h6V63H14V58H46v5H30v2H51V63H48V54H60.42l4.27,3.6a.86.86,0,0,1,.31.66v3.88a.87.87,0,0,1-.86.86H63v2h1.14A2.86,2.86,0,0,0,67,62.14V58.26a2.85,2.85,0,0,0-1-2.19ZM48,52V46h6.3a.87.87,0,0,1,.71.37L58.94,52Z"/><ellipse class="cls-2" cx="14" cy="36.52" rx="1.54" ry="1.55"/><polygon class="cls-2" points="9 14 7 14 7 10 14 10 14 12 9 12 9 14"/></g></g></svg>
