<svg xmlns="http://www.w3.org/2000/svg" viewBox="0 0 216.21 216.2"><defs><style>.cls-1{fill:#48dad0;}.cls-2,.cls-3{fill:none;}.cls-2{stroke:#fff;stroke-linejoin:round;stroke-width:5.08px;}.cls-3{stroke:#00e2da;stroke-miterlimit:10;stroke-width:6.35px;}</style></defs><title>3D-Terrain</title><g id="Layer_2" data-name="Layer 2"><g id="labels"><path class="cls-1" d="M98.16,162l-6.67-3L93,155.66l6.67,3Zm-11.68-5.25-6.67-3,1.49-3.31,6.67,3Zm-11.68-5.25-6.67-3,1.49-3.31,6.67,3Zm-11.68-5.25-6.67-3,1.49-3.31,6.67,3ZM51.45,141l-6.67-3,1.49-3.31,6.67,3Z"/><polygon class="cls-1" points="107.2 166.04 103.17 164.23 104.66 160.92 107.25 162.08 109.87 160.98 111.27 164.33 107.2 166.04"/><path class="cls-1" d="M116.48,162.14l-1.41-3.35,6.95-2.92,1.41,3.35ZM128.64,157l-1.41-3.35,6.95-2.92,1.41,3.35Zm12.16-5.11-1.41-3.35,6.95-2.92,1.41,3.35ZM153,146.82l-1.41-3.35,6.95-2.92,1.41,3.35Zm12.16-5.11-1.41-3.35,6.95-2.92,1.41,3.35Z"/><polyline class="cls-2" points="179.92 119.77 107.22 150.3 37.2 118.81"/><polyline class="cls-2" points="81.48 99.86 37.2 118.46 37.2 145.77 107.22 177.26 179.92 146.74 179.92 119.42"/><path class="cls-2" d="M151.26,131.81,85.05,105.25a5.65,5.65,0,0,1-3.13-7.46l22.54-57.3a3.83,3.83,0,0,1,7.06,0l15.63,37.33,16.49-25,36.27,66.59Z"/><path class="cls-2" d="M92.55,108.21c-2.42,2.28-8.42,6.79-6.08,12.79s9.39,12.24,2.78,21.21"/><polygon class="cls-3" points="176.87 213.02 90.02 213.02 3.17 213.02 3.17 108.09 3.17 3.17 108.11 3.17 213.03 3.17 213.03 90.02 213.03 176.86 194.95 194.94 176.87 213.02"/></g></g></svg>