<svg xmlns="http://www.w3.org/2000/svg" viewBox="0 0 72 72"><defs><style>.cls-1{fill:#fff;}.cls-2{fill:none;}</style></defs><title>Developer_Icons_Routing_Advanced_Routing (11)</title><g id="Layer_2" data-name="Layer 2"><g id="Routing"><g id="Developer_Icons_Routing_Advanced_Routing"><g id="Developer_Icons_72x72px_AllWhite_Routing_Advanced_Routing"><path class="cls-1" d="M47,63H43V61h4Zm22-1a7,7,0,1,0-7,7A7,7,0,0,0,69,62Zm-2,0a5,5,0,1,1-5-5A5,5,0,0,1,67,62Zm-5-2a2,2,0,1,0,2,2A2,2,0,0,0,62,60ZM29,30H27v4h2Zm0,6H27v4h2Zm0,6H27v4h2Zm0,6H27v4h2Zm0,6H27v4h2Zm.94,7H29V60H27v3h2.94ZM35,61H31v2h4Zm6,0H37v2h4Zm12,0H49v2h4ZM23,63H7V31H9V61H23ZM63,13H50v2H61V53h2ZM36.18,17l-.36-2L25,17,14.18,15l-.36,2L25,19ZM47,15H44.92A6.77,6.77,0,0,1,45,16v7a5,5,0,0,1-5,5H37.93l-3-3H15.07l-3,3H10a5,5,0,0,1-5-5V16a6.77,6.77,0,0,1,.08-1H3V13H5.69a6.87,6.87,0,0,1,1-1.56l5.38-6.6A5,5,0,0,1,16,3H34a5,5,0,0,1,3.88,1.84l5.4,6.63a6.72,6.72,0,0,1,1,1.53H47Zm-4,1a5,5,0,0,0-1.22-3.26L36.36,6.1A3,3,0,0,0,34,5H16a3,3,0,0,0-2.33,1.1l-5.4,6.63A5,5,0,0,0,7,16v7a3,3,0,0,0,3,3h1.24l3-3H35.76l3,3H40a3,3,0,0,0,3-3Z"/><path class="cls-2" d="M72,72H0V0H72Z"/></g></g></g></g></svg>