<svg xmlns="http://www.w3.org/2000/svg" viewBox="0 0 96 96"><defs><style>.cls-1{fill:none;}.cls-2{fill:#fff;}</style></defs><title>Developer_icons_Tracking_Global_coverage (7)</title><g id="Layer_2" data-name="Layer 2"><g id="Tracking"><g id="Developer_icons_Tracking_Global_coverage"><g id="Developer_Icons_96x96px_AllWhite_Tracking_Global_coverage"><rect class="cls-1" width="96" height="96"/><path d="M46.5,9l-.5,0V9Z"/><path class="cls-2" d="M73,42A19,19,0,1,1,92,23,19,19,0,0,1,73,42ZM73,6A17,17,0,1,0,90,23,17,17,0,0,0,73,6ZM85.71,17.71l-1.42-1.42L70,30.59l-7.29-7.3-1.42,1.42L70,33.41Zm2.14,21.53a19.47,19.47,0,0,1-1.73,1.42A39.39,39.39,0,0,1,87,48H68c0-1.22,0-2.42-.12-3.61a18.26,18.26,0,0,1-2-.59c.1,1.38.15,2.78.16,4.2H48V33c1.79,0,3.55-.09,5.28-.22a21.26,21.26,0,0,1-.85-2C51,30.92,49.5,31,48,31V9a39.54,39.54,0,0,1,6.39.68c.32.05.64.12,1,.19a19.47,19.47,0,0,1,1.42-1.73A41.19,41.19,0,0,0,47.54,7H46.46A41.89,41.89,0,0,0,14.17,22.84c-.39.49-.77,1-1.14,1.49a41.91,41.91,0,0,0,0,49.34c.37.51.75,1,1.14,1.49A41.89,41.89,0,0,0,46.46,91h1.08A41.89,41.89,0,0,0,79.83,75.16c.39-.49.77-1,1.14-1.49a41.93,41.93,0,0,0,6.88-34.43ZM39.61,9.69c-4.72,3.55-8.63,10.41-11,19.16a47.61,47.61,0,0,1-12.72-4.94A40,40,0,0,1,39.61,9.69ZM14.72,25.41A49.29,49.29,0,0,0,28.1,30.74,76.9,76.9,0,0,0,26,48H7A39.75,39.75,0,0,1,14.72,25.41ZM7,50H26A76.9,76.9,0,0,0,28.1,67.26a49.29,49.29,0,0,0-13.38,5.33A39.75,39.75,0,0,1,7,50Zm8.85,24.09a47.61,47.61,0,0,1,12.72-4.94c2.4,8.75,6.31,15.61,11,19.16A40,40,0,0,1,15.86,74.09ZM46,89c-6.66-.73-12.42-8.7-15.52-20.24A76.92,76.92,0,0,1,46,67ZM46,65a77.32,77.32,0,0,0-16,1.8A76.32,76.32,0,0,1,28,50H46Zm0-17H28a76.32,76.32,0,0,1,2-16.81A77.32,77.32,0,0,0,46,33Zm0-17a76.92,76.92,0,0,1-15.52-1.7C33.58,17.75,39.34,9.78,46,9.05Zm2,19H66a76.32,76.32,0,0,1-2,16.81A77.32,77.32,0,0,0,48,65Zm0,17a76.92,76.92,0,0,1,15.52,1.7C60.42,80.25,54.66,88.22,48,89Zm6.39,21.3c4.72-3.55,8.63-10.41,11-19.16a47.61,47.61,0,0,1,12.72,4.94A40,40,0,0,1,54.39,88.31ZM79.28,72.59A49.29,49.29,0,0,0,65.9,67.26,76.9,76.9,0,0,0,68,50H87A39.75,39.75,0,0,1,79.28,72.59Z"/></g></g></g></g></svg>