<svg xmlns="http://www.w3.org/2000/svg" viewBox="0 0 72 72"><defs><style>.cls-1{fill:#fff;}.cls-2{fill:none;}</style></defs><title>Developer_Icons_Routing_Dynamic_ETAs (11)</title><g id="Layer_2" data-name="Layer 2"><g id="Routing"><g id="Developer_Icons_Routing_Dynamic_ETAs"><g id="Developer_Icons_72x72px_AllWhite_Routing_Dynamic_ETAs"><path class="cls-1" d="M47,60,35.82,58l.36-2L47,58l10.82-2,.36,2Zm22-4H66.92A6.77,6.77,0,0,1,67,57v7a5,5,0,0,1-5,5H59.93l-3-3H37.07l-3,3H32a5,5,0,0,1-5-5V57a6.77,6.77,0,0,1,.08-1H25V54h2.69a6.87,6.87,0,0,1,1-1.56l5.38-6.6A5,5,0,0,1,38,44H56a5,5,0,0,1,3.88,1.84l5.4,6.63a6.72,6.72,0,0,1,1,1.53H69Zm-4,1a5,5,0,0,0-1.22-3.26L58.36,47.1A3,3,0,0,0,56,46H38a3,3,0,0,0-2.33,1.1l-5.4,6.63A5,5,0,0,0,29,57v7a3,3,0,0,0,3,3h1.24l3-3H57.76l3,3H62a3,3,0,0,0,3-3ZM35.82,36,25,38,14.18,36l-.36,2L25,40l11.18-2ZM47,36H44.92A6.77,6.77,0,0,1,45,37v4H43V37a5,5,0,0,0-1.22-3.26L36.36,27.1A3,3,0,0,0,34,26H16a3,3,0,0,0-2.33,1.1l-5.4,6.63A5,5,0,0,0,7,37v7a3,3,0,0,0,3,3h1.24l3-3H31.71l-1.63,2h-15l-3,3H10a5,5,0,0,1-5-5V37a6.77,6.77,0,0,1,.08-1H3V34H5.69a6.87,6.87,0,0,1,1-1.56l5.38-6.6A5,5,0,0,1,16,24H34a5,5,0,0,1,3.88,1.84l5.4,6.63a6.72,6.72,0,0,1,1,1.53H47Zm4-16.18-1-1.75L55,15.34V8h2v8.51Zm18-3.89A13.08,13.08,0,1,0,55.92,29,13.1,13.1,0,0,0,69,15.93Zm-2,0A11.08,11.08,0,1,1,55.92,4.85,11.09,11.09,0,0,1,67,15.93Z"/><path class="cls-2" d="M0,0H72V72H0Z"/></g></g></g></g></svg>