<svg xmlns="http://www.w3.org/2000/svg" viewBox="0 0 216.21 216.2"><defs><style>.cls-1,.cls-2,.cls-3,.cls-4{fill:none;}.cls-1{stroke:#65c5c0;}.cls-1,.cls-4{stroke-miterlimit:10;}.cls-1,.cls-2,.cls-3{stroke-width:5.08px;}.cls-2,.cls-3{stroke:#fff;}.cls-2{stroke-linejoin:bevel;}.cls-3{stroke-linejoin:round;}.cls-4{stroke:#00e2da;stroke-width:6.35px;}</style></defs><title>Enhanced-3D</title><g id="Layer_2" data-name="Layer 2"><g id="labels"><line class="cls-1" x1="125.21" y1="123.52" x2="125.21" y2="106.41"/><line class="cls-1" x1="125.21" y1="131.12" x2="125.21" y2="148.23"/><polyline class="cls-1" points="82.02 129.58 70.72 133.66 58.88 129.38"/><polyline class="cls-1" points="136.37 103.29 125.08 107.37 113.23 103.09"/><line class="cls-1" x1="70.45" y1="146.3" x2="70.45" y2="133.66"/><line class="cls-1" x1="70.45" y1="152.94" x2="70.45" y2="170.05"/><path class="cls-2" d="M91,126.71l17.11-6.21L70.45,108,39.59,119.27a5.13,5.13,0,0,0-3.37,4.82v36c0,5.35,2.27,11.34,7.5,13.68l26.73,11.79,101.95-39.33a12.45,12.45,0,0,0,7.55-11.48l0-45.17a3.88,3.88,0,0,0-3.1-3.8L125.21,74.43,80,88.88a3.8,3.8,0,0,0-2.72,3.64V95"/><polyline class="cls-1" points="100.79 56.27 87.84 60.83 74.27 55.66"/><path class="cls-3" d="M53.33,101.93V45.83a4.29,4.29,0,0,1,2.81-4L85.4,31.08A6.58,6.58,0,0,1,89.74,31l32.53,10.84a4.29,4.29,0,0,1,2.93,4.07V64.64"/><line class="cls-1" x1="87.84" y1="60.83" x2="87.84" y2="73.69"/><polygon class="cls-4" points="176.87 213.02 90.02 213.02 3.17 213.02 3.17 108.09 3.17 3.17 108.1 3.17 213.03 3.17 213.03 90.01 213.03 176.86 194.95 194.94 176.87 213.02"/></g></g></svg>