<svg xmlns="http://www.w3.org/2000/svg" viewBox="0 0 72 72"><defs><style>.cls-1{fill:#0f1621;}.cls-2{fill:#00afaa;}.cls-3{fill:none;}</style></defs><title>Here.com_Icons_Indoor_Positioning_Community_support</title><g id="Layer_2" data-name="Layer 2"><g id="Indoor_Positioning" data-name="Indoor Positioning"><g id="Here.com_Icons_Indoor_Positioning_Community_support"><g id="Here.com_Icons_72x72px_GreyandAqua_Indoor_Positioning_Community_support"><path class="cls-1" d="M13,23a6,6,0,0,1-6-6V14a6,6,0,0,1,12,0v3A6,6,0,0,1,13,23Zm0-13a4,4,0,0,0-4,4v3a4,4,0,0,0,8,0V14A4,4,0,0,0,13,10Zm3,15H10a7,7,0,0,0-7,7V56H20a14.71,14.71,0,0,1,.13-2H5V32a5,5,0,0,1,5-5h6a5,5,0,0,1,5,5V50.42a16.13,16.13,0,0,1,2-3.76V32A7,7,0,0,0,16,25Zm43-2a6,6,0,0,1-6-6V14a6,6,0,0,1,12,0v3A6,6,0,0,1,59,23Zm0-13a4,4,0,0,0-4,4v3a4,4,0,0,0,8,0V14A4,4,0,0,0,59,10Zm3,15H56a7,7,0,0,0-7,7V46.66a16.13,16.13,0,0,1,2,3.76V32a5,5,0,0,1,5-5h6a5,5,0,0,1,5,5V54H51.88A16.52,16.52,0,0,1,52,56H69V32A7,7,0,0,0,62,25ZM36,18a6,6,0,0,1-6-6V9A6,6,0,0,1,42,9v3A6,6,0,0,1,36,18ZM36,5a4,4,0,0,0-4,4v3a4,4,0,0,0,8,0V9A4,4,0,0,0,36,5Zm3,15H33a7,7,0,0,0-7,7V43.51a15.06,15.06,0,0,1,2-1.37V27a5,5,0,0,1,5-5h6a5,5,0,0,1,5,5V42.14a15.06,15.06,0,0,1,2,1.37V27A7,7,0,0,0,39,20Z"/><path class="cls-2" d="M36,69A13,13,0,1,1,49,56,13,13,0,0,1,36,69Zm0-24A11,11,0,1,0,47,56,11,11,0,0,0,36,45Zm4.33,7c0,3.13-3.6,2.71-3.6,5.38v.93H35.09v-1c0-3.32,3.5-3,3.5-5.18,0-1.1-.79-1.76-2.05-1.76a3.55,3.55,0,0,0-2.81,1.43l-1.13-.87a5,5,0,0,1,4-1.94C39.05,48.93,40.33,50.39,40.33,52Zm-3.08,9.75A1.28,1.28,0,1,1,36,60.45,1.26,1.26,0,0,1,37.25,61.72Z"/><path class="cls-3" d="M0,0H72V72H0Z"/></g></g></g></g></svg>