<svg xmlns="http://www.w3.org/2000/svg" viewBox="0 0 48 48"><defs><style>.cls-1{fill:#00afaa;}.cls-2{fill:#0f1621;}.cls-3{fill:none;opacity:0.2;}</style></defs><title>HERE_Icons_48x48px_GreyandAqua_Container</title><g id="Layer_2" data-name="Layer 2"><g id="HERE_Icons_Container"><g id="HERE_Icons_48x48px_GreyandAqua_Container"><path class="cls-1" d="M2,29V46H46V29Zm2,2H9V44H4ZM16,44H11V31h5Zm28,0H18V31H44Zm-2-2H40V33h2Zm-4,0H36V33h2Zm-4,0H32V33h2Zm-4,0H28V33h2Zm-4,0H24V33h2Zm-4,0H20V33h2Z"/><path class="cls-2" d="M27,17.37A2.22,2.22,0,0,0,27,17a3,3,0,0,0-2-2.82V8h1.78l1.5-6H19.72l1.5,6H23v6.18A3,3,0,0,0,21,17a2.22,2.22,0,0,0,0,.37l-12,6V27h2V24.62l10.92-5.46a3,3,0,0,0,4.16,0L37,24.62V27h2V23.38ZM22.78,6l-.5-2h3.44l-.5,2ZM24,18a1,1,0,1,1,1-1A1,1,0,0,1,24,18Z"/><rect id="_Path_" data-name="&lt;Path&gt;" class="cls-3" width="48" height="48"/></g></g></g></svg>