<svg xmlns="http://www.w3.org/2000/svg" viewBox="0 0 49 49"><defs><style>.cls-1{fill:#0f1621;}.cls-2{fill:#00afaa;}.cls-3{fill:none;opacity:0.2;}</style></defs><title>HERE_Icons_48x48px_GreyandAqua_Event_Processing</title><g id="Layer_2" data-name="Layer 2"><g id="HERE_Icons_Event_Processing"><g id="HERE_Icons_48x48px_GreyandAqua_Event_Processing"><path class="cls-1" d="M43,5H6A4,4,0,0,0,2,9V40a4,4,0,0,0,4,4H43a4,4,0,0,0,4-4V9A4,4,0,0,0,43,5ZM4,28.42,7.08,31.5,4,34.58ZM45,15.58l-1.92-1.92a3.59,3.59,0,0,1-1.42,1.42L45,18.42V40a2,2,0,0,1-2,2H20.42l-3.84-3.84a3.59,3.59,0,0,1-1.42,1.42L17.58,42H6a2,2,0,0,1-2-2V37.42l4.5-4.5,1.92,1.92a3.59,3.59,0,0,1,1.42-1.42L9.92,31.5l3.63-3.64a3.37,3.37,0,0,1-1.72-1.11L8.5,30.08,4,25.58V15.42l7.42,7.42a3.59,3.59,0,0,1,1.42-1.42L10.42,19l2.42-2.42a3.59,3.59,0,0,1-1.42-1.42L9,17.58l-5-5V9A2,2,0,0,1,6,7H19.58l-3.42,3.42a3.59,3.59,0,0,1,1.42,1.42L22.42,7h9.17L16.75,21.83a3.37,3.37,0,0,1,1.11,1.72L34,7.41l2.92,2.93a3.59,3.59,0,0,1,1.42-1.42L36.42,7H43a2,2,0,0,1,2,2Z"/><path class="cls-2" d="M28.73,40.42l-4.6-2.61,1.21-3.29a8.35,8.35,0,0,1-1.27-2.18l-3.46-.56,0-5.29,3.45-.6a8.46,8.46,0,0,1,.54-1.14,8.71,8.71,0,0,1,.7-1.05L24,20.42l4.56-2.66,2.24,2.68a8.94,8.94,0,0,1,2.53,0l2.21-2.71,4.6,2.62L39,23.62a9,9,0,0,1,1.27,2.18l3.45.56,0,5.29-3.46.6A8.32,8.32,0,0,1,39,34.44l1.25,3.28-4.57,2.67L33.46,37.7a8.87,8.87,0,0,1-2.52,0Zm-2.14-3.51,1.66.94,1.88-2.3.89.16a6.81,6.81,0,0,0,2.34,0l.89-.17,1.91,2.29,1.65-1-1.06-2.79.59-.7a7.28,7.28,0,0,0,.66-1,6.28,6.28,0,0,0,.48-1.06l.3-.86L41.72,30V28.06l-2.93-.48-.32-.85a6.59,6.59,0,0,0-1.17-2L36.7,24l1-2.79-1.66-.94-1.88,2.3-.89-.16a6.81,6.81,0,0,0-2.34,0l-.89.16-1.91-2.28-1.65,1,1.06,2.79-.59.7a5.52,5.52,0,0,0-.66.95,5.79,5.79,0,0,0-.48,1.05l-.3.87-2.94.51v1.91l2.94.48.31.85a6.62,6.62,0,0,0,1.18,2l.59.69Zm5.57-3.35A4.45,4.45,0,0,1,29.94,33a4.49,4.49,0,1,1,2.22.59Zm0-7a2.5,2.5,0,1,0,2.16,3.73h0a2.48,2.48,0,0,0-2.16-3.73ZM14.5,12A1.5,1.5,0,1,0,16,13.5,1.5,1.5,0,0,0,14.5,12ZM40,10.5A1.5,1.5,0,1,0,41.5,12,1.5,1.5,0,0,0,40,10.5ZM14.5,23A1.5,1.5,0,1,0,16,24.5,1.5,1.5,0,0,0,14.5,23Zm-1,12A1.5,1.5,0,1,0,15,36.5,1.5,1.5,0,0,0,13.5,35Z"/><path id="_Path_" data-name="&lt;Path&gt;" class="cls-3" d="M49,49H0V0H49Z"/></g></g></g></svg>