<svg xmlns="http://www.w3.org/2000/svg" viewBox="0 0 72 72"><defs><style>.cls-1{fill:none;}.cls-2{fill:#00b6b2;}.cls-3{fill:#0f1621;}</style></defs><title>lui-icon-intermodalrouting-onlight-outline-xlarge</title><g id="Layer_2" data-name="Layer 2"><g id="ROUTING_AND_NAVIGATION" data-name="ROUTING AND NAVIGATION"><g id="lui-icon-intermodalrouting-onlight-outline-xlarge"><rect class="cls-1" width="72" height="72"/><path class="cls-2" d="M34,10H14V8H34ZM56,20h1.24c5.83,0,9.31-3.05,9.31-8.15S63,4,56.79,4H49V27h7ZM51,6h5.79c3.54,0,7.76,1,7.76,5.85C64.55,17.2,60,18,57.24,18H54v7H51Zm10.42,5.85C61.42,8.44,58.91,8,56.73,8H54v8h2.82C59,16,61.42,15.53,61.42,11.85ZM56,10h.73c2.43,0,2.69.59,2.69,1.85,0,1.73-.51,2.15-2.6,2.15H56Z"/><path class="cls-3" d="M12,37h8V35H12Zm24-2H28v2h8Zm5-19.95V9.89A5.81,5.81,0,0,0,35.29,4H12.71A5.81,5.81,0,0,0,7,9.89v5.16a4.34,4.34,0,0,0-4,4.2v6.5A4.34,4.34,0,0,0,7,30V39H9V32H39v9H36v5H32V41H22.5l2,2H30v5h8V43h3V30a4.34,4.34,0,0,0,4-4.2v-6.5A4.34,4.34,0,0,0,41,15.05ZM7,28a2.31,2.31,0,0,1-2-2.2v-6.5a2.31,2.31,0,0,1,2-2.2ZM39,30H9V14H39Zm0-18H9V9.89A3.8,3.8,0,0,1,12.71,6H35.29A3.8,3.8,0,0,1,39,9.89Zm4,13.75A2.31,2.31,0,0,1,41,28V17.05a2.31,2.31,0,0,1,2,2.2ZM25,59H20V57h5Zm5-1.12v7.36A3.77,3.77,0,0,1,26.22,69H20V66H1.05V64H22v3h4.22A1.78,1.78,0,0,0,28,65.24V57.88a11.38,11.38,0,0,0-2.64-7.25L23.11,52a7.15,7.15,0,0,1-3.69,1H1.05V51H19.42a5.18,5.18,0,0,0,2.66-.74L24,49.13l-4.18-4.48A5.2,5.2,0,0,0,16,43H1.05V41H16a7.2,7.2,0,0,1,5.25,2.28l4.47,4.8,0,0,.12.19.88.94A13.39,13.39,0,0,1,30,57.88ZM16,59H1.05V57H16Zm35-.1a9.46,9.46,0,0,1-1.75,4.54c-1.11,1.48-3.24,4.46-4,5.56h2.46c1-1.36,2.36-3.27,3.17-4.36a12,12,0,0,0,2.08-5A6.3,6.3,0,0,1,54,62a61.85,61.85,0,0,1-.84,7h2A58.1,58.1,0,0,0,56,62c0-2.07-3.57-6.62-5-8.36Zm13.3-9.85c-1.88-.6-4.84-1.82-5.52-2.67A9,9,0,0,1,58,42.69,5.19,5.19,0,0,0,61,38a5,5,0,0,0-8.59-3.46h0l-.06.08-.09.09h0a11.08,11.08,0,0,0-.78,1.15c-.94,1.5-2.36,3.94-4.47,4.21V43h1.55c-2.23,1.12-3.35,2.4-5.38,5.45-1.25,1.87-3,4.93-3,5.06l-.46.81,4.65,3.09.54-.9c.42-.7,1-1.6,1.53-2.48A34.62,34.62,0,0,0,46,60c0,1.51-3.57,6-6.27,9h2.68C44.57,66.52,48,62.22,48,60c0-2.9,0-8.8,3-10.83V46.41a18.81,18.81,0,0,0-3.71,2.88,43.51,43.51,0,0,0-3.6,5.3l-1.36-.91c.6-1,1.68-2.89,2.5-4.13,2-3,2.86-3.88,4.62-4.76A6.22,6.22,0,0,1,51.9,44H53V41H49.6a12.72,12.72,0,0,0,3.57-4.09,10.35,10.35,0,0,1,.61-.92A3,3,0,0,1,59,38a3.15,3.15,0,0,1-2.25,3l-.76.2V42c0,.7.11,4.23,1.22,5.61s4.25,2.58,5.78,3.1v1.85a42,42,0,0,1-4.57-1.51,30.69,30.69,0,0,1-2.85-1.87L54,48.05v5.36l.29.3S58,57.46,58,61a69.21,69.21,0,0,1-.85,8h2A66.65,66.65,0,0,0,60,61c0-3.74-3-7.34-4-8.4v-.69a14.9,14.9,0,0,0,1.57,1,58.74,58.74,0,0,0,6.17,2L65,55.2V49.27Z"/></g></g></g></svg>
