<svg xmlns="http://www.w3.org/2000/svg" viewBox="0 0 216.21 216.2"><defs><style>.cls-1,.cls-3,.cls-4{fill:none;stroke-miterlimit:10;}.cls-1{stroke:#fff;stroke-width:5.08px;}.cls-2{fill:#48dad0;}.cls-3{stroke:#48dad0;stroke-width:3.69px;}.cls-4{stroke:#00e2da;stroke-width:6.35px;}</style></defs><title>Parking-recomm</title><g id="Layer_2" data-name="Layer 2"><g id="labels"><polyline class="cls-1" points="162.61 60.92 180.89 79.2 169.81 90.28"/><path class="cls-1" d="M38.86,127.06l84.5-84.5a14.77,14.77,0,0,1,20.89,0L148,46.28"/><line class="cls-1" x1="41.47" y1="33.95" x2="86.72" y2="79.2"/><line class="cls-1" x1="96.88" y1="33.95" x2="70.1" y2="60.73"/><line class="cls-1" x1="86.85" y1="107.03" x2="73.79" y2="93.97"/><path class="cls-1" d="M32.1,141.55,39,148.47a14.77,14.77,0,0,0,20.89,0l26.93-26.93"/><line class="cls-1" x1="69.03" y1="143.05" x2="108.59" y2="182.61"/><line class="cls-1" x1="88.16" y1="162.17" x2="67.73" y2="182.6"/><path class="cls-2" d="M103,110.56l-5.13-5.13,5-5,5.13,5.13Zm8.82-8.82-5.13-5.13,5-5,5.13,5.13Zm8.82-8.82-5.13-5.13,5-5,5.13,5.13Zm8.82-8.82L124.28,79l5-5,5.13,5.13Zm8.82-8.82-5.13-5.13,5-5,5.13,5.13Zm8.82-8.82-5.13-5.13,5-5,5.13,5.13Zm8.75-8.75-5.13-5.13,3.6-3.6,5.13,5.13Zm7.44-7.44-5.13-5.13,5-5,5.13,5.13Zm8.4-8.4-5.13-5.13,5-5,5.13,5.13Z"/><rect class="cls-2" x="90.42" y="110.71" width="7.26" height="7.26" transform="translate(-53.31 100.01) rotate(-45)"/><path class="cls-2" d="M120,145.43l-4.94-4.95,5.13-5.13,4.94,4.95Zm-8.65-8.65-4.94-4.95,5.13-5.13,4.94,4.95Zm-8.65-8.65-4.94-4.95,5.13-5.13,4.94,4.95Z"/><path class="cls-3" d="M135.13,167.67V114.23h21.33c17.05,0,26.57,7,26.57,21.52,0,15.34-9.9,22.7-25.15,22.7h-6.18v22.11h-12.9"/><path class="cls-3" d="M155.68,143.81h-2.74V129h2.45c7.09,0,8.54,2.8,8.54,7C163.94,141.69,161.7,143.81,155.68,143.81Z"/><polygon class="cls-4" points="176.87 213.02 90.02 213.02 3.17 213.02 3.17 108.09 3.17 3.17 108.11 3.17 213.03 3.17 213.03 90.02 213.03 176.86 194.95 194.94 176.87 213.02"/></g></g></svg>