<svg xmlns="http://www.w3.org/2000/svg" viewBox="0 0 216.21 216.2"><defs><style>.cls-1,.cls-2,.cls-5,.cls-6{fill:none;stroke-miterlimit:10;}.cls-1{stroke:#48dad0;}.cls-1,.cls-2{stroke-width:5.08px;}.cls-2,.cls-5{stroke:#fff;}.cls-3{fill:#fff;}.cls-4{fill:#48dad0;}.cls-5{stroke-width:3.63px;}.cls-6{stroke:#00e2da;stroke-width:6.35px;}</style></defs><title>Pre-trip</title><g id="Layer_2" data-name="Layer 2"><g id="labels"><polyline class="cls-1" points="108.64 144.58 134.2 149.25 158.6 144.55"/><path class="cls-2" d="M110.34,171.12l-8,8.06a5.52,5.52,0,0,1-2.54.61H97.33a8.68,8.68,0,0,1-8.68-8.68V156.06a32.44,32.44,0,0,1,.88-8.11A13.66,13.66,0,0,1,91,145.5L105.15,128a13.52,13.52,0,0,1,9.47-4.56h41.28c3.26,0,5.32,2,7.36,4.56l14.12,17.54a13.66,13.66,0,0,1,1.49,2.45,32.45,32.45,0,0,1,.88,8.11v15.06a8.68,8.68,0,0,1-8.68,8.68h-2.46a5.51,5.51,0,0,1-2.53-.61l-8-8.06Z"/><polyline class="cls-2" points="33.77 36.4 85.3 36.4 85.3 113.78 36.28 113.78 36.28 48.12"/><circle class="cls-3" cx="59.53" cy="101.44" r="4.24"/><path class="cls-4" d="M125.36,70.23h-6.94V63h6.94Zm-12.15,0h-6.94V63h6.94Zm-12.15,0H94.13V63h6.94Z"/><rect class="cls-4" x="130.57" y="62.97" width="7.26" height="7.26"/><path class="cls-4" d="M137.83,115h-7.26v-6.39h7.26Zm0-11.19h-7.26V97.4h7.26Zm0-11.19h-7.26V86.21h7.26Zm0-11.19h-7.26V75h7.26Z"/><line class="cls-5" x1="48.98" y1="50.02" x2="72.59" y2="50.02"/><polygon class="cls-6" points="176.87 213.02 90.02 213.02 3.17 213.02 3.17 108.09 3.17 3.17 108.11 3.17 213.04 3.17 213.04 90.02 213.04 176.86 194.95 194.94 176.87 213.02"/></g></g></svg>