<svg xmlns="http://www.w3.org/2000/svg" viewBox="0 0 216.21 216.2"><defs><style>.cls-1,.cls-2,.cls-5,.cls-6{fill:none;stroke-miterlimit:10;}.cls-1{stroke:#48dad0;}.cls-1,.cls-2{stroke-width:5.08px;}.cls-2,.cls-5{stroke:#fff;}.cls-3{fill:#fff;}.cls-4{fill:#48dad0;}.cls-5{stroke-width:3.63px;}.cls-6{stroke:#00e2da;stroke-width:6.35px;}</style></defs><title>Predictive-Nav</title><g id="Layer_2" data-name="Layer 2"><g id="labels"><polyline class="cls-1" points="56.32 57.57 81.88 62.24 106.28 57.54"/><path class="cls-2" d="M58,84.11l-8,8.06a5.52,5.52,0,0,1-2.54.61H45a8.68,8.68,0,0,1-8.68-8.68V69.05a32.44,32.44,0,0,1,.88-8.11A13.66,13.66,0,0,1,38.7,58.5L52.83,41a13.52,13.52,0,0,1,9.47-4.56h41.28c3.26,0,5.32,2,7.36,4.56L125.06,58.5a13.66,13.66,0,0,1,1.49,2.45,32.45,32.45,0,0,1,.88,8.11V84.11a8.68,8.68,0,0,1-8.68,8.68H116.3a5.51,5.51,0,0,1-2.53-.61l-8-8.06Z"/><circle class="cls-3" cx="158.56" cy="158.53" r="8.24"/><circle class="cls-1" cx="158.56" cy="158.53" r="20.2"/><path class="cls-4" d="M98.92,149.6H91.66v-7.07h7.26Zm0-12.37H91.66v-7.07h7.26Zm0-12.37H91.66v-7.07h7.26Zm0-12.37H91.66v-7.07h7.26Zm0-12.37H91.66V93h7.26Z"/><rect class="cls-4" x="91.66" y="154.9" width="7.26" height="7.26"/><path class="cls-4" d="M128.58,162.16h-8.2V154.9h8.2Zm-14.36,0H106V154.9h8.2Zm-15.3,0H91.66V154.9h7.26Z"/><polyline class="cls-5" points="158.56 129.25 158.56 64.06 136.5 64.06"/><polyline class="cls-5" points="84.4 158.53 45.42 158.53 45.42 102.97"/><polygon class="cls-6" points="176.87 213.02 90.02 213.02 3.17 213.02 3.17 108.09 3.17 3.17 108.11 3.17 213.04 3.17 213.04 90.02 213.04 176.86 194.95 194.94 176.87 213.02"/></g></g></svg>