<svg xmlns="http://www.w3.org/2000/svg" viewBox="0 0 216.21 216.2"><defs><style>.cls-1,.cls-2,.cls-3,.cls-6{fill:none;}.cls-1{stroke:#fff;stroke-linejoin:bevel;}.cls-1,.cls-2{stroke-width:5.08px;}.cls-2,.cls-3{stroke:#48dad0;}.cls-2{stroke-linejoin:round;}.cls-3,.cls-6{stroke-miterlimit:10;}.cls-3{stroke-width:4.95px;}.cls-4{fill:#48dad0;}.cls-5{fill:#fff;}.cls-6{stroke:#00e2da;stroke-width:6.35px;}</style></defs><title>Rubber-Band</title><g id="Layer_2" data-name="Layer 2"><g id="labels"><line class="cls-1" x1="163.41" y1="78.65" x2="182.93" y2="59.13"/><path class="cls-2" d="M95.7,54.81l11.24-11.24a4.86,4.86,0,0,1,6.87,0l22,22"/><line class="cls-1" x1="33.27" y1="117.24" x2="45.61" y2="104.9"/><path class="cls-3" d="M60.93,41.89a25.85,25.85,0,0,0-13,48.19H74a25.85,25.85,0,0,0-13-48.19Zm0,31.43a5.42,5.42,0,1,1,5.42-5.42A5.43,5.43,0,0,1,60.93,73.32Z"/><path class="cls-4" d="M65.61,98.72,60.93,103l-4.68-4.28h9.36m6.83-2.65h-23L60.93,106.6,72.44,96.06Z"/><path class="cls-5" d="M91.74,112.91v29.81c0,11.56.44,23.5,5.82,31.13l.09.11a2.27,2.27,0,0,0,1.52.9,1.94,1.94,0,0,0,.32,0,2.37,2.37,0,0,0,1.39-.48,2.3,2.3,0,0,0,.44-3.23c-4.58-6.54-5-17.65-5-28.47V112.91a5.15,5.15,0,1,1,10.3,0v13a2.3,2.3,0,1,0,4.6,0V105.45a5.16,5.16,0,0,1,10.31,0v16.77a2.3,2.3,0,1,0,4.6,0V101.73a5.15,5.15,0,1,1,10.3,0v20.49a2.31,2.31,0,1,0,4.62,0V79a5.12,5.12,0,0,1,5-4.78h.18a2,2,0,0,1,.33,0,5.33,5.33,0,0,1,4.81,5.39v55a5.1,5.1,0,0,0,9.45,2.63l5.06-8.3a13,13,0,0,1,13.45-6.31,1.77,1.77,0,0,1,1.2,1,1.24,1.24,0,0,1,0,1.16L164.7,152.75c-5.45,9.41-15.85,16.11-27.17,17.49a2.31,2.31,0,0,0,.3,4.6H138c12.78-1.57,24.51-9.15,30.66-19.8l15.83-27.94a5.86,5.86,0,0,0,.19-5.43,6.41,6.41,0,0,0-4.55-3.61,17.7,17.7,0,0,0-18.26,8.6l-5,8.22a.57.57,0,0,1-.42.23.49.49,0,0,1-.49-.49v-55a9.94,9.94,0,0,0-9.1-10,9.26,9.26,0,0,0-3,.32,9.48,9.48,0,0,0-3.53,1.69,2.37,2.37,0,0,1-.25.19,6.44,6.44,0,0,0-.55.42,9.85,9.85,0,0,0-3.09,7.12v6l-.05,1.92.05,2.59v3.51a9.53,9.53,0,0,0-1.76-.85,9.75,9.75,0,0,0-12.29,5.2,9.78,9.78,0,0,0-6-2.06h0a9.78,9.78,0,0,0-9.73,8.92,9.74,9.74,0,0,0-14.93,8.27Z"/><polygon class="cls-6" points="176.87 213.02 90.02 213.02 3.17 213.02 3.17 108.09 3.17 3.17 108.11 3.17 213.03 3.17 213.03 90.02 213.03 176.86 194.95 194.94 176.87 213.02"/></g></g></svg>