<svg id="Layer_1" data-name="Layer 1" xmlns="http://www.w3.org/2000/svg" viewBox="0 0 72 72" height="72" width="72" data-color="color-2"><title>Consultant 72px</title><g class="nc-icon-wrapper" stroke-width="2" fill="#00afaa" stroke="#00afaa"><g id="Consultant" fill="#111111"><path d="M16.5 14.85a10.05 10.05 0 0 1 10.5-10.35 10.05 10.05 0 0 1 10.5 10.35v4.8a10.05 10.05 0 0 1-10.5 10.35 10.05 10.05 0 0 1-10.5-10.35z m24 19.65h-27a9 9 0 0 0-9 9v24" fill="none" stroke="#111111" stroke-miterlimit="10"/><path d="M67.5 42v15a3 3 0 0 1-3 3h-21l-9 7.5v-7.5h-3a3 3 0 0 1-3-3v-15a3 3 0 0 1 3-3h33a3 3 0 0 1 3 3z m-31.5 3h24m-24 4.5h24m-24 4.5h15" fill="none" stroke-linecap="square" stroke-miterlimit="10" data-color="color-2"/></g></g></svg>