<svg xmlns="http://www.w3.org/2000/svg" xmlns:xlink="http://www.w3.org/1999/xlink" viewBox="0 0 72 72"><defs><style>.cls-1{fill:none;}.cls-2{clip-path:url(#clip-path);}.cls-3{clip-path:url(#clip-path-2);}.cls-4{fill:url(#radial-gradient);}.cls-5{clip-path:url(#clip-path-4);}.cls-6{clip-path:url(#clip-path-5);}.cls-7{fill:url(#radial-gradient-2);}</style><clipPath id="clip-path"><polyline class="cls-1" points="36 8.79 43.18 23.75 46.79 24.29 36 1.82 36 1.82 25.18 24.33 1 27.93 18.5 45.45 14.37 70.18 36 58.5 57.63 70.18 53.5 45.45 71 27.93 67.28 27.38 50.27 44.41 53.64 64.59 36 55.07 18.36 64.59 21.73 44.41 7.37 30.03 27.21 27.07 36 8.79"/></clipPath><clipPath id="clip-path-2"><rect class="cls-1" width="72" height="72"/></clipPath><radialGradient id="radial-gradient" cx="-600.72" cy="1844.38" r="0.14" gradientTransform="matrix(420.31, 656.17, 369.09, -747.22, -428255.45, 1772317.08)" gradientUnits="userSpaceOnUse"><stop offset="0" stop-color="#f68e50"/><stop offset="0.93" stop-color="#ffd994"/><stop offset="1" stop-color="#ffd994"/></radialGradient><clipPath id="clip-path-4"><path class="cls-1" d="M144.24,8.24A15.56,15.56,0,0,1,159.8,23.76v.11a15.56,15.56,0,0,1-1.15,5.79l0,.05,0,.05c-2.34,6.4-8.18,14-16.94,22.08l2.66,1.9c7-6.56,14.32-14.79,17.29-22.88A18.78,18.78,0,0,0,163,23.79v0h0A18.76,18.76,0,0,0,144.24,5h0A19.28,19.28,0,0,0,128,13.91a19.25,19.25,0,0,0-16.24-8.83A18.76,18.76,0,0,0,93,23.81h0v0a18.78,18.78,0,0,0,1.38,7.07C100.86,48.59,128,67,128,67h0s1-.74,2.72-2L128,63a155.7,155.7,0,0,1-12.28-9.89c-9.51-8.53-15.84-16.6-18.31-23.32l0-.06,0-.05a15.61,15.61,0,0,1-1.14-5.77v-.12A15.56,15.56,0,0,1,111.76,8.28a16.37,16.37,0,0,1,7.86,2,15.24,15.24,0,0,1,5.66,5.3L128,20l2.72-4.36a15.5,15.5,0,0,1,5.67-5.33,16.09,16.09,0,0,1,7.85-2"/></clipPath><clipPath id="clip-path-5"><rect class="cls-1" x="92" width="72" height="72"/></clipPath><radialGradient id="radial-gradient-2" cx="-2160.71" cy="1844.56" r="0.07" gradientTransform="matrix(-857.82, -1474.13, -829.2, 1525.01, -323833.99, -5998053.1)" gradientUnits="userSpaceOnUse"><stop offset="0" stop-color="#c56d9f"/><stop offset="0.17" stop-color="#d38198"/><stop offset="0.48" stop-color="#e79e8e"/><stop offset="0.75" stop-color="#f4b087"/><stop offset="0.94" stop-color="#f8b685"/><stop offset="1" stop-color="#f8b685"/></radialGradient></defs><g id="BeBold_72x72px"><g class="cls-2"><g id="HERE_Mode_Gradients_2019_CMYK_IsoCV2_INTERNAL_gradient_04" data-name="HERE Mode Gradients 2019 CMYK IsoCV2 INTERNAL gradient 04"><g class="cls-3"><g class="cls-3"><polygon class="cls-4" points="-20.08 40.65 40.65 135.46 92.08 31.35 31.35 -63.46 -20.08 40.65"/></g></g></g></g></g><g id="BeTrue_72x72px"><g class="cls-5"><g id="HERE_Mode_Gradients_2019_CMYK_IsoCV2_INTERNAL_gradient_04-2" data-name="HERE Mode Gradients 2019 CMYK IsoCV2 INTERNAL gradient 04"><g class="cls-6"><g class="cls-6"><polygon class="cls-7" points="184.24 34.78 126.78 -63.96 71.76 37.22 129.22 135.96 184.24 34.78"/></g></g></g></g></g></svg>