<svg xmlns="http://www.w3.org/2000/svg" xmlns:xlink="http://www.w3.org/1999/xlink" viewBox="0 0 72 72"><defs><style>.cls-1{fill:none;}.cls-2{clip-path:url(#clip-path);}.cls-3{clip-path:url(#clip-path-2);}.cls-4{fill:url(#radial-gradient);}.cls-5{clip-path:url(#clip-path-4);}.cls-6{clip-path:url(#clip-path-5);}.cls-7{fill:url(#radial-gradient-2);}.cls-8{clip-path:url(#clip-path-7);}.cls-9{clip-path:url(#clip-path-8);}.cls-10{fill:url(#radial-gradient-3);}</style><clipPath id="clip-path"><path class="cls-1" d="M-39.76,8.24A15.56,15.56,0,0,1-24.2,23.76v.11a15.56,15.56,0,0,1-1.15,5.79l0,.05,0,.05c-2.34,6.4-8.18,14-16.94,22.08l2.66,1.9c7-6.56,14.32-14.79,17.29-22.88A18.78,18.78,0,0,0-21,23.79v0h0A18.76,18.76,0,0,0-39.76,5h0A19.28,19.28,0,0,0-56,13.91,19.25,19.25,0,0,0-72.24,5.08,18.76,18.76,0,0,0-91,23.81h0v0a18.78,18.78,0,0,0,1.38,7.07C-83.14,48.59-56,67-56,67h0s1-.74,2.72-2L-56,63a155.7,155.7,0,0,1-12.28-9.89c-9.51-8.53-15.84-16.6-18.31-23.32l0-.06,0-.05a15.61,15.61,0,0,1-1.14-5.77v-.12A15.56,15.56,0,0,1-72.24,8.28a16.37,16.37,0,0,1,7.86,2,15.24,15.24,0,0,1,5.66,5.3L-56,20l2.72-4.36a15.5,15.5,0,0,1,5.67-5.33,16.09,16.09,0,0,1,7.85-2"/></clipPath><clipPath id="clip-path-2"><rect class="cls-1" x="-92" width="72" height="72"/></clipPath><radialGradient id="radial-gradient" cx="-2344.71" cy="1844.56" r="0.07" gradientTransform="matrix(-857.82, -1474.13, -829.2, 1525.01, -481856.87, -6269293.02)" gradientUnits="userSpaceOnUse"><stop offset="0" stop-color="#c56d9f"/><stop offset="0.17" stop-color="#d38198"/><stop offset="0.48" stop-color="#e79e8e"/><stop offset="0.75" stop-color="#f4b087"/><stop offset="0.94" stop-color="#f8b685"/><stop offset="1" stop-color="#f8b685"/></radialGradient><clipPath id="clip-path-4"><path class="cls-1" d="M68.73,24.24a31.47,31.47,0,0,0-58.16-.51L10,25,3.82,9.61,1,10.75,9.19,31,29.37,22.8,28.22,20,12.8,26.24l.56-1.32A28.48,28.48,0,1,1,13,46.3l-2.84,1.09A31.48,31.48,0,1,0,68.84,24.54c0-.1-.07-.2-.11-.3Z"/></clipPath><clipPath id="clip-path-5"><rect class="cls-1" width="72" height="72"/></clipPath><radialGradient id="radial-gradient-2" cx="-3906.43" cy="1844.45" r="0.07" gradientTransform="matrix(896.25, 1400, 787.5, -1593.33, 2048639.88, 8407805.59)" gradientUnits="userSpaceOnUse"><stop offset="0" stop-color="#52be99"/><stop offset="0.12" stop-color="#5dbf96"/><stop offset="0.32" stop-color="#79c08d"/><stop offset="0.58" stop-color="#a7c37f"/><stop offset="0.88" stop-color="#e6c76b"/><stop offset="1" stop-color="#ffc963"/></radialGradient><clipPath id="clip-path-7"><polygon class="cls-1" points="93.43 58.83 118.46 58.83 141.15 36.14 120.81 15.8 138.76 15.8 159.28 36.32 136.77 58.83 140.49 58.83 163 36.32 139.85 13.17 137.97 13.17 114.47 13.17 137.44 36.14 117.37 56.2 99.78 56.2 119.76 36.21 96.72 13.17 93 13.17 116.05 36.21 93.43 58.83"/></clipPath><clipPath id="clip-path-8"><rect class="cls-1" x="92" width="72" height="72"/></clipPath><radialGradient id="radial-gradient-3" cx="-5488.11" cy="1844.52" r="0.07" gradientTransform="matrix(888.75, 1400, 787.5, -1580, 3425093.75, 10597692)" gradientUnits="userSpaceOnUse"><stop offset="0" stop-color="#52be99"/><stop offset="0.05" stop-color="#52be99"/><stop offset="0.27" stop-color="#61bda5"/><stop offset="0.69" stop-color="#88bac5"/><stop offset="1" stop-color="#a9b8df"/></radialGradient></defs><g id="BeTrue_72x72px"><g class="cls-2"><g id="HERE_Mode_Gradients_2019_CMYK_IsoCV2_INTERNAL_gradient_04" data-name="HERE Mode Gradients 2019 CMYK IsoCV2 INTERNAL gradient 04"><g class="cls-3"><g class="cls-3"><polygon class="cls-4" points="0.24 34.78 -57.22 -63.96 -112.24 37.22 -54.78 135.96 0.24 34.78"/></g></g></g></g></g><g id="GiveBack_72x72px"><g class="cls-5"><g id="HERE_Mode_Gradients_2019_CMYK_IsoCV2_INTERNAL_gradient_04-2" data-name="HERE Mode Gradients 2019 CMYK IsoCV2 INTERNAL gradient 04"><g class="cls-6"><g class="cls-6"><polygon class="cls-7" points="-20.08 40.63 40.63 135.47 92.08 31.37 31.37 -63.47 -20.08 40.63"/></g></g></g></g></g><g id="LearnFast_72x72px"><g class="cls-8"><g id="HERE_Mode_Gradients_2019_CMYK_IsoCV2_INTERNAL_gradient_04-3" data-name="HERE Mode Gradients 2019 CMYK IsoCV2 INTERNAL gradient 04"><g class="cls-9"><g class="cls-9"><polygon class="cls-10" points="71.9 40.33 132.33 135.53 184.1 31.67 123.67 -63.53 71.9 40.33"/></g></g></g></g></g></svg>