<svg xmlns="http://www.w3.org/2000/svg" xmlns:xlink="http://www.w3.org/1999/xlink" viewBox="0 0 72 72"><defs><style>.cls-1{fill:none;}.cls-2{clip-path:url(#clip-path);}.cls-3{clip-path:url(#clip-path-2);}.cls-4{fill:url(#radial-gradient);}.cls-5{clip-path:url(#clip-path-4);}.cls-6{clip-path:url(#clip-path-5);}.cls-7{fill:url(#radial-gradient-2);}.cls-8{clip-path:url(#clip-path-7);}.cls-9{clip-path:url(#clip-path-8);}.cls-10{fill:url(#radial-gradient-3);}</style><clipPath id="clip-path"><path class="cls-1" d="M-23.27,24.24a31.48,31.48,0,0,0-41-17.4A31.5,31.5,0,0,0-81.43,23.73L-82,25-88.18,9.61-91,10.75-82.81,31l20.18-8.19L-63.78,20-79.2,26.24l.56-1.32A28.47,28.47,0,0,1-41.31,9.82a28.49,28.49,0,0,1,15.1,37.33,28.48,28.48,0,0,1-37.33,15.1A28.48,28.48,0,0,1-79,46.3l-2.84,1.09A31.48,31.48,0,0,0-41.06,65.3a31.47,31.47,0,0,0,17.9-40.76c0-.1-.07-.2-.11-.3Z"/></clipPath><clipPath id="clip-path-2"><rect class="cls-1" x="-92" width="72" height="72"/></clipPath><radialGradient id="radial-gradient" cx="-3998.43" cy="1844.45" r="0.07" gradientTransform="matrix(896.25, 1400, 787.5, -1593.33, 2131002.88, 8536605.59)" gradientUnits="userSpaceOnUse"><stop offset="0" stop-color="#52be99"/><stop offset="0.12" stop-color="#5dbf96"/><stop offset="0.32" stop-color="#79c08d"/><stop offset="0.58" stop-color="#a7c37f"/><stop offset="0.88" stop-color="#e6c76b"/><stop offset="1" stop-color="#ffc963"/></radialGradient><clipPath id="clip-path-4"><polygon class="cls-1" points="1.43 58.83 26.46 58.83 49.15 36.14 28.81 15.8 46.76 15.8 67.28 36.32 44.77 58.83 48.49 58.83 71 36.32 47.85 13.17 45.97 13.17 22.47 13.17 45.44 36.14 25.37 56.2 7.78 56.2 27.76 36.21 4.72 13.17 1 13.17 24.05 36.21 1.43 58.83"/></clipPath><clipPath id="clip-path-5"><rect class="cls-1" width="72" height="72"/></clipPath><radialGradient id="radial-gradient-2" cx="-5580.11" cy="1844.52" r="0.07" gradientTransform="matrix(888.75, 1400, 787.5, -1580, 3506766.75, 10726492)" gradientUnits="userSpaceOnUse"><stop offset="0" stop-color="#52be99"/><stop offset="0.05" stop-color="#52be99"/><stop offset="0.27" stop-color="#61bda5"/><stop offset="0.69" stop-color="#88bac5"/><stop offset="1" stop-color="#a9b8df"/></radialGradient><clipPath id="clip-path-7"><path class="cls-1" d="M147.76,51.29A15.16,15.16,0,0,1,137,46.83l0,0L117.42,27.13l0,0-.16-.15a12.71,12.71,0,1,0,0,18L119,46.72A15.24,15.24,0,1,1,118.85,25l0,0,19.88,20a12.71,12.71,0,1,0,0-18L137,25.28a15.24,15.24,0,1,1,10.77,26Z"/></clipPath><clipPath id="clip-path-8"><rect class="cls-1" x="92" width="72" height="72"/></clipPath><radialGradient id="radial-gradient-3" cx="-7141.03" cy="1844.59" r="0.08" gradientTransform="matrix(677.94, 1233.9, 694.07, -1205.23, 3561035.97, 11034492.23)" gradientUnits="userSpaceOnUse"><stop offset="0" stop-color="#b6c0e3"/><stop offset="0.13" stop-color="#b6c0e3"/><stop offset="0.4" stop-color="#c0b9db"/><stop offset="0.87" stop-color="#d9a7c7"/><stop offset="0.97" stop-color="#e0a2c2"/><stop offset="1" stop-color="#e0a2c2"/></radialGradient></defs><g id="GiveBack_72x72px"><g class="cls-2"><g id="HERE_Mode_Gradients_2019_CMYK_IsoCV2_INTERNAL_gradient_04" data-name="HERE Mode Gradients 2019 CMYK IsoCV2 INTERNAL gradient 04"><g class="cls-3"><g class="cls-3"><polygon class="cls-4" points="-112.08 40.63 -51.37 135.47 0.08 31.37 -60.63 -63.47 -112.08 40.63"/></g></g></g></g></g><g id="LearnFast_72x72px"><g class="cls-5"><g id="HERE_Mode_Gradients_2019_CMYK_IsoCV2_INTERNAL_gradient_04-2" data-name="HERE Mode Gradients 2019 CMYK IsoCV2 INTERNAL gradient 04"><g class="cls-6"><g class="cls-6"><polygon class="cls-7" points="-20.1 40.33 40.33 135.53 92.1 31.67 31.67 -63.53 -20.1 40.33"/></g></g></g></g></g><g id="WinTogether_72x72px"><g class="cls-8"><g id="HERE_Mode_Gradients_2019_CMYK_IsoCV2_INTERNAL_gradient_04-3" data-name="HERE Mode Gradients 2019 CMYK IsoCV2 INTERNAL gradient 04"><g class="cls-9"><g class="cls-9"><polygon class="cls-10" points="71.75 35.15 127.15 135.98 184.25 36.85 128.85 -63.98 71.75 35.15"/></g></g></g></g></g></svg>