<svg xmlns="http://www.w3.org/2000/svg" xmlns:xlink="http://www.w3.org/1999/xlink" viewBox="0 0 72 72"><defs><style>.cls-1{fill:none;}.cls-2{clip-path:url(#clip-path);}.cls-3{clip-path:url(#clip-path-2);}.cls-4{fill:url(#radial-gradient);}.cls-5{clip-path:url(#clip-path-4);}.cls-6{clip-path:url(#clip-path-5);}.cls-7{fill:url(#radial-gradient-2);}</style><clipPath id="clip-path"><polygon class="cls-1" points="-90.57 58.83 -65.54 58.83 -42.85 36.14 -63.19 15.8 -45.24 15.8 -24.72 36.32 -47.23 58.83 -43.51 58.83 -21 36.32 -44.15 13.17 -46.03 13.17 -69.53 13.17 -46.56 36.14 -66.63 56.2 -84.22 56.2 -64.24 36.21 -87.28 13.17 -91 13.17 -67.95 36.21 -90.57 58.83"/></clipPath><clipPath id="clip-path-2"><rect class="cls-1" x="-92" width="72" height="72"/></clipPath><radialGradient id="radial-gradient" cx="-5672.11" cy="1844.52" r="0.07" gradientTransform="matrix(888.75, 1400, 787.5, -1580, 3588439.75, 10855292)" gradientUnits="userSpaceOnUse"><stop offset="0" stop-color="#52be99"/><stop offset="0.05" stop-color="#52be99"/><stop offset="0.27" stop-color="#61bda5"/><stop offset="0.69" stop-color="#88bac5"/><stop offset="1" stop-color="#a9b8df"/></radialGradient><clipPath id="clip-path-4"><path class="cls-1" d="M55.76,51.29A15.16,15.16,0,0,1,45,46.83l0,0L25.42,27.13l0,0L25.23,27a12.71,12.71,0,1,0,0,18L27,46.72A15.24,15.24,0,1,1,26.85,25l0,0L46.77,45a12.71,12.71,0,1,0,0-18L45,25.28a15.24,15.24,0,1,1,10.77,26Z"/></clipPath><clipPath id="clip-path-5"><rect class="cls-1" width="72" height="72"/></clipPath><radialGradient id="radial-gradient-2" cx="-7233.03" cy="1844.59" r="0.08" gradientTransform="matrix(677.94, 1233.9, 694.07, -1205.23, 3623314.72, 11148011.31)" gradientUnits="userSpaceOnUse"><stop offset="0" stop-color="#b6c0e3"/><stop offset="0.13" stop-color="#b6c0e3"/><stop offset="0.4" stop-color="#c0b9db"/><stop offset="0.87" stop-color="#d9a7c7"/><stop offset="0.97" stop-color="#e0a2c2"/><stop offset="1" stop-color="#e0a2c2"/></radialGradient></defs><g id="LearnFast_72x72px"><g class="cls-2"><g id="HERE_Mode_Gradients_2019_CMYK_IsoCV2_INTERNAL_gradient_04" data-name="HERE Mode Gradients 2019 CMYK IsoCV2 INTERNAL gradient 04"><g class="cls-3"><g class="cls-3"><polygon class="cls-4" points="-112.1 40.33 -51.67 135.53 0.1 31.67 -60.33 -63.53 -112.1 40.33"/></g></g></g></g></g><g id="WinTogether_72x72px"><g class="cls-5"><g id="HERE_Mode_Gradients_2019_CMYK_IsoCV2_INTERNAL_gradient_04-2" data-name="HERE Mode Gradients 2019 CMYK IsoCV2 INTERNAL gradient 04"><g class="cls-6"><g class="cls-6"><polygon class="cls-7" points="-20.25 35.15 35.15 135.98 92.25 36.85 36.85 -63.98 -20.25 35.15"/></g></g></g></g></g></svg>