<svg xmlns="http://www.w3.org/2000/svg" viewBox="0 0 72 72"><defs><style>.cls-1{fill:#0f1621;}.cls-2{fill:#00afaa;}.cls-3{fill:none;}</style></defs><title>Here.com_icons_Tracking_Global_coverage</title><g id="Layer_2" data-name="Layer 2"><g id="Tracking"><g id="Here.com_icons_Tracking_Global_coverage"><g id="Here.com_Icons_72x72px_GreyandAqua_Tracking_Global_coverage"><path class="cls-1" d="M66.06,29.26a17.28,17.28,0,0,1-1.71,1.48A28.86,28.86,0,0,1,65,36H51.39c0-.78,0-1.55-.08-2.32a15.12,15.12,0,0,1-2-.53c.06.94.1,1.89.11,2.85H36V25.68c1.36,0,2.72-.08,4.06-.2a16.22,16.22,0,0,1-.91-1.93c-1,.07-2.09.12-3.15.13V7a28.86,28.86,0,0,1,5.26.63,17.28,17.28,0,0,1,1.48-1.71A32,32,0,1,0,34.51,69h1a32,32,0,0,0,30.6-39.73ZM33.94,7.2,34,7V23.67h-.06A58.81,58.81,0,0,1,22.33,22.4C24.65,13.86,29,7.9,33.94,7.2ZM34,38V48.45h-.06a61.63,61.63,0,0,0-12.1,1.3,56.21,56.21,0,0,1-1.36-11.7V38ZM20.48,36a55.62,55.62,0,0,1,1.36-11.64,60.87,60.87,0,0,0,12.1,1.31H34V36ZM28.24,7.78c-3.4,2.86-6.17,7.86-7.87,14.17a35.85,35.85,0,0,1-9-3.46A29.85,29.85,0,0,1,28.24,7.78Zm-18,12.31a36.39,36.39,0,0,0,9.65,3.81A58.39,58.39,0,0,0,18.48,36H5A29.77,29.77,0,0,1,10.23,20.09ZM5,38.06V38H18.48v.06a59.08,59.08,0,0,0,1.4,12.17A37.25,37.25,0,0,0,10.29,54,29.63,29.63,0,0,1,5,38.06ZM11.49,55.6a36,36,0,0,1,8.88-3.43c1.67,6.19,4.37,11.12,7.68,14A30,30,0,0,1,11.49,55.6Zm10.84-3.88a59.67,59.67,0,0,1,11.61-1.26H34V66.93h-.06C29,66.22,24.65,60.26,22.33,51.72ZM36,38H49.4v.06A56.21,56.21,0,0,1,48,49.76a61.18,61.18,0,0,0-12-1.3Zm0,28.91V50.46c.49,0,1,0,1.46,0h0l.92,0h.09l.45,0,.74,0,.74.06,1.14.11.28,0,.85.1c.38,0,.75.09,1.12.15l1.1.17c.37,0,.74.11,1.11.19a1.28,1.28,0,0,1,.27,0l.59.11.58.12h.07C45.24,60.23,41,66.17,36,66.91Zm5.79-.69c3.33-2.89,6-7.83,7.72-14a36.48,36.48,0,0,1,9,3.48A30,30,0,0,1,41.79,66.22ZM65,38.06a29.64,29.64,0,0,1-5.3,16A37.23,37.23,0,0,0,50,50.23a59.08,59.08,0,0,0,1.4-12.17V38H65Z"/><path class="cls-2" d="M54.5,3A14.4,14.4,0,0,0,45,6.59a14.83,14.83,0,0,0-1.57,1.6,14.47,14.47,0,0,0-2.14,15.19,13.33,13.33,0,0,0,1,1.9A14.51,14.51,0,0,0,49.09,31a12.28,12.28,0,0,0,2.08.66A14.05,14.05,0,0,0,54.5,32a14.41,14.41,0,0,0,9.31-3.39A14.83,14.83,0,0,0,65.41,27,14.49,14.49,0,0,0,54.5,3Zm0,27A12.5,12.5,0,1,1,67,17.5,12.52,12.52,0,0,1,54.5,30Zm7.79-17.71L52,22.59l-5.29-5.3-1.42,1.42L52,25.41l11.71-11.7Z"/><rect id="_Path_" data-name="&lt;Path&gt;" class="cls-3" width="72" height="72"/></g></g></g></g></svg>