<svg xmlns="http://www.w3.org/2000/svg" viewBox="0 0 48 48"><defs><style>.cls-1{fill:#00afaa;}.cls-2{fill:#0f1621;}.cls-3{fill:none;}</style></defs><title>icon_GreyandAqua</title><g id="Layer_2" data-name="Layer 2"><g id="Layer_1-2" data-name="Layer 1"><path class="cls-1" d="M40.5,32.94a1.5,1.5,0,1,1-1.5,1.5A1.5,1.5,0,0,1,40.5,32.94Zm.64,8.35c.1-.09,2.38-2,3.29-2.92a5.55,5.55,0,0,0-7.86-7.85h0a5.54,5.54,0,0,0,0,7.85c.91.91,3.19,2.83,3.29,2.92l.64.54ZM38,31.93a3.57,3.57,0,0,1,5,0,3.55,3.55,0,0,1,0,5c-.56.56-1.76,1.61-2.51,2.25-.75-.64-2-1.68-2.52-2.25a3.56,3.56,0,0,1,0-5ZM41,43H11.5a7.5,7.5,0,0,1,0-15h25a9.5,9.5,0,0,0,0-19H25v2H36.5a7.5,7.5,0,0,1,0,15h-25a9.5,9.5,0,0,0,0,19H41Z"/><path class="cls-2" d="M17.45,5.67H15V4H2V14H5.27a2,2,0,0,0,3.46,0h6.54a2,2,0,0,0,3.46,0H21V9.62ZM15,7.67h1.55L17.75,9H15ZM13,12H4V11h9Zm0-3H4V6h9Zm6,3H15V11h4ZM38.72,23H27.28L33,13Zm-8-2h4.56L33,17ZM15.06,31.55A5,5,0,1,0,17,35.5,4.95,4.95,0,0,0,15.06,31.55Zm-1.63,6.59L12,37l-1.43,1.14a3,3,0,0,1,0-5.28L12,34l1.43-1.14a3,3,0,0,1,0,5.28Z"/><path class="cls-3" d="M48,48H0V0H48Z"/></g></g></svg>