<svg xmlns="http://www.w3.org/2000/svg" viewBox="0 0 72 72"><defs><style>.cls-1{fill:#0d1622;}.cls-2{fill:#00b1aa;}.cls-3{fill:none;}</style></defs><title>Developer_Icons_72x72px_GreyandAqua_OLP_Parent_page_One-stop_location_shop</title><g id="Layer_2" data-name="Layer 2"><g id="OLP_Parent_Page" data-name="OLP Parent Page"><g id="Developer_Icons_72x72px_GreyandAqua_OLP_Parent_page_One-stop_location_shop"><path class="cls-1" d="M11,19H8V16h3Zm6-3H14v3h3Zm6,0H20v3h3Zm46-2V58a3,3,0,0,1-3,3H6a3,3,0,0,1-3-3V14a3,3,0,0,1,3-3H66A3,3,0,0,1,69,14ZM67,24H5V58a1,1,0,0,0,1,1H66a1,1,0,0,0,1-1Zm0-10a1,1,0,0,0-1-1H6a1,1,0,0,0-1,1v8H67ZM53,27H51V56h2Z"/><path class="cls-2" d="M42,48V42H33.41L29,37.59V35h5V27H22v8h5v2.59L22.59,42H14v6H9v8H21V48H16V44h6.59L28,49.41,33.41,44H40v4H35v8H47V48ZM19,50v4H11V50Zm5-17V29h8v4Zm4,13.59L25.41,44l-1-1,1-1L28,39.41,31.59,43ZM45,54H37V50h8Z"/><path class="cls-3" d="M0,0H72V72H0Z"/></g></g></g></svg>