<svg xmlns="http://www.w3.org/2000/svg" viewBox="0 0 72 72"><defs><style>.cls-1{fill:#0a0c0e;}.cls-2{fill:#00b1aa;}.cls-3{fill:none;}</style></defs><title>Developer_Icons_72x72px_GreyandAqua_OLP_marketplace_Accelerated_Transaction</title><g id="Layer_2" data-name="Layer 2"><g id="OLP_Marketplace" data-name="OLP Marketplace"><g id="Developer_Icons_72x72px_GreyandAqua_OLP_marketplace_Accelerated_Transaction"><path class="cls-1" d="M69.41,60l-8.7,8.71-1.42-1.42L65.59,61H36a22.8,22.8,0,0,1-3-.19A25,25,0,0,1,19.77,17h3.29A23,23,0,0,0,36,59H65.59l-6.3-6.29,1.42-1.42ZM39,11.19A22.8,22.8,0,0,0,36,11H6.41l6.3-6.29L11.29,3.29,2.59,12l8.7,8.71,1.42-1.42L6.41,13H36a22.79,22.79,0,0,1,3,.2A23,23,0,0,1,48.94,55h3.29A25,25,0,0,0,39,11.19Z"/><path class="cls-2" d="M37.18,48.06v5h-1.8V48.13a10.19,10.19,0,0,1-7-2.91l1.23-1.31a8.57,8.57,0,0,0,6.19,2.47c3.3,0,5.69-1.8,5.69-5,0-2.82-1.37-3.94-5.55-5.24-4.65-1.48-6.65-3.1-6.65-6.41,0-3.13,2.43-5.45,6.08-5.73v-5.1h1.8V24a9,9,0,0,1,5.7,2.57l-1.23,1.3a7.34,7.34,0,0,0-5.46-2.15c-2.81,0-4.78,1.48-4.78,3.94s1.23,3.45,5.42,4.72,6.78,2.81,6.78,6.93C43.61,45,41.12,47.57,37.18,48.06Z"/><rect class="cls-3" width="72" height="72"/></g></g></g></svg>