<svg xmlns="http://www.w3.org/2000/svg" viewBox="0 0 48 48"><defs><style>.cls-1{fill:#fff;}.cls-2{fill:none;}</style></defs><title>Developer_Icons_48x48px_AllWhite_Fleet_Telematics_Advanced_Data_Sets</title><g id="Layer_2" data-name="Layer 2"><g id="Fleet_Telematics" data-name="Fleet Telematics"><g id="Developer_Icons_48x48px_AllWhite_Fleet_Telematics_Advanced_Data_Sets"><path class="cls-1" d="M32.5,18.83v2.09l-4,1.22V20.05Zm2.5-.76v2.09l4-1.23V16.84Zm-6.5,8.52v2.1l4-1.22v-2.1Zm6.5-2v2.1l4-1.23v-2.1Zm-6.5,8.53v2.09l4-1.22V31.92Zm6.5-2v2.09L39,32V29.93ZM24.5,1.74V3.83l-18,5.5V32.57l-2-.65V7.85ZM13,11.08V34.65l2,.65V12.56l18-5.5V5Zm9,3.23V37.54l2,.65V15.79l18-5.5V8.2Zm4.05,26h0L24,41,3.5,34.4v2.11L24,43.05l.1,0,1.19-.38L44.5,36.51V34.4Z"/><path class="cls-2" d="M0,0H48V48H0Z"/></g></g></g></svg>