<svg xmlns="http://www.w3.org/2000/svg" viewBox="0 0 72 72"><defs><style>.cls-1{fill:#0f1621;}.cls-2{fill:#00afaa;}.cls-3{fill:none;}</style></defs><title>Developer_Icons_Routing_Localized (2)</title><g id="Layer_2" data-name="Layer 2"><g id="Routing"><g id="Developer_Icons_Routing_Localized"><g id="Developer_Icons_72x72px_GreyandAqua_Routing_Localized"><path class="cls-1" d="M34.5,6h-.17a5.77,5.77,0,0,1,.72,0A5.07,5.07,0,0,0,34.5,6Zm-.17,60h.17a5.07,5.07,0,0,0,.55,0A5.77,5.77,0,0,1,34.33,66Zm.72-60a5.77,5.77,0,0,0-.72,0H34A29.79,29.79,0,0,0,21.14,8.9,12.62,12.62,0,0,1,23,10.29,26.79,26.79,0,0,1,28,8.64a18.23,18.23,0,0,0-3.23,3.79A12,12,0,0,1,26,14.5c2-3.41,4.4-5.68,7-6.31V23.13a60.43,60.43,0,0,1-6.4-.45,13.15,13.15,0,0,1-.69,1.94,62.23,62.23,0,0,0,7.09.51v9.68a13,13,0,0,1,2.34,1.85c.11.11.22.22.32.34H48a52.76,52.76,0,0,1-1.32,10.93,54.35,54.35,0,0,0-7.74-1.14,11.07,11.07,0,0,1-.36,2,52.5,52.5,0,0,1,7.59,1.1C43.88,58,39.7,63.6,35,64v-9.3c-.55.53-1.26,1.18-2,1.83v7.31a9.57,9.57,0,0,1-4.81-3.17L26.63,62A14.43,14.43,0,0,0,28,63.36a27.92,27.92,0,0,1-15.94-10,27.32,27.32,0,0,1,3.56-1.67,12.75,12.75,0,0,1-.87-1.83,29.88,29.88,0,0,0-3.89,1.88A27.61,27.61,0,0,1,6,37H17.34c.1-.12.21-.23.32-.34A12.55,12.55,0,0,1,21,34.25c0-1.36.13-2.7.27-4l-2.18,1.91C19.06,33.09,19,34,19,35H6a27.09,27.09,0,0,1,.76-5.59C6.36,29,6,28.65,5.66,28.34s-.35-.36-.51-.54A29.64,29.64,0,0,0,4,36,30,30,0,0,0,34,66h.33a5.77,5.77,0,0,0,.72,0A30,30,0,0,0,35.05,6ZM62,35H50A54.79,54.79,0,0,0,48.6,23.34,34.15,34.15,0,0,0,57,20,27.59,27.59,0,0,1,62,35ZM55.76,18.41a33.25,33.25,0,0,1-7.66,3C46.57,16,44.21,11.64,41.33,9A28,28,0,0,1,55.76,18.41ZM35,8c4.65.36,8.79,5.89,11.09,13.84A55.66,55.66,0,0,1,35,23.13Zm0,27V25.13a57.44,57.44,0,0,0,11.61-1.31A52.21,52.21,0,0,1,48,35Zm6.33,28c2.93-2.7,5.31-7.13,6.84-12.65a33.05,33.05,0,0,1,7.73,3A27.94,27.94,0,0,1,41.33,63ZM57.1,51.79a34.58,34.58,0,0,0-8.44-3.38A54.77,54.77,0,0,0,50,37H62A27.61,27.61,0,0,1,57.1,51.79Z"/><path class="cls-2" d="M68.28,11.86a9.51,9.51,0,0,0-15.5-3.08l0,.05c.56.38,1.1.79,1.64,1.2A7.49,7.49,0,0,1,64.8,20.8c-.27.27-.62.61-1,1,.31.64.59,1.28.85,1.94.62-.55,1.18-1.07,1.59-1.48a9.53,9.53,0,0,0,2.06-10.36ZM59.5,12a3.41,3.41,0,0,0-2.11.72c.48.48,1,1,1.39,1.48a1.37,1.37,0,0,1,.72-.2A1.5,1.5,0,0,1,61,15.5a1.43,1.43,0,0,1-.38,1c.4.55.78,1.11,1.15,1.68A3.5,3.5,0,0,0,59.5,12Zm-33,32A1.5,1.5,0,1,1,25,45.5,1.5,1.5,0,0,1,26.5,44m0-2A3.5,3.5,0,1,0,30,45.5,3.5,3.5,0,0,0,26.5,42Zm0,16.14-.64-.54c-.18-.15-4.41-3.71-6.08-5.38A9.5,9.5,0,0,1,33.22,38.78h0a9.51,9.51,0,0,1,0,13.44c-1.67,1.67-5.9,5.23-6.08,5.38ZM26.5,38a7.5,7.5,0,0,0-5.3,12.8c1.23,1.24,4,3.64,5.3,4.72,1.27-1.08,4.07-3.48,5.3-4.72a7.48,7.48,0,0,0,0-10.6h0A7.43,7.43,0,0,0,26.5,38Zm-12-5.86-.64-.54c-.18-.15-4.41-3.71-6.08-5.38A9.5,9.5,0,0,1,21.22,12.78h0a9.51,9.51,0,0,1,0,13.44c-1.67,1.67-5.9,5.23-6.08,5.38ZM14.5,12A7.5,7.5,0,0,0,9.2,24.8c1.23,1.24,4,3.64,5.3,4.72,1.27-1.08,4.07-3.48,5.3-4.72a7.48,7.48,0,0,0,0-10.6h0A7.43,7.43,0,0,0,14.5,12Zm0,6A1.5,1.5,0,1,1,13,19.5,1.5,1.5,0,0,1,14.5,18m0-2A3.5,3.5,0,1,0,18,19.5,3.5,3.5,0,0,0,14.5,16Z"/><path class="cls-3" d="M0,0H72V72H0Z"/></g></g></g></g></svg>