<svg xmlns="http://www.w3.org/2000/svg" viewBox="0 0 48 48"><defs><style>.cls-1{fill:none;}.cls-2{fill:#fff;}</style></defs><title>Developer_Icons_48x48px_AllWhite_Fleet_Telematics_Easy_data_upload</title><g id="Layer_2" data-name="Layer 2"><g id="Fleet_Telematics" data-name="Fleet Telematics"><g id="Developer_Icons_48x48px_AllWhite_Fleet_Telematics_Easy_data_upload"><path class="cls-1" d="M48,0H0V48H48V0Z"/><path class="cls-2" d="M36.45,31H34V29h2.5a5,5,0,1,0-1.26-9.83L34,19.49l0-1.26A9.48,9.48,0,0,0,16.3,13.65l-.36.59-.67-.12A7.8,7.8,0,0,0,14,14a7.5,7.5,0,1,0,0,15h1.5v2H14a9.5,9.5,0,0,1,0-19,8.35,8.35,0,0,1,1,.06A11.56,11.56,0,0,1,24.45,7a11.43,11.43,0,0,1,11.4,10,7,7,0,1,1,.6,14ZM24.66,34.21l-5.21,5.2-5.2-5.2,1.41-1.42,2.79,2.8V24h2V35.59l2.8-2.8ZM29,19.59l-5.2,5.2,1.41,1.42L28,23.41V35h2V23.41l2.8,2.8,1.41-1.42Z"/></g></g></g></svg>