<svg xmlns="http://www.w3.org/2000/svg" viewBox="0 0 48 48"><defs><style>.cls-1{fill:#fff;}.cls-2{fill:none;}</style></defs><title>HERE_Icons_48x48px_AllWhite_Data_Vizualisation</title><g id="Layer_2" data-name="Layer 2"><g id="HERE_Icons_Data_Vizualisation"><g id="HERE_Icons_48x48px_AllWhite_Data_Vizualisation"><path class="cls-1" d="M37.75,27.17A4.89,4.89,0,0,1,35,28a5,5,0,0,1-1-9.9v2.08A3,3,0,0,0,35,26a2.88,2.88,0,0,0,1.29-.3ZM10,27H8V38h2Zm5-6H13V38h2Zm5,4H18V38h2Zm5-7H23V38h2ZM43,5H5A3,3,0,0,0,2,8V40a3,3,0,0,0,3,3H43a3,3,0,0,0,3-3V8A3,3,0,0,0,43,5Zm1,35a1,1,0,0,1-1,1H5a1,1,0,0,1-1-1V15H44Zm0-27H4V8A1,1,0,0,1,5,7H43a1,1,0,0,1,1,1Zm-8,5.1v2.08A3,3,0,0,1,38,23a3,3,0,0,1-.3,1.29l1.47,1.47A5,5,0,0,0,36,18.1ZM40,34H34V32h6Zm0,4H34V36h6Zm-8-4H30V32h2Zm0,4H30V36h2ZM9,11H7V9H9Zm4,0H11V9h2Zm4,0H15V9h2Z"/><rect id="_Path_" data-name="&lt;Path&gt;" class="cls-2" width="48" height="48"/></g></g></g></svg>