<svg xmlns="http://www.w3.org/2000/svg" viewBox="0 0 48 48"><defs><style>.cls-1{fill:#00afaa;}.cls-2{fill:none;}.cls-3{fill:#0f1621;}</style></defs><title>HERE_Icons_48x48px_GreyandAqua_Map_Customization</title><g id="Layer_2" data-name="Layer 2"><g id="HERE_Icons_Map_Customization"><g id="HERE_Icons_48x48px_GreyandAqua_Map_Customization"><path class="cls-1" d="M41.45,11.57l-2-2a1.9,1.9,0,0,0-2.67,0L23.7,22.61l-1.61,4.26a1.59,1.59,0,0,0,.38,1.66,1.54,1.54,0,0,0,1.12.47,1.62,1.62,0,0,0,.56-.1l4.24-1.6,1.66-1.66,11.39-11.4a1.88,1.88,0,0,0,0-2.67ZM24.29,26.71l1.1-2.91,1.81,1.81Zm4.35-2.48-1.86-1.86,8.94-8.94,1.86,1.86ZM39,13.87,37.13,12l1-1L40,12.9Z"/><polygon class="cls-2" points="6.92 30 4 32.92 4 27.08 6.92 30"/><polygon class="cls-2" points="12.92 24 8.33 28.59 4 24.26 4 15.08 12.92 24"/><path class="cls-2" d="M17.92,41H6a2,2,0,0,1-2-2V35.74l4.33-4.33Z"/><path class="cls-2" d="M17.92,7,8.33,16.59,4,12.26V9A2,2,0,0,1,6,7Z"/><polygon class="cls-2" points="29.92 7 14.33 22.59 9.74 18 20.75 7 29.92 7"/><path class="cls-2" d="M42.85,15.65l-.8.81,2,1.95V39a2,2,0,0,1-2,2H20.75l-11-11L32.67,7.08,34.54,9l.81-.82A4.22,4.22,0,0,1,36,7.6l-.6-.6H42a2,2,0,0,1,2,2v6.59L43.39,15A3.78,3.78,0,0,1,42.85,15.65Z"/><path class="cls-2" d="M0,0V48H48V0ZM46,39a4,4,0,0,1-4,4H6a4,4,0,0,1-4-4V9A4,4,0,0,1,6,5H42a4,4,0,0,1,4,4Z"/><path class="cls-3" d="M42,5H6A4,4,0,0,0,2,9V39a4,4,0,0,0,4,4H42a4,4,0,0,0,4-4V9A4,4,0,0,0,42,5ZM29.92,7,14.33,22.59,9.74,18l11-11ZM4,9A2,2,0,0,1,6,7H17.92L8.33,16.59,4,12.26Zm0,6.08L12.92,24,8.33,28.59,4,24.26Zm0,12L6.92,30,4,32.92ZM6,41a2,2,0,0,1-2-2V35.74l4.33-4.33L17.92,41ZM44,15.59,43.39,15a3.78,3.78,0,0,1-.54.67l-.8.81,2,1.95V39a2,2,0,0,1-2,2H20.75l-11-11L32.67,7.08,34.54,9l.81-.82A4.22,4.22,0,0,1,36,7.6l-.6-.6H42a2,2,0,0,1,2,2Z"/></g></g></g></svg>