<svg xmlns="http://www.w3.org/2000/svg" viewBox="0 0 48 48"><defs><style>.cls-1{fill:#fff;}.cls-2{fill:none;}</style></defs><title>Icons_48x48px_AllWhite_OLP_One-stop_location_shop</title><g id="Layer_2" data-name="Layer 2"><g id="OLP_Parent_Page" data-name="OLP Parent Page"><g id="Developer_Icons_48x48px_AllWhite_OLP_Parent_page_One-stop_location_shop"><path class="cls-1" d="M7.43,12.43H5.53v-1.9h1.9Zm3.79-1.9H9.33v1.9h1.89Zm3.8,0h-1.9v1.9H15ZM46,10V38a3,3,0,0,1-3,3H5a3,3,0,0,1-3-3V10A3,3,0,0,1,5,7H43A3,3,0,0,1,46,10Zm-2,6H4V38a1,1,0,0,0,1,1H43a1,1,0,0,0,1-1Zm0-6a1,1,0,0,0-1-1H5a1,1,0,0,0-1,1v4H44Zm-9,9H33V36h2ZM27,31V28H21.41L19,25.57V24h3V18H14v6h3v1.59L14.61,28H9v3H6v6h8V31H11V30h3.61L18,33.42,21.41,30H25v1H22v6h8V31ZM16,22V20h4v2ZM12,33v2H8V33Zm6-2.42L16.43,29,18,27.42,19.59,29ZM28,35H24V33h4Z"/><path class="cls-2" d="M48,48H0V0H48Z"/></g></g></g></svg>