<svg id="Layer_1" data-name="Layer 1" xmlns="http://www.w3.org/2000/svg" viewBox="0 0 674.55 795"><defs><style>.cls-1{fill:#fff;}</style></defs><title>IconJodi</title><g id="Developer_Icons_72x72px_GreyandAqua_ADS_Diverse_datasets"><path class="cls-1" d="M7202.23,7599.73,6865,7400.92V7003.53l337.28-198.8,337.27,198.8v397.39Zm-313.18-212.79,313.18,184.61,313.18-184.61V7017.51L7202.23,6832.9l-313.18,184.61Z" transform="translate(-6864.95 -6804.73)"/><path class="cls-1" d="M7202.23,7246.64l-252.91-147.92,252.91-147.93,252.9,147.93ZM6997.4,7098.72l204.83,119.8,204.82-119.8-204.82-119.81ZM7396,7161.51l-24.09,14,35.05,20.56-204.77,119.75-204.78-119.75,35.06-20.56-24.09-14-59.15,34.56,253,148,253-148Zm0,97.35-24.09,14,35.05,20.57-204.77,119.75-204.78-119.75,35.06-20.57-24.09-14-59.15,34.57,253,148,253-148Z" transform="translate(-6864.95 -6804.73)"/></g></svg>