<svg xmlns="http://www.w3.org/2000/svg" viewBox="0 0 72 72"><defs><style>.cls-1{fill:#fff;}.cls-2{fill:none;}</style></defs><title>Here.com_icons_XYZ_Highly_accurate_here_maps (11)</title><g id="Layer_2" data-name="Layer 2"><g id="XYZ"><g id="Here.com_icons_XYZ_Highly_accurate_here_maps"><g id="Here.com_Icons_72x72px_AllWhite_XYZ_Highly_accurate_maps"><path class="cls-1" d="M57.7,22H55.23l.19.24a28,28,0,1,1-5.66-5.66l.24.19V14.3A29.72,29.72,0,0,0,33,9,30,30,0,1,0,63,39,29.72,29.72,0,0,0,57.7,22Zm-17,14.93L39,38.68A1.67,1.67,0,0,1,39,39a6,6,0,1,1-6-6,1.67,1.67,0,0,1,.32,0l1.75-1.75A8.27,8.27,0,0,0,33,31a8,8,0,1,0,8,8A8.27,8.27,0,0,0,40.73,36.93ZM49,28.7l-1.45,1.45a17,17,0,1,1-5.66-5.66L43.3,23A19,19,0,1,0,49,28.7ZM62,10V1.59l-9,9v7L32.29,38.29l1.42,1.42L54.42,19h7l9-9Zm-1.42,7H55V11.41l5-5V12h5.58Z"/><path id="_Path_" data-name="&lt;Path&gt;" class="cls-2" d="M72,72H0V0H72Z"/></g></g></g></g></svg>