<svg xmlns="http://www.w3.org/2000/svg" viewBox="0 0 48 48"><defs><style>.cls-1{fill:#fff;}.cls-2{fill:none;}</style></defs><title>Icons_48x48px_AllWhite_OLP_Quality_of_data</title><g id="Layer_2" data-name="Layer 2"><g id="OLP_Parent_Page" data-name="OLP Parent Page"><g id="Developer_Icons_48x48px_AllWhite_OLP_Parent_page_Quality_of_data"><path class="cls-1" d="M35,30H22V28H35Zm0,7H22v2H35ZM41,2H7V46H41ZM9,4H39V44H9Zm26,6H22v2H35Zm0,9H22v2H35ZM15,32.41l-2.71-2.7,1.42-1.42L15,29.59l3.29-3.3,1.42,1.42Zm4.71,4.3-1.42-1.42L15,38.59l-1.29-1.3-1.42,1.42L15,41.41Zm0-27L18.29,8.29,15,11.59l-1.29-1.3-1.42,1.42L15,14.41Zm0,9-1.42-1.42L15,20.59l-1.29-1.3-1.42,1.42L15,23.41Z"/><path class="cls-2" d="M48,48H0V0H48Z"/></g></g></g></svg>