<?xml version="1.0" encoding="utf-8"?>
<!-- Generator: Adobe Illustrator 22.1.0, SVG Export Plug-In . SVG Version: 6.00 Build 0)  -->
<svg version="1.1" id="lui-icon-connectionsonline-ondark-outline-large"
	 xmlns="http://www.w3.org/2000/svg" xmlns:xlink="http://www.w3.org/1999/xlink" x="0px" y="0px" viewBox="0 0 48 48"
	 enable-background="new 0 0 48 48" xml:space="preserve">
<g>
	<g id="lui-icon-connectionsonline-ondark-outline-large-bounding-box" opacity="0">
		<path fill="#FFFFFF" d="M47,1v46H1V1H47 M48,0H0v48h48V0L48,0z"/>
	</g>
	<path fill="none" stroke="#FFFFFF" stroke-width="2" stroke-miterlimit="10" d="M41.3591,19.5217
		c-4.556-4.4588-10.7846-7.2158-17.663-7.2155c-6.7203,0.0003-12.8113,2.642-17.337,6.9211"/>
	<path fill="none" stroke="#FFFFFF" stroke-width="2" stroke-miterlimit="10" d="M36.6434,24.5507
		c-3.2298-3.4769-7.8274-5.6652-12.947-5.665c-5.0126,0.0002-9.5283,2.0951-12.7464,5.4458"/>
	<path fill="none" stroke="#FFFFFF" stroke-width="2" stroke-miterlimit="10" d="M31.8734,29.6488
		c-1.8367-2.5311-4.8104-4.1837-8.1767-4.1836c-3.3123,0.0001-6.2431,1.6009-8.0861,4.063"/>
	<path fill="#FFFFFF" stroke="#FFFFFF" stroke-miterlimit="10" d="M26.5858,33.8257c-0.6029-1.0293-1.7084-1.7283-2.9874-1.7283
		s-2.3844,0.699-2.9873,1.7283L23.5984,37L26.5858,33.8257z"/>
</g>
</svg>
