<svg xmlns="http://www.w3.org/2000/svg" viewBox="0 0 48 48"><defs><style>.cls-1{fill:#fff;}.cls-2{fill:none;}</style></defs><title>HERE_Icons_48x48px_AllWhite_Map_Customization</title><g id="Layer_2" data-name="Layer 2"><g id="HERE_Icons_Map_Customization"><g id="HERE_Icons_48x48px_AllWhite_Map_Customization"><path class="cls-1" d="M41.45,11.57l-2-2a1.9,1.9,0,0,0-2.67,0L23.7,22.61l-1.61,4.26a1.59,1.59,0,0,0,.38,1.66,1.54,1.54,0,0,0,1.12.47,1.62,1.62,0,0,0,.56-.1l4.24-1.6,1.66-1.66,11.39-11.4a1.88,1.88,0,0,0,0-2.67ZM24.29,26.71l1.1-2.91,1.81,1.81Zm4.35-2.48-1.86-1.86,8.94-8.94,1.86,1.86ZM39,13.87,37.13,12l1-1L40,12.9ZM42,5H6A4,4,0,0,0,2,9V39a4,4,0,0,0,4,4H42a4,4,0,0,0,4-4V9A4,4,0,0,0,42,5ZM4,9A2,2,0,0,1,6,7H17.92L8.33,16.59,4,12.26Zm0,6.08,7.51,7.51,1.41-1.41L9.74,18l11-11h9.17L8.33,28.59,4,24.26Zm0,12L6.92,30,4,32.92ZM44,15.59,43.39,15a3.78,3.78,0,0,1-.54.67l-.8.81,2,1.95V39a2,2,0,0,1-2,2H20.75l-9.59-9.58L9.75,32.83,17.92,41H6a2,2,0,0,1-2-2V35.74L32.67,7.08,34.54,9l.81-.82A4.22,4.22,0,0,1,36,7.6l-.6-.6H42a2,2,0,0,1,2,2Z"/><rect class="cls-2" width="48" height="48"/></g></g></g></svg>