<svg xmlns="http://www.w3.org/2000/svg" viewBox="0 0 72 72"><defs><style>.cls-1{fill:#0f1621;}.cls-2{fill:#00afaa;}.cls-3{fill:none;}</style></defs><title>HERE_Icons_72x72px_GreyandAqua_Car_with_WiFi</title><g id="Layer_2" data-name="Layer 2"><g id="HERE_Icons_Car_with_WiFi"><g id="HERE_Icons_72x72px_GreyandAqua_Car_with_WiFi"><path class="cls-1" d="M52.18,51,36,54,19.82,51l.36-2L36,52l15.82-3ZM69,49H65.74A10.22,10.22,0,0,1,66,51.28V62a7,7,0,0,1-7,7H55.52L51,63H21l-4.5,6H13a7,7,0,0,1-7-7V51.28A10.22,10.22,0,0,1,6.26,49H3V47H6.94a10.2,10.2,0,0,1,1.48-2.33l8-10A6.94,6.94,0,0,1,21.89,32H31.1a5,5,0,0,0,0,2H21.89A5,5,0,0,0,18,35.88L10,46a8.23,8.23,0,0,0-2,5.33V62a5,5,0,0,0,5,5h2.5L20,61H52l4.5,6H59a5,5,0,0,0,5-5V51.28A8.23,8.23,0,0,0,62.06,46L54,35.88A5,5,0,0,0,50.11,34H40.9a5,5,0,0,0,0-2h9.21a6.94,6.94,0,0,1,5.47,2.64l8,10.06A9.85,9.85,0,0,1,65.06,47H69Z"/><path class="cls-2" d="M36,21.85A11.1,11.1,0,0,0,27.32,26l1.56,1.25a9.14,9.14,0,0,1,14.24,0L44.68,26A11.1,11.1,0,0,0,36,21.85Zm0-8.7a19.78,19.78,0,0,0-15.45,7.41l1.56,1.25a17.81,17.81,0,0,1,27.78,0l1.56-1.25A19.78,19.78,0,0,0,36,13.15Zm0-8.7A28.49,28.49,0,0,0,13.78,15.1l1.56,1.25a26.51,26.51,0,0,1,41.32,0l1.56-1.25A28.49,28.49,0,0,0,36,4.45ZM38,33a2,2,0,1,1-2-2A2,2,0,0,1,38,33Z"/><rect id="_Path_" data-name="&lt;Path&gt;" class="cls-3" width="72" height="72"/></g></g></g></svg>