<svg xmlns="http://www.w3.org/2000/svg" viewBox="0 0 72 72"><defs><style>.cls-1{fill:#0f1621;}.cls-2{fill:#00afaa;}.cls-3{fill:none;}</style></defs><title>HERE_Icons_72x72px_GreyandAqua_Map_Customization</title><g id="Layer_2" data-name="Layer 2"><g id="HERE_Icons_Map_Customization"><g id="HERE_Icons_72x72px_GreyandAqua_Map_Customization"><path class="cls-1" d="M63.22,8H8.78A5.8,5.8,0,0,0,3,13.78V58.22A5.8,5.8,0,0,0,8.78,64H63.22A5.8,5.8,0,0,0,69,58.22V13.78A5.8,5.8,0,0,0,63.22,8ZM5,13.78A3.78,3.78,0,0,1,8.78,10h20.8L12.5,27.08,5,19.58Zm0,8.64,13,13L19.38,34,13.92,28.5,32.42,10H47.59L27.91,29.67,12.5,45.08,5,37.58Zm0,18,6.08,6.08L5,52.58ZM67,26.58l-2-2a4.86,4.86,0,0,1-.59.7l-.77.77L67,29.42v28.8A3.78,3.78,0,0,1,63.22,62H29.42L16,48.62,14.62,50l12,12H8.78A3.78,3.78,0,0,1,5,58.22v-2.8l44-44,4,3.95.78-.78a5.35,5.35,0,0,1,.68-.58l-4-4H63.22A3.78,3.78,0,0,1,67,13.78Z"/><path class="cls-2" d="M62.3,19.79l-3.09-3.1a2.38,2.38,0,0,0-3.36,0L38.58,34,40,35.41l13.86-13.9,3.63,3.63L43.59,39l-2.12,2.12-5-5-.9.91-2.17,6.15a1.93,1.93,0,0,0,1.8,2.56,2.05,2.05,0,0,0,.64-.11L42,43.44l.91-.9L45,40.42,62.3,23.15A2.37,2.37,0,0,0,62.3,19.79Zm-27,23.88,1.53-4.32,2.79,2.79ZM60.89,21.74l-2,2L55.28,20.1l2-2a.37.37,0,0,1,.53,0l3.1,3.1A.37.37,0,0,1,60.89,21.74Z"/><rect class="cls-3" width="72" height="72"/></g></g></g></svg>