<svg xmlns="http://www.w3.org/2000/svg" viewBox="0 0 72 72"><defs><style>.cls-1{fill:#fff;}.cls-2{fill:none;}</style></defs><title>HERE_Icons_72x72px_AllWhite_Map_Enrichment</title><g id="Layer_2" data-name="Layer 2"><g id="HERE_Icons_Map_Enrichment"><g id="HERE_Icons_72x72px_AllWhite_Map_Enrichment"><path class="cls-1" d="M65,10H7a4,4,0,0,0-4,4V59a4,4,0,0,0,4,4H65a4,4,0,0,0,4-4V14A4,4,0,0,0,65,10ZM5,20.42,21.58,37,14,44.58l-9-9Zm0,18L12.58,46,5,53.58Zm62-2.84-6.24,6.24a5.33,5.33,0,0,1,1.42,1.42L67,38.42V59a2,2,0,0,1-2,2H44.42L55.24,50.18a5.33,5.33,0,0,1-1.42-1.42L41.58,61H30.42l-4.24-4.24a5.33,5.33,0,0,1-1.42,1.42L27.58,61H7a2,2,0,0,1-2-2V56.42l9-9,3.82,3.82a5.33,5.33,0,0,1,1.42-1.42L15.42,46,26.24,35.18a5.33,5.33,0,0,1-1.42-1.42L23,35.58,13.92,26.5l3.32-3.32a5.33,5.33,0,0,1-1.42-1.42L12.5,25.08,5,17.58V14a2,2,0,0,1,2-2H25.58l-2.82,2.82a5.33,5.33,0,0,1,1.42,1.42L28.42,12H46.59L31.76,26.83a5.15,5.15,0,0,1,1.42,1.41L35,26.42,53.19,44.61a4.93,4.93,0,0,1,1-1.84L36.42,25,49,12.41l18,18Zm0-8L51.41,12H65a2,2,0,0,1,2,2ZM49,34.41,39.59,25,49,15.59,58.41,25ZM42.41,25,49,31.59,55.59,25,49,18.41ZM42,36.59,32.59,46l3,3-7,7,3,3h2.82l-3-3,7-7-3-3L42,39.41,49.59,47l-12,12h2.82l12-12ZM21.93,18.49a2,2,0,0,0-1.42-1.42A1.7,1.7,0,0,0,20,17a2,2,0,0,0-2,2,1.7,1.7,0,0,0,.07.51,2,2,0,0,0,1.42,1.42A1.7,1.7,0,0,0,20,21a2,2,0,0,0,2-2A1.7,1.7,0,0,0,21.93,18.49ZM22,52a1.7,1.7,0,0,0-.51.07,2,2,0,0,0-1.42,1.42A1.7,1.7,0,0,0,20,54a2,2,0,0,0,2,2,1.7,1.7,0,0,0,.51-.07,2,2,0,0,0,1.42-1.42A1.7,1.7,0,0,0,24,54,2,2,0,0,0,22,52Zm8.93-21.51a2,2,0,0,0-1.42-1.42A1.7,1.7,0,0,0,29,29a2,2,0,0,0-2,2,1.7,1.7,0,0,0,.07.51,2,2,0,0,0,1.42,1.42A1.7,1.7,0,0,0,29,33a2,2,0,0,0,2-2A1.7,1.7,0,0,0,30.93,30.49Zm29,15a2,2,0,0,0-1.42-1.42A1.7,1.7,0,0,0,58,44a2,2,0,0,0-2,2,1.7,1.7,0,0,0,.07.51,2,2,0,0,0,1.42,1.42A1.7,1.7,0,0,0,58,48a2,2,0,0,0,2-2A1.7,1.7,0,0,0,59.93,45.49Z"/><rect id="_Path_" data-name="&lt;Path&gt;" class="cls-2" width="72" height="72"/></g></g></g></svg>