<svg xmlns="http://www.w3.org/2000/svg" viewBox="0 0 96 96"><defs><style>.cls-1{fill:#fff;}.cls-2{fill:none;}</style></defs><title>HERE_Icons_96x96px_AllWhite_Street_Map_On</title><g id="Layer_2" data-name="Layer 2"><g id="HERE_Icons_Street_Map_On"><g id="HERE_Icons_96x96px_AllWhite_Street_Map_On"><path class="cls-1" d="M48,73,25.82,69l.36-2L48,71l21.82-4,.36,2Zm45-7H88.65A13.7,13.7,0,0,1,89,69.07V83.82A9.19,9.19,0,0,1,79.82,93h-6l-6-8H28.15l-6,8h-6A9.19,9.19,0,0,1,7,83.82V69.07A13.7,13.7,0,0,1,7.35,66H3V64H8a13.74,13.74,0,0,1,2.23-3.75L21.1,46.48A9.16,9.16,0,0,1,28.3,43H67.7a9.16,9.16,0,0,1,7.2,3.48l10.91,13.8A13.65,13.65,0,0,1,88,64h5Zm-6,3.07a11.68,11.68,0,0,0-2.74-7.53L73.33,47.73A7.13,7.13,0,0,0,67.7,45H28.3a7.13,7.13,0,0,0-5.63,2.73L11.76,61.52A11.69,11.69,0,0,0,9,69.07V83.82A7.19,7.19,0,0,0,16.18,91h5l6-8h41.7l6,8h5A7.19,7.19,0,0,0,87,83.82ZM81.44,3H14.56A7.57,7.57,0,0,0,7,10.56V58.44a6.41,6.41,0,0,0,.07,1c.26-.38.54-.74.83-1.1L9,56.94V24.41l16,16A11.47,11.47,0,0,1,27.45,40l-9.26-9.26L43.94,5l0,0H65.55l-35,35h2.84L46.62,26.76,59.86,40H62.7L48,25.34,67.28,6.1,87,26.77V57l1.16,1.47c.27.32.53.65.77,1a6.37,6.37,0,0,0,.07-1V10.56A7.57,7.57,0,0,0,81.44,3ZM16.77,29.35,9,21.62V10.56A5.56,5.56,0,0,1,14.56,5H41.12ZM87,23.88,69,5H81.44A5.56,5.56,0,0,1,87,10.56Z"/><rect id="_Path_" data-name="&lt;Path&gt;" class="cls-2" width="96" height="96"/></g></g></g></svg>