<svg xmlns="http://www.w3.org/2000/svg" viewBox="0 0 96 96"><defs><style>.cls-1{fill:#fff;}.cls-2{fill:none;}</style></defs><title>Here.com_Icons_Indoor_Positioning_Flexible_tools (7)</title><g id="Layer_2" data-name="Layer 2"><g id="Indoor_Positioning" data-name="Indoor Positioning"><g id="Here.com_Icons_Indoor_Positioning_Flexible_tools"><g id="Here.com_Icons_96x96px_AllWhite_Indoor_Positioning_Flexible_tools"><path class="cls-1" d="M93,32l-8.8,8.18-1.36-1.47L89,33H65.41L51.54,46.88l-1.42-1.42L64.59,31H89l-6.14-5.71,1.36-1.47ZM31.41,67H7l6.14,5.71L11.8,74.18,3,66l8.8-8.18,1.36,1.47L7,65H30.59L44.46,51.12l1.42,1.42ZM84.2,57.82l-1.36,1.47L89,65H65.41l-34-34H7l6.14-5.71L11.8,23.82,3,32l8.8,8.18,1.36-1.47L7,33H30.59l34,34H89l-6.14,5.71,1.36,1.47L93,66Z"/><path class="cls-2" d="M0,0H96V96H0Z"/></g></g></g></g></svg>