<svg width="64" height="64" viewBox="0 0 64 64" xmlns="http://www.w3.org/2000/svg" xmlns:xlink="http://www.w3.org/1999/xlink"><defs><path d="M36 0c1.64 0 3.672.84 4.828 2C50.943 12.908 56 18.908 56 20v38c0 3.308-2.692 6-6 6H14c-3.308 0-6-2.692-6-6V6c0-3.308 2.692-6 6-6zm-4 4H14c-1.104 0-2 .898-2 2v52c0 1.102.896 2 2 2h36a2 2 0 002-2V24a4 4 0 00-4-4h-7.5a4.515 4.515 0 01-4.5-4.5V8a4 4 0 00-4-4zM8.016 57.993L8 58c.053.021 3.738.037 3.987.004L12 58c0-.05-3.71-.063-3.984-.007zM45.5 48a.5.5 0 01.5.5v3a.5.5 0 01-.5.5h-27a.5.5 0 01-.5-.5v-3a.5.5 0 01.5-.5h27zm0-8a.5.5 0 01.5.5v3a.5.5 0 01-.5.5h-27a.5.5 0 01-.5-.5v-3a.5.5 0 01.5-.5h27zm0-8a.5.5 0 01.5.5v3a.5.5 0 01-.5.5h-27a.5.5 0 01-.5-.5v-3a.5.5 0 01.5-.5h27z" id="path-1"/></defs><g id="6_Doc" stroke="none" stroke-width="1" fill="none" fill-rule="evenodd"><mask id="mask-2" fill="#fff"><use xlink:href="#path-1"/></mask><use id="Icon" fill="#3f454d" xlink:href="#path-1"/></g></svg>