<svg width="64" height="64" viewBox="0 0 64 64" xmlns="http://www.w3.org/2000/svg" xmlns:xlink="http://www.w3.org/1999/xlink"><defs><path d="M53.6 41.6c-1.44 0-2.4.96-2.4 2.4v7.2H12.8V44c0-1.44-.96-2.4-2.4-2.4S8 42.56 8 44v9.6c0 1.44.96 2.4 2.4 2.4h43.2c1.44 0 2.4-.96 2.4-2.4V44c0-1.44-.96-2.4-2.4-2.4z" id="path-1"/><path d="M16.781 25.818l9.778 9.429a2.737 2.737 0 003.771 0 2.507 2.507 0 000-3.637l-5.225-5.038h20.228C46.806 26.572 48 25.42 48 24c0-1.42-1.194-2.571-2.667-2.571H25.105l5.225-5.04a2.507 2.507 0 000-3.636 2.737 2.737 0 00-3.771 0l-9.778 9.429a2.507 2.507 0 000 3.636z" id="path-3"/></defs><g id="5_Fallback-download" stroke="none" stroke-width="1" fill="none" fill-rule="evenodd"><mask id="mask-2" fill="#fff"><use xlink:href="#path-1"/></mask><use id="Icon" fill="#3f454d" fill-rule="nonzero" xlink:href="#path-1"/><mask id="mask-4" fill="#fff"><use xlink:href="#path-3"/></mask><use id="Mask" fill="#3f454d" fill-rule="nonzero" transform="matrix(0 -1 -1 0 56 56)" xlink:href="#path-3"/></g></svg>