<svg width="12" height="12" viewBox="0 0 12 12" xmlns="http://www.w3.org/2000/svg"><g id="Page-1" stroke="none" stroke-width="1" fill="none" fill-rule="evenodd"><g id="Artboard" transform="translate(-35 -59)"><g id="Icon_External_Link-Copy" transform="translate(33 57)"><g id="Group" transform="translate(2 2)" fill="#3F454D"><path d="M.133 9.517a2.34 2.34 0 002.334 2.333h6A2.34 2.34 0 0010.8 9.517V5.85c0-.367-.3-.667-.667-.667-.366 0-.666.3-.666.667v3.667c0 .55-.45 1-1 1h-6c-.55 0-1-.45-1-1v-6c0-.55.45-1 1-1h3.666c.367 0 .667-.3.667-.667 0-.367-.3-.667-.667-.667H2.467A2.34 2.34 0 00.133 3.517v6z" id="Shape" fill-rule="nonzero"/><path d="M11.867.817c0-.05 0-.084-.017-.134 0-.016 0-.016-.017-.033A.127.127 0 0011.8.567c0-.017-.017-.034-.017-.034C11.767.5 11.75.483 11.75.45a.955.955 0 00-.183-.183.126.126 0 00-.067-.034c-.017 0-.033-.016-.05-.016C11.417.2 11.4.2 11.367.183l-.034-.016c-.033 0-.083-.017-.116-.017H8.133c-.366 0-.666.3-.666.667 0 .366.3.666.666.666h1.45l-4.3 4.3a.68.68 0 00.017.95c.25.25.667.25.917 0l4.316-4.3v1.45c0 .367.3.667.667.667.367 0 .667-.3.667-.667V.817z" id="Shape"/></g></g></g></g></svg>