<svg xmlns="http://www.w3.org/2000/svg" viewBox="0 0 12 12" width="12" height="12"><path fill="#fff" d="M.13 9.52c0 1.28 1.05 2.33 2.33 2.33h6c1.28 0 2.33-1.05 2.33-2.33V5.85a.67.67 0 00-1.34 0v3.67c0 .55-.45 1-1 1h-6c-.55 0-1-.45-1-1v-6c0-.55.45-1 1-1h3.67a.67.67 0 000-1.34H2.45C1.17 1.18.12 2.23.12 3.51z"/><path fill="#FFF" d="M11.87.82c0-.05 0-.08-.02-.13 0-.02 0-.02-.02-.03 0-.03-.02-.07-.03-.08 0-.02-.02-.03-.02-.03-.02-.03-.03-.05-.03-.08-.05-.07-.12-.13-.18-.18a.108.108 0 00-.07-.03c-.02 0-.03-.02-.05-.02-.03-.02-.05-.02-.08-.03l-.03-.02c-.03 0-.08-.02-.12-.02H8.13a.67.67 0 000 1.34h1.45l-4.3 4.3c-.25.27-.25.68.02.95.25.25.67.25.92 0l4.32-4.3v1.45a.67.67 0 001.34 0z"/></svg>