<svg width="18" height="15" viewBox="0 0 18 15" xmlns="http://www.w3.org/2000/svg"><g id="Filters" stroke="none" stroke-width="1" fill="none" fill-rule="evenodd"><g id="M_Complex_Press_01" transform="translate(-222 -304)" fill="#3F454D" fill-rule="nonzero"><g id="Search" transform="translate(0 286)"><g id="Group-3" transform="translate(222 16)"><g id="Group"><path d="M5.286 2c1.084 0 1.983.7 2.3 1.66h9.753a.648.648 0 110 1.296H7.586c-.29.96-1.19 1.66-2.273 1.66-1.057 0-1.983-.7-2.247-1.66H.661A.648.648 0 010 4.308c0-.363.264-.649.634-.649H3.04A2.349 2.349 0 015.286 2zm.027 1.296c-.555 0-1.031.441-1.031 1.012 0 .57.476 1.01 1.03 1.01.556 0 1.032-.44 1.032-1.01 0-.57-.476-1.012-1.031-1.012zm7.93 9.089c1.083 0 1.982.7 2.272 1.66h1.824a.648.648 0 110 1.296h-1.824A2.356 2.356 0 0113.242 17c-1.057 0-1.982-.7-2.246-1.66H.66a.648.648 0 01-.66-.647c0-.363.264-.648.66-.648h10.336a2.347 2.347 0 012.246-1.66zm.026 1.296c-.582 0-1.031.44-1.031 1.011 0 .57.476 1.012 1.03 1.012.556 0 1.032-.441 1.032-1.012 0-.57-.476-1.01-1.031-1.01z" id="Combined-Shape"/></g></g></g></g></g></svg>