<svg width="19" height="19" viewBox="0 0 19 19" xmlns="http://www.w3.org/2000/svg"><g id="Design-mockups" stroke="none" stroke-width="1" fill="none" fill-rule="evenodd"><g id="D/Footer/Japan/Landing/Open" transform="translate(-1204 -901)" fill="#FFF" fill-rule="nonzero"><g id="English/Open" transform="translate(1194 881)"><path d="M19.5 20a9.5 9.5 0 110 19 9.5 9.5 0 010-19zm-3.916 14.6l-.053.02c.834 1.843 2.094 3.09 3.47 3.335V34.01a12.626 12.626 0 00-3.417.592zM20 34.01v3.945c1.375-.246 2.634-1.492 3.469-3.337A12.57 12.57 0 0020 34.01zm-5.404.966L14.54 35a9.637 9.637 0 00-.96.49l-.068.042a8.516 8.516 0 002.533 1.736c-.561-.627-1.052-1.403-1.448-2.292zm9.807-.001l-.041.091c-.39.851-.866 1.596-1.408 2.202a8.508 8.508 0 002.533-1.736l.275.17a9.439 9.439 0 00-1.36-.727zM27.986 30h-2.494a13.859 13.859 0 01-.722 4.045c.43.184.84.393 1.226.624l.17.106A8.46 8.46 0 0027.986 30zm-14.478 0h-2.494a8.46 8.46 0 001.82 4.774l-.093.058c.462-.296.961-.56 1.489-.788A13.852 13.852 0 0113.508 30zM19 30l-4.491.001a12.88 12.88 0 00.654 3.687c1.187-.4 2.487-.633 3.837-.68V30zm5.491.001L20 30v3.009c1.35.046 2.65.28 3.837.678.373-1.093.607-2.344.654-3.686zm-13.477-1h2.494c.05-1.495.316-2.898.752-4.132a10.34 10.34 0 01-1.52-.8l.147.09a8.46 8.46 0 00-1.873 4.842zm4.18-3.776l-.066.193a12.932 12.932 0 00-.62 3.582H19v-3.107a13.581 13.581 0 01-3.807-.668zm8.612-.001l-.25.082a13.68 13.68 0 01-3.556.587V29h4.491a12.832 12.832 0 00-.685-3.776zm2.307-1.065l-.117.074a10.6 10.6 0 01-1.254.637c.434 1.233.7 2.636.75 4.13h2.494a8.46 8.46 0 00-1.873-4.84zm-10.534.117l-.01.02c1.06.346 2.223.552 3.431.597v-3.848c-1.349.24-2.587 1.445-3.421 3.231zM20 21.045l.001 3.848c1.209-.045 2.37-.25 3.43-.597-.835-1.797-2.077-3.009-3.43-3.251zm-3.955.687l-.128.058a8.518 8.518 0 00-2.344 1.617c.34.2.692.377 1.06.536.39-.856.868-1.603 1.412-2.211zm6.91 0l.06.068a8.834 8.834 0 011.351 2.141 9.252 9.252 0 001.061-.534 8.522 8.522 0 00-2.472-1.675z" id="Flag_World"/></g></g></g></svg>