<svg width="14" height="16" viewBox="0 0 14 16" xmlns="http://www.w3.org/2000/svg"><g id="Page-1" stroke="none" stroke-width="1" fill="none" fill-rule="evenodd"><g id="Artboard" transform="translate(-52 -57)"><g id="Icon_External_Link-Copy-3" transform="translate(51 57)"><g id="Icon_PDF" transform="translate(1)"><g id="Icon/PDF/16px"><g id="Group"><g id="Shape"><path d="M3.375 2.201h-.667v.995h.667c.268 0 .48-.236.48-.484 0-.279-.212-.511-.48-.511zm2.686.02h-.663v1.791h.663c1.08 0 1.128-1.791 0-1.791z" fill="#000" fill-rule="nonzero" transform="translate(0 7.5)"/><path d="M11.5 0H.5C.225 0 0 .225 0 .5v5c0 .275.225.5.5.5h11c.275 0 .5-.225.5-.5v-5c0-.275-.225-.5-.5-.5z" fill="#01A39C" transform="translate(0 7.5)"/></g><path d="M13.5 3.793L10.207.5A1.87 1.87 0 009 0H3.5C2.673 0 2 .673 2 1.5v5a.5.5 0 101 0v-5a.5.5 0 01.5-.5H8a1 1 0 011 1v1.875C9 4.494 9.507 5 10.125 5H12a1 1 0 011 1v8.5a.5.5 0 01-.5.5h-9a.5.5 0 01-.5-.5.5.5 0 10-1 0c0 .827.673 1.5 1.5 1.5h9c.827 0 1.5-.673 1.5-1.5V5c0-.41-.21-.918-.5-1.207z" id="Shape" fill="#01A39C"/></g><path d="M4.214 9.239c.204.159.306.398.306.716 0 .333-.103.583-.308.75-.206.165-.48.249-.823.249h-.338V12H2.5V9h.852c.37 0 .657.08.862.239zm-.42 1.157c.1-.086.15-.232.15-.44 0-.357-.199-.535-.597-.535h-.296v1.103h.296c.198 0 .347-.043.447-.128zM7.1 9.316c.269.212.403.602.403 1.169 0 .556-.132.947-.396 1.174-.265.227-.6.341-1.006.341h-.785V9h.71c.448 0 .806.106 1.074.317zm-1.233.114v2.14h.271c.245 0 .437-.079.576-.236.14-.158.21-.441.21-.85 0-.283-.036-.502-.107-.657a.608.608 0 00-.28-.315.959.959 0 00-.415-.082h-.255zM8.368 9H10l-.058.425H8.919v.9h.889v.425h-.89V12h-.55V9z" id="PDF" fill="#FFF"/></g></g></g></g></g></svg>