<svg width="64" height="64" viewBox="0 0 64 64" xmlns="http://www.w3.org/2000/svg" xmlns:xlink="http://www.w3.org/1999/xlink"><defs><path d="M40 0c1.64 0 3.672.84 4.828 2L58 15.172c1.16 1.158 2 3.19 2 4.828v38c0 3.308-2.692 6-6 6H18c-3.308 0-6-2.692-6-6 0-1.106.894-2 2-2 1.106 0 2 .894 2 2 0 1.102.896 2 2 2h36a2 2 0 002-2V24a4 4 0 00-4-4h-7.5a4.515 4.515 0 01-4.5-4.5V8a4 4 0 00-4-4H18c-1.104 0-2 .898-2 2v20c0 1.106-.894 2-2 2-1.106 0-2-.894-2-2V6c0-3.308 2.692-6 6-6zm10 30c1.052 0 1.918.82 1.994 1.851L52 32v20c0 1.05-.818 1.918-1.851 1.994L50 54H6c-1.05 0-1.918-.82-1.994-1.851L4 52V32c0-1.05.82-1.918 1.851-1.994L6 30h44zm-32.594 6H14v12h2.204v-4.185h1.353c1.369 0 2.465-.333 3.289-.999.824-.665 1.236-1.664 1.236-2.995 0-1.274-.41-2.23-1.228-2.866-.818-.637-1.967-.955-3.448-.955zm10.692 0H25.26v12h3.139c1.625 0 2.966-.454 4.024-1.363 1.058-.91 1.586-2.475 1.586-4.698 0-2.269-.537-3.826-1.611-4.671-1.074-.845-2.507-1.268-4.3-1.268zM44 36h-6.529v12h2.204v-5.001h3.557v-1.702h-3.557v-3.595h4.091L44 36zm-15.518 1.72c.646 0 1.2.11 1.662.33.462.22.835.639 1.119 1.258.283.62.425 1.497.425 2.631 0 1.633-.278 2.764-.835 3.395-.513.583-1.207.896-2.082.941l-.222.006h-1.085v-8.562h1.018zm-11.092-.035c1.591 0 2.387.712 2.387 2.136 0 .833-.2 1.42-.6 1.762-.361.308-.88.477-1.556.507l-.231.006h-1.186v-4.411h1.186z" id="path-1"/></defs><g id="1_PDF" stroke="none" stroke-width="1" fill="none" fill-rule="evenodd"><mask id="mask-2" fill="#fff"><use xlink:href="#path-1"/></mask><use id="Icon" fill="#3f454d" xlink:href="#path-1"/></g></svg>