<svg width="12" height="10" viewBox="0 0 12 10" xmlns="http://www.w3.org/2000/svg"><g id="Page-1" stroke="none" stroke-width="1" fill="none" fill-rule="evenodd"><g id="D_HERE_EditorialCard_Quote" transform="translate(-1087 -274)" fill="#74FFE3"><g id="Feature01-Copy-2" transform="translate(266 100)"><g id="Group-5" transform="translate(790)"><g id="Group-11" transform="translate(31 143)"><path d="M.701 40.306C.234 39.843 0 39.294 0 38.659c0-.291.045-.589.136-.893.091-.304.254-.734.487-1.29L3.156 31h2.143l-1.52 5.794c.624.476.935 1.098.935 1.865a2.27 2.27 0 01-.682 1.647A2.234 2.234 0 012.377 41c-.65 0-1.208-.231-1.676-.694zm6.702 0c-.468-.463-.702-1.012-.702-1.647 0-.291.046-.589.137-.893.09-.304.253-.734.487-1.29L9.857 31H12l-1.52 5.794c.624.476.936 1.098.936 1.865 0 .635-.228 1.184-.682 1.647A2.234 2.234 0 019.078 41c-.65 0-1.208-.231-1.675-.694z" id="“"/></g></g></g></g></g></svg>