<svg width="64" height="64" viewBox="0 0 64 64" xmlns="http://www.w3.org/2000/svg" xmlns:xlink="http://www.w3.org/1999/xlink"><defs><path d="M32 16a8 8 0 018 8v16a8 8 0 01-8 8H8a8 8 0 01-8-8V24a8 8 0 018-8h24zm31.53 4.784a4 4 0 01.47 1.883v18.666a4 4 0 01-5.882 3.53l-12-6.4A4 4 0 0144 34.933v-5.866a4 4 0 012.118-3.53l12-6.4a4 4 0 015.411 1.647z" id="path-1"/></defs><g id="4_Video" stroke="none" stroke-width="1" fill="none" fill-rule="evenodd"><mask id="mask-2" fill="#fff"><use xlink:href="#path-1"/></mask><use id="Mask" fill="#3f454d" xlink:href="#path-1"/></g></svg>