<svg width="16" height="12" viewBox="0 0 16 12" xmlns="http://www.w3.org/2000/svg"><g id="VolumeOff" fill="#FFF" fill-rule="evenodd"><g id="VolumeOff-(1)" transform="translate(10 4)"><path d="M3.163 3.641L.695 1.173A.521.521 0 011.43.436L3.9 2.904a.521.521 0 01-.736.737" id="Fill-18"/><path d="M.695 2.905L3.163.436a.52.52 0 11.736.737L1.43 3.64a.521.521 0 01-.736-.737" id="Fill-20"/></g><path d="M.595 8.67h2.809a.59.59 0 01.336.105l3.662 2.507a.595.595 0 00.932-.49v-9.39a.595.595 0 00-.932-.491L3.74 3.418a.596.596 0 01-.336.105H.595A.595.595 0 000 4.117v3.958c0 .329.266.596.595.596" id="Fill-7"/></g></svg>