<svg width="16" height="12" viewBox="0 0 16 12" xmlns="http://www.w3.org/2000/svg"><g id="VolumeOn" fill="none" fill-rule="evenodd"><g id="VolumeOn-(1)" fill="#FFF"><path d="M9.84 8.227a.439.439 0 00.624.002c.571-.569.885-1.326.885-2.132s-.313-1.563-.881-2.132a.442.442 0 00-.625.625c.401.402.624.936.624 1.507 0 .57-.223 1.104-.626 1.506a.44.44 0 000 .624" id="Fill-1"/><path d="M12.694 6.097a4.339 4.339 0 01-1.278 3.083.442.442 0 00.626.624 5.218 5.218 0 001.535-3.707 5.218 5.218 0 00-1.535-3.707.442.442 0 00-.626.623 4.34 4.34 0 011.278 3.084" id="Fill-3"/><path d="M15.012 6.097a6.624 6.624 0 01-1.957 4.72.442.442 0 00.624.625 7.504 7.504 0 002.216-5.345c0-2.021-.787-3.92-2.216-5.346a.441.441 0 10-.624.625 6.627 6.627 0 011.957 4.72" id="Fill-5"/><path d="M.595 8.67h2.809a.59.59 0 01.336.105l3.662 2.507a.595.595 0 00.932-.49v-9.39a.595.595 0 00-.932-.491L3.74 3.418a.596.596 0 01-.336.105H.595A.595.595 0 000 4.117v3.958c0 .329.266.596.595.596" id="Fill-7"/></g></g></svg>