<svg width="72" height="72" viewBox="0 0 72 72" xmlns="http://www.w3.org/2000/svg"><g id="ic_pause_72px" fill="none" fill-rule="evenodd"><g id="PlayCTA" fill-rule="nonzero"><circle id="Oval" fill-opacity=".136" fill="#383C45" cx="36" cy="36" r="36"/><g id="Group-3" transform="translate(24 20)" fill="#FFF"><path d="M1 0h5a1 1 0 011 1v30a1 1 0 01-1 1H1a1 1 0 01-1-1V1a1 1 0 011-1z" id="Rectangle-3"/><path d="M18 0h5a1 1 0 011 1v30a1 1 0 01-1 1h-5a1 1 0 01-1-1V1a1 1 0 011-1z" id="Rectangle-3-Copy-2"/></g></g></g></svg>