<?xml version="1.0" encoding="UTF-8"?>
<svg width="89px" height="64px" viewBox="0 0 89 64" version="1.1" xmlns="http://www.w3.org/2000/svg" xmlns:xlink="http://www.w3.org/1999/xlink">
    <title>1_SAP</title>
    <g id="1_SAP" stroke="none" stroke-width="1" fill="none" fill-rule="evenodd">
        <g id="Sap" transform="translate(0.000000, 10.000000)" fill-rule="nonzero">
            <polygon id="path3060" fill="#000000" points="0 0 0 44.0053818 44.9525652 44.0053818 88.952993 0.00495388741 88.952993 0.00495388741 0 0.00495388741"></polygon>
            <path d="M56.9931591,39.5505437 L56.9931591,42.950154 L57.5035446,42.950154 L57.5035446,41.4748514 L58.0776262,41.4748514 L59.0027509,42.950154 L59.5769346,42.950154 L58.5880117,41.4748514 C59.0821669,41.4132737 59.4811862,41.1243709 59.4811862,40.5126976 C59.4811862,39.8425253 59.0732862,39.5505437 58.2691228,39.5505437 L56.9931591,39.5505437 Z M57.5035446,39.9995489 L58.2052226,39.9995489 C58.5503453,39.9995489 58.9389527,40.0559953 58.9389527,40.4805746 C58.9389527,41.0112728 58.5454455,41.0579695 58.1095762,41.0579695 L57.5035446,41.0579695 L57.5035446,39.9995489 Z M58.1415264,38.2996925 C56.5225836,38.2996925 55.1429096,39.5539305 55.1429096,41.2502975 C55.1429096,42.9590828 56.5224816,44.2330259 58.1415264,44.2330259 C59.7380122,44.2330259 61.0762429,42.959288 61.0762429,41.2502975 C61.0762429,39.5539305 59.7380122,38.2996925 58.1415264,38.2996925 Z M58.1415264,38.7808208 C59.4623019,38.7808208 60.5019572,39.8536095 60.5019572,41.2502975 C60.5019572,42.6708985 59.4623019,43.7198771 58.1415264,43.7198771 C56.7980897,43.7198771 55.7171954,42.6708985 55.7171954,41.2502975 C55.7171954,39.8536095 56.7980897,38.7808208 58.1415264,38.7808208 Z" id="path5384" fill="#000000"></path>
            <path d="M53.3008561,21.056003 L51.3728032,21.056003 L51.3728032,14.0046397 L53.3008561,14.0046397 C55.874896,14.0046397 57.9238239,14.8527452 57.9238239,17.485241 C57.9238239,20.2039343 55.874896,21.056003 53.3008561,21.056003 M32.5490218,26.0970789 C31.528521,26.0970789 30.57143,25.9108126 29.7441308,25.5997085 L32.52128,16.8412356 L32.5807268,16.8412356 L35.3004108,25.6234872 C34.4810379,25.9167573 33.5487163,26.0970789 32.5519941,26.0970789 M52.7896149,8.2759643 L44.0341143,8.2759643 L44.0341143,29.0951715 L36.3853123,8.2759643 L28.8038829,8.2759643 L22.2687147,25.681943 C21.5781428,21.2947805 17.0334465,19.7759185 13.4607029,18.6434599 C11.1056248,17.8855152 8.59895776,16.7718812 8.62174564,15.5383632 C8.64156119,14.5297518 9.96821223,13.5944578 12.5848556,13.7341574 C14.3484395,13.8233274 15.9039601,13.9659994 18.9922135,15.459101 L22.0339004,10.1604231 C19.2161293,8.72082339 15.3114752,7.81723432 12.1172086,7.81029888 L12.097393,7.81029888 C8.37107893,7.81029888 5.26598231,9.02499208 3.33991089,11.0134825 C2.00137051,12.4045341 1.27711217,14.1641549 1.24441652,16.122922 C1.19487764,18.8059474 2.18268279,20.7102217 4.2504354,22.2330467 C6.00014842,23.5151128 8.23237009,24.3404304 10.2040173,24.9586754 C12.636376,25.7086941 14.6218941,26.363598 14.5991062,27.7596035 C14.5792906,28.2678723 14.3900521,28.7444363 14.0224737,29.1209317 C13.4171087,29.7500755 12.4867686,29.9829081 11.1997486,30.0116407 C8.71884184,30.0611796 6.87896806,29.6747764 3.94824826,27.9428974 L1.24441652,33.3158836 C4.16621931,34.979399 7.6250235,35.9523424 11.1551637,35.9523424 L11.6119121,35.9523424 C14.6833223,35.8928959 17.1642292,35.0160578 19.1467749,33.4228876 L19.4677867,33.1424976 L18.5919395,35.4965848 L26.5429287,35.4965848 L27.8784968,31.4353879 C29.275493,31.9079888 30.8666817,32.1735171 32.5510034,32.1735171 C34.1947032,32.1735171 35.7452699,31.9258227 37.1174968,31.4740282 L38.4015443,35.4965848 L51.3747847,35.4965848 L51.3747847,27.084884 L54.205436,27.084884 C61.0418006,27.084884 65.0901174,23.6052735 65.0901174,17.765631 C65.0901174,11.2661307 61.1587123,8.2848813 52.7886242,8.2848813" id="path3100" fill="#FFFFFF"></path>
        </g>
    </g>
</svg>