<?xml version="1.0" encoding="UTF-8"?>
<svg width="103px" height="64px" viewBox="0 0 103 64" version="1.1" xmlns="http://www.w3.org/2000/svg" xmlns:xlink="http://www.w3.org/1999/xlink">
    <title>2_ESRI</title>
    <defs>
        <polygon id="path-1" points="5.39917458e-06 0.00504019504 33.9336727 0.00504019504 33.9336727 34.0107944 5.39917458e-06 34.0107944"></polygon>
        <polygon id="path-3" points="0.0200901935 0.0268931092 6.25375975 0.0268931092 6.25375975 6.01757201 0.0200901935 6.01757201"></polygon>
    </defs>
    <g id="2_ESRI" stroke="none" stroke-width="1" fill="none" fill-rule="evenodd">
        <g id="Group-125" transform="translate(0.000000, 14.000000)">
            <g id="Group-3" transform="translate(0.000000, 1.183847)">
                <mask id="mask-2" fill="white">
                    <use xlink:href="#path-1"></use>
                </mask>
                <g id="Clip-2"></g>
                <path d="M13.5993721,31.5824457 C13.3598289,31.7883449 13.196856,32.0511122 13.014291,32.302726 C13.3920053,32.4805948 14.7743771,32.6624993 15.1159526,32.5853789 C14.6158802,32.2546266 14.1133496,31.9223335 13.5993721,31.5824457 L13.5993721,31.5824457 Z M28.5891802,7.10762497 C28.6435902,7.15957673 28.702733,7.19766002 28.7919609,7.18635977 C28.7505022,7.12222723 28.7244529,7.06517568 28.6615311,7.04239175 C28.3667709,6.6777388 28.0263328,6.35791993 27.6720995,6.05351048 C26.2300345,4.81418942 24.5773374,3.94480454 22.7966687,3.30667105 C20.6642616,2.54247381 18.4614114,2.18009559 16.1977674,2.18294052 C15.8465793,2.18339761 15.4953913,2.20324641 15.0844,2.21597753 C15.4143818,2.46428934 15.6902471,2.67191295 15.9661124,2.87949987 C16.0522951,2.96076623 16.1374505,3.04309656 16.2247706,3.12311549 C16.9753561,3.81088933 17.6568928,4.56448341 18.3233503,5.33183591 C18.4417093,5.46813591 18.5639207,5.52074808 18.7480266,5.51374046 C19.6817642,5.47807866 20.6158686,5.49304781 21.5470013,5.57222288 C21.9928839,5.61015941 22.43906,5.65037066 22.8835484,5.70995376 C23.3439966,5.77170151 23.8012162,5.84995936 24.2669843,5.94278278 C24.2351015,5.82152531 24.1418745,5.76924334 24.0815943,5.69208617 C24.0028595,5.59126453 23.9149524,5.49671672 23.8447294,5.3904284 C23.7814408,5.29466985 23.759574,5.18049338 23.8381254,5.08257017 C23.909449,4.99367249 24.02014,4.99770829 24.1185402,5.02096918 C24.2061904,5.04169852 24.2937673,5.07736032 24.3712547,5.12340514 C24.7416311,5.34357642 25.1027253,5.5815786 25.4133352,5.87989766 C25.6120066,6.07068098 25.832875,6.15913839 26.0979171,6.16724668 C26.1712586,6.20265166 26.2414815,6.2482929 26.3184552,6.27188399 C27.0909075,6.50849199 27.8439513,6.79741864 28.5891802,7.10762497 L28.5891802,7.10762497 Z M15.2889417,31.681763 C15.6740305,32.0068285 16.1079525,32.2635054 16.5146144,32.5581922 C16.6634621,32.6660582 16.8168592,32.7086909 16.9984336,32.7103419 C18.2110817,32.721422 19.4139705,32.6112814 20.6118328,32.4333759 C20.6567403,32.4267352 20.7025283,32.418847 20.7370894,32.3639235 C20.4987203,32.0586335 20.2571593,31.7491609 20.0155983,31.4397251 C19.9575561,31.3582019 19.9004679,31.2759449 19.8413985,31.1951922 C19.2791013,30.426739 18.7274807,29.6507279 18.196406,28.8602613 C18.0712962,28.6740641 18.0692416,28.6751648 17.8682954,28.7546701 C17.8172609,28.7748858 17.7660429,28.7949914 17.7164392,28.8183623 C16.7530202,29.2720964 15.8391315,29.8108392 14.9722414,30.4284634 C14.7573534,30.581567 14.5343937,30.7270393 14.3368596,30.9386254 C14.6298221,31.2282124 14.9512553,31.4650038 15.2889417,31.681763 L15.2889417,31.681763 Z M24.6951094,6.8773275 C24.6118985,6.80607727 24.5120308,6.82915471 24.4163823,6.82820079 C24.0209839,6.73618453 23.6156794,6.72103194 23.2145575,6.67362962 C21.9181482,6.54701554 20.6209317,6.45870488 19.2742584,6.55545404 C19.4879357,6.86290868 19.6689597,7.12505229 19.8517448,7.38598516 C20.2352192,7.93349658 20.5685764,8.51300089 20.9313582,9.07372038 C20.9478316,9.11583947 20.9594987,9.16071023 20.9815122,9.19978412 C21.4410432,10.0161533 21.8347539,10.8639649 22.1938668,11.7283968 C22.211074,11.7697454 22.2266301,11.8139925 22.2750231,11.8315299 C22.3361838,11.8911129 22.4066635,11.8756668 22.4775836,11.8567353 C22.7353612,11.8682923 22.9931388,11.8798494 23.2509164,11.8914065 C23.2844869,11.9040642 23.3174337,11.9257841 23.3516646,11.9279488 C24.0611584,11.9730397 24.7595354,12.1026623 25.461618,12.2036307 C26.0322803,12.3300246 26.6078955,12.4322772 27.1763564,12.5704116 C27.7374795,12.7067483 28.2879627,12.8835164 28.8807852,13.0533502 C28.8444263,12.9497402 28.8279162,12.8981553 28.8083976,12.8477812 C28.4402592,11.8991112 27.9906343,10.9889647 27.4830773,10.108463 C27.2232451,9.65773745 26.9668617,9.20264587 26.6417596,8.79260851 C26.2909017,8.21182008 25.8454227,7.70393289 25.4134452,7.1845987 C25.2196901,6.95165961 24.9866776,6.85648809 24.6944857,6.87523622 L24.6951094,6.8773275 Z M23.7104473,15.8410613 C23.8754015,16.4093021 24.0404291,16.9775795 24.2053833,17.5458203 C24.3092134,17.9589395 24.4228763,18.3699675 24.5113704,18.7863521 C24.5414187,18.9276418 24.5987638,18.9863077 24.7331193,19.0044321 C25.0381891,19.0455972 25.3413512,19.1019884 25.647008,19.1377969 C25.9164161,19.1692762 26.1770921,19.2576602 26.4509762,19.2561927 C26.474494,19.2694741 26.4967642,19.2907538 26.5217862,19.2948263 C27.0256743,19.3767897 27.5227749,19.4904892 28.0167569,19.6173601 C28.4846897,19.7375169 28.950788,19.8648281 29.4176934,19.988984 C29.7076841,20.1403632 30.0228434,20.2235741 30.3519813,20.3636164 C30.3637952,19.9353446 30.3085414,19.5484213 30.2717423,19.1623419 C30.2529942,18.9656884 30.2802542,18.7597892 30.1945117,18.5710237 C30.1917967,18.4704589 30.1998683,18.3682431 30.1844589,18.2696595 C30.1013214,17.7380345 30.0417016,17.2028506 29.9340925,16.6748944 C29.8540736,16.2823211 29.7919956,15.8859688 29.6607954,15.5054661 C29.6169153,15.1409599 29.4532819,14.810758 29.3626598,14.460157 C29.3144136,14.2735929 29.1933763,14.1916662 29.0288624,14.1435301 C28.8211654,14.0827729 28.6172107,14.0134672 28.4139164,13.9378143 C28.1348591,13.8339842 27.852243,13.7292368 27.5513924,13.6972072 C27.4653931,13.6373306 27.3607558,13.6334415 27.2644836,13.6104008 C26.7771056,13.4937295 26.2914887,13.3662348 25.7905358,13.317365 C25.5590643,13.3338751 25.3531284,13.2148923 25.1251056,13.1975751 C24.6713715,13.1631974 24.2200589,13.0981109 23.7667651,13.0566522 C23.4245292,13.0253931 23.0808257,13.0234119 22.702341,13.0345654 C22.7858454,13.2446472 22.8554446,13.4207182 22.9257409,13.5964956 C23.2203544,14.3331393 23.4519726,15.0917965 23.7104473,15.8410613 L23.7104473,15.8410613 Z M9.55329826,6.00086162 C9.51286688,5.63646549 9.47243549,5.27214275 9.4320041,4.90778331 C9.38394139,4.21689089 9.31104015,3.52783293 9.28854973,2.8430676 C9.23358946,2.81738523 9.2041648,2.84519557 9.17396967,2.86210924 C8.80623484,3.06815522 8.45405618,3.29870951 8.11589276,3.54977301 C6.40159463,4.82270129 4.97622315,6.37542063 3.71510877,8.0878843 C3.63156769,8.20129031 3.61846968,8.3181084 3.61645178,8.4473274 C3.60250992,9.32812259 3.67841967,10.2028274 3.79186236,11.0750373 C3.78577197,11.1353909 3.76937194,11.1982026 3.8405488,11.2536399 C4.22651811,10.9516886 4.6125975,10.6497006 4.99867688,10.347676 C5.09865467,10.3179945 5.15394515,10.2266019 5.23532157,10.169954 C5.56277177,9.94207797 5.90900679,9.74707541 6.24860109,9.53974531 C7.05972368,9.04447917 7.88662258,8.57874775 8.73531481,8.15172333 C9.02064593,8.00815889 9.31148042,7.87516091 9.60257172,7.74348374 C9.72430615,7.6884134 9.79170403,7.63216901 9.74808069,7.47591014 C9.69954101,7.30178368 9.69066225,7.1166138 9.66450292,6.93625019 C9.62744693,6.62442954 9.59035425,6.31264558 9.55329826,6.00086162 L9.55329826,6.00086162 Z M30.4012181,22.5573677 C30.415747,22.23942 30.408079,21.9216924 30.3930364,21.6039281 C30.3868727,21.4739753 30.3370489,21.3873156 30.2035372,21.3419679 C29.7999939,21.2047874 29.4035315,21.0458135 28.9838815,20.9601812 C28.9507146,20.9449919 28.9189052,20.9246661 28.8841239,20.9153471 C27.73825,20.6073421 26.5750955,20.3878679 25.397192,20.2479724 C25.2470235,20.2301415 25.0901042,20.2070273 24.9171151,20.2601898 C25.1963191,21.3435089 25.3630344,22.4407697 25.5274016,23.5384709 C25.5282821,23.5929909 25.5234391,23.648318 25.5309604,23.7019208 C25.6308648,24.4145332 25.704243,25.1297138 25.7394646,25.8484899 C25.7528928,26.1232179 25.7470592,26.1316563 26.0287581,26.1669513 C26.7072863,26.2520333 27.3724963,26.4039628 28.0388071,26.5521501 C28.4962467,26.6786908 28.9601437,26.7846122 29.4040818,26.9551065 C29.5022618,26.9927862 29.5579559,26.9658564 29.6161081,26.8977247 C29.8541837,26.6188509 30.0692185,26.3239806 30.2432715,26.0004561 C30.2784931,25.9350028 30.2929853,25.8647065 30.2988555,25.7904844 C30.3832405,24.7143565 30.4264969,23.6369811 30.4012181,22.5573677 L30.4012181,22.5573677 Z M19.9570058,9.77294122 C19.9530434,9.75514701 19.95297,9.73522483 19.9445315,9.71988879 C19.3798496,8.69164011 18.7123281,7.73387119 17.9667323,6.82893458 C17.8853925,6.73020421 17.7955043,6.70360462 17.6793833,6.71831694 C17.1363479,6.78699894 16.5883228,6.81932203 16.0529922,6.94340456 C15.7005567,6.9988051 15.3479745,7.05339848 15.0052616,7.15620133 C14.9315532,7.15154182 14.8616238,7.16849218 14.7898599,7.18445194 C13.9533118,7.37042898 13.1332371,7.61584236 12.3209037,7.8849569 C11.8370112,8.04528826 11.3649693,8.24120805 10.8873139,8.4203976 C10.778384,8.46126926 10.6841663,8.50841475 10.7236438,8.65407047 C10.7923992,8.9080691 10.8074417,9.17534918 10.9128862,9.42035898 C10.9204808,9.66779027 11.0021141,9.89841794 11.0749419,10.1309901 C11.127444,10.3900885 11.190109,10.646472 11.2813548,10.895114 C11.5386555,11.9130897 11.8680502,12.9091987 12.198729,13.9048308 C12.2511577,14.062704 12.2601833,14.065896 12.4365111,13.9920041 C13.4798757,13.5547801 14.5438595,13.1747178 15.622996,12.8361507 C15.9015029,12.778769 16.1775517,12.7128387 16.44186,12.6051562 C16.6105931,12.609192 16.7645406,12.5504894 16.9186348,12.4925573 C16.9910591,12.4843023 17.0649509,12.4826513 17.1356875,12.4668383 C18.0824864,12.2551055 19.0371734,12.0937102 20.001473,11.982212 C20.3146878,11.9460365 20.6369282,11.9559059 20.9681207,11.8503147 C20.8874047,11.6636038 20.8147969,11.4876796 20.735842,11.3146538 C20.4966291,10.7905134 20.260975,10.2644651 19.9570058,9.77294122 L19.9570058,9.77294122 Z M10.9751109,27.7453897 C10.9996192,27.7833629 11.0193213,27.8256654 11.0493329,27.8586856 C11.6511809,28.5209238 12.3024858,29.1334116 12.9545978,29.7449088 C13.0941265,29.8757422 13.2444784,29.9950551 13.3898406,30.1197247 C13.4857092,30.2019449 13.5735429,30.2130984 13.6790241,30.1215958 C13.8577,29.9665477 14.0475661,29.8243774 14.232736,29.6768139 C14.2567306,29.6635324 14.2826331,29.6528192 14.3044998,29.6367127 C15.2404021,28.9466274 16.2104251,28.3108054 17.2463785,27.7787401 C17.407994,27.6957493 17.4069667,27.6882647 17.2932672,27.509919 C16.9049865,26.9010267 16.5141742,26.2937488 16.1260402,25.6847464 C15.846506,25.2460549 15.5696867,24.8056756 15.29162,24.3660669 C15.2808701,24.2904506 15.2434106,24.2308308 15.1829469,24.1850428 C15.1075875,24.010256 14.983505,23.8645636 14.9015048,23.691391 C14.710428,23.2879577 14.4959436,22.8956045 14.2952909,22.4965738 C14.248549,22.4036404 14.1972576,22.3805996 14.1014624,22.4280019 C13.9299041,22.5129005 13.7522555,22.5854715 13.5798535,22.6687925 C12.9235589,22.9858964 12.264109,23.2974969 11.6559872,23.7042322 C11.1683157,23.9535713 10.7311651,24.280728 10.2918131,24.6025648 C9.92605951,24.8705053 9.55828798,25.1377854 9.22966373,25.4529447 C9.06764467,25.5751928 9.06610372,25.5764035 9.16795266,25.7087411 C9.67334499,26.3653659 10.2295884,26.978294 10.7880332,27.5892409 C10.8429935,27.6493743 10.8958624,27.7136169 10.9751109,27.7453897 L10.9751109,27.7453897 Z M11.6570145,22.2265788 C11.8608224,22.1447988 12.0386545,22.0163869 12.224815,21.9040082 C12.5825704,21.6881662 12.9683196,21.5223315 13.3154718,21.2881817 C13.3829797,21.2618756 13.4514416,21.2377709 13.5177755,21.2087131 C13.6019403,21.1718039 13.6110025,21.1100561 13.5766248,21.0295602 C13.3600124,20.52215 13.1451977,20.0139326 12.929796,19.505972 C12.8459981,19.2691806 12.7646584,19.0314352 12.6772649,18.7960013 C12.6403924,18.6967206 12.5740952,18.6060985 12.5501005,18.5047265 C12.487032,18.2384738 12.3864305,17.9871534 12.277684,17.7379978 C12.049808,17.0666239 11.8218953,16.3953235 11.5866448,15.7021931 C10.9589677,16.0114088 10.3549918,16.3059856 9.78293533,16.6619432 C9.48920241,16.7841179 9.22533441,16.9604824 8.95636663,17.1261337 C8.73392063,17.2630941 8.49283656,17.3729779 8.29981521,17.5553227 C7.80946541,17.8155218 7.36061098,18.1378722 6.92081875,18.4739444 C6.55759668,18.6830723 6.24232725,18.959121 5.90357681,19.2024064 C5.83742636,19.2499188 5.80646076,19.3061999 5.83856372,19.388677 C6.01272688,19.8357337 6.13996467,20.3011349 6.36156682,20.7297369 C6.37726976,20.7912645 6.3865521,20.8553604 6.40970292,20.9139896 C6.75582788,21.7912626 7.14777752,22.6475862 7.60818902,23.4709996 C7.82102248,23.851649 8.04981569,24.2235664 8.32054455,24.5770292 C8.66850396,24.3089419 8.9988893,24.048963 9.33518157,23.7969089 C9.64927695,23.5615116 9.96964615,23.3345162 10.2872637,23.1038151 C10.7438595,22.8114397 11.2004187,22.5189909 11.6570145,22.2265788 L11.6570145,22.2265788 Z M27.4078279,27.2333933 C26.9389413,27.1618495 26.4665324,27.1568965 25.9936466,27.1559032 C25.8694173,27.1556491 25.7821707,27.1731498 25.7868302,27.3312798 C25.8007354,27.8033951 25.7721179,28.2748134 25.749444,28.7461949 C25.7338511,29.2782602 25.7367496,29.8105823 25.6865956,30.3637439 C26.8114833,29.7622995 28.5799713,28.3256278 29.0759345,27.5166698 C28.5251211,27.3744262 27.9658691,27.3073952 27.4078279,27.2333933 L27.4078279,27.2333933 Z M21.5176133,18.9626799 C22.1199015,18.9102145 22.723694,18.9226888 23.3271563,18.9186896 C23.3526553,18.9185062 23.3813828,18.9136632 23.3927564,18.8636193 C23.3764665,18.7053058 23.3111599,18.5432134 23.2621066,18.3777089 C23.0755792,17.7479772 22.9079834,17.1122652 22.6722926,16.4979062 C22.4701357,15.7452661 22.2041764,15.014676 21.9094162,14.2940655 C21.811493,13.9407861 21.6570319,13.6084196 21.5267122,13.2671743 C21.4382548,13.0355927 21.4338888,13.0371703 21.191594,13.043701 C21.1458427,13.0449484 21.0999813,13.0456088 21.0544134,13.049241 C20.161731,13.1207848 19.2703693,13.2063438 18.3894641,13.3717015 C17.8965827,13.4642314 17.3996656,13.5427461 16.9221936,13.7044716 C16.4721652,13.7894069 16.0323362,13.9100774 15.6064859,14.0797644 C15.1921926,14.1614344 14.8087181,14.3372485 14.4153743,14.4800425 C13.8662852,14.6794111 13.3300374,14.9124235 12.798449,15.1557089 C12.6754672,15.21199 12.6336783,15.2633181 12.6862905,15.4026266 C12.795734,15.6924704 12.8778076,15.9925139 12.9821513,16.2844124 C13.1789517,16.8347855 13.3525645,17.3937439 13.5867877,17.9303954 C13.6713194,18.2340344 13.7938977,18.5231812 13.9221994,18.8101633 C14.0484833,19.1661576 14.191314,19.5153278 14.3560113,19.8553623 C14.4163282,20.0772213 14.5302112,20.276333 14.6257129,20.4829294 C14.7051815,20.6548178 14.7115654,20.6555149 14.8915254,20.5769635 C15.3604855,20.3723117 15.8358294,20.1845002 16.3181076,20.0131621 C17.4663297,19.6053261 18.6470582,19.329204 19.847819,19.1324036 C20.4048329,19.0799749 20.958288,18.992288 21.5176133,18.9626799 L21.5176133,18.9626799 Z M6.60081644,17.1102106 C6.97706314,16.8960563 7.33903779,16.6591181 7.69925136,16.4194282 C7.81904126,16.3771624 7.91102083,16.2878611 8.02061117,16.2268839 C8.26496057,16.0909507 8.51826211,15.9667582 8.7387269,15.7905404 C9.09538163,15.5549597 9.48105743,15.366818 9.85484597,15.1646244 C10.2682587,14.940931 10.6894129,14.7199892 11.1275541,14.5415334 C11.2394559,14.4960023 11.2520769,14.4361256 11.2213681,14.3313416 C11.1316266,14.0252444 11.0509473,13.716469 10.9645811,13.4093812 C10.8939546,13.1582443 10.7922891,12.91129 10.7383195,12.661584 C10.6498254,12.2524639 10.5478663,11.8480766 10.4378724,11.4449001 C10.3692271,11.0535742 10.2926203,10.6640827 10.176059,10.2835434 C10.1836537,10.1522331 10.1537887,10.0272701 10.1115596,9.90447164 C10.0916007,9.60288725 10.020644,9.30919102 9.96887568,9.01281648 C9.9378734,8.83546138 9.91751095,8.82672937 9.75237331,8.90722525 C9.24213802,9.15605072 8.73036178,9.40252808 8.22889518,9.66826722 C7.74437895,9.92505422 7.25960589,10.1837124 6.81020112,10.5012198 C6.77659391,10.5150149 6.74019832,10.5242606 6.70985644,10.5432288 C5.80858873,11.1072137 4.94041459,11.7161793 4.12907187,12.4057142 C3.96433781,12.5457198 3.92944648,12.692623 3.96940091,12.8874054 C4.07767044,13.4153249 4.17020035,13.9466564 4.28885289,14.4721543 C4.37723693,14.8633702 4.43491219,15.2633548 4.5836498,15.6396381 C4.68208665,16.2948688 5.14194781,17.764524 5.32887877,18.0013888 C5.75223428,17.7047574 6.17650701,17.4074657 6.60081644,17.1102106 L6.60081644,17.1102106 Z M24.8093225,29.4227052 C24.8209163,29.3893548 24.8414989,29.3563713 24.8428564,29.3226173 C24.8702998,28.6483451 24.7886299,27.9763475 24.7999301,27.3024055 C24.8024617,27.152824 24.7173063,27.1098978 24.5901052,27.1236929 C24.3727956,27.1471739 24.1555228,27.1632437 23.9368558,27.1700312 C23.6926531,27.1776259 23.4499181,27.2080411 23.2107785,27.2613137 C21.8450268,27.4114455 20.5180555,27.7180563 19.2023477,28.2250262 C19.8473054,29.2466709 20.5268976,30.1944237 21.2912783,31.0810891 C21.5149717,31.4052373 21.7944692,31.6825335 22.0471104,31.9823201 C22.110876,32.0580097 22.172477,32.0641001 22.2621819,32.0261636 C22.539368,31.9089786 22.8220208,31.8048183 23.0997206,31.6888074 C23.6051129,31.477735 24.1015531,31.2468872 24.5887477,30.9965574 C24.6958432,30.9415238 24.7896572,30.8874807 24.7906111,30.736872 C24.7933628,30.2988409 24.8295382,29.8612133 24.8093225,29.4227052 L24.8093225,29.4227052 Z M3.9630537,18.8734153 C4.12107364,18.8258295 4.15174573,18.7188074 4.10287585,18.5743991 C4.08537515,18.5226308 4.06868161,18.4705323 4.0515478,18.4185805 C3.66304694,17.2410806 3.35922451,16.0415672 3.1213324,14.8251768 C3.0445788,14.4327136 2.97472276,14.0388928 2.90171145,13.6456957 C2.89844612,13.591616 2.91378217,13.5355183 2.8843942,13.4840802 C2.80980526,13.4780632 2.77271258,13.5383067 2.72307223,13.5758764 C2.47476041,13.763908 2.22421056,13.9490779 1.97949427,14.1416956 C1.80694544,14.2775187 1.62863642,14.3735707 1.39940293,14.3113827 C1.32286948,14.29058 1.27623763,14.3234167 1.27091771,14.4059305 C1.26739556,14.4607807 1.2642403,14.5156676 1.26013112,14.5704811 C1.17174708,15.7426978 1.19001825,16.9128599 1.30228689,18.0832789 C1.44174215,19.5371211 1.69610767,20.9699771 2.16693888,22.3523123 C3.44801213,26.1134952 5.85342281,28.9473612 9.31247102,30.8920302 C10.0476839,31.3053696 10.8246856,31.6291509 11.6255719,31.8956238 C11.7432339,31.9348078 11.8189602,31.9353581 11.904299,31.8258411 C12.1010993,31.5733834 12.3154004,31.3345741 12.5225103,31.0900046 C12.5849185,31.0418685 12.6528667,30.998025 12.6791361,30.911292 C11.7923239,30.2013946 10.9733498,29.4361701 10.1807552,28.6419979 C10.1620071,28.623213 10.1358845,28.6117293 10.1131739,28.5968703 C10.1034146,28.5814608 10.0960768,28.56374 10.0835658,28.5509722 C9.41681482,27.87127 8.7572182,27.1851104 8.18285037,26.4231512 C8.09956611,26.3126804 8.02171185,26.3286768 7.93182355,26.4087691 C7.77472083,26.5488481 7.61571028,26.6867624 7.45794716,26.8261443 C7.14825448,27.0996982 6.81067808,27.305414 6.3751051,27.2817128 C6.34182809,27.2799151 6.30730365,27.3022954 6.27332954,27.3134122 C6.19107258,27.3174113 6.10848542,27.3276476 6.02652198,27.3241988 C5.79978335,27.3145863 5.75300475,27.2371356 5.84722235,27.0258064 C5.88420496,26.9427789 5.93395538,26.865475 5.97790892,26.7855662 C6.30653318,26.3589086 6.67606578,25.9706279 7.08023289,25.6151105 C7.30117464,25.4207317 7.30209187,25.4213921 7.11827948,25.1894436 C7.10143919,25.1682006 7.07960917,25.1509201 7.06012726,25.1318417 C7.02204398,25.0281216 6.95783805,24.9395175 6.89906212,24.8472444 C6.35518292,23.9930488 5.87752755,23.1035583 5.46561904,22.1781492 C5.3476269,21.9130704 5.25597753,21.6356641 5.10555223,21.385261 C4.96363879,20.9386447 4.77340582,20.5121339 4.59326234,20.0639032 C4.19316772,20.3027125 3.84645574,20.5534091 3.51959256,20.8271832 C3.30437431,21.0074367 3.07792919,21.1058736 2.79901867,21.0815854 C2.37357188,20.9481838 2.20513223,20.4657222 2.44970176,20.0684893 C2.50620297,19.9766932 2.58108542,19.8961973 2.64749269,19.8104549 C3.09667732,19.5130897 3.5457152,19.2155044 3.9630537,18.8734153 L3.9630537,18.8734153 Z M24.1360042,21.888452 C24.1437823,21.6557331 24.0177919,21.4550437 23.9787914,21.2323042 C23.922437,20.9106876 23.8607259,20.5894011 23.7670953,20.2753424 C23.7454121,20.2025146 23.7353959,20.1287328 23.6367756,20.1316312 C23.1813172,20.1450228 22.7232905,20.0897323 22.2707671,20.1821888 C21.7286857,20.1649449 21.1964736,20.2616574 20.6611797,20.3218642 C20.1720773,20.3768612 19.6917069,20.48392 19.2102726,20.580559 C18.9251983,20.6377574 18.6345472,20.6833986 18.3624242,20.7959241 C17.9781793,20.8691188 17.6128292,21.0082072 17.2413888,21.1244749 C16.6418522,21.3121397 16.0615775,21.5512792 15.492126,21.8169817 C15.372813,21.8726757 15.3167154,21.9241138 15.3978717,22.0600469 C15.5141027,22.254756 15.5891686,22.4725058 15.7222033,22.658813 C15.7229004,22.7273483 15.7673309,22.777062 15.7976728,22.8325726 C16.5620901,24.2298035 17.4409775,25.5562245 18.3122702,26.887195 C18.5334321,27.2250649 18.4375268,27.2447302 18.8893897,27.0896821 C19.8759596,26.7511518 20.877572,26.4730851 21.9138189,26.3318688 C22.257449,26.2850168 22.5999417,26.2299098 22.9429481,26.1786184 C23.3888674,26.1460752 23.8351169,26.1173476 24.2804859,26.0788607 C24.4236834,26.0664598 24.6079361,26.1426631 24.7001725,26.0312383 C24.7884097,25.9247298 24.6974208,25.7525846 24.6889823,25.6099374 C24.6588972,25.1003258 24.6158976,24.5912645 24.5213131,24.0883671 C24.4392029,23.3469538 24.3228985,22.6115208 24.1360042,21.888452 L24.1360042,21.888452 Z M1.38083825,13.9332282 C1.753893,13.3452854 2.17288251,12.79128 2.62768058,12.2647914 C2.71232233,12.1668315 2.74629643,12.071183 2.73521632,11.9438352 C2.71063463,11.6614759 2.69790351,11.3780893 2.67944889,11.0951796 C2.65644483,10.7433679 2.63248685,10.3915928 2.60856556,10.0335072 C2.54083748,10.0474857 2.5320321,10.0941176 2.51394437,10.1342555 C2.41279253,10.3591229 2.30947602,10.5829998 2.20913134,10.8082342 C1.82063048,11.6801873 1.5253933,12.5805378 1.39100113,13.5286575 C1.37221631,13.6611418 1.32330974,13.7959376 1.38725884,13.9305866 L1.37423421,13.9280917 L1.38083825,13.9332282 Z M30.8413772,17.3853055 C30.8896601,17.9763668 30.9281836,18.5684922 30.9897479,19.1581961 C31.0306563,19.549999 31.0006446,19.9427558 31.0361597,20.3336047 C30.9938938,20.5654431 31.0484505,20.7348 31.2954415,20.826853 C31.4103518,20.8696691 31.5099627,20.9665284 31.6022724,21.0539218 C31.7466074,21.1906621 31.7453232,21.2802202 31.610344,21.4289945 C31.5036521,21.5465096 31.3731123,21.6478816 31.2164132,21.6624839 C31.0649973,21.6766092 31.0440111,21.7421726 31.0425802,21.871575 C31.0331511,22.7326315 30.99316,23.5924038 30.9152324,24.4502317 C30.90595,24.552741 30.913985,24.656828 30.913985,24.7762143 C31.0058911,24.6928933 31.0235019,24.5915947 31.0620255,24.5034308 C31.6026393,23.2667514 31.9631097,21.9724334 32.284176,20.6658979 C32.5055947,19.7648503 32.6234034,18.84843 32.6609731,17.9228008 C32.7287378,16.2530432 32.5040905,14.6172597 32.06162,13.008773 C31.6270376,11.4288303 30.9688718,9.96266055 29.8861765,8.70954439 C29.7816126,8.58854374 29.6675462,8.49388587 29.5256695,8.42329604 C28.9683621,8.14588977 28.3942877,7.90730056 27.817315,7.67623262 C27.4360052,7.53611695 27.0546954,7.39600128 26.6694231,7.25445474 C26.6513721,7.33858284 26.692574,7.36609967 26.7175226,7.4006608 C27.2637499,8.15641954 27.8027494,8.91672773 28.2773229,9.72095277 C28.4580167,10.0271233 28.5955641,10.3577288 28.8063063,10.646472 C28.8104155,10.6734018 28.8082875,10.7033034 28.8194777,10.7268211 C29.2194256,11.5670748 29.5662843,12.4293053 29.888011,13.3019922 C29.9176191,13.3822313 29.966012,13.4412274 30.0447101,13.4818422 C30.3523482,13.6405959 30.6577116,13.803789 30.9638821,13.9653678 C31.0307297,14.0115227 31.0966233,14.0591452 31.1645348,14.1036123 C31.3312134,14.2126157 31.5017076,14.3160422 31.6650108,14.4298151 C31.7672633,14.5010654 31.8406782,14.6018503 31.7803246,14.7314729 C31.7267586,14.8464198 31.6078492,14.8574633 31.4976718,14.8473738 C31.3902095,14.8375778 31.2843981,14.8091804 31.177853,14.7889647 C30.9576083,14.7074782 30.7393082,14.6201949 30.5165319,14.5462663 C30.3207222,14.4813266 30.2872985,14.5154108 30.3363518,14.7137154 C30.4846858,15.3136188 30.6015773,15.9192458 30.7001609,16.5294955 C30.7462791,16.8146799 30.7558183,17.1065784 30.8413772,17.3853055 L30.8413772,17.3853055 Z M14.0293316,3.09644251 C13.8402727,2.89718402 13.7734618,2.65698049 13.798227,2.38900331 C13.823946,2.11027623 14.0167839,1.88309733 14.2874761,1.88441814 C14.6964862,1.88643604 15.0840331,1.77512132 15.4810459,1.71550153 C15.9710655,1.64186651 16.4626627,1.58683286 16.9581123,1.57920153 C18.1217437,1.56126056 19.2844946,1.54089811 20.4438335,1.69660665 C22.0613457,1.9138428 23.6125241,2.35290124 25.0990563,3.02343121 C26.9652107,3.86522588 28.628144,4.99719464 30.0368954,6.48948704 C30.6492364,7.13818699 31.1743675,7.85109286 31.6281383,8.62042657 C32.1077382,9.43349368 32.5660584,10.2551094 32.9113395,11.1363081 C33.3780982,12.3274931 33.6817739,13.5581555 33.8274296,14.8283688 C34.1204654,17.3833242 33.7966107,19.8702581 32.9882031,22.3006541 C32.1241382,24.8986458 30.7853897,27.2228268 28.932847,29.244653 C27.3630306,30.9579605 25.4881809,32.2110767 23.295457,32.9958932 C22.2233648,33.3795878 21.1361934,33.6939033 20.0092511,33.8570964 C19.1187333,33.9860953 18.2209144,34.0247289 17.3216279,34.0065678 C15.8619888,33.9770697 14.4141636,33.8257639 12.9813442,33.5464865 C9.69528508,32.9060416 6.90063975,31.3718869 4.61945836,28.9186703 C3.45978933,27.6715712 2.47116488,26.3001694 1.67930407,24.7903029 C0.984926188,23.4661933 0.530421636,22.060634 0.269011808,20.5919694 C-0.0528983423,18.7836738 -0.0750952469,16.9681504 0.14481921,15.146023 C0.303169359,13.8339475 0.563038244,12.5446192 0.97428635,11.2880542 C1.22002993,10.5372118 1.58482964,9.8386514 1.95975554,9.14651155 C2.94089541,7.33513407 4.17522675,5.71941955 5.69833799,4.32699488 C7.30906279,2.85447791 9.14975487,1.7731768 11.2105448,1.05711566 C12.3981343,0.644473367 13.6038481,0.30697035 14.8516444,0.140438531 C15.8164943,0.0116964846 16.785967,-0.0384575131 17.7587418,0.0484589614 C18.0324058,0.0729305901 18.3059964,0.0982827572 18.5798438,0.120442973 C18.6904614,0.129358424 18.7986576,0.148546822 18.9010202,0.189638613 C18.9529719,0.21051471 18.9973657,0.256632907 19.0001541,0.31306074 C19.0035295,0.38265996 18.9558704,0.426466744 18.8919213,0.456148224 C18.8143972,0.49214023 18.7333877,0.499331293 18.6507271,0.499551428 C17.8430166,0.501422572 17.0386815,0.556933178 16.2390059,0.667734256 C14.264362,0.941324864 12.3305896,1.37007367 10.5063343,2.20460391 C10.3405729,2.28044027 10.132399,2.32681529 10.0367138,2.4711869 C9.94631189,2.60756027 10.0043907,2.8104143 10.0103711,2.98329333 C10.0280919,3.49547315 10.0339621,4.0088637 10.1227131,4.51590705 C10.1369118,4.99624072 10.18303,5.47308894 10.2788619,5.94450717 C10.2947483,6.32842189 10.3704746,6.70419164 10.4322957,7.0819426 C10.4882466,7.42366486 10.4857517,7.42410513 10.8091661,7.29620693 C10.8347017,7.28611743 10.8596503,7.27463374 10.8851492,7.26461762 C11.7612849,6.92021705 12.6571226,6.63470249 13.5649944,6.38851864 C14.1354365,6.2338374 14.7125193,6.10351772 15.286667,5.962228 C15.8502849,5.88426367 16.4052076,5.75475115 17.040039,5.69788305 C16.0911856,4.70166395 15.0845468,3.87138965 14.0293316,3.09644251 L14.0293316,3.09644251 Z" id="Fill-1" fill="#000000" mask="url(#mask-2)"></path>
            </g>
            <path d="M43.2843456,16.9083619 L52.8254924,16.9083619 C52.8100096,16.0922862 52.647697,15.3311709 52.2539496,14.6294185 C51.6242546,13.5072824 50.6273018,12.9048107 49.4006018,12.6387047 C48.6598122,12.4780064 47.9100704,12.4597353 47.1628969,12.5778008 C46.354416,12.7055889 45.6170018,13.0090811 44.9814365,13.538835 C44.1853198,14.2023574 43.7133512,15.0627167 43.4468416,16.0485161 C43.3711153,16.328454 43.2954624,16.6091989 43.2843456,16.9083619 M52.7989295,22.9155413 C53.7849123,23.9004235 54.7620898,24.8765003 55.7485496,25.8618227 C55.3623968,26.2497732 54.9246592,26.6050338 54.458194,26.9257332 C52.9476671,27.9641814 51.267233,28.4868543 49.4440783,28.5897672 C47.6982276,28.6883142 46.0095384,28.4436713 44.3988503,27.7532191 C41.9000292,26.6820075 40.1461068,24.882077 39.1832748,22.3345695 C38.8387275,21.4230655 38.6653348,20.4718639 38.6032936,19.4972914 C38.5228711,18.2330584 38.6496686,16.9938841 39.0126338,15.7820065 C39.3576581,14.6302623 39.9035185,13.5784593 40.6648907,12.6455289 C42.1860574,10.7817227 44.1592705,9.67661032 46.5040341,9.21352052 C48.050076,8.90819384 49.5988696,8.89241753 51.1340516,9.27669915 C53.4099864,9.84644416 55.0948966,11.1856696 56.2070533,13.245469 C56.9129148,14.552885 57.2660474,15.9640211 57.4265255,17.4322455 C57.5272738,18.3544994 57.5139556,19.2790646 57.5149733,20.20374 C57.5149733,20.434918 57.5128183,20.4366057 57.2731284,20.4366791 C55.4398842,20.4371927 53.6065666,20.4369726 51.7732491,20.4369726 L43.6058888,20.4369726 L43.2996449,20.4369726 C43.2512153,20.6040181 43.3110552,20.751178 43.3404799,20.8975308 C43.5822978,22.0989521 44.1510522,23.1042701 45.1346135,23.8571304 C45.8424563,24.3988816 46.6500934,24.7069966 47.5263392,24.8162201 C48.7926267,24.97413 50.0062654,24.7851077 51.1437742,24.182636 C51.632473,23.9237578 52.0757507,23.6033519 52.4739375,23.2199141 C52.585399,23.1126352 52.6997956,23.0082914 52.7989295,22.9155413" id="Fill-4" fill="#000000"></path>
            <path d="M58.9046192,25.8673811 C59.9121019,24.8587244 60.9138243,23.8558646 61.9236184,22.8448965 C62.2181218,23.133126 62.5116713,23.4593288 62.8451752,23.7451369 C63.5222725,24.3254117 64.2687122,24.7743762 65.1491772,24.9669939 C66.2569311,25.2093254 67.33449,25.1437987 68.3497507,24.597975 C68.8592522,24.3240909 69.2522291,23.937241 69.3775591,23.3457027 C69.5282779,22.6345579 69.3240664,22.0434598 68.745039,21.5943119 C68.3259395,21.2692831 67.8365436,21.0861678 67.3366179,20.9344217 C66.4249305,20.6577492 65.4861665,20.4914009 64.5605006,20.2712663 C63.6246718,20.0487102 62.7034085,19.7883277 61.8448836,19.3388128 C60.3977922,18.5812196 59.5611706,17.4132956 59.3902728,15.7747604 C59.2565044,14.491816 59.4345933,13.2737746 60.0915483,12.1489603 C60.5731294,11.3243728 61.2519511,10.6943843 62.0649815,10.2013195 C63.0183477,9.62309927 64.0592908,9.28820118 65.1528828,9.12119241 C66.7292666,8.88043854 68.2937631,8.95216573 69.8317334,9.39269174 C70.8920117,9.6963674 71.8583292,10.182608 72.6853382,10.9237278 C72.930935,11.1438257 73.1595814,11.3802503 73.34798,11.6172618 C72.3573009,12.6075006 71.374987,13.5894477 70.3618909,14.6021401 C70.3323562,14.6012963 70.3121038,14.5170948 70.2700214,14.4634187 C69.5961894,13.6031327 68.7486346,13.0190422 67.6590417,12.8205909 C66.8204023,12.6678909 65.9984197,12.7080287 65.2109983,13.0635094 C64.7093116,13.2899912 64.3116384,13.6255864 64.1291102,14.1670074 C63.885678,14.889269 64.1078305,15.515662 64.7494861,15.925149 C65.2826521,16.2654404 65.8822987,16.4318622 66.4862013,16.5839752 C67.4879971,16.8363228 68.5075872,17.0145951 69.5018618,17.2983853 C70.3932601,17.5527875 71.2562978,17.8719093 72.0348404,18.392014 C73.1293863,19.123191 73.7914778,20.135003 74.0207113,21.4261657 C74.1892243,22.3754595 74.168018,23.3228087 73.9023522,24.2536478 C73.518731,25.5979364 72.6706258,26.5837724 71.4914749,27.3006407 C70.5492621,27.8735043 69.5178215,28.208329 68.4387218,28.4049092 C67.0584045,28.656413 65.6699422,28.6849204 64.2800491,28.510794 C62.57496,28.2971533 61.0124446,27.7260875 59.6791261,26.6083541 C59.3985279,26.3731036 59.1287529,26.1264795 58.9046192,25.8673811" id="Fill-6" fill="#000000"></path>
            <path d="M80.9582749,12.3811472 C81.1858574,12.0697668 81.3604975,11.7416929 81.5805954,11.4411725 C82.4372492,10.2712672 83.5746846,9.5198745 84.9785196,9.17316251 C85.5947864,9.02093944 86.2237476,8.96209013 86.8586891,9.00263158 C87.2615354,9.02835064 87.6548059,9.11203848 88.0460217,9.21073215 C88.1810376,9.24477963 88.2216158,9.30271172 88.2143513,9.43714058 C88.188192,9.92158344 88.1724157,10.4066133 88.1523834,10.8914231 C88.1179691,11.7236786 88.0817936,12.5558607 88.0492871,13.3881896 C88.0353452,13.7455781 88.0376566,13.7499074 87.6894037,13.6697417 C86.9900728,13.5088234 86.2845047,13.4110836 85.565215,13.4528725 C84.3697741,13.5223249 83.2795942,13.8625796 82.3950567,14.7122258 C81.7066959,15.3734367 81.305097,16.1943186 81.0814402,17.1108857 C80.9899376,17.485995 80.9491393,17.8662775 80.9494329,18.2532374 C80.9518177,21.4509492 80.9512673,24.6485876 80.9499832,27.846226 C80.9498731,28.1719885 81.0061175,28.149975 80.6387863,28.1501218 C79.2819867,28.1506721 77.9251138,28.1503419 76.5683142,28.1503419 C76.5224895,28.1503419 76.4760045,28.145499 76.4309135,28.1512225 C76.2814789,28.1699706 76.2323155,28.1001879 76.2507701,27.9605125 C76.2567137,27.915495 76.251724,27.8690099 76.251724,27.8232219 C76.251724,21.812667 76.2516139,15.8021488 76.2520175,9.79159396 C76.2520542,9.40012128 76.2176765,9.44921129 76.5830266,9.4488444 C77.9306538,9.44741353 79.2783545,9.44829406 80.6259818,9.44829406 C80.690151,9.44829406 80.7544303,9.45071554 80.8184895,9.44807393 C80.9111294,9.44425826 80.9530284,9.48615721 80.9505702,9.57857705 C80.9483689,9.66094408 80.9506069,9.74345786 80.9506069,9.82593496 C80.9506803,10.623079 80.9506069,11.4201864 80.9511206,12.2173304 C80.9511572,12.2719238 80.9557801,12.3265538 80.9582749,12.3811472" id="Fill-8" fill="#020202"></path>
            <path d="M90.5591406,18.8142615 C90.5591406,15.8006556 90.5591406,12.787013 90.5591773,9.77340717 C90.5591773,9.3899694 90.542337,9.44911223 90.8803904,9.44863527 C92.2368597,9.44680082 93.5933291,9.44790149 94.9497984,9.44790149 C95.0047954,9.44790149 95.0599758,9.45098338 95.1147159,9.44742453 C95.2230588,9.44034354 95.2624262,9.49357942 95.2569229,9.59572187 C95.2534374,9.65963428 95.2563725,9.72391358 95.2563725,9.78800943 C95.2564092,15.79695 95.2564092,21.8058906 95.2563725,27.8148311 C95.2563725,28.1503586 95.2563358,28.1503586 94.9218046,28.1503586 C93.5745076,28.1503586 92.2272105,28.1503586 90.8798767,28.1503586 C90.8065719,28.1503586 90.7332304,28.1506464 90.6599623,28.1492156 C90.5944722,28.1479314 90.5599845,28.114471 90.5600212,28.0475134 C90.5600578,27.9742453 90.5591773,27.9009404 90.5591773,27.8276723 C90.5591406,24.823202 90.5591406,21.8187684 90.5591406,18.8142615" id="Fill-10" fill="#020202"></path>
            <g id="Group-14" transform="translate(89.778224, 0.009796)">
                <mask id="mask-4" fill="white">
                    <use xlink:href="#path-3"></use>
                </mask>
                <g id="Clip-13"></g>
                <path d="M3.10830777,0.0272783448 C4.20740309,0.0566296236 5.1325554,0.451514391 5.75443562,1.38543539 C6.90126346,3.10762168 5.97691832,5.41786084 3.95802729,5.9046518 C2.95241579,6.14716674 2.00400259,6.01372849 1.17882807,5.36117618 C0.272350516,4.64438126 -0.118865341,3.68580519 0.0640298148,2.54767266 C0.243219372,1.43265426 0.904540374,0.664347852 1.95388528,0.239011133 C2.32250065,0.0895764341 2.70813977,0.021041198 3.10830777,0.0272783448" id="Fill-12" fill="#010101" mask="url(#mask-4)"></path>
            </g>
            <path d="M98.8767794,9.6518163 C98.1877214,9.64958513 97.6361375,10.1946384 97.6343721,10.8795505 C97.6325787,11.5614174 98.1872445,12.1220635 98.8663597,12.1248256 C99.545585,12.1276035 100.106378,11.5702228 100.108844,10.8899702 C100.111294,10.2035171 99.5645532,9.6540612 98.8767794,9.6518163 M98.8672035,9.37155114 C99.7070537,9.36964731 100.388737,10.049056 100.387272,10.8865214 C100.385765,11.7211617 99.6937722,12.4086053 98.8617369,12.4019279 C98.0371861,12.3952872 97.3611527,11.7187769 97.3556861,10.8947398 C97.3501093,10.0559169 98.0273167,9.37346298 98.8672035,9.37155114" id="Fill-15" fill="#000000"></path>
            <path d="M12.5226131,32.2740719 C12.3154297,32.5184212 12.101092,32.7572306 11.9042917,33.0096883 C11.8189528,33.1192052 11.7432265,33.1186549 11.6255646,33.0794709 C10.8246783,32.812998 10.0476765,32.4892167 9.31246368,32.0758773 C5.85345216,30.1312084 3.44800479,27.2973424 2.16696823,23.5361595 C1.69613703,22.1538243 1.44173482,20.7209682 1.30227955,19.267126 C1.19001091,18.0967071 1.17173974,16.926545 1.26012378,15.7543283 C1.26426965,15.6995148 1.26742491,15.6446279 1.27091037,15.5897777 C1.27623029,15.5072639 1.32286214,15.4744271 1.3993956,15.4952299 C1.62862908,15.5574179 1.8069381,15.4613658 1.97948693,15.3255428 C2.22420322,15.132925 2.47475308,14.9477551 2.72306489,14.7597235 C2.77270524,14.7221539 2.80983461,14.6619104 2.88442355,14.6679641 C2.91377483,14.7193655 2.89843879,14.7754631 2.90170412,14.8294328 C2.88875286,14.8528771 2.86971122,14.8749273 2.86369421,14.900096 C2.7284215,15.4668325 2.60951213,16.0372746 2.53796839,16.6155315 C2.47882557,17.0936271 2.42063666,17.5730069 2.43703668,18.0568994 C2.38585539,19.0447167 2.46686492,20.0230682 2.64748535,20.9943387 C2.58107808,21.0800444 2.50619563,21.1605403 2.44969442,21.2523364 C2.20516158,21.6495693 2.37356454,22.132031 2.79886457,22.2654325 C2.92995472,22.2870791 2.96011316,22.3874972 2.99008815,22.496904 C3.11831655,22.9649836 3.27861122,23.4224966 3.46047909,23.872305 C4.06973826,25.3789795 4.8978479,26.751592 5.97790158,27.9694133 C5.93394804,28.0493222 5.88419763,28.1266261 5.84721501,28.2096535 C5.75299741,28.4209827 5.79977601,28.4984334 6.02651464,28.508046 C6.10847809,28.5114947 6.19106525,28.5012585 6.27317545,28.497296 C6.40925532,28.491756 6.50604116,28.5523664 6.60253349,28.6501795 C7.59611096,29.6576255 8.71454144,30.5020985 9.9575681,31.1787555 C10.203862,31.3127808 10.4409837,31.4705439 10.7182065,31.541574 L10.7164087,31.5400331 C10.7221322,31.5730532 10.7438522,31.5842434 10.7748178,31.5828859 C11.3338129,31.8728766 11.9238103,32.0846093 12.5226131,32.2740719" id="Fill-17" fill="#FBFCFC"></path>
            <path d="M27.8169517,8.85981927 C28.3942914,9.09114403 28.9683657,9.32976993 29.5256731,9.60713952 C29.6675132,9.67772934 29.7816163,9.77238722 29.8861802,9.89338786 C30.9688755,11.1465407 31.6270413,12.6127105 32.0616236,14.1926164 C32.5040942,15.8011032 32.7287415,17.4368867 32.6609767,19.1066809 C32.6234071,20.0322735 32.5055984,20.9487305 32.2841797,21.8497414 C31.9631134,23.1562769 31.602643,24.4505949 31.0620291,25.6872743 C31.0234689,25.7754382 31.0058948,25.8767368 30.9139886,25.9600578 C30.9139886,25.8407081 30.9059537,25.7366212 30.9152361,25.6341118 C30.9931637,24.7762473 31.0331548,23.916475 31.0425839,23.0554185 C31.0440148,22.9260161 31.065001,22.8604527 31.2164169,22.8463274 C31.373116,22.8317251 31.5036558,22.7303531 31.6103477,22.6128379 C31.7453269,22.4640636 31.7465743,22.3745055 31.6022761,22.2377653 C31.5099663,22.1504085 31.4103187,22.0535126 31.2954452,22.0106964 C31.0484542,21.9186435 30.9938975,21.7492866 31.0361266,21.5177417 C31.3113316,20.3122847 31.4012199,19.0913082 31.3374175,17.8577106 C31.356239,17.4947087 31.2926201,17.1374302 31.2646997,16.7776202 C31.2437502,16.5083223 31.16164,16.2458485 31.1778199,15.9728082 C31.2844018,15.9930239 31.3902131,16.0214212 31.4976755,16.0312172 C31.6078529,16.0413067 31.7267255,16.0302633 31.7802916,15.9153164 C31.8406819,15.7856938 31.767267,15.6849088 31.6650145,15.6136586 C31.5017113,15.4998857 31.3312171,15.3964958 31.1645385,15.2874558 C31.096627,15.2429886 31.0307333,15.1954029 30.9638858,15.149248 C30.9570983,15.0951316 30.955961,15.0395476 30.9426061,14.9870455 C30.6963856,14.0185267 30.3645694,13.0806432 29.9242635,12.1827876 C29.7111732,11.7483887 29.4948543,11.3151271 29.2149165,10.9178576 C29.1115266,10.6921462 28.9628991,10.4943553 28.8234805,10.2913178 C28.5278764,9.86088132 28.2107725,9.44691822 27.8704811,9.05030907 C27.8322144,9.00565843 27.6962813,8.95998051 27.8169517,8.85981927" id="Fill-19" fill="#FBFCFC"></path>
            <path d="M24.7999301,28.4862453 C24.7886299,29.1601873 24.8702998,29.8322216 24.8428564,30.5064571 C24.8414622,30.5402111 24.8209163,30.5731946 24.8093225,30.606545 C24.6963568,30.643601 24.6184292,30.7471376 24.4983457,30.7700683 C23.8654221,30.1617997 23.5605357,29.3683246 23.2576672,28.5737488 C23.2414139,28.5311527 23.2263347,28.4880797 23.2107418,28.4451902 C23.4499181,28.3919176 23.6926164,28.3615024 23.9368558,28.3539077 C24.1555228,28.3470835 24.3727956,28.3310504 24.5901052,28.3075327 C24.7173063,28.2937376 24.8024617,28.3366638 24.7999301,28.4862453 Z M25.993654,28.3397503 C26.4665031,28.3407437 26.9389486,28.3456967 27.4078353,28.4172404 C26.8993611,28.9702185 26.3352295,29.462256 25.749378,29.9302989 C25.7721252,29.4586605 25.800706,28.9872423 25.7868375,28.5151269 C25.782178,28.3569969 25.869388,28.3394962 25.993654,28.3397503 Z M25.397192,21.4318305 C26.5750588,21.5717261 27.73825,21.7912002 28.8841239,22.0992052 C28.9189052,22.1084876 28.9506779,22.12885 28.9838815,22.1440026 C28.9296184,22.2528867 28.8962198,22.3720896 28.8372048,22.4786261 L28.7679332,22.5801039 L28.7679332,22.5801039 C28.7279421,22.6916021 28.6907393,22.8042009 28.6474462,22.9144517 C28.4386485,23.4461501 28.3045866,23.9913134 28.3166206,24.5683229 C28.3253893,24.9884864 28.3278108,25.4080263 28.3702967,25.8272359 C28.3906665,26.0283509 28.3853833,26.2289375 28.3721635,26.4294044 L28.3264107,27.0308543 C28.3207224,27.1311723 28.3174791,27.2315625 28.3188953,27.332076 C28.2562303,27.4880046 28.1063554,27.5834697 28.038664,27.7358762 C27.3725,27.5878357 26.70729,27.4358694 26.0287618,27.3507874 C25.7470629,27.3154925 25.7528964,27.307054 25.7394682,27.032326 C25.7042467,26.3135499 25.6308685,25.5983693 25.5309641,24.8857569 C25.5234428,24.8321542 25.5282858,24.7768637 25.5273319,24.722307 C25.3630344,23.6246279 25.1963191,22.527367 24.9171151,21.444048 C25.0901042,21.3908855 25.2470235,21.4139996 25.397192,21.4318305 Z M23.6367756,21.3154894 C23.7353959,21.312591 23.7454121,21.3863727 23.7670953,21.4592006 C23.8607259,21.7732593 23.922437,22.0945457 23.9787914,22.4161257 C24.0099918,22.5943466 24.0968657,22.7584085 24.1263849,22.9360753 L24.1360005,23.0723065 L24.1360005,23.0723065 C24.2855159,23.6507615 24.3898539,24.2371296 24.4676488,24.8281423 L24.5213094,25.2722105 L24.5213094,25.2722105 C24.6158939,25.775108 24.6588936,26.2841693 24.6889786,26.7937808 C24.6974171,26.9364281 24.7884061,27.1085733 24.7002055,27.2150818 C24.6079324,27.3265432 24.4236798,27.2503033 24.2805189,27.2627042 C23.8351132,27.3011911 23.3888637,27.3299186 22.9429444,27.3624619 C22.9132263,26.9546992 22.8526892,26.5484408 22.8802061,26.1378531 L22.8803482,26.0027685 C22.8826367,25.958049 22.8923318,25.9145633 22.9249301,25.8750858 C22.9317176,25.2928408 23.1010377,24.7399728 23.2334854,24.1807576 C23.2988287,23.9049289 23.3626677,23.6294305 23.3889371,23.3466309 C23.3992871,22.9365972 23.2119526,22.6226119 22.9392058,22.3296495 C22.6725127,22.043181 22.4400139,21.7243527 22.2707671,21.3660837 C22.7232905,21.2735904 23.1813172,21.3288442 23.6367756,21.3154894 Z M23.7667541,14.240503 C24.2200479,14.2819617 24.6713605,14.3470482 25.1250946,14.3814259 C25.3075128,14.3952797 25.4757954,14.4741994 25.6543252,14.49676 L25.7905101,14.5011974 L25.7905101,14.5011974 C26.2914997,14.5500673 26.7771167,14.6775619 27.2644946,14.7942333 L27.4117739,14.823823 C27.4362455,14.8294915 27.4603984,14.8363111 27.4838106,14.8454558 L27.5514034,14.8810397 L27.5514034,14.8810397 C27.8522173,14.9130693 28.1348334,15.0178166 28.4139274,15.1216835 C28.617185,15.1972997 28.8211397,15.2666421 29.0288734,15.3273992 C29.1933873,15.3754987 29.3144246,15.4574254 29.3626708,15.6439895 C29.4351685,15.9244703 29.5543699,16.1919191 29.6215608,16.4743066 L29.6606523,16.6893573 L29.6606523,16.6893573 C29.7919993,17.0698232 29.8540406,17.4661389 29.9340962,17.8587489 L30.0283573,18.3887134 L30.0283573,18.3887134 L30.1844626,19.4534773 L30.1844626,19.4534773 L30.1933074,19.5531086 L30.1933074,19.5531086 L30.1945521,19.7550617 L30.1945521,19.7550617 C30.0475022,19.9294816 29.9646949,20.1407375 29.8578929,20.3382349 C29.7082748,20.6149074 29.595199,20.9108417 29.4176971,21.1728385 C28.9507916,21.0486826 28.4846933,20.9213714 28.0167606,20.8012146 C27.5227419,20.6743437 27.025678,20.5606442 26.5217899,20.4786808 C26.4967679,20.4745716 26.4744976,20.4533286 26.4509799,20.4400471 C26.1771031,20.4415294 25.9164271,20.3531087 25.6469824,20.3216294 C25.3413622,20.2858208 25.0382001,20.2294297 24.7331303,20.1882645 C24.5987381,20.1701401 24.5414297,20.1114742 24.5113814,19.9701845 C24.4228873,19.5538 24.3092244,19.142772 24.2053576,18.7296527 C24.0404034,18.161412 23.8754125,17.5931712 23.7104217,17.0249305 C23.4519983,16.2756473 23.22038,15.5169902 22.9257299,14.7803464 C22.8554336,14.604569 22.7858344,14.428498 22.7023667,14.2184162 C23.0808147,14.2072627 23.4245182,14.2092439 23.7667541,14.240503 Z M21.5267085,14.4510544 C21.6570282,14.7922631 21.8114893,15.1246296 21.9092658,15.4779456 C22.1451803,16.0544268 22.3625735,16.6372786 22.5435617,17.2327303 L22.6721899,17.6817864 L22.6721899,17.6817864 C22.7900903,17.9889475 22.8909395,18.3014561 22.9856294,18.6158908 L23.2621139,19.5615524 L23.2621139,19.5615524 C23.3111305,19.7270569 23.3764738,19.8891493 23.3927271,20.0474628 C23.3813902,20.0975067 23.3526626,20.1023497 23.3271637,20.1025331 C22.7237014,20.1065322 22.1199089,20.0940946 21.5174372,20.14656 C21.2582287,19.6920555 20.8969512,19.3540388 20.4017217,19.1686121 C20.3435328,19.0999301 20.2432248,19.1150827 20.1796059,19.0571506 C19.685778,18.9566152 19.1855955,18.943884 18.6839088,18.9438107 C18.455886,18.943774 18.2327796,18.8934365 18.0080222,18.8587286 C17.8297792,18.8311898 17.6713219,18.760804 17.5173633,18.6803959 L17.2109148,18.5159424 L17.2109148,18.5159424 C17.1341979,18.4282555 17.0555732,18.3422562 16.9812044,18.2526614 C16.8042162,18.0394978 16.6879117,17.7994777 16.6660083,17.5193564 C16.6539927,17.5145575 16.6419219,17.510008 16.6297779,17.5057154 C16.6090118,17.3526118 16.5806512,17.2001319 16.5690207,17.0463312 C16.5435585,16.7094886 16.5227924,16.3620061 16.6620276,16.0508826 C16.8297334,15.6761401 16.8907474,15.2880795 16.9221166,14.8883151 C17.3996619,14.7265896 17.8965791,14.6480749 18.3894604,14.555545 C19.2703657,14.3901872 20.1617273,14.3046282 21.0544098,14.2331212 C21.1000143,14.2294523 21.1458757,14.2287919 21.1915903,14.2275445 C21.4338851,14.2210138 21.4382511,14.2194362 21.5267085,14.4510544 Z M26.6694085,8.43830555 C27.0546807,8.57985209 27.4359905,8.71996776 27.8171168,8.85993667 C27.6962996,8.95998784 27.8321961,9.00566577 27.8704995,9.05031641 C28.2107542,9.44692556 28.5278581,9.86088866 28.8234621,10.2913252 C28.9280261,10.4436033 29.03777,10.5929302 29.1297244,10.7532982 L29.2148981,10.9178649 L29.2148981,10.9178649 C29.4948726,11.3151345 29.7111916,11.748396 29.9242452,12.182795 C30.364551,13.0806506 30.6964039,14.018534 30.9426245,14.9870528 C30.9559426,15.0395182 30.95708,15.0951022 30.9639041,15.1492553 C30.6576969,14.9876398 30.3523336,14.8244467 30.0447322,14.665693 C29.9659974,14.6250782 29.9176044,14.5660821 29.888033,14.485843 C29.5663063,13.6131561 29.2194109,12.7509256 28.819463,11.9106719 C28.8082728,11.8871175 28.8104008,11.8572526 28.8063283,11.8302127 C28.5955861,11.5415796 28.4580387,11.2109741 28.2773449,10.9048036 C27.8027714,10.1005785 27.2637719,9.34023366 26.7175446,8.58451161 C26.6925593,8.54991379 26.6513574,8.52243366 26.6694085,8.43830555 Z M23.2145465,7.85749511 C23.6157051,7.90489742 24.0209729,7.92005002 24.4163713,8.01202959 C24.4806799,8.08194434 24.5598521,8.06756221 24.637451,8.06213105 L24.6935467,8.06049511 C24.6953377,8.06376307 24.6949134,8.06143062 24.694482,8.05909804 C24.986674,8.04034991 25.2196864,8.13548474 25.4134416,8.36846052 C25.7590235,8.78392787 26.1132465,9.19204566 26.4206953,9.63609411 L26.6416605,9.9765327 L26.6416605,9.9765327 C26.966836,10.3864967 27.2232561,10.8415883 27.4830883,11.2923138 C27.9906453,12.1728155 28.4402702,13.082962 28.8083719,14.031632 C28.8279272,14.0820061 28.8444006,14.1335543 28.8807595,14.237201 C28.287937,14.0673672 27.7374905,13.8905991 27.1763307,13.7542624 C26.6079065,13.6160913 26.0322913,13.5138754 25.461629,13.3874815 C24.7595318,13.2864874 24.0611548,13.1569015 23.351661,13.1118106 C23.3174301,13.109646 23.2844832,13.0878893 23.2509127,13.0752683 C22.9931278,13.0637149 22.7353502,13.0521211 22.4777193,13.0406741 C22.414981,12.9947394 22.3435473,13.0164226 22.2750487,13.0153587 C22.2266191,12.9978213 22.2110629,12.9536109 22.1938924,12.9122623 C21.8347796,12.0477937 21.4410688,11.1999821 20.9815012,10.3836129 C20.9595244,10.3445757 20.9478206,10.299705 20.9314206,10.2575859 C21.0740678,10.0452294 21.2180358,9.83382678 21.3588853,9.62033292 C21.5451925,9.33793692 21.7414425,9.06284206 21.9564406,8.80157899 C22.2990801,8.38526779 22.7381752,8.09630445 23.2145465,7.85749511 Z M19.9569948,10.956792 C20.2610007,11.4483159 20.4966181,11.9743642 20.735831,12.4985046 C20.8147859,12.6715304 20.8873936,12.8474547 20.9681464,13.0341655 C20.6369539,13.1397567 20.3146768,13.1298873 20.001462,13.1660628 C19.0371624,13.277561 18.0825121,13.4389563 17.1357132,13.6506891 C17.0649766,13.6665021 16.9910481,13.6681531 16.9186238,13.6764082 C16.9083142,13.2442106 16.9728503,12.8299173 17.2101187,12.456792 C17.6922501,11.9146343 18.3394091,11.6415941 18.9859811,11.3668661 C19.1107241,11.3138503 19.244786,11.2801331 19.3552936,11.1961517 C19.5558362,11.1163529 19.7564155,11.0365908 19.9569948,10.956792 Z" id="Combined-Shape" fill="#000000"></path>
            <path d="M3.79184402,12.2588991 C3.67840132,11.3866892 3.60252827,10.5119844 3.61643344,9.63118922 C3.61848803,9.50197022 3.63158604,9.38511544 3.71509042,9.27174612 C4.97620481,7.55924576 6.40161298,6.00652642 8.11587442,4.73363483 C8.45403784,4.48253464 8.8062165,4.25198035 9.17398802,4.04593437 C9.20414646,4.02905738 9.23357111,4.00124705 9.28853138,4.02689273 C9.3110218,4.71169475 9.38392304,5.40071602 9.43202245,6.09149837 C9.24773311,6.20967396 9.0602885,6.32344685 8.87959469,6.44708911 C8.44259084,6.74610527 8.0032022,7.0424798 7.61598545,7.40713276 C7.52114413,7.44741739 7.45081113,7.52068552 7.37534165,7.58676258 C5.95330888,8.83140356 4.81524973,10.2963259 3.96010022,11.9812727 C3.91130372,12.0774349 3.8837869,12.1881993 3.79184402,12.2588991" id="Fill-23" fill="#FBFCFC"></path>
            <path d="M10.1131812,29.7807247 C10.1358551,29.7955838 10.1619777,29.8070675 10.1807626,29.8258523 C10.9733572,30.6200246 11.7923312,31.3852491 12.6791434,32.0951465 C12.652874,32.1818795 12.5849258,32.2256863 12.5225543,32.2739691 C11.9237883,32.0846167 11.3338276,31.8728839 10.7747958,31.58293 C10.7687054,31.5640228 10.759794,31.5489803 10.7445286,31.5425747 L10.7179684,31.539336 L10.7193732,31.468064 C10.7073509,31.374464 10.6469343,31.2967183 10.6081906,31.2127736 C10.3955772,30.7517017 10.1980064,30.2857869 10.1131812,29.7807247 Z M14.2953129,23.680421 C14.4959289,24.0794516 14.7104133,24.4718048 14.9014902,24.8752382 C14.9834903,25.0484107 15.1076095,25.1941031 15.1829322,25.36889 C15.2433959,25.414678 15.2808555,25.4742978 15.2915687,25.5498773 C15.2252348,25.9910637 15.0569052,26.4029722 14.9162392,26.8218884 C14.774656,27.2437029 14.6094083,27.6575926 14.4545069,28.0749678 L14.2886722,29.3404849 L14.2886722,29.3404849 C14.2871679,29.8477117 14.2108179,30.3522235 14.2327947,30.8604776 C14.0475514,31.0082246 13.8576853,31.1503948 13.6790094,31.305443 C13.5735649,31.3969456 13.4856945,31.3857921 13.3898259,31.3035718 C13.2444637,31.1789023 13.0941485,31.0595893 12.9546198,30.928756 C12.3025078,30.3172588 11.6511662,29.704771 11.0493183,29.0425327 C11.0193433,29.0095126 10.9996045,28.96721 10.9750962,28.9292368 C10.8958661,28.8974604 10.8429604,28.8332178 10.7880369,28.7730843 C10.2295921,28.1621375 9.67334866,27.5492094 9.16795633,26.8925846 C9.06610739,26.760247 9.06764834,26.7590363 9.22966739,26.6367515 C9.55831,26.3216325 9.92608152,26.0543524 10.2918351,25.7864119 C10.7311504,25.4645752 11.1683377,25.1374185 11.6559725,24.8880794 C12.2640943,24.481344 12.9235442,24.1697435 13.5798755,23.8526396 C13.7522775,23.7693187 13.9299262,23.6967476 14.1014477,23.6118491 C14.1972429,23.5644467 14.248571,23.5874875 14.2953129,23.680421 Z M5.10555589,22.5692439 C5.2559812,22.8195003 5.34763057,23.0969432 5.46562271,23.3619853 C5.87753122,24.2874311 6.35518659,25.1768849 6.89906579,26.0310805 C6.95784172,26.1233903 7.02204765,26.2119578 7.06013093,26.3156779 C6.9141817,26.3355267 6.79365801,26.2568285 6.66953879,26.2053537 C6.00498914,25.9296719 5.44463654,25.5185705 5.05176968,24.9063395 C4.66246165,24.2996486 4.59044095,23.6516824 4.83768879,22.9733377 C4.89374973,22.8196103 4.95997355,22.6665801 5.10555589,22.5692439 Z M8.52171455,21.386336 C8.64931923,21.4028094 8.77692392,21.4192828 8.9045286,21.4357563 C10.3207608,21.69382 11.7247059,22.0053472 13.1099395,22.3983241 C13.1797221,22.4181362 13.2468999,22.4472674 13.3153984,22.4720325 C12.9683196,22.7061823 12.5825704,22.8720171 12.224815,23.087859 C12.0386545,23.2002377 11.8608224,23.3286496 11.6570145,23.4104296 C11.2004223,23.702849 10.7438632,23.9952611 10.2872673,24.2876733 C9.96964982,24.5183743 9.64928062,24.7453698 9.33518524,24.980767 C8.99889296,25.2328211 8.66850763,25.4928001 8.32054822,25.7608506 C8.04981936,25.4074246 7.82102615,25.0355072 7.60819268,24.6548578 C7.14778119,23.8314076 6.75583155,22.9751208 6.4096699,22.097811 C6.38655577,22.0392185 6.37727343,21.9751227 6.36164387,21.9136318 C6.59707782,21.8187538 6.84036323,21.7510991 7.08893187,21.7014587 C7.13017042,21.682894 7.16983133,21.6587893 7.21290434,21.6466085 C7.64224017,21.5253877 8.07146593,21.4028461 8.52171455,21.386336 Z" id="Combined-Shape" fill="#000000"></path>
            <path d="M26.0979207,7.35110483 C25.7707273,7.02831414 25.3903715,6.77314146 25.0126205,6.517235 C23.1806604,5.27600611 21.1662822,4.49727999 18.9779609,4.17294836 C17.9789167,4.02490785 16.9733052,4.00538925 15.9659693,4.06332133 C15.6902508,3.85573441 15.4143854,3.64814749 15.0844037,3.39983568 C15.495395,3.38710456 15.8465463,3.36725576 16.1977711,3.36679867 C18.4614151,3.36395374 20.6642652,3.72633196 22.7966723,4.4905292 C24.577341,5.128626 26.2300382,5.99804757 27.6721032,7.23733194 C28.0263364,7.54177808 28.3667746,7.86159695 28.6614981,8.22621321 C28.6523258,8.26447994 28.6184618,8.27541329 28.5891839,8.29144643 C27.8439549,7.9812401 27.0909112,7.69235014 26.3184589,7.45574214 C26.2414852,7.43215105 26.1712622,7.38650981 26.0979207,7.35110483" id="Fill-33" fill="#FBFCFC"></path>
            <path d="M2.9017408,14.8294365 C2.97471542,15.2227436 3.04457147,15.6165644 3.12132506,16.0090277 C3.35921717,17.225418 3.66307629,18.4249314 4.05154046,19.6024314 C4.06867427,19.6543831 4.08536781,19.7064816 4.10286851,19.75825 C4.15173839,19.9026582 4.12106631,20.0096803 3.96300967,20.0572294 C3.7357207,19.7368235 3.5156228,19.4110243 3.27934501,19.0974426 C3.01081749,18.7410814 2.77087079,18.3607255 2.43703668,18.0569031 C2.42063666,17.5730106 2.47882557,17.0936308 2.53796839,16.6155351 C2.60951213,16.0372783 2.7284215,15.4668362 2.86369421,14.9000997 C2.86971122,14.8749309 2.88878955,14.8528808 2.9017408,14.8294365 Z M9.96886101,10.196671 C10.0206293,10.4930455 10.091586,10.7867417 10.1115449,11.0882894 C10.1538181,11.2111209 10.1836463,11.3360839 10.176015,11.4673942 C9.82842248,11.9578908 9.4820407,12.4492312 9.13305399,12.9387004 C8.72529135,13.5106101 8.30303652,14.0707793 7.7810974,14.546857 C7.66046364,14.6569243 7.53667462,14.7636162 7.41435317,14.8719224 C7.34082822,14.8847269 7.29111449,14.9409346 7.2284862,14.973111 C7.0713688,15.053915 6.92315071,15.1569087 6.75159718,15.2034774 L6.61786219,15.2264895 L6.61786219,15.2264895 C6.52404817,15.2883841 6.41192628,15.2883841 6.30809613,15.3089666 L6.10985117,15.340212 C6.04457668,15.352856 5.98128799,15.3725855 5.923521,15.4139708 C5.71930948,15.4342232 5.54716423,15.5246985 5.39365704,15.6558988 C5.02948105,15.9799002 4.75856874,16.3684377 4.58363512,16.8234926 C4.43489752,16.4471725 4.37722225,16.0472247 4.2888749,15.6559721 C4.17018567,15.1305109 4.07765576,14.5991793 3.96938623,14.0712599 C3.92943181,13.8764775 3.96435983,13.7295743 4.12905719,13.5895687 C4.94039992,12.9000338 5.80861074,12.2910681 6.70987845,11.7270833 C6.74018365,11.7080784 6.77657923,11.6988327 6.81018645,11.6850743 C7.2596279,11.3675668 7.74436427,11.108872 8.22888051,10.8521217 C8.73034711,10.5863826 9.24212334,10.3398685 9.75235864,10.0910797 C9.91753296,10.0105472 9.93789541,10.0193159 9.96886101,10.196671 Z M9.55331661,7.18468675 L9.60890518,7.65238103 L9.60890518,7.65238103 L9.66454328,8.12010467 L9.66454328,8.12010467 C9.69066592,8.30046828 9.69950799,8.48563816 9.74808436,8.65976462 C9.7917077,8.81602349 9.72430982,8.87226788 9.60257539,8.92733822 C9.31148408,9.05901539 9.0206496,9.19197668 8.73531848,9.33554113 C7.88662625,9.76260223 7.05972735,10.228297 6.24860476,10.7235998 C5.90901046,10.9309299 5.56277544,11.1259324 5.23532524,11.3538084 C5.1742654,11.3962944 5.12792019,11.4583242 5.0663857,11.4992056 L4.99869523,11.5315378 L4.99869523,11.5315378 L3.84056714,12.437465 L3.84056714,12.437465 C3.76939029,12.3820645 3.78575363,12.3192527 3.79184402,12.2588991 C3.83781546,12.2235492 3.86768038,12.1781831 3.89215201,12.1296343 L3.96010022,11.9812727 L3.96010022,11.9812727 C4.81524973,10.2963259 5.95330888,8.83140356 7.37534165,7.58676258 C7.45081113,7.52068552 7.52114413,7.44741739 7.61609552,7.40709607 C7.73375746,7.40247324 7.85380419,7.41157214 7.96849431,7.39098955 C8.49358869,7.29666188 9.02543386,7.2561938 9.55331661,7.18468675 Z M15.0052139,8.34006682 C14.8072395,8.52600717 14.5582306,8.62143552 14.3141381,8.72291757 C13.6806274,8.9863086 13.0346791,9.22115552 12.4290155,9.54798201 L12.3067032,9.60907854 C12.2668313,9.63093607 12.2296102,9.65694864 12.2002957,9.6951053 C11.8014485,9.88277004 11.4625146,10.1573879 11.1251583,10.4344273 C11.0551922,10.4918825 10.9837218,10.5475398 10.9129486,10.6041144 C10.8074307,10.3592147 10.7923882,10.0919346 10.7236328,9.83793596 C10.684192,9.69224355 10.7784096,9.64513475 10.8873029,9.60426309 C11.3649583,9.42507353 11.8370369,9.22911706 12.3209294,9.06882239 C13.1332627,8.79970785 13.9533375,8.55429447 14.7898856,8.36828074 C14.8616495,8.35232098 14.9315422,8.33537062 15.0052139,8.34006682 Z M14.5913572,6.55793055 C14.8033835,6.63758258 14.9768863,6.76151836 15.107316,6.9444502 C15.160185,7.01856218 15.2014969,7.10122272 15.2866523,7.1460568 C14.7125413,7.28734652 14.1354585,7.41770288 13.5649797,7.57238412 C12.6571446,7.81856798 11.7612702,8.10404585 10.8851712,8.44844642 C10.8596356,8.45849923 10.834687,8.46994623 10.8091881,8.48003573 C10.4857737,8.60797062 10.4882319,8.60749366 10.432281,8.26580809 C10.3704599,7.88802044 10.2947336,7.51228738 10.2788472,7.12837265 C10.9949817,7.12176862 11.6847368,6.96261131 12.3706395,6.77465305 C12.7737793,6.66418218 13.1770659,6.54872159 13.5930835,6.49632955 C13.9281651,6.45413709 14.2632466,6.43469187 14.5913572,6.55793055 Z" id="Combined-Shape" fill="#000000"></path>
            <path d="M27.4078353,28.4172404 C27.9658398,28.4912423 28.5251284,28.5582733 29.0759051,28.700517 C28.5799786,29.5095116 26.8114907,30.9461466 25.6865662,31.547591 C25.7367569,30.9944295 25.7338585,30.4621073 25.749378,29.9302989 C26.3352295,29.462256 26.8993611,28.9702185 27.4078353,28.4172404" id="Fill-67" fill="#FBFCFC"></path>
            <path d="M15.2889307,32.8656139 C16.0193006,32.9299298 16.7504043,32.9523836 17.4838194,32.9299298 C18.2456318,32.9065956 18.9971713,32.8061775 19.7449685,32.6677129 C19.8348201,32.651056 19.9254055,32.6382515 20.015624,32.6236126 C20.257185,32.9330117 20.498746,33.2424476 20.7371151,33.5477743 C20.7025173,33.6026978 20.6567293,33.610586 20.6118585,33.6172267 C19.4139595,33.7951322 18.2110707,33.9052728 16.9984226,33.8941927 C16.8168849,33.8925417 16.6634511,33.849909 16.5146034,33.742043 C16.1079415,33.4473195 15.6740195,33.1906793 15.2889307,32.8656139" id="Fill-69" fill="#FBFCFC"></path>
            <path d="M28.3189026,27.3320796 C28.710412,26.8932046 29.0164358,26.3942696 29.3206618,25.8950777 C29.7019349,25.2693451 30.0245055,24.6134541 30.3011046,23.9348892 C30.3284013,23.8678949 30.3675852,23.8057069 30.4012291,23.7412442 C30.4264712,24.8208209 30.3832515,25.8981963 30.2988298,26.9743242 C30.2929963,27.0485463 30.2785041,27.1188426 30.2432826,27.1843326 C30.0692295,27.5078204 29.8541947,27.8026907 29.6161191,28.0816012 C29.5579669,28.1496962 29.5022728,28.1766627 29.4040928,28.1389463 C28.9601547,27.968452 28.4962577,27.8625306 28.0387447,27.7359165 C28.1063627,27.5834733 28.2562377,27.4880083 28.3189026,27.3320796" id="Fill-73" fill="#FBFCFC"></path>
            <path d="M21.2912709,32.2649363 C22.3475134,31.931946 23.3476215,31.4743596 24.2998871,30.9108517 C24.3697798,30.8695031 24.4484045,30.8394914 24.4983751,30.7700756 C24.6184218,30.7471449 24.6963862,30.6436083 24.8093152,30.6065523 C24.8295309,31.0450604 24.7933554,31.482688 24.7906038,31.9207191 C24.7896865,32.0713279 24.6958358,32.1253709 24.5887403,32.1804046 C24.1015458,32.430771 23.6051056,32.6615821 23.0997133,32.8726545 C22.8220135,32.9886654 22.5393607,33.0928258 22.2621745,33.2100108 C22.1724697,33.2479473 22.1108687,33.2418569 22.0471397,33.1661673 C21.7944619,32.8663807 21.5149643,32.5890845 21.2912709,32.2649363" id="Fill-77" fill="#FBFCFC"></path>
            <path d="M31.1778383,15.9728082 C31.1616584,16.2458485 31.2437686,16.5083223 31.2646814,16.7776202 C31.2926385,17.1374302 31.3562207,17.4947087 31.3374359,17.8576372 C31.1720781,18.0947222 31.0067203,18.3319539 30.8413626,18.5691489 C30.7558036,18.2904218 30.7462644,17.9985234 30.7001462,17.713339 C30.6015626,17.1030892 30.4846711,16.4974623 30.3363371,15.8975588 C30.2872838,15.6992543 30.3207442,15.6651701 30.516554,15.7301098 C30.7392935,15.8040383 30.9575936,15.8913217 31.1778383,15.9728082" id="Fill-105" fill="#000000"></path>
            <path d="M13.5993721,32.7662928 C14.1133496,33.1061806 14.6158802,33.4384738 15.1159526,33.769226 C14.7743771,33.8463465 13.3920053,33.6644419 13.014291,33.4865732 C13.196856,33.2349593 13.3598289,32.972192 13.5993721,32.7662928" id="Fill-109" fill="#FBFCFC"></path>
            <path d="M28.6615091,8.2261912 C28.7244676,8.24904851 28.7505169,8.30606337 28.7919755,8.37019591 C28.702711,8.38153284 28.6436048,8.34344956 28.5891949,8.2914611 C28.6184728,8.27542797 28.6523368,8.26445793 28.6615091,8.2261912 Z" id="Fill-111" fill="#82C5E7"></path>
            <path d="M24.6951167,8.10613592 C24.6003855,8.09477644 24.4967388,8.17744061 24.4163529,8.01450733 C24.5120014,8.01628653 24.6118691,7.97324367 24.6951167,8.10613592" id="Fill-113" fill="#000000"></path>
            <path d="M99.176599,11.0314433 C99.2039324,11.0091731 99.2157096,10.9919292 99.2306421,10.9885905 C99.5018479,10.9273197 99.589755,10.6795215 99.5575786,10.434475 C99.5266864,10.199408 99.3885153,10.0713263 99.1137506,10.0261987 C98.8866084,9.98892261 98.6573015,10.0159625 98.4292421,10.0056528 C98.3190647,10.0006264 98.2879891,10.0498632 98.2886748,10.1524092 C98.2919148,10.6367053 98.2929054,11.1210748 98.2887228,11.6053709 C98.2877322,11.720061 98.3407113,11.7419644 98.4392582,11.7407537 C98.5401166,11.7395063 98.6207959,11.7367913 98.6140818,11.5995373 C98.6065238,11.4445626 98.6144854,11.2888907 98.6118437,11.1335858 C98.6104129,11.0467794 98.6567145,11.0302693 98.7317804,11.0279579 C98.8174861,11.0252796 98.8649251,11.0665181 98.9049529,11.1350534 C98.9877969,11.2769668 99.0871143,11.4105151 99.1578876,11.5579319 C99.2461616,11.7416342 99.3765913,11.7747645 99.5789684,11.7124664 C99.4400635,11.4772893 99.3074324,11.2528987 99.176599,11.0314433 M100.108849,10.8899702 C100.106374,11.5702228 99.5455813,12.1276035 98.866356,12.1248359 C98.1872408,12.1220635 97.632575,11.5614174 97.6343641,10.8795505 C97.6361339,10.1946384 98.1877178,9.64958513 98.8767757,9.65180948 C99.5645496,9.6540612 100.111327,10.2035171 100.108849,10.8899702 Z" id="Fill-117" fill="#FBFCFC"></path>
            <path d="M98.8572901,10.7609346 C98.9312921,10.7547709 99.0232349,10.7681624 99.108904,10.7273274 C99.2592926,10.6556002 99.2977795,10.4378137 99.1681936,10.346091 C99.0163374,10.2385919 98.8371845,10.2740336 98.666727,10.2798305 C98.629671,10.2810779 98.6144083,10.3254717 98.6133076,10.363555 C98.6116933,10.4178549 98.6116933,10.4722281 98.6122437,10.5266013 C98.6149953,10.7848559 98.5794803,10.7583664 98.8572901,10.7609346 M99.1765954,11.0314433 C99.3074654,11.2528987 99.4400598,11.4772893 99.5789647,11.7124664 C99.3765876,11.7747645 99.2461579,11.7416342 99.1578839,11.5579319 C99.0871107,11.4105151 98.98783,11.2769668 98.9049493,11.1350534 C98.8649215,11.0665181 98.8174825,11.0252796 98.7317767,11.0279579 C98.6567108,11.0302693 98.6104092,11.0468161 98.6118768,11.1335858 C98.6144817,11.2888907 98.6065202,11.4445626 98.6140781,11.5995373 C98.6207922,11.7367913 98.5401129,11.7395063 98.4392546,11.7407537 C98.3407076,11.7419644 98.2877653,11.720061 98.2887192,11.6053709 C98.2929017,11.1210748 98.2919111,10.6367053 98.2886711,10.1524092 C98.2879854,10.0498632 98.3190611,10.0006264 98.4292384,10.0056528 C98.6572979,10.0159625 98.8866047,9.98892261 99.1137469,10.0261987 C99.3885116,10.0713263 99.5266827,10.199408 99.557575,10.434475 C99.5897513,10.6795215 99.5018442,10.9273197 99.2306384,10.9885905 C99.2157426,10.9919292 99.2039287,11.0091731 99.1765954,11.0314433" id="Fill-121" fill="#000000"></path>
            <path d="M98.8572901,10.7609346 C98.5794803,10.7583664 98.6149953,10.7848559 98.6122437,10.5266013 C98.6116933,10.4722281 98.6116933,10.4178549 98.6133076,10.363555 C98.6144083,10.3254717 98.629671,10.2810779 98.666727,10.2798305 C98.8371845,10.2740336 99.0163374,10.2385919 99.1681936,10.346091 C99.2977795,10.4378137 99.2592926,10.6556002 99.108904,10.7273274 C99.0232349,10.7681624 98.9312921,10.7547709 98.8572901,10.7609346" id="Fill-123" fill="#FBFCFC"></path>
        </g>
    </g>
</svg>