<?xml version="1.0" encoding="UTF-8"?>
<svg width="138px" height="64px" viewBox="0 0 138 64" version="1.1" xmlns="http://www.w3.org/2000/svg" xmlns:xlink="http://www.w3.org/1999/xlink">
    <title>3_SAP</title>
    <g id="3_SAP" stroke="none" stroke-width="1" fill="none" fill-rule="evenodd">
        <g id="Page-1-Copy-11" transform="translate(0.000000, 23.000000)" fill="#000000" fill-rule="nonzero">
            <path d="M120.506035,14.1965331 C117.990397,14.1965331 115.85546,12.5102644 115.202891,10.1851923 L129.209032,10.1851923 L131.139852,7.17980541 L115.202891,7.17980541 C115.85546,4.86806861 117.990397,3.16846457 120.506035,3.16846457 L130.119917,3.16846457 L132.064504,0.163077674 L120.288583,0.163077674 C115.583592,0.163077674 111.762602,3.98428312 111.762602,8.68927405 C111.762602,13.394265 115.583592,17.201705 120.288583,17.201705 L130.392,17.201705 L132.322821,14.1965331 L120.506035,14.1965331 Z M80.4322019,17.201705 C75.7272109,17.201705 71.9060055,13.394265 71.9060055,8.68927405 C71.9060055,3.98428312 75.7272109,0.163077674 80.4322019,0.163077674 L92.1945716,0.163077674 L90.2773012,3.16846457 L80.649653,3.16846457 C77.603615,3.16846457 75.1288436,5.64323604 75.1288436,8.68927405 C75.1288436,11.7353121 77.603615,14.1965331 80.649653,14.1965331 L92.4666545,14.1965331 L90.5356187,17.201705 L80.4322019,17.201705 Z M18.2039379,14.1965331 C21.2512665,14.1965331 23.7193703,11.7353121 23.7193703,8.68927405 C23.7193703,5.64323604 21.2512665,3.16846457 18.2039379,3.16846457 L8.73953949,3.16846457 C5.69350146,3.16846457 3.22410714,5.64323604 3.22410714,8.68927405 C3.22410714,11.7353121 5.69350146,14.1965331 8.73953949,14.1965331 L18.2039379,14.1965331 Z M8.52079773,17.201705 C3.81709731,17.201705 -2.15085299e-05,13.394265 -2.15085299e-05,8.68927405 C-2.15085299e-05,3.98428312 3.81709731,0.163077674 8.52079773,0.163077674 L18.4241853,0.163077674 C23.1291762,0.163077674 26.9434989,3.98428312 26.9434989,8.68927405 C26.9434989,13.394265 23.1291762,17.201705 18.4241853,17.201705 L8.52079773,17.201705 Z M43.023491,11.6808955 C46.2054629,11.6808955 48.7890676,9.11062615 48.7890676,5.92886931 C48.7890676,2.74689738 46.2054629,0.163077674 43.023491,0.163077674 L28.6867653,0.163077674 L28.6867653,17.201705 L31.9625144,17.201705 L31.9625144,3.16846457 L42.8058247,3.16846457 C44.3288437,3.16846457 45.5526791,4.4058503 45.5526791,5.92886931 C45.5526791,7.45188832 44.3288437,8.68927405 42.8058247,8.68927405 L33.5672658,8.67572368 L43.3497754,17.201705 L48.109183,17.201705 L41.5277878,11.6808955 L43.023491,11.6808955 Z M97.2396124,14.1965331 L97.2396124,0.163077674 L93.9623577,0.163077674 L93.9623577,15.5700678 C93.9623577,15.9916351 94.1256074,16.3994368 94.4383415,16.7121708 C94.7510754,17.0249049 95.1726427,17.201705 95.6348609,17.201705 L110.579418,17.201705 L112.510238,14.1965331 L97.2396124,14.1965331 Z M57.1246984,11.1913613 L65.868346,11.1913613 L61.2450875,3.75306641 L52.7597573,17.201705 L48.8979007,17.201705 L59.2189839,1.04707826 C59.6676518,0.394294372 60.4155035,4.301706e-05 61.2450875,4.301706e-05 C62.0473557,4.301706e-05 62.7952072,0.380743998 63.2305398,1.01976242 L73.5922743,17.201705 L69.7304176,17.201705 L67.908215,14.1965331 L59.0557343,14.1965331 L57.1246984,11.1913613 Z" id="Fill-1"></path>
            <path d="M135.287492,1.82220266 C135.423426,1.80865229 135.55936,1.80865229 135.640878,1.68626875 C135.681744,1.63185217 135.695293,1.57743559 135.695293,1.49570318 C135.695293,1.38708511 135.627327,1.29180231 135.53226,1.23738573 C135.436761,1.19673461 135.341694,1.19673461 135.137793,1.19673461 L135.015409,1.19673461 L135.015409,1.82220266 L135.287492,1.82220266 Z M135.137793,0.843134375 C135.436761,0.843134375 135.55936,0.856684749 135.695293,0.91110133 C136.075995,1.03348487 136.116647,1.37353472 136.116647,1.50946864 C136.116647,1.53656938 136.116647,1.60453634 136.089546,1.68626875 C136.075995,1.76778608 136.021578,1.93103582 135.831228,2.05341935 C135.804127,2.06696974 135.790577,2.08052011 135.73616,2.10783594 L136.225694,2.99162143 L135.74971,2.99162143 L135.314593,2.1758029 L135.015409,2.1758029 L135.015409,2.99162143 L134.593843,2.99162143 L134.593843,0.843134375 L135.137793,0.843134375 Z M135.314593,3.90272277 C136.375178,3.90272277 137.231864,3.04603801 137.231864,1.98523732 C137.231864,0.924651705 136.375178,0.0679669548 135.314593,0.0679669548 C134.267558,0.0679669548 133.410658,0.924651705 133.410658,1.98523732 C133.410658,3.04603801 134.267558,3.90272277 135.314593,3.90272277 Z M133.81889,1.97168695 C133.81889,1.14231803 134.485223,0.475983769 135.314593,0.475983769 C136.157728,0.475983769 136.824061,1.14231803 136.824061,1.97168695 C136.824061,2.81482132 136.157728,3.48115558 135.314593,3.48115558 C134.485223,3.48115558 133.81889,2.81482132 133.81889,1.97168695 Z" id="Fill-4"></path>
        </g>
    </g>
</svg>