<?xml version="1.0" encoding="UTF-8"?>
<svg width="61px" height="64px" viewBox="0 0 61 64" version="1.1" xmlns="http://www.w3.org/2000/svg" xmlns:xlink="http://www.w3.org/1999/xlink">
    <title>4_AWS</title>
    <g id="4_AWS" stroke="none" stroke-width="1" fill="none" fill-rule="evenodd">
        <g id="Group" transform="translate(0.000000, 14.000000)" fill="#000000" fill-rule="nonzero">
            <path d="M16.9280939,13.075557 C16.910848,13.6755106 16.9839817,14.2746438 17.1450384,14.8528327 C17.3213521,15.3567576 17.533268,15.8475103 17.7791837,16.3213797 C17.8704275,16.4571424 17.9197546,16.61673 17.9210319,16.7803006 C17.8973497,17.0263003 17.7579079,17.2463086 17.5455512,17.3727258 L16.2856046,18.2071276 C16.1331374,18.313155 15.9537927,18.3739007 15.7682756,18.3823519 C15.5403753,18.3699585 15.3256675,18.2715508 15.1675063,18.1069993 C14.8960103,17.815637 14.6555237,17.4968526 14.4499208,17.1557814 C14.2496644,16.8220208 14.049408,16.438196 13.8241196,15.979275 C12.4053795,17.7489651 10.2513311,18.7675223 7.98330765,18.7411447 C6.51101151,18.81786 5.07001957,18.2974182 3.98652344,17.2976297 C2.97454992,16.282899 2.43300743,14.8912255 2.4929444,13.4593818 C2.43521479,11.8791799 3.10568827,10.3598499 4.31194005,9.33743738 C5.69088782,8.25203897 7.41531939,7.70093195 9.16815805,7.78545023 C9.87737833,7.79060296 10.5854442,7.84356856 11.2875384,7.94398657 C12.0218119,8.04411471 12.7811175,8.20265105 13.5821431,8.38621946 L13.5821431,6.92601643 C13.6979653,5.77977747 13.3627608,4.63349795 12.6476131,3.73025793 C12.0051238,3.11280065 10.9287456,2.81241603 9.38510249,2.81241603 C8.659639,2.81027438 7.93665294,2.89714477 7.23234611,3.0710806 C6.49679092,3.24457149 5.77458248,3.47043594 5.07124561,3.74694599 C4.84761546,3.85138765 4.61603451,3.93788171 4.37869227,4.00561046 C4.27353766,4.04040908 4.16396833,4.06007536 4.05327557,4.06401856 C3.77792304,4.06401856 3.63607466,3.87210621 3.63607466,3.44656137 L3.63607466,2.47031137 C3.61562119,2.22793638 3.66483499,1.98476255 3.77792304,1.76941391 C3.92783111,1.58722444 4.119654,1.44407306 4.33697213,1.35221309 C5.13433351,0.957481708 5.97418055,0.655136708 6.84017729,0.451059249 C7.87338668,0.188347558 8.93655888,0.0621133645 10.0025598,0.0755784804 C12.3806046,0.0755784804 14.1161602,0.60959549 15.2342585,1.69431775 C16.3523567,2.77904002 16.9030619,4.40612332 16.9030619,6.60059983 L16.9030619,13.075557 L16.9280939,13.075557 Z M8.81770927,16.1127793 C9.50574633,16.1029459 10.187653,15.9817806 10.8369615,15.7539866 C11.5691694,15.496782 12.2238655,15.0574464 12.7393973,14.4773519 C13.0607876,14.1068932 13.292108,13.6670987 13.4152627,13.1923733 C13.5518014,12.6240546 13.6190426,12.0412974 13.6155192,11.4568177 L13.6155192,10.622416 C13.0103239,10.4749775 12.3975129,10.3607718 11.7798354,10.2803114 C11.1572372,10.2006204 10.5301063,10.1615989 9.90243153,10.1634951 C8.84327454,10.0926429 7.79185282,10.3871588 6.92361747,10.9978968 C6.25372805,11.5689992 5.8920033,12.4222987 5.94736747,13.3008455 C5.85933713,14.0783562 6.12915676,14.8537734 6.68082747,15.4086893 C7.23249827,15.9636052 8.00631964,16.2379679 8.78433326,16.1544993 L8.81770927,16.1127793 Z M24.8549102,18.2738797 C24.5861623,18.2981594 24.3174233,18.2272832 24.0956046,18.0736233 C23.8882231,17.8546763 23.744047,17.5836253 23.6784038,17.2892857 L18.9807221,1.85285409 C18.8892807,1.58269427 18.8304554,1.30257379 18.8054977,1.01845237 C18.7872756,0.885382454 18.830516,0.7512427 18.9230232,0.653866738 C19.0155303,0.556490776 19.1472779,0.506432806 19.2811067,0.517811375 L21.2419508,0.517811375 C21.5165849,0.484750481 21.7936042,0.556239391 22.0179444,0.718067754 C22.2179591,0.936597749 22.3561964,1.2044325 22.4184571,1.49406137 L25.756064,14.7193285 L28.8683823,1.49406137 C28.9123354,1.20171993 29.0465288,0.930415928 29.2522071,0.718067754 C29.5025698,0.565735206 29.7943799,0.495700815 30.0866088,0.517811375 L31.6970042,0.517811375 C31.9903895,0.477965732 32.288062,0.549407143 32.5314059,0.718067754 C32.7399887,0.927346842 32.8722217,1.2006285 32.9068867,1.49406137 L36.0692691,14.8444887 L39.5236922,1.49406137 C39.5859529,1.2044325 39.7241902,0.936597749 39.924205,0.718067754 C40.1555988,0.571891213 40.4269657,0.501861046 40.7001986,0.517811375 L42.5609144,0.517811375 C42.698823,0.497993219 42.8380073,0.544323697 42.9365252,0.64284159 C43.0350431,0.741359483 43.0813736,0.880543727 43.0615554,1.01845237 C43.0548045,1.12496209 43.0408661,1.23089423 43.0198353,1.33552504 C42.9879891,1.50639836 42.9405067,1.6739835 42.8779871,1.83616603 L37.9967371,17.3143177 C37.9369348,17.6083552 37.7918265,17.8782566 37.5795362,18.0903114 C37.3533062,18.2341454 37.0879703,18.3041241 36.8202307,18.2905677 L35.1013631,18.2905677 C34.8079778,18.3304133 34.5103053,18.2589719 34.2669615,18.0903114 C34.051996,17.8620042 33.9197896,17.5682121 33.8914807,17.2559096 L30.8626025,4.40612332 L27.750284,17.2725977 C27.709851,17.5815898 27.5792503,17.8718135 27.3748033,18.1069993 C27.1272994,18.2661449 26.8331754,18.3367347 26.5404016,18.3072558 L24.8549102,18.2738797 Z M50.5211066,18.8078968 C49.4842409,18.8100245 48.4507578,18.6895915 47.4421644,18.4491041 C46.6435502,18.2743988 45.8718557,17.9937827 45.1475597,17.6147023 C44.8886487,17.4970417 44.6728288,17.3016372 44.5301024,17.0556532 C44.4507823,16.8800777 44.410908,16.6892508 44.4131857,16.4966041 L44.4131857,15.486978 C44.4131857,15.0697771 44.5718225,14.8695208 44.8722071,14.8695208 C44.9942021,14.8691367 45.1154257,14.8888707 45.2309999,14.9279289 L45.7232969,15.1281852 C46.4303498,15.4400342 47.1688613,15.6750152 47.9261174,15.8290827 C48.7088766,15.9879854 49.5054396,16.0690391 50.3041623,16.0710592 C51.3174412,16.1285586 52.3264857,15.9001502 53.216224,15.4118818 C53.8607264,15.0083192 54.2445091,14.294674 54.2258505,13.534478 C54.2389914,13.0161008 54.04361,12.5141227 53.6834892,12.1410272 C53.1185324,11.6475528 52.4476121,11.29068 51.7226451,11.098025 L48.8272715,10.1968712 C47.5719506,9.87687427 46.452042,9.16340768 45.6315127,8.160931 C44.9869796,7.33296456 44.6348797,6.31480903 44.6302307,5.26555702 C44.6161825,4.49128357 44.8030447,3.72658629 45.1725917,3.04604852 C45.5284821,2.3951681 46.0174888,1.8265556 46.6077627,1.37724508 C47.2302566,0.906654754 47.9347648,0.555815286 48.685423,0.342586985 C49.4986424,0.106929623 50.3419976,-0.00832889283 51.1886279,0.000482326633 C51.6348098,-0.00386836903 52.0807918,0.0212181582 52.5236704,0.0755784804 C52.9825914,0.142330607 53.4081369,0.21742676 53.8253374,0.300866942 C54.2425387,0.384307029 54.6013313,0.50112332 54.9601238,0.617939518 C55.2503498,0.707185383 55.5301027,0.827478908 55.7945256,0.976732325 C56.0293137,1.09717201 56.2344905,1.26815234 56.3952948,1.47737332 C56.5219802,1.67302321 56.5833309,1.90381931 56.5705195,2.13655065 L56.5705195,3.07942463 C56.5705195,3.49662544 56.4119831,3.71356988 56.1115985,3.71356988 C55.8446983,3.6852743 55.5863506,3.60294395 55.3522928,3.47159336 C54.1466391,2.93950266 52.8400711,2.67477314 51.522389,2.69559983 C50.6013412,2.64363076 49.6829594,2.83651974 48.8606471,3.25464893 C48.2422114,3.62656957 47.881998,4.31161819 47.9261174,5.03192463 C47.9142379,5.56892249 48.1329351,6.08529096 48.5268866,6.45040752 C49.1733015,6.96697566 49.9208931,7.34219284 50.7213627,7.55181775 L53.5583292,8.45297159 C54.7611753,8.75870249 55.8415114,9.42554056 56.6539588,10.3637515 C57.2623269,11.1674598 57.5853098,12.1510907 57.5718009,13.1589972 C57.5845072,13.9621674 57.4072474,14.7569741 57.054472,15.4786339 C56.6990757,16.1630561 56.2011675,16.7633913 55.5942695,17.2392216 C54.9424236,17.763501 54.1939994,18.1547224 53.3914487,18.390696 C52.4622079,18.6800529 51.4943546,18.8263564 50.5211066,18.8246007 L50.5211066,18.8078968 Z" id="Shape"></path>
            <path d="M54.2926025,28.5203327 C47.7258609,33.3682066 38.1803054,35.9465079 29.9697926,35.9465079 C19.0092493,36.0144126 8.41742237,31.9918985 0.265091771,24.6653968 C-0.35236542,24.1063477 0.206683673,23.3470421 0.940957155,23.780931 C9.99486457,28.9549889 20.2426456,31.6758423 30.67069,31.6743712 C38.4580426,31.6312885 46.1609757,30.0578149 53.3413849,27.0434416 C54.4344507,26.5010806 55.3773242,27.719307 54.2926025,28.5203327 Z" id="Shape"></path>
            <path d="M57.0294396,25.3996703 C56.1950387,24.3232921 51.4806683,24.8823412 49.3446005,25.1410058 C48.7021109,25.224446 48.6019828,24.6653968 49.1860641,24.2398519 C52.9408718,21.6031425 59.1071005,22.3624481 59.8330297,23.2469139 C60.5589588,24.1313797 59.6327736,30.3142964 56.1115985,33.2597344 C55.5775813,33.7186554 55.0519082,33.4850229 55.2771966,32.8842536 C56.0949102,30.9150656 57.8721855,26.4593604 57.0294396,25.3996703 Z" id="Shape"></path>
        </g>
    </g>
</svg>