<?xml version="1.0" encoding="UTF-8"?>
<svg width="141px" height="64px" viewBox="0 0 141 64" version="1.1" xmlns="http://www.w3.org/2000/svg" xmlns:xlink="http://www.w3.org/1999/xlink">
    <title>5_Microsoft</title>
    <g id="5_Microsoft" stroke="none" stroke-width="1" fill="none" fill-rule="evenodd">
        <g id="Microsoft_logo_(2012)" transform="translate(0.000000, 17.000000)" fill="#000000" fill-rule="nonzero">
            <path d="M49.0642384,17.0988411 L48.2357616,19.4461921 L48.1667219,19.4461921 C48.0286424,18.9168874 47.7754967,18.1114238 47.3612583,17.1448675 L42.919702,5.98344371 L38.5701987,5.98344371 L38.5701987,23.7726821 L41.4468543,23.7726821 L41.4468543,12.7953642 C41.4468543,12.1049669 41.4468543,11.3225166 41.4238411,10.3559603 C41.4008278,9.87268212 41.3548013,9.5044702 41.3317881,9.22831126 L41.4008278,9.22831126 C41.5389073,9.91870861 41.7,10.425 41.8150662,10.7471854 L47.1541391,23.7266556 L49.1793046,23.7266556 L54.472351,10.6321192 C54.5874172,10.332947 54.7024834,9.73460265 54.8175497,9.22831126 L54.8865894,9.22831126 C54.8175497,10.5400662 54.7715232,11.7137417 54.7485099,12.4271523 L54.7485099,23.7036424 L57.8092715,23.7036424 L57.8092715,5.93741722 L53.6208609,5.93741722 L49.0642384,17.0988411 L49.0642384,17.0988411 Z M60.7089404,10.9543046 L63.7006623,10.9543046 L63.7006623,23.7036424 L60.7089404,23.7036424 L60.7089404,10.9543046 Z M62.2278146,5.5692053 C61.7215232,5.5692053 61.3072848,5.75331126 60.9620861,6.07549669 C60.6168874,6.39768212 60.4327815,6.81192053 60.4327815,7.31821192 C60.4327815,7.80149007 60.6168874,8.21572848 60.9620861,8.53791391 C61.3072848,8.86009934 61.7215232,9.02119205 62.2278146,9.02119205 C62.734106,9.02119205 63.1713576,8.83708609 63.493543,8.53791391 C63.8387417,8.21572848 64.0228477,7.80149007 64.0228477,7.31821192 C64.0228477,6.83493377 63.8387417,6.42069536 63.493543,6.07549669 C63.1943709,5.75331126 62.7571192,5.5692053 62.2278146,5.5692053 M74.3097682,10.8392384 C73.7574503,10.7241722 73.1821192,10.6551325 72.6298013,10.6551325 C71.2720199,10.6551325 70.0293046,10.9543046 68.9937086,11.552649 C67.9581126,12.1509934 67.1296358,12.9794702 66.6003311,14.0150662 C66.0480132,15.0736755 65.7718543,16.2933775 65.7718543,17.6971854 C65.7718543,18.9168874 66.0480132,19.9985099 66.5773179,20.9880795 C67.1066225,21.9546358 67.8430464,22.7370861 68.8326159,23.2663907 C69.7761589,23.7956954 70.8807947,24.0718543 72.1235099,24.0718543 C73.5503311,24.0718543 74.7700331,23.7726821 75.7365894,23.2203642 L75.7596026,23.197351 L75.7596026,20.4357616 L75.6445364,20.5278146 C75.2072848,20.85 74.7009934,21.1261589 74.194702,21.2872517 C73.6653974,21.4713576 73.1821192,21.5634106 72.7678808,21.5634106 C71.5711921,21.5634106 70.627649,21.2182119 69.9602649,20.4587748 C69.2698675,19.722351 68.9246689,18.7097682 68.9246689,17.4440397 C68.9246689,16.1322848 69.2698675,15.0966887 69.9832781,14.3372517 C70.6966887,13.5778146 71.6402318,13.1865894 72.790894,13.1865894 C73.7574503,13.1865894 74.7470199,13.5087748 75.6445364,14.1531457 L75.7596026,14.2451987 L75.7596026,11.3225166 L75.7365894,11.2995033 C75.3453642,11.1384106 74.9081126,10.9543046 74.3097682,10.8392384 M84.1824503,10.7471854 C83.4460265,10.7471854 82.7556291,10.9773179 82.1572848,11.460596 C81.6509934,11.8748344 81.3057947,12.4731788 81.0066225,13.1865894 L80.9836093,13.1865894 L80.9836093,10.9543046 L77.9918874,10.9543046 L77.9918874,23.7036424 L80.9836093,23.7036424 L80.9836093,17.190894 C80.9836093,16.0862583 81.2137417,15.1657285 81.7200331,14.4983444 C82.2263245,13.807947 82.8706954,13.4627483 83.6531457,13.4627483 C83.9293046,13.4627483 84.2054636,13.5317881 84.5506623,13.5778146 C84.8728477,13.6698675 85.1029801,13.7619205 85.2640728,13.8769868 L85.3791391,13.9690397 L85.3791391,10.9773179 L85.3100993,10.9543046 C85.1029801,10.8162252 84.6887417,10.7471854 84.1824503,10.7471854 M92.3291391,10.6781457 C90.2349338,10.6781457 88.5549669,11.2995033 87.3812914,12.5192053 C86.1846026,13.7389073 85.6092715,15.4188742 85.6092715,17.5360927 C85.6092715,19.5152318 86.2076159,21.1261589 87.3582781,22.2998344 C88.5089404,23.4504967 90.0738411,24.0488411 92.0299669,24.0488411 C94.0781457,24.0488411 95.7120861,23.4274834 96.8857616,22.1847682 C98.0824503,20.942053 98.6577815,19.2850993 98.6577815,17.2369205 C98.6577815,15.211755 98.1054636,13.6008278 96.9778146,12.4271523 C95.8961921,11.2534768 94.3082781,10.6781457 92.3291391,10.6781457 M94.7225166,20.4817881 C94.1701987,21.1951987 93.2956954,21.5403974 92.2140728,21.5403974 C91.1324503,21.5403974 90.257947,21.1951987 89.6365894,20.4357616 C89.0152318,19.722351 88.7160596,18.686755 88.7160596,17.375 C88.7160596,16.0172185 89.038245,14.9816225 89.6365894,14.2451987 C90.257947,13.5087748 91.1094371,13.1405629 92.1910596,13.1405629 C93.2496689,13.1405629 94.0781457,13.4857616 94.6764901,14.1991722 C95.2748344,14.9125828 95.5970199,15.9481788 95.5970199,17.3059603 C95.5509934,18.686755 95.2978477,19.7683775 94.7225166,20.4817881 M105.331623,16.247351 C104.388079,15.8561258 103.789735,15.5569536 103.513576,15.3038079 C103.283444,15.0736755 103.168377,14.7514901 103.168377,14.3372517 C103.168377,13.992053 103.306457,13.6468543 103.651656,13.4167219 C103.996854,13.1865894 104.388079,13.0715232 104.963411,13.0715232 C105.469702,13.0715232 105.999007,13.1635762 106.505298,13.3016556 C107.011589,13.4397351 107.471854,13.6468543 107.840066,13.9230132 L107.955132,14.0150662 L107.955132,11.2074503 L107.886093,11.1844371 C107.540894,11.0463576 107.080629,10.9082781 106.528311,10.7932119 C105.975993,10.7011589 105.469702,10.6551325 105.055464,10.6551325 C103.628642,10.6551325 102.454967,11.0003311 101.534437,11.7597682 C100.613907,12.4731788 100.176656,13.4397351 100.176656,14.5673841 C100.176656,15.1657285 100.268709,15.6950331 100.475828,16.1322848 C100.682947,16.5695364 100.982119,16.9837748 101.396358,17.3289735 C101.810596,17.6511589 102.40894,18.0193709 103.237417,18.3645695 C103.927815,18.6637417 104.457119,18.8938742 104.779305,19.0779801 C105.10149,19.2620861 105.308609,19.4692053 105.469702,19.630298 C105.584768,19.814404 105.653808,20.0445364 105.653808,20.3437086 C105.653808,21.1951987 105.009437,21.6094371 103.697682,21.6094371 C103.191391,21.6094371 102.662086,21.5173841 102.040728,21.3102649 C101.419371,21.1031457 100.84404,20.8039735 100.360762,20.4587748 L100.245695,20.3667219 L100.245695,23.289404 L100.314735,23.3124172 C100.751987,23.5195364 101.281291,23.6576159 101.925662,23.8187086 C102.570033,23.9337748 103.145364,24.0258278 103.651656,24.0258278 C105.193543,24.0258278 106.459272,23.6806291 107.356788,22.9211921 C108.277318,22.1847682 108.760596,21.2412252 108.760596,20.0215232 C108.760596,19.1700331 108.530464,18.410596 108.024172,17.8352649 C107.356788,17.282947 106.528311,16.7076159 105.331623,16.247351 M116.654139,10.6781457 C114.559934,10.6781457 112.879967,11.2995033 111.706291,12.5192053 C110.532616,13.7389073 109.934272,15.4188742 109.934272,17.5360927 C109.934272,19.5152318 110.532616,21.1261589 111.683278,22.2998344 C112.83394,23.4504967 114.398841,24.0488411 116.354967,24.0488411 C118.403146,24.0488411 120.037086,23.4274834 121.210762,22.1847682 C122.40745,20.942053 122.982781,19.2850993 122.982781,17.2369205 C122.982781,15.211755 122.430464,13.6008278 121.302815,12.4271523 C120.221192,11.2534768 118.633278,10.6781457 116.654139,10.6781457 M119.024503,20.4817881 C118.472185,21.1951987 117.597682,21.5403974 116.51606,21.5403974 C115.411424,21.5403974 114.559934,21.1951987 113.938576,20.4357616 C113.317219,19.722351 113.018046,18.686755 113.018046,17.375 C113.018046,16.0172185 113.340232,14.9816225 113.938576,14.2451987 C114.559934,13.5087748 115.411424,13.1405629 116.493046,13.1405629 C117.528642,13.1405629 118.380132,13.4857616 118.978477,14.1991722 C119.576821,14.9125828 119.899007,15.9481788 119.899007,17.3059603 C119.899007,18.686755 119.599834,19.7683775 119.024503,20.4817881 M138.976987,13.4167219 L138.976987,10.9543046 L135.962252,10.9543046 L135.962252,7.18013245 L135.870199,7.2031457 L133.016556,8.05463576 L132.947517,8.07764901 L132.947517,10.9543046 L128.436921,10.9543046 L128.436921,9.34337748 C128.436921,8.60695364 128.621026,8.03162252 128.943212,7.6634106 C129.265397,7.29519868 129.748675,7.11109272 130.34702,7.11109272 C130.761258,7.11109272 131.19851,7.2031457 131.681788,7.4102649 L131.796854,7.47930464 L131.796854,4.87880795 L131.727815,4.8557947 C131.313576,4.71771523 130.761258,4.62566225 130.047848,4.62566225 C129.150331,4.62566225 128.367881,4.83278146 127.65447,5.17798013 C126.94106,5.5692053 126.411755,6.09850993 126.02053,6.81192053 C125.629305,7.50231788 125.422185,8.28476821 125.422185,9.18228477 L125.422185,10.9543046 L123.32798,10.9543046 L123.32798,13.3937086 L125.422185,13.3937086 L125.422185,23.7036424 L128.436921,23.7036424 L128.436921,13.4167219 L132.947517,13.4167219 L132.947517,19.9754967 C132.947517,22.6680464 134.213245,24.0258278 136.744702,24.0258278 C137.15894,24.0258278 137.596192,23.9567881 138.01043,23.8877483 C138.447682,23.7956954 138.769868,23.6806291 138.953974,23.5885762 L138.976987,23.5655629 L138.976987,21.1031457 L138.861921,21.1951987 C138.677815,21.3102649 138.516722,21.4023179 138.240563,21.4713576 C138.01043,21.5403974 137.803311,21.5634106 137.642219,21.5634106 C137.043874,21.5634106 136.629636,21.4253311 136.330464,21.0801325 C136.054305,20.757947 135.916225,20.2286424 135.916225,19.4461921 L135.916225,13.4167219 L138.976987,13.4167219 L138.976987,13.4167219 Z" id="Shape"></path>
            <polygon id="Path" points="0 0 14.1071192 0 14.1071192 14.1071192 0 14.1071192"></polygon>
            <polygon id="Path" points="15.5799669 0 29.6870861 0 29.6870861 14.1071192 15.5799669 14.1071192"></polygon>
            <polygon id="Path" points="0 15.5799669 14.1071192 15.5799669 14.1071192 29.6870861 0 29.6870861"></polygon>
            <polygon id="Path" points="15.5799669 15.5799669 29.6870861 15.5799669 29.6870861 29.6870861 15.5799669 29.6870861"></polygon>
        </g>
    </g>
</svg>