<?xml version="1.0" encoding="UTF-8"?>
<svg width="16px" height="16px" viewBox="0 0 16 16" version="1.1" xmlns="http://www.w3.org/2000/svg" xmlns:xlink="http://www.w3.org/1999/xlink">
    <title>2_Calendar_Stroke</title>
    <g id="2_Calendar_Stroke" stroke="none" stroke-width="1" fill="none" fill-rule="evenodd">
        <path d="M3,3.076 L3,3.5 C3,4.32842712 3.67157288,5 4.5,5 C5.27969612,5 5.92044868,4.40511192 5.99313342,3.64446001 L6,3.5 L6,3.076 L10,3.076 L10,3.5 C10,4.27969612 10.5948881,4.92044868 11.35554,4.99313342 L11.5,5 C12.2796961,5 12.9204487,4.40511192 12.9931334,3.64446001 L13,3.5 L13,3.076 L13.8085106,3.076923 C14.466552,3.076923 15,3.62795715 15,4.30769223 L15,5.99999992 L15.0044066,5.99999992 L15.0044066,14.5103593 C15.0044066,15.2900554 14.4095185,15.930808 13.6488666,16.0034927 L13.5044066,16.0103593 L2.50218714,16.0103593 C1.72249102,16.0103593 1.08173846,15.4154712 1.00905371,14.6548193 L1.00218714,14.5103593 L1.00218714,5.99999992 L1,5.99999992 L1,4.30769223 C1,3.62795715 1.53344796,3.076923 2.19148936,3.076923 L3,3.076 Z M14.0044066,5.99999992 L2.00218714,5.99999992 L2.00218714,14.5103593 C2.00218714,14.7558192 2.1790623,14.9599677 2.4123115,15.0023036 L2.50218714,15.0103593 L13.5044066,15.0103593 C13.7498665,15.0103593 13.954015,14.8334841 13.9963509,14.6002349 L14.0044066,14.5103593 L14.0044066,5.99999992 Z M10.4325752,9.08224879 C10.4355832,9.08518111 10.4385536,9.0881517 10.4414858,9.09115982 C10.6382236,9.29299329 10.6382236,9.6148598 10.4414858,9.81669327 L8.1324512,12.1855334 C7.93970119,12.3832758 7.62314457,12.3873229 7.4254022,12.1945729 C7.42235065,12.1915984 7.41933725,12.188585 7.41636274,12.1855334 L6.44086755,11.1847723 C6.24412972,10.9829388 6.24412972,10.6610723 6.44086755,10.4592388 C6.63125139,10.2639239 6.943922,10.2599265 7.13923691,10.4503103 L7.14812555,10.4591979 L7.14812555,10.4591979 L7.77440697,11.1015519 L9.73425197,9.0911425 C9.92463268,8.89584993 10.2372827,8.89186808 10.4325752,9.08224879 Z M11.5012513,0.9999992 C11.768736,0.9999992 11.9855752,1.2168384 11.9855752,1.4843231 L11.9855752,3.13106 C11.9855752,3.3985447 11.768736,3.6153838 11.5012513,3.6153838 C11.2337666,3.6153838 11.0169275,3.3985447 11.0169275,3.13106 L11.0169275,1.4843231 C11.0169275,1.2168384 11.2337666,0.9999992 11.5012513,0.9999992 Z M4.50279531,0.99999956 C4.77440232,0.99999956 4.9945833,1.22018054 4.9945833,1.49178755 L4.9945833,3.12359618 C4.9945833,3.39520319 4.77440232,3.61538417 4.50279531,3.61538417 C4.2311883,3.61538417 4.01100731,3.39520319 4.01100731,3.12359618 L4.01100731,1.49178755 C4.01100731,1.22018054 4.2311883,0.99999956 4.50279531,0.99999956 Z" id="Combined-Shape" fill="#000000" fill-rule="nonzero"></path>
    </g>
</svg>