<svg xmlns="http://www.w3.org/2000/svg" viewBox="0 0 48 48"><defs><style>.cls-1,.cls-2{fill:none;stroke-miterlimit:10;}.cls-1{stroke:#00afaa;stroke-linecap:square;}.cls-2{stroke:#000;}</style></defs><g id="Icon"><path class="cls-1" d="M34.5,30A4.5,4.5,0,1,1,30,34.5,4.49,4.49,0,0,1,34.5,30Z"/><path class="cls-2" d="M11.5,12.52A6.23,6.23,0,0,0,18,19a6.22,6.22,0,0,0,6.48-6.48v-3A6.22,6.22,0,0,0,18,3,6.23,6.23,0,0,0,11.5,9.48ZM4,45V30c0-3.81,2.43-7,6-7H25a4.32,4.32,0,0,1,3,1m9,3.5A7.48,7.48,0,0,1,39.5,29L43,27.5,45,31l-3,2h0a7.58,7.58,0,0,1,0,3h0l3,2-2,3.5L39.5,40A7.48,7.48,0,0,1,37,41.5L36.5,45h-4L32,41.5A7.48,7.48,0,0,1,29.5,40L26,41.5,24,38l3-2a7.57,7.57,0,0,1,0-3h0l-3-2,2-3.5L29.5,29A7.48,7.48,0,0,1,32,27.5l.5-3.5h4Z"/></g></svg>