<svg xmlns="http://www.w3.org/2000/svg" xmlns:xlink="http://www.w3.org/1999/xlink"><symbol viewBox="0 0 24 24" id="360" xmlns="http://www.w3.org/2000/svg"><path d="M6.483 9.258c.38 0 .71.07.98.2s.48.31.62.53c.14.22.21.46.21.73 0 .35-.1.63-.3.86-.2.23-.47.39-.82.48.38.03.69.17.93.41.24.24.37.57.37.99 0 .33-.08.63-.25.89-.17.27-.41.48-.72.63-.31.16-.68.23-1.1.23-.78 0-1.4-.27-1.85-.82l.6-.58c.19.19.38.33.57.42.19.09.39.13.62.13.31 0 .55-.09.74-.26.18-.17.28-.41.28-.7 0-.33-.09-.56-.26-.71-.17-.14-.43-.21-.77-.21h-.45l.13-.77h.31c.28 0 .5-.08.67-.23.17-.15.25-.37.25-.64 0-.23-.08-.42-.23-.55-.15-.13-.36-.2-.61-.2-.22 0-.42.04-.6.12-.18.08-.36.21-.54.38l-.55-.6c.52-.49 1.11-.73 1.79-.73zm4.77 2.02c.3 0 .57.07.82.22.25.14.44.36.58.64.14.28.21.62.21 1.01 0 .4-.08.75-.25 1.07-.16.31-.4.56-.69.74-.3.18-.64.27-1.02.27-.7 0-1.22-.25-1.56-.74-.34-.49-.51-1.17-.51-2.03 0-.63.1-1.19.28-1.67.19-.48.46-.85.82-1.11.35-.26.77-.4 1.25-.4.47 0 .89.12 1.25.37l-.41.67c-.26-.15-.54-.23-.82-.23-.36 0-.65.16-.87.49-.22.33-.34.77-.37 1.35.35-.42.77-.63 1.28-.63zm-.34 3.13c.28 0 .5-.11.64-.34.14-.22.22-.53.22-.91 0-.39-.07-.67-.2-.84-.13-.17-.33-.25-.58-.25-.19 0-.38.05-.55.16-.17.1-.33.25-.46.43.01.62.09 1.06.23 1.34.14.27.38.41.7.41zm4.28-5.15c.67 0 1.18.25 1.53.76.35.51.52 1.24.52 2.2 0 .96-.17 1.7-.52 2.21s-.86.77-1.53.77-1.18-.26-1.53-.77c-.35-.51-.52-1.25-.52-2.21s.17-1.69.52-2.2c.35-.51.86-.76 1.53-.76zm0 .83c-.32 0-.56.16-.71.49-.15.33-.22.88-.22 1.65 0 .78.07 1.34.22 1.67.15.33.38.49.71.49.32 0 .56-.16.71-.49.15-.33.22-.88.22-1.67 0-.78-.07-1.33-.22-1.66-.15-.32-.38-.48-.71-.48zm3.92 1.81c-.24 0-.48-.06-.7-.17-.22-.11-.41-.28-.54-.49-.14-.22-.21-.46-.21-.75 0-.28.07-.53.21-.74.14-.21.32-.38.54-.49a1.58 1.58 0 011.43 0c.22.11.4.28.54.49.14.21.2.46.2.75 0 .28-.07.53-.21.74-.14.21-.32.38-.54.49-.22.11-.46.17-.71.17zm0-.66c.19 0 .35-.07.48-.2a.77.77 0 00.19-.54c0-.23-.06-.42-.19-.55a.625.625 0 00-.48-.2c-.19 0-.35.07-.47.2s-.18.31-.18.54c0 .23.06.42.18.55.12.13.28.2.47.2zm-17.1-7.49v16.67c0 .92.74 1.67 1.67 1.67h16.67c.92 0 1.67-.75 1.67-1.67V3.748c0-.92-.74-1.67-1.67-1.67H3.683c-.92 0-1.67.75-1.67 1.67z"/></symbol><symbol viewBox="0 0 11 8" id="arrow-aqua" xmlns="http://www.w3.org/2000/svg"><path d="M10.732 4.606L7.37 7.75a.962.962 0 01-1.296 0 .818.818 0 010-1.212L7.87 4.857H.917C.41 4.857 0 4.473 0 4s.41-.857.917-.857H7.87l-1.796-1.68a.818.818 0 010-1.212.962.962 0 011.296 0l3.362 3.143a.818.818 0 010 1.212z" fill="#3F454D" fill-rule="nonzero"/></symbol><symbol viewBox="0 0 12 8" id="arrow-dark" xmlns="http://www.w3.org/2000/svg"><path d="M11.232 4.606L7.87 7.75a.962.962 0 01-1.296 0 .818.818 0 010-1.212L8.37 4.857H1.417C.91 4.857.5 4.473.5 4s.41-.857.917-.857H8.37l-1.796-1.68a.818.818 0 010-1.212.962.962 0 011.296 0l3.362 3.143a.818.818 0 010 1.212z" fill="#74FFE3" fill-rule="evenodd"/></symbol><symbol viewBox="0 0 12 8" id="arrow-light" xmlns="http://www.w3.org/2000/svg"><path d="M11.232 4.606L7.87 7.75a.962.962 0 01-1.296 0 .818.818 0 010-1.212L8.37 4.857H1.417C.91 4.857.5 4.473.5 4s.41-.857.917-.857H8.37l-1.796-1.68a.818.818 0 010-1.212.962.962 0 011.296 0l3.362 3.143a.818.818 0 010 1.212z" fill="#01A39C" fill-rule="evenodd"/></symbol><symbol viewBox="0 0 11 8" id="arrow-primary" xmlns="http://www.w3.org/2000/svg"><path d="M10.732 4.606L7.37 7.75a.962.962 0 01-1.296 0 .818.818 0 010-1.212L7.87 4.857H.917C.41 4.857 0 4.473 0 4s.41-.857.917-.857H7.87l-1.796-1.68a.818.818 0 010-1.212.962.962 0 011.296 0l3.362 3.143a.818.818 0 010 1.212z" fill="#3F454D" fill-rule="nonzero"/></symbol><symbol viewBox="0 0 11 8" id="arrow-white" xmlns="http://www.w3.org/2000/svg"><path d="M10.732 4.606L7.37 7.75a.962.962 0 01-1.296 0 .818.818 0 010-1.212L7.87 4.857H.917C.41 4.857 0 4.473 0 4s.41-.857.917-.857H7.87l-1.796-1.68a.818.818 0 010-1.212.962.962 0 011.296 0l3.362 3.143a.818.818 0 010 1.212z" fill="#FFF" fill-rule="nonzero"/></symbol><symbol viewBox="0 0 20 20" id="blog" xmlns="http://www.w3.org/2000/svg"><g fill="none" fill-rule="evenodd"><path d="M0 0h20v20H0z"/><path d="M15.172 12.402c.005 1.112.003.713 0 2.428v1.292c0 .476-.278 1.072-1.062 1.072H3.37c-.587 0-1.062-.48-1.062-1.072V4.412A1.068 1.068 0 013.37 3.34h10.64c.579 0 1.051.468 1.062 1.052l.05 2.45" stroke="#3F454D" stroke-width="1.488" stroke-linecap="round"/><path d="M14.086 3H3.394A1.4 1.4 0 002 4.406V16.1c0 .775.625 1.406 1.394 1.406h10.693A1.4 1.4 0 0015.48 16.1v-3.702a.39.39 0 00-.389-.392.39.39 0 00-.388.392V16.1a.62.62 0 01-.617.621h-2.749a.39.39 0 00-.389.393.39.39 0 00.389.392h.133l.57-.785H3.394a.62.62 0 01-.616-.62V4.405a.62.62 0 01.616-.622h10.692a.62.62 0 01.616.622V7.15l-4.911 4.953a.394.394 0 00-.114.278c0 .004.002.007.003.011l-.51 1.829a.396.396 0 00.098.382.386.386 0 00.378.103l1.829-.5c.006.003.012.007.019.007a.387.387 0 00.275-.115l6.375-6.43h.001l.32-.323c.191-.193.297-.45.297-.724 0-.274-.106-.53-.297-.724l-.54-.546a1.035 1.035 0 00-1.438 0l-.319.322-.688.694V4.406A1.4 1.4 0 0014.086 3zm2.357 3.505l.878.885-5.827 5.876-.879-.885 5.828-5.876zm.931-.6l.54.546c.046.045.07.106.07.17a.238.238 0 01-.069.17l-.044.045-.878-.886.044-.045c.09-.09.247-.09.337 0z" stroke="#3F454D" stroke-width=".4" fill="#3F454D" fill-rule="nonzero"/><path d="M4.09 6.448h8.338a.39.39 0 00.389-.393.39.39 0 00-.389-.392H4.09a.39.39 0 00-.388.392.39.39 0 00.388.393zm0 2.738h6.176a.39.39 0 00.389-.392.39.39 0 00-.39-.393H4.09a.39.39 0 00-.388.393.39.39 0 00.388.392zm3.706 2.345a.39.39 0 00-.39-.392H4.09a.39.39 0 00-.389.392.39.39 0 00.389.392h3.318a.39.39 0 00.389-.392zm-3.707 2.968h3.115a.39.39 0 00.389-.392.39.39 0 00-.39-.393H4.09a.39.39 0 00-.389.393.39.39 0 00.389.392z" stroke="#2DD5C9" stroke-width=".5" fill="#2DD5C9"/></g></symbol><symbol viewBox="0 0 94 91" id="calendar-light" xmlns="http://www.w3.org/2000/svg"><g fill="none" fill-rule="evenodd"><path d="M91 22.304V83c0 1.38-.56 2.63-1.464 3.536A4.984 4.984 0 0186 88h0H8c-1.38 0-2.63-.56-3.536-1.464A4.984 4.984 0 013 83h0V23.95l88-1.646z" stroke="#FFF" stroke-width="6"/><rect fill="#FFF" x="20" y="38" width="6" height="6" rx="1"/><rect fill="#FFF" x="44" y="38" width="6" height="6" rx="1"/><rect fill="#FFF" x="68" y="38" width="6" height="6" rx="1"/><rect fill="#FFF" x="20" y="54" width="6" height="6" rx="1"/><rect fill="#FFF" x="44" y="54" width="6" height="6" rx="1"/><rect fill="#FFF" x="68" y="54" width="6" height="6" rx="1"/><rect fill="#FFF" x="20" y="70" width="6" height="6" rx="1"/><rect fill="#FFF" x="44" y="70" width="6" height="6" rx="1"/><rect fill="#FFF" x="68" y="70" width="6" height="6" rx="1"/><path d="M15 9v4c0 2.155.852 4.11 2.238 5.55a7.977 7.977 0 005.5 2.446h0L24 21c2.155 0 4.11-.852 5.55-2.238a7.977 7.977 0 002.446-5.502h0L31.999 9H62v4c0 2.155.852 4.11 2.238 5.55a7.977 7.977 0 005.5 2.446h0L71 21c2.155 0 4.11-.852 5.55-2.238a7.977 7.977 0 002.446-5.502h0L78.999 9H86c1.657 0 3.157.672 4.243 1.757A5.981 5.981 0 0192 15h0v11.714H2V15c0-1.657.672-3.157 1.757-4.243A5.981 5.981 0 018 9h7z" stroke="#FFF" stroke-width="4" fill="#FFF"/><rect fill="#FFF" transform="rotate(-90 23.5 8.5)" x="15" y="5" width="17" height="7" rx="3.5"/><rect fill="#FFF" transform="rotate(-90 70.5 8.5)" x="62" y="5" width="17" height="7" rx="3.5"/></g></symbol><symbol viewBox="0 0 16 16" id="call-icon-dark" xmlns="http://www.w3.org/2000/svg"><g fill="none" fill-rule="evenodd"><path d="M0 0h15.2v15.2H0z"/><path d="M13.967 12.842c.412-.476.447-.934.43-1.227a1.61 1.61 0 00-.537-1.027l-1.663-1.612c-.394-.403-.787-.477-1.055-.477-.501 0-.84.312-.948.422l-.68.66a.215.215 0 01-.232.036A8.452 8.452 0 017.19 8.06l-.09-.055a9.178 9.178 0 01-1.61-2.07c-.035-.074-.035-.184.018-.239l.626-.733c.09-.11.376-.476.358-.99 0-.274-.107-.677-.5-1.044l-1.664-1.63c-.125-.129-.483-.477-1.02-.495-.285-.019-.732.055-1.162.476-.071.073-.75.733-1.019 1.54-.197.476-1.484 4.214 2.897 8.484l.09.092c2.467 2.437 4.685 3.005 6.24 3.005 1.181 0 1.968-.33 2.165-.421.787-.349 1.395-1.063 1.448-1.137zm-2.038-.238c-.126.055-3.023 1.43-6.814-2.309l-.09-.092C1.2 6.502 2.416 3.478 2.469 3.35l.036-.074c.125-.384.5-.806.644-.934a.523.523 0 01.107-.092c.018 0 .036.019.036.037L5.044 3.99l.017.018-.608.697a1.688 1.688 0 00-.178 1.942c.5.88 1.108 1.668 1.86 2.401l.07.073a9.876 9.876 0 002.433 1.796c.626.33 1.377.22 1.878-.275l.661-.66c.018 0 .018.019.036.037l1.681 1.65.054.054.018.037s-.018.037-.09.147c-.125.146-.518.55-.876.696h-.071z" fill="#2dd5c9" fill-rule="nonzero"/></g></symbol><symbol viewBox="0 0 16 16" id="call-icon-light" xmlns="http://www.w3.org/2000/svg"><g fill="none" fill-rule="evenodd"><path d="M0 0h15.2v15.2H0z"/><path d="M13.967 12.842c.412-.476.447-.934.43-1.227a1.61 1.61 0 00-.537-1.027l-1.663-1.612c-.394-.403-.787-.477-1.055-.477-.501 0-.84.312-.948.422l-.68.66a.215.215 0 01-.232.036A8.452 8.452 0 017.19 8.06l-.09-.055a9.178 9.178 0 01-1.61-2.07c-.035-.074-.035-.184.018-.239l.626-.733c.09-.11.376-.476.358-.99 0-.274-.107-.677-.5-1.044l-1.664-1.63c-.125-.129-.483-.477-1.02-.495-.285-.019-.732.055-1.162.476-.071.073-.75.733-1.019 1.54-.197.476-1.484 4.214 2.897 8.484l.09.092c2.467 2.437 4.685 3.005 6.24 3.005 1.181 0 1.968-.33 2.165-.421.787-.349 1.395-1.063 1.448-1.137zm-2.038-.238c-.126.055-3.023 1.43-6.814-2.309l-.09-.092C1.2 6.502 2.416 3.478 2.469 3.35l.036-.074c.125-.384.5-.806.644-.934a.523.523 0 01.107-.092c.018 0 .036.019.036.037L5.044 3.99l.017.018-.608.697a1.688 1.688 0 00-.178 1.942c.5.88 1.108 1.668 1.86 2.401l.07.073a9.876 9.876 0 002.433 1.796c.626.33 1.377.22 1.878-.275l.661-.66c.018 0 .018.019.036.037l1.681 1.65.054.054.018.037s-.018.037-.09.147c-.125.146-.518.55-.876.696h-.071z" fill="#00908A" fill-rule="nonzero"/></g></symbol><symbol viewBox="0 0 36 36" id="carousel-arrow-left-d" xmlns="http://www.w3.org/2000/svg"><defs><filter x="-48.4%" y="-48.4%" width="196.9%" height="196.9%" filterUnits="objectBoundingBox" id="aka"><feOffset dy="2" in="SourceAlpha" result="shadowOffsetOuter1"/><feGaussianBlur stdDeviation="2.5" in="shadowOffsetOuter1" result="shadowBlurOuter1"/><feColorMatrix values="0 0 0 0 0 0 0 0 0 0 0 0 0 0 0 0 0 0 0.108719406 0" in="shadowBlurOuter1" result="shadowMatrixOuter1"/><feMerge><feMergeNode in="shadowMatrixOuter1"/><feMergeNode in="SourceGraphic"/></feMerge></filter></defs><g filter="url(#aka)" transform="matrix(1 0 0 -1 2 34)" stroke="#444952" stroke-width="1.455" fill="none" fill-rule="evenodd"><circle cx="16" cy="16" r="16.727"/><path stroke-linecap="round" d="M18.181 10.182l-5.818 5.454 5.818 5.455"/></g></symbol><symbol viewBox="0 0 30 30" id="carousel-arrow-left-m" xmlns="http://www.w3.org/2000/svg"><defs><filter x="-53.8%" y="-53.8%" width="207.7%" height="207.7%" filterUnits="objectBoundingBox" id="ala"><feOffset dy="2" in="SourceAlpha" result="shadowOffsetOuter1"/><feGaussianBlur stdDeviation="2" in="shadowOffsetOuter1" result="shadowBlurOuter1"/><feColorMatrix values="0 0 0 0 0 0 0 0 0 0 0 0 0 0 0 0 0 0 0.108719406 0" in="shadowBlurOuter1" result="shadowMatrixOuter1"/><feMerge><feMergeNode in="shadowMatrixOuter1"/><feMergeNode in="SourceGraphic"/></feMerge></filter></defs><g filter="url(#ala)" transform="matrix(1 0 0 -1 2 28)" stroke="#444952" stroke-width="1.182" fill="none" fill-rule="evenodd"><circle cx="13" cy="13" r="13.591"/><path stroke-linecap="round" d="M14.773 8.273l-4.728 4.432 4.728 4.431"/></g></symbol><symbol viewBox="0 0 36 36" id="carousel-arrow-right-d" xmlns="http://www.w3.org/2000/svg"><defs><filter x="-48.4%" y="-48.4%" width="196.9%" height="196.9%" filterUnits="objectBoundingBox" id="ama"><feOffset dy="2" in="SourceAlpha" result="shadowOffsetOuter1"/><feGaussianBlur stdDeviation="2.5" in="shadowOffsetOuter1" result="shadowBlurOuter1"/><feColorMatrix values="0 0 0 0 0 0 0 0 0 0 0 0 0 0 0 0 0 0 0.108719406 0" in="shadowBlurOuter1" result="shadowMatrixOuter1"/><feMerge><feMergeNode in="shadowMatrixOuter1"/><feMergeNode in="SourceGraphic"/></feMerge></filter></defs><g filter="url(#ama)" transform="matrix(-1 0 0 1 34 2)" stroke="#444952" stroke-width="1.455" fill="none" fill-rule="evenodd"><circle cx="16" cy="16" r="16.727"/><path stroke-linecap="round" d="M18.181 10.182l-5.818 5.454 5.818 5.455"/></g></symbol><symbol viewBox="0 0 30 30" id="carousel-arrow-right-m" xmlns="http://www.w3.org/2000/svg"><defs><filter x="-53.8%" y="-53.8%" width="207.7%" height="207.7%" filterUnits="objectBoundingBox" id="ana"><feOffset dy="2" in="SourceAlpha" result="shadowOffsetOuter1"/><feGaussianBlur stdDeviation="2" in="shadowOffsetOuter1" result="shadowBlurOuter1"/><feColorMatrix values="0 0 0 0 0 0 0 0 0 0 0 0 0 0 0 0 0 0 0.108719406 0" in="shadowBlurOuter1" result="shadowMatrixOuter1"/><feMerge><feMergeNode in="shadowMatrixOuter1"/><feMergeNode in="SourceGraphic"/></feMerge></filter></defs><g filter="url(#ana)" transform="matrix(-1 0 0 1 28 2)" stroke="#444952" stroke-width="1.182" fill="none" fill-rule="evenodd"><circle cx="13" cy="13" r="13.591"/><path stroke-linecap="round" d="M14.773 8.273l-4.728 4.432 4.728 4.431"/></g></symbol><symbol viewBox="0 0 18 18" id="check-dark" xmlns="http://www.w3.org/2000/svg"><g transform="translate(1 1)" stroke-width="2" fill="none" fill-rule="evenodd"><path stroke="#00908A" stroke-linecap="round" d="M4.308 8.615l2.461 2.462 5.539-5.539"/><circle stroke="#FFF" cx="8" cy="8" r="8"/></g></symbol><symbol viewBox="0 0 18 18" id="check-gradient-developer" xmlns="http://www.w3.org/2000/svg"><g transform="translate(1 1)" fill="none" fill-rule="evenodd"><path stroke="#5AC4D9" stroke-width="1.8" stroke-linecap="round" d="M4.308 8.615l2.461 2.462 5.539-5.539"/><circle stroke="#FFF" stroke-width="1.5" cx="8" cy="8" r="8"/></g></symbol><symbol viewBox="0 0 18 18" id="check-light" xmlns="http://www.w3.org/2000/svg"><g transform="translate(1 1)" stroke-width="2" fill="none" fill-rule="evenodd"><path stroke="#00908A" stroke-linecap="round" d="M4.308 8.615l2.461 2.462 5.539-5.539"/><circle stroke="#3F454D" cx="8" cy="8" r="8"/></g></symbol><symbol viewBox="0 0 6 4" id="chevron-down" xmlns="http://www.w3.org/2000/svg"><defs><path d="M.417 3.455l2.445 2.357c.26.25.682.25.943 0a.627.627 0 000-.91L1.817 3l1.988-1.903a.627.627 0 000-.909.684.684 0 00-.943 0L.417 2.545a.627.627 0 000 .91z" id="ara"/></defs><use transform="matrix(0 -1 -1 0 6 4.12)" xlink:href="#ara" width="100%" height="100%" fill="#007e79" fill-rule="evenodd"/></symbol><symbol viewBox="0 0 7 10" id="chevron-left" xmlns="http://www.w3.org/2000/svg"><path d="M6.39 1.436a.349.349 0 000 .508L3.283 5l3.109 3.055a.349.349 0 000 .508l-.908.816a.44.44 0 00-.606 0L.556 5.127a.174.174 0 000-.254L4.878.62a.442.442 0 00.606 0l.908.816z" fill="#B7B9BC" fill-rule="evenodd"/></symbol><symbol viewBox="0 0 10 17" id="chevron-thin-left-dark" xmlns="http://www.w3.org/2000/svg"><path d="M9 1L1 8.5 9 16" stroke="#393E47" stroke-width="2" fill="none" fill-rule="evenodd" stroke-linecap="round" stroke-linejoin="round"/></symbol><symbol viewBox="0 0 10 17" id="chevron-thin-left-light" xmlns="http://www.w3.org/2000/svg"><path d="M9 1L1 8.5 9 16" stroke="#FFF" stroke-width="2" fill="none" fill-rule="evenodd" stroke-linecap="round" stroke-linejoin="round"/></symbol><symbol viewBox="0 0 10 17" id="chevron-thin-right-dark" xmlns="http://www.w3.org/2000/svg"><path d="M1 1l8 7.5L1 16" stroke="#393E47" stroke-width="2" fill="none" fill-rule="evenodd" stroke-linecap="round" stroke-linejoin="round"/></symbol><symbol viewBox="0 0 10 17" id="chevron-thin-right-light" xmlns="http://www.w3.org/2000/svg"><path d="M1 1l8 7.5L1 16" stroke="#FFF" stroke-width="2" fill="none" fill-rule="evenodd" stroke-linecap="round" stroke-linejoin="round"/></symbol><symbol viewBox="0 0 25.809 25.809" id="close" xmlns="http://www.w3.org/2000/svg"><g fill="#fff" fill-rule="evenodd"><path d="M0 1.414L1.413 0l24.395 24.395-1.415 1.414z"/><path d="M24.394 0l1.415 1.414L1.414 25.81l-1.415-1.414z"/></g></symbol><symbol viewBox="0 0 9 10" id="close-colorless" xmlns="http://www.w3.org/2000/svg"><path d="M8.73 1.96L1.66 9.03l-.99-.99L7.74.97z"/><path d="M.67 1.96l7.07 7.07.99-.99L1.66.97z"/></symbol><symbol viewBox="0 0 25.809 25.809" id="close-dark" xmlns="http://www.w3.org/2000/svg"><g fill="#3f454d" fill-rule="evenodd"><path d="M0 1.414L1.413 0l24.395 24.395-1.415 1.414z"/><path d="M24.394 0l1.415 1.414L1.414 25.81l-1.415-1.414z"/></g></symbol><symbol viewBox="0 0 25.809 25.809" id="close-light" xmlns="http://www.w3.org/2000/svg"><g fill="#fff" fill-rule="evenodd"><path d="M0 1.414L1.413 0l24.395 24.395-1.415 1.414z"/><path d="M24.394 0l1.415 1.414L1.414 25.81l-1.415-1.414z"/></g></symbol><symbol viewBox="0 0 20 17" id="comments" xmlns="http://www.w3.org/2000/svg"><g fill-rule="nonzero" fill="none"><path d="M15.659.32H4.29C2.42.32.855 1.85.855 3.788v12.24c0 .255.151.459.404.561a.452.452 0 00.253.051.614.614 0 00.454-.204l2.628-2.499h11.115c1.87 0 3.436-1.53 3.436-3.468V3.737C19.095 1.85 17.58.32 15.66.32zm2.173 10.149c0 1.224-.96 2.193-2.173 2.193H4.29a.81.81 0 00-.455.153l-1.718 1.683V3.737c0-1.224.96-2.193 2.173-2.193h11.368c1.213 0 2.173.969 2.173 2.193v6.732z" fill="#3F454D"/><path d="M14.295 4.961H6.008a.563.563 0 00-.555.561c0 .306.252.561.555.561h8.287a.563.563 0 00.556-.561c0-.306-.203-.561-.556-.561zm-3.689 3.315H6.06a.563.563 0 00-.556.561c0 .306.253.561.556.561h4.547a.555.555 0 00.506-.306c.1-.204.1-.408 0-.561a.62.62 0 00-.506-.255z" fill="#2DD5C9"/></g></symbol><symbol viewBox="0 0 12 12" id="cta-icon-download" xmlns="http://www.w3.org/2000/svg"><g fill-rule="nonzero"><path d="M11.4 8.4c-.36 0-.6.24-.6.6v1.8H1.2V9c0-.36-.24-.6-.6-.6S0 8.64 0 9v2.4c0 .36.24.6.6.6h10.8c.36 0 .6-.24.6-.6V9c0-.36-.24-.6-.6-.6zM5.545 7.805L3.188 5.36a.687.687 0 010-.943.627.627 0 00.91 0l1.26 1.307V.667A.655.655 0 006 0a.655.655 0 00.643.667v5.057l1.26-1.307a.627.627 0 00.909 0 .684.684 0 000 .943L6.455 7.805a.627.627 0 00-.91 0z"/></g></symbol><symbol viewBox="0 0 12 12" id="cta-icon-external-link" xmlns="http://www.w3.org/2000/svg"><g fill-rule="nonzero"><path d="M.133 9.517a2.34 2.34 0 002.333 2.333h6A2.34 2.34 0 0010.8 9.517V5.85c0-.367-.3-.667-.667-.667-.367 0-.667.3-.667.667v3.667c0 .55-.45 1-1 1h-6c-.55 0-1-.45-1-1v-6c0-.55.45-1 1-1h3.667c.367 0 .667-.3.667-.667 0-.367-.3-.667-.667-.667H2.466A2.34 2.34 0 00.133 3.517v6z"/><path d="M11.866.817c0-.05 0-.084-.016-.134 0-.016 0-.016-.017-.033A.127.127 0 0011.8.567c0-.017-.017-.034-.017-.034C11.766.5 11.75.483 11.75.45a.955.955 0 00-.184-.183.126.126 0 00-.066-.034c-.017 0-.034-.016-.05-.016C11.416.2 11.4.2 11.366.183l-.033-.016c-.033 0-.083-.017-.117-.017H8.133c-.367 0-.667.3-.667.667 0 .366.3.666.667.666h1.45l-4.3 4.3a.68.68 0 00.017.95c.25.25.666.25.916 0l4.317-4.3v1.45c0 .367.3.667.667.667.366 0 .666-.3.666-.667V.817z"/></g></symbol><symbol viewBox="0 0 10 14" id="cta-icon-play" xmlns="http://www.w3.org/2000/svg"><path d="M.787.55l8.628 6.04a.5.5 0 010 .82L.787 13.45A.5.5 0 010 13.04V.96A.5.5 0 01.787.55z" fill-rule="nonzero"/></symbol><symbol viewBox="0 0 13 14" id="cta-icon-play-icon" xmlns="http://www.w3.org/2000/svg"><path d="M4.573 1.101l7.257 5.08a1 1 0 010 1.638L4.573 12.9A1 1 0 013 12.079V1.921a1 1 0 011.573-.82z"/></symbol><symbol viewBox="0 0 9 10" id="cta-icon-play-square" xmlns="http://www.w3.org/2000/svg"><path d="M1 10a.499.499 0 01-.5-.5v-9a.501.501 0 01.77-.42l7 4.5a.498.498 0 01.001.841l-7 4.5A.502.502 0 011 10zm.5-8.584v7.168L7.075 5 1.5 1.416z" fill="#74FFE3" fill-rule="evenodd"/></symbol><symbol viewBox="0 0 10 6" id="cta-icon-show-less" xmlns="http://www.w3.org/2000/svg"><path d="M8.564.11a.349.349 0 00-.508 0L5 3.217 1.945.11a.349.349 0 00-.508 0l-.816.908a.44.44 0 000 .606l4.252 4.322a.174.174 0 00.254 0L9.38 1.623a.442.442 0 000-.606L8.564.11z"/></symbol><symbol viewBox="0 0 10 6" id="cta-icon-show-more" xmlns="http://www.w3.org/2000/svg"><path d="M8.564 5.89a.349.349 0 01-.508 0L5 2.783 1.945 5.89a.349.349 0 01-.508 0l-.816-.908a.44.44 0 010-.606L4.873.055a.174.174 0 01.254 0L9.38 4.377c.16.163.16.443 0 .606l-.816.908z"/></symbol><symbol viewBox="0 0 10 8" id="cta-icon-tertiary" xmlns="http://www.w3.org/2000/svg"><path d="M9.756 4.606L6.7 7.75a.817.817 0 01-1.178 0 .875.875 0 010-1.212l1.633-1.68H.833A.845.845 0 010 4.001a.846.846 0 01.833-.857h6.322l-1.633-1.68a.875.875 0 010-1.212.817.817 0 011.178 0l3.056 3.142a.875.875 0 010 1.212z" fill-rule="nonzero"/></symbol><symbol viewBox="0 0 16 16" id="cta-icon-tertiary-reminder" xmlns="http://www.w3.org/2000/svg"><g fill-rule="nonzero"><path d="M2.997.412L1.573 1.701c-.707.64-.675 1.83-.036 2.537l.322.356a.192.192 0 00.272.014l3.703-3.352a.192.192 0 00.014-.272L5.526.629c-.64-.708-1.822-.857-2.53-.217zm9.997 0l1.424 1.289c.707.64.675 1.83.035 2.537l-.322.356a.193.193 0 01-.271.014l-3.703-3.352a.192.192 0 01-.014-.272l.322-.355c.64-.708 1.822-.857 2.529-.217z"/><path d="M8.093 2.298a6.383 6.383 0 016.376 6.376 6.35 6.35 0 01-1.77 4.402l.985 1.448a.78.78 0 01-1.291.878l-.907-1.333a6.336 6.336 0 01-3.393.981 6.337 6.337 0 01-3.437-1.01l-.926 1.362a.781.781 0 01-1.291-.878l1.011-1.487a6.351 6.351 0 01-1.733-4.363 6.383 6.383 0 016.376-6.376zm2.617 3.936a.52.52 0 00-.736 0L8.16 8.046 6.823 6.708a.52.52 0 10-.736.736L7.793 9.15a.52.52 0 00.736 0l2.18-2.18a.52.52 0 000-.736z"/></g></symbol><symbol viewBox="2 5 12 6" id="cta-icon-tertiary-video" xmlns="http://www.w3.org/2000/svg"><defs><path d="M9 5a1 1 0 011 1v4a1 1 0 01-1 1H3a1 1 0 01-1-1V6a1 1 0 011-1h6zm4.916.657a.5.5 0 01.084.277v4.132a.5.5 0 01-.777.416l-2-1.334A.5.5 0 0111 8.732V7.268a.5.5 0 01.223-.416l2-1.334a.5.5 0 01.693.139z" id="bla"/></defs><g fill-rule="evenodd"><use xlink:href="#bla"/><use xlink:href="#bla"/></g></symbol><symbol viewBox="0 0 15 10" id="cta-icon-text_email" xmlns="http://www.w3.org/2000/svg"><path d="M.572 0h13.077c.26 0 .484.225.484.48v9.04c0 .254-.224.48-.485.48H.618a.495.495 0 01-.485-.48V.479a.493.493 0 01.439-.48zM1.82.96l5.313 3.907L12.446.962H1.82zm-.717.669v7.41h12.06V1.628l-5.74 4.22a.497.497 0 01-.58.001l-5.74-4.22z" fill-rule="nonzero"/></symbol><symbol viewBox="0 0 12 12" id="cta-icon-text_phone" xmlns="http://www.w3.org/2000/svg"><path d="M11.618 10.624c.363-.42.394-.824.38-1.082a1.42 1.42 0 00-.475-.906l-1.467-1.423c-.348-.355-.694-.42-.93-.42-.443 0-.742.275-.837.372l-.6.582a.19.19 0 01-.205.032 7.457 7.457 0 01-1.846-1.374l-.08-.049a8.098 8.098 0 01-1.42-1.826c-.03-.065-.03-.163.016-.211l.552-.647c.08-.097.332-.42.316-.873 0-.242-.094-.598-.44-.922L3.113.439c-.11-.114-.426-.42-.9-.437-.251-.016-.646.049-1.025.42-.063.065-.662.647-.9 1.36-.173.42-1.309 3.718 2.557 7.485l.08.081C5.1 11.498 7.057 12 8.43 12c1.042 0 1.736-.291 1.91-.371.694-.308 1.23-.938 1.278-1.004zm-1.798-.21c-.112.049-2.668 1.262-6.013-2.037l-.079-.081C.353 5.03 1.426 2.362 1.473 2.249l.031-.065c.11-.34.442-.712.569-.825a.461.461 0 01.094-.08c.016 0 .032.016.032.032l1.546 1.503.015.015-.537.616a1.49 1.49 0 00-.157 1.713 9.427 9.427 0 001.641 2.119l.062.064a8.714 8.714 0 002.147 1.585 1.408 1.408 0 001.657-.243l.583-.582c.016 0 .016.017.032.032l1.483 1.456.048.048.015.033s-.015.032-.079.13c-.11.128-.457.485-.773.613H9.82v.001z" fill-rule="nonzero"/></symbol><symbol viewBox="0 0 12 16" id="document-dark" xmlns="http://www.w3.org/2000/svg"><g fill="#74FFE3" fill-rule="evenodd"><path d="M8.207.5A1.87 1.87 0 007 0H1.5C.673 0 0 .673 0 1.5v13c.014.006 1.004.01 1 0v-13a.5.5 0 01.5-.5H6a1 1 0 011 1v1.875C7 4.494 7.507 5 8.125 5H10a1 1 0 011 1v8.5a.5.5 0 01-.5.5h-9a.5.5 0 01-.5-.5c0-.013-1-.016-1 0 0 .827.673 1.5 1.5 1.5h9c.827 0 1.5-.673 1.5-1.5V5c0-.273-1.264-1.773-3.793-4.5z"/><g transform="translate(2.5 8)"><rect width="7" height="1" rx=".5"/><rect y="2" width="7" height="1" rx=".5"/><rect y="4" width="7" height="1" rx=".5"/></g></g></symbol><symbol viewBox="0 0 64 64" id="document-icon-dark" xmlns="http://www.w3.org/2000/svg"><defs><path d="M36 0c1.64 0 3.672.84 4.828 2C50.943 12.908 56 18.908 56 20v38c0 3.308-2.692 6-6 6H14c-3.308 0-6-2.692-6-6V6c0-3.308 2.692-6 6-6zm-4 4H14c-1.104 0-2 .898-2 2v52c0 1.102.896 2 2 2h36a2 2 0 002-2V24a4 4 0 00-4-4h-7.5a4.515 4.515 0 01-4.5-4.5V8a4 4 0 00-4-4zM8.016 57.993L8 58c.053.021 3.738.037 3.987.004L12 58c0-.05-3.71-.063-3.984-.007zM45.5 48a.5.5 0 01.5.5v3a.5.5 0 01-.5.5h-27a.5.5 0 01-.5-.5v-3a.5.5 0 01.5-.5h27zm0-8a.5.5 0 01.5.5v3a.5.5 0 01-.5.5h-27a.5.5 0 01-.5-.5v-3a.5.5 0 01.5-.5h27zm0-8a.5.5 0 01.5.5v3a.5.5 0 01-.5.5h-27a.5.5 0 01-.5-.5v-3a.5.5 0 01.5-.5h27z" id="bpa"/></defs><use fill="#3f454d" xlink:href="#bpa" fill-rule="evenodd"/></symbol><symbol viewBox="0 0 64 64" id="document-icon-light" xmlns="http://www.w3.org/2000/svg"><defs><path d="M36 0c1.64 0 3.672.84 4.828 2C50.943 12.908 56 18.908 56 20v38c0 3.308-2.692 6-6 6H14c-3.308 0-6-2.692-6-6V6c0-3.308 2.692-6 6-6zm-4 4H14c-1.104 0-2 .898-2 2v52c0 1.102.896 2 2 2h36a2 2 0 002-2V24a4 4 0 00-4-4h-7.5a4.515 4.515 0 01-4.5-4.5V8a4 4 0 00-4-4zM8.016 57.993L8 58c.053.021 3.738.037 3.987.004L12 58c0-.05-3.71-.063-3.984-.007zM45.5 48a.5.5 0 01.5.5v3a.5.5 0 01-.5.5h-27a.5.5 0 01-.5-.5v-3a.5.5 0 01.5-.5h27zm0-8a.5.5 0 01.5.5v3a.5.5 0 01-.5.5h-27a.5.5 0 01-.5-.5v-3a.5.5 0 01.5-.5h27zm0-8a.5.5 0 01.5.5v3a.5.5 0 01-.5.5h-27a.5.5 0 01-.5-.5v-3a.5.5 0 01.5-.5h27z" id="bqa"/></defs><use fill="#FFF" xlink:href="#bqa" fill-rule="evenodd"/></symbol><symbol viewBox="0 0 12 16" id="document-light" xmlns="http://www.w3.org/2000/svg"><g fill="#01A39C" fill-rule="evenodd"><path d="M8.207.5A1.87 1.87 0 007 0H1.5C.673 0 0 .673 0 1.5v13c.014.006 1.004.01 1 0v-13a.5.5 0 01.5-.5H6a1 1 0 011 1v1.875C7 4.494 7.507 5 8.125 5H10a1 1 0 011 1v8.5a.5.5 0 01-.5.5h-9a.5.5 0 01-.5-.5c0-.013-1-.016-1 0 0 .827.673 1.5 1.5 1.5h9c.827 0 1.5-.673 1.5-1.5V5c0-.273-1.264-1.773-3.793-4.5z"/><g transform="translate(2.5 8)"><rect width="7" height="1" rx=".5"/><rect y="2" width="7" height="1" rx=".5"/><rect y="4" width="7" height="1" rx=".5"/></g></g></symbol><symbol viewBox="0 0 8 14" id="dollar" xmlns="http://www.w3.org/2000/svg"><path d="M4.936 11.924v1.711H4.22V11.97h.015c.232 0 .458-.014.676-.046h.025zM4.936 0v1.543a3.304 3.304 0 00-.33-.025 6.962 6.962 0 00-.386 0V0h.716z" stroke="#1B222C"/><path d="M4.206 11.778c-1.74 0-3.154-1.167-3.214-1.217l.46-.55c.012.01 1.28 1.05 2.754 1.05h.019c1.254-.007 2.525-.668 2.525-1.916 0-1.496-1.094-1.86-2.152-2.212l-.065-.022c-1.38-.46-3.098-1.033-3.098-2.795 0-.603.226-1.142.654-1.557.578-.56 1.51-.879 2.495-.849 1.547.046 2.712 1.101 2.76 1.146l-.484.527.242-.263-.242.264c-.01-.01-1.022-.92-2.297-.958-.785-.02-1.54.225-1.976.647a1.4 1.4 0 00-.436 1.043c0 1.157 1.081 1.607 2.608 2.116l.065.021c1.052.35 2.642.88 2.642 2.892 0 1.716-1.628 2.623-3.237 2.633h-.023z" stroke="#000"/></symbol><symbol viewBox="0 0 4 4" id="dot" xmlns="http://www.w3.org/2000/svg"><circle cx="393" cy="82" r="2" transform="translate(-391 -80)" fill="#00908A" fill-rule="evenodd"/></symbol><symbol viewBox="0 0 4 4" id="dot-dark" xmlns="http://www.w3.org/2000/svg"><circle cx="393" cy="82" r="2" transform="translate(-391 -80)" fill="#01A39C" fill-rule="evenodd"/></symbol><symbol viewBox="0 0 4 4" id="dot-gradient-developer" xmlns="http://www.w3.org/2000/svg"><defs><linearGradient x1="100%" y1="100%" x2="0%" y2="0%" id="bva"><stop stop-color="#48DAD0" offset="0%"/><stop stop-color="#A566FF" offset="100%"/></linearGradient></defs><circle cx="2" cy="13" r="2" transform="translate(0 -11)" fill="url(#bva)" fill-rule="evenodd"/></symbol><symbol viewBox="0 0 4 4" id="dot-light" xmlns="http://www.w3.org/2000/svg"><circle cx="393" cy="82" r="2" transform="translate(-391 -80)" fill="#74FFE3" fill-rule="evenodd"/></symbol><symbol viewBox="0 0 12 12" id="download-dark" xmlns="http://www.w3.org/2000/svg"><g fill="none" fill-rule="evenodd"><path d="M11.4 8.4c-.36 0-.6.24-.6.6v1.8H1.2V9c0-.36-.24-.6-.6-.6S0 8.64 0 9v2.4c0 .36.24.6.6.6h10.8c.36 0 .6-.24.6-.6V9c0-.36-.24-.6-.6-.6z" fill="#fff" fill-rule="nonzero"/><path d="M5.545 7.805L3.188 5.36a.687.687 0 010-.943.627.627 0 00.91 0l1.26 1.307V.667A.655.655 0 006 0a.655.655 0 00.643.667v5.057l1.26-1.307a.627.627 0 00.909 0 .684.684 0 000 .943L6.455 7.805a.627.627 0 00-.91 0z" fill="#74FFE3"/></g></symbol><symbol viewBox="0 0 64 64" id="download-icon-dark" xmlns="http://www.w3.org/2000/svg"><defs><path d="M53.6 41.6c-1.44 0-2.4.96-2.4 2.4v7.2H12.8V44c0-1.44-.96-2.4-2.4-2.4S8 42.56 8 44v9.6c0 1.44.96 2.4 2.4 2.4h43.2c1.44 0 2.4-.96 2.4-2.4V44c0-1.44-.96-2.4-2.4-2.4z" id="bya"/><path d="M16.781 25.818l9.778 9.429a2.737 2.737 0 003.771 0 2.507 2.507 0 000-3.637l-5.225-5.038h20.228C46.806 26.572 48 25.42 48 24c0-1.42-1.194-2.571-2.667-2.571H25.105l5.225-5.04a2.507 2.507 0 000-3.636 2.737 2.737 0 00-3.771 0l-9.778 9.429a2.507 2.507 0 000 3.636z" id="byb"/></defs><g fill="#3f454d" fill-rule="nonzero"><use xlink:href="#bya"/><use transform="matrix(0 -1 -1 0 56 56)" xlink:href="#byb"/></g></symbol><symbol viewBox="0 0 64 64" id="download-icon-light" xmlns="http://www.w3.org/2000/svg"><defs><path d="M53.6 41.6c-1.44 0-2.4.96-2.4 2.4v7.2H12.8V44c0-1.44-.96-2.4-2.4-2.4S8 42.56 8 44v9.6c0 1.44.96 2.4 2.4 2.4h43.2c1.44 0 2.4-.96 2.4-2.4V44c0-1.44-.96-2.4-2.4-2.4z" id="bza"/><path d="M16.781 25.818l9.778 9.429a2.737 2.737 0 003.771 0 2.507 2.507 0 000-3.637l-5.225-5.038h20.228C46.806 26.572 48 25.42 48 24c0-1.42-1.194-2.571-2.667-2.571H25.105l5.225-5.04a2.507 2.507 0 000-3.636 2.737 2.737 0 00-3.771 0l-9.778 9.429a2.507 2.507 0 000 3.636z" id="bzb"/></defs><g fill="#FFF" fill-rule="nonzero"><use xlink:href="#bza"/><use transform="matrix(0 -1 -1 0 56 56)" xlink:href="#bzb"/></g></symbol><symbol viewBox="0 0 12 12" id="download-light" xmlns="http://www.w3.org/2000/svg"><g fill="none" fill-rule="evenodd"><path d="M11.4 8.4c-.36 0-.6.24-.6.6v1.8H1.2V9c0-.36-.24-.6-.6-.6S0 8.64 0 9v2.4c0 .36.24.6.6.6h10.8c.36 0 .6-.24.6-.6V9c0-.36-.24-.6-.6-.6z" fill="#3F454D" fill-rule="nonzero"/><path d="M5.545 7.805L3.188 5.36a.687.687 0 010-.943.627.627 0 00.91 0l1.26 1.307V.667A.655.655 0 006 0a.655.655 0 00.643.667v5.057l1.26-1.307a.627.627 0 00.909 0 .684.684 0 000 .943L6.455 7.805a.627.627 0 00-.91 0z" fill="#01A39C"/></g></symbol><symbol viewBox="0 0 16 16" id="email-dark" xmlns="http://www.w3.org/2000/svg"><g fill="none" fill-rule="evenodd"><path d="M.8.8H16V16H.8z"/><path d="M2.169 4.495a.569.569 0 00-.569.552v6.896c0 .299.261.552.569.552H13.83a.569.569 0 00.569-.552V5.047a.569.569 0 00-.569-.552H2.17zm1.124.827h9.414L8 8.801 3.293 5.322zm-.84.419l5.29 3.909a.437.437 0 00.515 0l5.289-3.91v5.927H2.453V5.741z" stroke="#2dd5c9" stroke-width=".5" fill="#2dd5c9" fill-rule="nonzero"/></g></symbol><symbol viewBox="0 0 16 16" id="email-light" xmlns="http://www.w3.org/2000/svg"><g fill="none" fill-rule="evenodd"><path d="M.8.8H16V16H.8z"/><path d="M2.169 4.495a.569.569 0 00-.569.552v6.896c0 .299.261.552.569.552H13.83a.569.569 0 00.569-.552V5.047a.569.569 0 00-.569-.552H2.17zm1.124.827h9.414L8 8.801 3.293 5.322zm-.84.419l5.29 3.909a.437.437 0 00.515 0l5.289-3.91v5.927H2.453V5.741z" stroke="#00908A" stroke-width=".5" fill="#00908A" fill-rule="nonzero"/></g></symbol><symbol viewBox="0 0 11 12" id="euro" xmlns="http://www.w3.org/2000/svg"><g stroke="#000" fill="none" fill-rule="evenodd"><path d="M10 1.996l-.374.559c-.885-.586-1.846-.882-2.866-.882-.993 0-1.82.316-2.53.969-.465.427-.838.982-1.1 1.649h-.718c.303-.875.764-1.595 1.363-2.144C4.603 1.387 5.605 1 6.76 1c1.154 0 2.244.336 3.24.996z" stroke-width=".8" fill="#000" fill-rule="nonzero"/><path stroke-width="1.3" d="M2.389 4.66v2.491"/><path d="M9.455 10.928c-.441.225-.882.4-1.31.521a5.482 5.482 0 01-1.456.182c-1.258 0-2.295-.394-3.085-1.17-.707-.697-1.188-1.683-1.43-2.942h.69c.221 1.06.629 1.885 1.21 2.46.67.66 1.525.98 2.615.98a4.81 4.81 0 001.275-.159 6.335 6.335 0 001.185-.471l.306.599z" stroke-width=".8" fill="#000" fill-rule="nonzero"/><path stroke-width="1.3" d="M0 4.559h7.066M0 7.251h6.056"/></g></symbol><symbol viewBox="0 0 12 12" id="external-link-dark" xmlns="http://www.w3.org/2000/svg"><path fill="#fff" d="M.13 9.52c0 1.28 1.05 2.33 2.33 2.33h6c1.28 0 2.33-1.05 2.33-2.33V5.85a.67.67 0 00-1.34 0v3.67c0 .55-.45 1-1 1h-6c-.55 0-1-.45-1-1v-6c0-.55.45-1 1-1h3.67a.67.67 0 000-1.34H2.45C1.17 1.18.12 2.23.12 3.51z"/><path fill="#74FFE3" d="M11.87.82c0-.05 0-.08-.02-.13 0-.02 0-.02-.02-.03 0-.03-.02-.07-.03-.08 0-.02-.02-.03-.02-.03-.02-.03-.03-.05-.03-.08-.05-.07-.12-.13-.18-.18a.108.108 0 00-.07-.03c-.02 0-.03-.02-.05-.02-.03-.02-.05-.02-.08-.03l-.03-.02c-.03 0-.08-.02-.12-.02H8.13a.67.67 0 000 1.34h1.45l-4.3 4.3c-.25.27-.25.68.02.95.25.25.67.25.92 0l4.32-4.3v1.45a.67.67 0 001.34 0z"/></symbol><symbol viewBox="0 0 12 12" id="external-link-dark-single-color" xmlns="http://www.w3.org/2000/svg"><path fill="#fff" d="M.13 9.52c0 1.28 1.05 2.33 2.33 2.33h6c1.28 0 2.33-1.05 2.33-2.33V5.85a.67.67 0 00-1.34 0v3.67c0 .55-.45 1-1 1h-6c-.55 0-1-.45-1-1v-6c0-.55.45-1 1-1h3.67a.67.67 0 000-1.34H2.45C1.17 1.18.12 2.23.12 3.51z"/><path fill="#FFF" d="M11.87.82c0-.05 0-.08-.02-.13 0-.02 0-.02-.02-.03 0-.03-.02-.07-.03-.08 0-.02-.02-.03-.02-.03-.02-.03-.03-.05-.03-.08-.05-.07-.12-.13-.18-.18a.108.108 0 00-.07-.03c-.02 0-.03-.02-.05-.02-.03-.02-.05-.02-.08-.03l-.03-.02c-.03 0-.08-.02-.12-.02H8.13a.67.67 0 000 1.34h1.45l-4.3 4.3c-.25.27-.25.68.02.95.25.25.67.25.92 0l4.32-4.3v1.45a.67.67 0 001.34 0z"/></symbol><symbol viewBox="0 0 12 12" id="external-link-light" xmlns="http://www.w3.org/2000/svg"><g fill="none" fill-rule="evenodd"><path d="M.133 9.517a2.34 2.34 0 002.334 2.333h6A2.34 2.34 0 0010.8 9.517V5.85c0-.367-.3-.667-.667-.667-.366 0-.666.3-.666.667v3.667c0 .55-.45 1-1 1h-6c-.55 0-1-.45-1-1v-6c0-.55.45-1 1-1h3.666c.367 0 .667-.3.667-.667 0-.367-.3-.667-.667-.667H2.467A2.34 2.34 0 00.133 3.517v6z" fill="#3F454D" fill-rule="nonzero"/><path d="M11.867.817c0-.05 0-.084-.017-.134 0-.016 0-.016-.017-.033A.127.127 0 0011.8.567c0-.017-.017-.034-.017-.034C11.767.5 11.75.483 11.75.45a.955.955 0 00-.183-.183.126.126 0 00-.067-.034c-.017 0-.033-.016-.05-.016C11.417.2 11.4.2 11.367.183l-.034-.016c-.033 0-.083-.017-.116-.017H8.133c-.366 0-.666.3-.666.667 0 .366.3.666.666.666h1.45l-4.3 4.3a.68.68 0 00.017.95c.25.25.667.25.917 0l4.316-4.3v1.45c0 .367.3.667.667.667.367 0 .667-.3.667-.667V.817z" fill="#01A39C"/></g></symbol><symbol viewBox="0 0 12 12" id="external-link-light-single-color" xmlns="http://www.w3.org/2000/svg"><g fill="#3F454D" fill-rule="evenodd"><path d="M.133 9.517a2.34 2.34 0 002.334 2.333h6A2.34 2.34 0 0010.8 9.517V5.85c0-.367-.3-.667-.667-.667-.366 0-.666.3-.666.667v3.667c0 .55-.45 1-1 1h-6c-.55 0-1-.45-1-1v-6c0-.55.45-1 1-1h3.666c.367 0 .667-.3.667-.667 0-.367-.3-.667-.667-.667H2.467A2.34 2.34 0 00.133 3.517v6z" fill-rule="nonzero"/><path d="M11.867.817c0-.05 0-.084-.017-.134 0-.016 0-.016-.017-.033A.127.127 0 0011.8.567c0-.017-.017-.034-.017-.034C11.767.5 11.75.483 11.75.45a.955.955 0 00-.183-.183.126.126 0 00-.067-.034c-.017 0-.033-.016-.05-.016C11.417.2 11.4.2 11.367.183l-.034-.016c-.033 0-.083-.017-.116-.017H8.133c-.366 0-.666.3-.666.667 0 .366.3.666.666.666h1.45l-4.3 4.3a.68.68 0 00.017.95c.25.25.667.25.917 0l4.316-4.3v1.45c0 .367.3.667.667.667.367 0 .667-.3.667-.667V.817z"/></g></symbol><symbol viewBox="0 0 24 24" id="facebook" xmlns="http://www.w3.org/2000/svg"><path d="M22 3.104v17.792c0 .61-.494 1.104-1.104 1.104H15.81v-7.734h2.607l.39-3.028H15.81V9.31c0-.874.242-1.47 1.491-1.47h1.595v-2.7a21.384 21.384 0 00-2.33-.119c-2.304 0-3.881 1.407-3.881 3.99v2.226h-2.598v3.028h2.598V22h-9.58A1.104 1.104 0 012 20.896V3.104C2 2.494 2.494 2 3.104 2h17.792C21.506 2 22 2.494 22 3.104" fill-rule="evenodd"/></symbol><symbol viewBox="0 0 8 15" id="fb" xmlns="http://www.w3.org/2000/svg"><style/><path id="cjFB" d="M5.2 15V8.17h2.37l.35-2.67H5.2V3.8c0-.77.22-1.3 1.35-1.3H8V.12C7.75.09 6.89.02 5.89.02 3.8.02 2.36 1.26 2.36 3.55v1.97H0v2.67h2.36v6.83z" fill="#9fa1a6"/></symbol><symbol viewBox="0 0 18 15" id="filter" xmlns="http://www.w3.org/2000/svg"><path d="M5.286 0c1.084 0 1.983.7 2.3 1.66h9.753a.648.648 0 110 1.296H7.586c-.29.96-1.19 1.66-2.273 1.66-1.057 0-1.983-.7-2.247-1.66H.661A.648.648 0 010 2.308c0-.363.264-.649.634-.649H3.04A2.349 2.349 0 015.286 0zm.027 1.296c-.555 0-1.031.441-1.031 1.012 0 .57.476 1.01 1.03 1.01.556 0 1.032-.44 1.032-1.01 0-.57-.476-1.012-1.031-1.012zm7.93 9.089c1.083 0 1.982.7 2.272 1.66h1.824a.648.648 0 110 1.296h-1.824A2.356 2.356 0 0113.242 15c-1.057 0-1.982-.7-2.246-1.66H.66a.648.648 0 01-.66-.647c0-.363.264-.648.66-.648h10.336a2.347 2.347 0 012.246-1.66zm.026 1.296c-.582 0-1.031.44-1.031 1.011 0 .57.476 1.012 1.03 1.012.556 0 1.032-.441 1.032-1.012 0-.57-.476-1.01-1.031-1.01z" fill="#3F454D" fill-rule="nonzero"/></symbol><symbol viewBox="0 0 20 20" id="flag-japan" xmlns="http://www.w3.org/2000/svg"><g fill="none" fill-rule="evenodd"><circle fill="#FFF" cx="10" cy="10" r="10"/><circle fill="#B21616" cx="10" cy="10" r="5"/></g></symbol><symbol viewBox="0 0 19 19" id="flag-world" xmlns="http://www.w3.org/2000/svg"><path d="M9.5 0a9.5 9.5 0 110 19 9.5 9.5 0 010-19zM5.584 14.6l-.053.02c.834 1.843 2.094 3.09 3.47 3.335V14.01a12.626 12.626 0 00-3.417.592zM10 14.01v3.945c1.375-.246 2.634-1.492 3.469-3.337A12.57 12.57 0 0010 14.01zm-5.404.966L4.54 15a9.637 9.637 0 00-.96.49l-.068.042a8.516 8.516 0 002.533 1.736c-.561-.627-1.052-1.403-1.448-2.292zm9.807-.001l-.041.091c-.39.851-.866 1.596-1.408 2.202a8.508 8.508 0 002.533-1.736l.275.17a9.439 9.439 0 00-1.36-.727zM17.986 10h-2.494a13.859 13.859 0 01-.722 4.045c.43.184.84.393 1.226.624l.17.106A8.46 8.46 0 0017.986 10zM3.508 10H1.014a8.46 8.46 0 001.82 4.774l-.093.058c.462-.296.961-.56 1.489-.788A13.852 13.852 0 013.508 10zM9 10l-4.491.001a12.88 12.88 0 00.654 3.687c1.187-.4 2.487-.633 3.837-.68V10zm5.491.001L10 10v3.009c1.35.046 2.65.28 3.837.678.373-1.093.607-2.344.654-3.686zm-13.477-1h2.494c.05-1.495.316-2.898.752-4.132a10.34 10.34 0 01-1.52-.8l.147.09a8.46 8.46 0 00-1.873 4.842zm4.18-3.776l-.066.193A12.932 12.932 0 004.508 9H9V5.893a13.581 13.581 0 01-3.807-.668zm8.612-.001l-.25.082A13.68 13.68 0 0110 5.893V9h4.491a12.832 12.832 0 00-.685-3.776zm2.307-1.065l-.117.074a10.6 10.6 0 01-1.254.637c.434 1.233.7 2.636.75 4.13h2.494a8.46 8.46 0 00-1.873-4.84zm-10.534.117l-.01.02c1.06.346 2.223.552 3.431.597V1.045c-1.349.24-2.587 1.445-3.421 3.231zM10 1.045l.001 3.848c1.209-.045 2.37-.25 3.43-.597-.835-1.797-2.077-3.009-3.43-3.251zm-3.955.687l-.128.058a8.518 8.518 0 00-2.344 1.617c.34.2.692.377 1.06.536.39-.856.868-1.603 1.412-2.211zm6.91 0l.06.068a8.834 8.834 0 011.351 2.141 9.252 9.252 0 001.061-.534 8.522 8.522 0 00-2.472-1.675z" fill="#FFF" fill-rule="nonzero"/></symbol><symbol viewBox="0 0 41 41" id="form-circle-tick" xmlns="http://www.w3.org/2000/svg"><g stroke="#00908A" stroke-width="2" fill="none" fill-rule="evenodd"><path d="M20.5 1C9.73 1 1 9.73 1 20.5S9.73 40 20.5 40 40 31.27 40 20.5A19.5 19.5 0 0020.5 1z"/><path d="M11 22.283l4.37 4.37a1 1 0 001.415 0L29.44 14h0" stroke-linecap="round"/></g></symbol><symbol viewBox="0 0 16 16" id="github" xmlns="http://www.w3.org/2000/svg"><defs><path d="M8 0C3.581 0 0 3.672 0 8.203c0 3.623 2.292 6.698 5.471 7.782.4.075.546-.178.546-.395 0-.195-.007-.71-.01-1.395-2.226.496-2.696-1.1-2.696-1.1-.363-.947-.888-1.2-.888-1.2-.726-.508.055-.498.055-.498.803.058 1.225.846 1.225.846.714 1.253 1.873.891 2.329.681.073-.53.28-.891.508-1.096-1.777-.207-3.644-.911-3.644-4.054 0-.896.311-1.628.823-2.201-.082-.208-.357-1.042.079-2.17 0 0 .671-.221 2.2.84A7.494 7.494 0 018 3.967a7.482 7.482 0 012.002.276c1.528-1.061 2.198-.84 2.198-.84.437 1.128.162 1.962.08 2.17.513.573.822 1.305.822 2.2 0 3.152-1.87 3.845-3.652 4.048.287.253.543.754.543 1.52 0 1.096-.01 1.98-.01 2.25 0 .219.144.474.55.394C13.71 14.897 16 11.825 16 8.203 16 3.673 12.418 0 8 0z" id="coa"/></defs><g fill="none" fill-rule="evenodd"><path d="M0 0h16v16H0z"/><use xlink:href="#coa" fill="#909090"/></g></symbol><symbol viewBox="0 0 64 64" id="image-icon-dark" xmlns="http://www.w3.org/2000/svg"><defs><path d="M60 4a4 4 0 014 4v48a4 4 0 01-4 4H4a4 4 0 01-4-4V8a4 4 0 014-4zm0 4H4v37.73L12 36a4 4 0 015.497-.151l.16.151L28 48l16-24a4 4 0 015.657 0L60 37.484V8zm-36 8a8 8 0 110 16 8 8 0 010-16z" id="cpa"/></defs><use fill="#3f454d" fill-rule="nonzero" xlink:href="#cpa"/></symbol><symbol viewBox="0 0 64 64" id="image-icon-light" xmlns="http://www.w3.org/2000/svg"><defs><path d="M60 4a4 4 0 014 4v48a4 4 0 01-4 4H4a4 4 0 01-4-4V8a4 4 0 014-4zm0 4H4v37.73L12 36a4 4 0 015.497-.151l.16.151L28 48l16-24a4 4 0 015.657 0L60 37.484V8zm-36 8a8 8 0 110 16 8 8 0 010-16z" id="cqa"/></defs><use fill="#FFF" fill-rule="nonzero" xlink:href="#cqa"/></symbol><symbol viewBox="0 0 24 24" id="instagram" xmlns="http://www.w3.org/2000/svg"><path d="M18.538 6.662a1.2 1.2 0 11-2.4 0 1.2 1.2 0 012.4 0M12 15.333a3.333 3.333 0 110-6.666 3.333 3.333 0 010 6.666m0-8.468a5.135 5.135 0 100 10.27 5.135 5.135 0 000-10.27m8.14 9.176c-.045.975-.207 1.504-.344 1.857-.182.466-.399.8-.748 1.15-.35.35-.684.566-1.15.748-.353.136-.882.3-1.857.344-1.054.048-1.37.058-4.041.058-2.67 0-2.987-.01-4.04-.058-.976-.045-1.505-.208-1.858-.344a3.099 3.099 0 01-1.15-.748 3.099 3.099 0 01-.748-1.15c-.137-.353-.3-.882-.344-1.857-.048-1.055-.058-1.37-.058-4.041 0-2.67.01-2.986.058-4.04.045-.976.207-1.505.344-1.858.182-.466.399-.8.748-1.15.35-.35.684-.566 1.15-.748.353-.137.882-.3 1.857-.344 1.055-.048 1.37-.058 4.041-.058 2.67 0 2.986.01 4.04.058.976.045 1.505.207 1.858.344.466.182.8.399 1.15.748.35.35.566.684.748 1.15.137.353.3.882.344 1.857.048 1.055.058 1.37.058 4.041 0 2.67-.01 2.986-.058 4.04m1.8-8.163c-.049-1.064-.218-1.791-.465-2.427a4.902 4.902 0 00-1.153-1.772 4.902 4.902 0 00-1.772-1.153c-.636-.247-1.363-.416-2.427-.465C15.056 2.011 14.716 2 12 2s-3.056.011-4.123.06c-1.064.049-1.791.218-2.427.465a4.902 4.902 0 00-1.772 1.153A4.902 4.902 0 002.525 5.45c-.247.636-.416 1.363-.465 2.427C2.012 8.944 2 9.284 2 12s.012 3.056.06 4.123c.049 1.064.218 1.791.465 2.427a4.902 4.902 0 001.153 1.772 4.902 4.902 0 001.772 1.153c.636.247 1.363.416 2.427.465 1.067.048 1.407.06 4.123.06s3.056-.012 4.123-.06c1.064-.049 1.791-.218 2.427-.465a4.902 4.902 0 001.772-1.153 4.902 4.902 0 001.153-1.772c.247-.636.416-1.363.465-2.427.048-1.067.06-1.407.06-4.123s-.012-3.056-.06-4.123" fill-rule="evenodd"/></symbol><symbol viewBox="0 0 24 24" id="linkedin" xmlns="http://www.w3.org/2000/svg"><path d="M19.043 19.042h-2.966v-4.64c0-1.108-.019-2.532-1.541-2.532-1.544 0-1.779 1.207-1.779 2.452v4.72H9.794V9.498h2.844v1.305h.04c.396-.75 1.363-1.542 2.807-1.542 3.003 0 3.558 1.976 3.558 4.547v5.234zM6.45 8.194a1.72 1.72 0 11-.003-3.44 1.72 1.72 0 01.003 3.44zM4.963 19.042h2.97V9.498h-2.97v9.544zM20.521 2H3.476C2.662 2 2 2.646 2 3.442v17.115C2 21.353 2.662 22 3.476 22H20.52c.815 0 1.479-.647 1.479-1.443V3.442C22 2.646 21.336 2 20.52 2z" fill-rule="evenodd"/></symbol><symbol viewBox="0 0 22 22" id="ln" xmlns="http://www.w3.org/2000/svg"><style/><path id="ctLinkedIn" d="M20.2.2H1.79C.91.2.2.9.2 1.76v18.48c0 .86.71 1.56 1.59 1.56H20.2c.88 0 1.6-.7 1.6-1.56V1.76C21.8.9 21.08.2 20.2.2z" fill="#fefefe"/><path id="ctPath" d="M17.61 12.95c0-2.78-.6-4.91-3.84-4.91-1.56 0-2.6.85-3.03 1.67h-.04V8.3H7.63v10.31h3.2v-5.1c0-1.34.25-2.65 1.92-2.65 1.64 0 1.66 1.54 1.66 2.73v5.01h3.2zM4 6.89c1.02 0 1.86-.83 1.86-1.86C5.86 4 5.03 3.17 4 3.17c-1.03 0-1.86.83-1.86 1.86 0 1.03.83 1.86 1.86 1.86zM2.4 18.61h3.21V8.3H2.4z" fill="#9fa1a6"/></symbol><symbol viewBox="0 0 14 16" id="pdf-dark" xmlns="http://www.w3.org/2000/svg"><g fill="none" fill-rule="evenodd"><path d="M3.375 9.701h-.667v.995h.667c.268 0 .48-.236.48-.484 0-.279-.212-.511-.48-.511zm2.686.02h-.663v1.791h.663c1.08 0 1.128-1.791 0-1.791z" fill="#000" fill-rule="nonzero"/><path d="M11.5 7.5H.5c-.275 0-.5.225-.5.5v5c0 .275.225.5.5.5h11c.275 0 .5-.225.5-.5V8c0-.275-.225-.5-.5-.5z" fill="#74FFE3"/><path d="M13.5 3.793L10.207.5A1.87 1.87 0 009 0H3.5C2.673 0 2 .673 2 1.5v5a.5.5 0 101 0v-5a.5.5 0 01.5-.5H8a1 1 0 011 1v1.875C9 4.494 9.507 5 10.125 5H12a1 1 0 011 1v8.5a.5.5 0 01-.5.5h-9a.5.5 0 01-.5-.5.5.5 0 10-1 0c0 .827.673 1.5 1.5 1.5h9c.827 0 1.5-.673 1.5-1.5V5c0-.41-.21-.918-.5-1.207z" fill="#74FFE3"/><path d="M4.214 9.239c.204.159.306.398.306.716 0 .333-.103.583-.308.75-.206.165-.48.249-.823.249h-.338V12H2.5V9h.852c.37 0 .657.08.862.239zm-.42 1.157c.1-.086.15-.232.15-.44 0-.357-.199-.535-.597-.535h-.296v1.103h.296c.198 0 .347-.043.447-.128zM7.1 9.316c.269.212.403.602.403 1.169 0 .556-.132.947-.396 1.174-.265.227-.6.341-1.006.341h-.785V9h.71c.448 0 .806.106 1.074.317zm-1.233.114v2.14h.271c.245 0 .437-.079.576-.236.14-.158.21-.441.21-.85 0-.283-.036-.502-.107-.657a.608.608 0 00-.28-.315.959.959 0 00-.415-.082h-.255zM8.368 9H10l-.058.425H8.919v.9h.889v.425h-.89V12h-.55V9z" fill="#FFF"/></g></symbol><symbol viewBox="0 0 64 64" id="pdf-icon-dark" xmlns="http://www.w3.org/2000/svg"><defs><path d="M40 0c1.64 0 3.672.84 4.828 2L58 15.172c1.16 1.158 2 3.19 2 4.828v38c0 3.308-2.692 6-6 6H18c-3.308 0-6-2.692-6-6 0-1.106.894-2 2-2 1.106 0 2 .894 2 2 0 1.102.896 2 2 2h36a2 2 0 002-2V24a4 4 0 00-4-4h-7.5a4.515 4.515 0 01-4.5-4.5V8a4 4 0 00-4-4H18c-1.104 0-2 .898-2 2v20c0 1.106-.894 2-2 2-1.106 0-2-.894-2-2V6c0-3.308 2.692-6 6-6zm10 30c1.052 0 1.918.82 1.994 1.851L52 32v20c0 1.05-.818 1.918-1.851 1.994L50 54H6c-1.05 0-1.918-.82-1.994-1.851L4 52V32c0-1.05.82-1.918 1.851-1.994L6 30h44zm-32.594 6H14v12h2.204v-4.185h1.353c1.369 0 2.465-.333 3.289-.999.824-.665 1.236-1.664 1.236-2.995 0-1.274-.41-2.23-1.228-2.866-.818-.637-1.967-.955-3.448-.955zm10.692 0H25.26v12h3.139c1.625 0 2.966-.454 4.024-1.363 1.058-.91 1.586-2.475 1.586-4.698 0-2.269-.537-3.826-1.611-4.671-1.074-.845-2.507-1.268-4.3-1.268zM44 36h-6.529v12h2.204v-5.001h3.557v-1.702h-3.557v-3.595h4.091L44 36zm-15.518 1.72c.646 0 1.2.11 1.662.33.462.22.835.639 1.119 1.258.283.62.425 1.497.425 2.631 0 1.633-.278 2.764-.835 3.395-.513.583-1.207.896-2.082.941l-.222.006h-1.085v-8.562h1.018zm-11.092-.035c1.591 0 2.387.712 2.387 2.136 0 .833-.2 1.42-.6 1.762-.361.308-.88.477-1.556.507l-.231.006h-1.186v-4.411h1.186z" id="cva"/></defs><use fill="#3f454d" xlink:href="#cva" fill-rule="evenodd"/></symbol><symbol viewBox="0 0 64 64" id="pdf-icon-light" xmlns="http://www.w3.org/2000/svg"><defs><path d="M40 0c1.64 0 3.672.84 4.828 2L58 15.172c1.16 1.158 2 3.19 2 4.828v38c0 3.308-2.692 6-6 6H18c-3.308 0-6-2.692-6-6 0-1.106.894-2 2-2 1.106 0 2 .894 2 2 0 1.102.896 2 2 2h36a2 2 0 002-2V24a4 4 0 00-4-4h-7.5a4.515 4.515 0 01-4.5-4.5V8a4 4 0 00-4-4H18c-1.104 0-2 .898-2 2v20c0 1.106-.894 2-2 2-1.106 0-2-.894-2-2V6c0-3.308 2.692-6 6-6zm10 30c1.052 0 1.918.82 1.994 1.851L52 32v20c0 1.05-.818 1.918-1.851 1.994L50 54H6c-1.05 0-1.918-.82-1.994-1.851L4 52V32c0-1.05.82-1.918 1.851-1.994L6 30h44zm-32.594 6H14v12h2.204v-4.185h1.353c1.369 0 2.465-.333 3.289-.999.824-.665 1.236-1.664 1.236-2.995 0-1.274-.41-2.23-1.228-2.866-.818-.637-1.967-.955-3.448-.955zm10.692 0H25.26v12h3.139c1.625 0 2.966-.454 4.024-1.363 1.058-.91 1.586-2.475 1.586-4.698 0-2.269-.537-3.826-1.611-4.671-1.074-.845-2.507-1.268-4.3-1.268zM44 36h-6.529v12h2.204v-5.001h3.557v-1.702h-3.557v-3.595h4.091L44 36zm-15.518 1.72c.646 0 1.2.11 1.662.33.462.22.835.639 1.119 1.258.283.62.425 1.497.425 2.631 0 1.633-.278 2.764-.835 3.395-.513.583-1.207.896-2.082.941l-.222.006h-1.085v-8.562h1.018zm-11.092-.035c1.591 0 2.387.712 2.387 2.136 0 .833-.2 1.42-.6 1.762-.361.308-.88.477-1.556.507l-.231.006h-1.186v-4.411h1.186z" id="cwa"/></defs><use fill="#FFF" xlink:href="#cwa" fill-rule="evenodd"/></symbol><symbol viewBox="0 0 14 16" id="pdf-light" xmlns="http://www.w3.org/2000/svg"><g fill="none" fill-rule="evenodd"><path d="M3.375 9.701h-.667v.995h.667c.268 0 .48-.236.48-.484 0-.279-.212-.511-.48-.511zm2.686.02h-.663v1.791h.663c1.08 0 1.128-1.791 0-1.791z" fill="#000" fill-rule="nonzero"/><path d="M11.5 7.5H.5c-.275 0-.5.225-.5.5v5c0 .275.225.5.5.5h11c.275 0 .5-.225.5-.5V8c0-.275-.225-.5-.5-.5z" fill="#01A39C"/><path d="M13.5 3.793L10.207.5A1.87 1.87 0 009 0H3.5C2.673 0 2 .673 2 1.5v5a.5.5 0 101 0v-5a.5.5 0 01.5-.5H8a1 1 0 011 1v1.875C9 4.494 9.507 5 10.125 5H12a1 1 0 011 1v8.5a.5.5 0 01-.5.5h-9a.5.5 0 01-.5-.5.5.5 0 10-1 0c0 .827.673 1.5 1.5 1.5h9c.827 0 1.5-.673 1.5-1.5V5c0-.41-.21-.918-.5-1.207z" fill="#01A39C"/><path d="M4.214 9.239c.204.159.306.398.306.716 0 .333-.103.583-.308.75-.206.165-.48.249-.823.249h-.338V12H2.5V9h.852c.37 0 .657.08.862.239zm-.42 1.157c.1-.086.15-.232.15-.44 0-.357-.199-.535-.597-.535h-.296v1.103h.296c.198 0 .347-.043.447-.128zM7.1 9.316c.269.212.403.602.403 1.169 0 .556-.132.947-.396 1.174-.265.227-.6.341-1.006.341h-.785V9h.71c.448 0 .806.106 1.074.317zm-1.233.114v2.14h.271c.245 0 .437-.079.576-.236.14-.158.21-.441.21-.85 0-.283-.036-.502-.107-.657a.608.608 0 00-.28-.315.959.959 0 00-.415-.082h-.255zM8.368 9H10l-.058.425H8.919v.9h.889v.425h-.89V12h-.55V9z" fill="#FFF"/></g></symbol><symbol viewBox="0 0 9 10" id="play-dark" xmlns="http://www.w3.org/2000/svg"><path d="M1 10a.499.499 0 01-.5-.5v-9a.501.501 0 01.77-.42l7 4.5a.498.498 0 01.001.841l-7 4.5A.502.502 0 011 10zm.5-8.584v7.168L7.075 5 1.5 1.416z" fill="#74FFE3" fill-rule="evenodd"/></symbol><symbol viewBox="0 0 9 10" id="play-light" xmlns="http://www.w3.org/2000/svg"><path d="M1 10a.499.499 0 01-.5-.5v-9a.501.501 0 01.77-.42l7 4.5a.498.498 0 01.001.841l-7 4.5A.502.502 0 011 10zm.5-8.584v7.168L7.075 5 1.5 1.416z" fill="#01A39C" fill-rule="evenodd"/></symbol><symbol viewBox="0 0 9 10" id="play-primary" xmlns="http://www.w3.org/2000/svg"><path d="M1 10a.499.499 0 01-.5-.5v-9a.501.501 0 01.77-.42l7 4.5a.498.498 0 01.001.841l-7 4.5A.502.502 0 011 10zm.5-8.584v7.168L7.075 5 1.5 1.416z" fill="#3F454D" fill-rule="evenodd"/></symbol><symbol class="dbvideo-overlay-play-button" viewBox="0 0 200 200" id="play_circle" xmlns="http://www.w3.org/2000/svg"><circle cx="100" cy="100" r="90" fill="none" stroke-width="15" stroke="#fff"/><path fill="#fff" d="M70 55v90l75-45z"/></symbol><symbol viewBox="0 0 20 20" id="press" xmlns="http://www.w3.org/2000/svg"><g fill="none"><path d="M0 0h20v20H0z"/><path d="M17.605 2H6.372c-1.284 0-2.325.997-2.325 2.226v3.228H2.395C1.111 7.454.07 8.451.07 9.68v5.566c.013 1.54 1.32 2.783 2.93 2.783h13.512c1.888 0 3.418-1.466 3.418-3.273V4.226C19.93 2.996 18.89 2 17.605 2zM4.047 15.246c0 .553-.469 1.002-1.047 1.002-.582 0-1.057-.445-1.07-1.002V9.68c0-.246.208-.445.465-.445h1.652v6.01zm14.023-.49c0 .824-.698 1.492-1.558 1.492H5.72c.122-.322.185-.66.186-1.002V4.226c0-.246.208-.445.465-.445h11.233c.257 0 .465.2.465.445v10.53z" fill="#3F454D"/><path d="M8.256 7.499h3.604c.514 0 .93-.399.93-.89 0-.493-.416-.891-.93-.891H8.256c-.514 0-.93.398-.93.89s.416.89.93.89zm7.07 1.313h-7.07c-.514 0-.93.399-.93.89 0 .492.416.891.93.891h7.07c.513 0 .93-.399.93-.89 0-.492-.417-.89-.93-.89zm0 3.072h-7.07c-.514 0-.93.399-.93.89 0 .493.416.891.93.891h7.07c.513 0 .93-.398.93-.89s-.417-.89-.93-.89z" fill="#2DD5C9"/></g></symbol><symbol viewBox="0 0 24 24" id="pricing-collapse" xmlns="http://www.w3.org/2000/svg"><path d="M18 11.4v1.2H6v-1.2z" fill="#00908A" fill-rule="evenodd"/></symbol><symbol viewBox="0 0 24 24" id="pricing-expand" xmlns="http://www.w3.org/2000/svg"><g fill="#00908A" fill-rule="evenodd"><path d="M18 11.4v1.2H6v-1.2z"/><path d="M12.6 18h-1.2V6h1.2z"/></g></symbol><symbol viewBox="0 0 24 24" id="pricing-tick" xmlns="http://www.w3.org/2000/svg"><path d="M17.775 8.36l-8 8.425a.629.629 0 01-.947 0l-2.664-3.048a.837.837 0 01.036-1.04.628.628 0 01.925-.04l2.2 2.474 7.496-7.888a.633.633 0 01.682-.214.737.737 0 01.483.582.82.82 0 01-.238.75h.027z" fill="#00908A" fill-rule="nonzero"/></symbol><symbol viewBox="0 0 62 42" id="product-icon-placeholder" xmlns="http://www.w3.org/2000/svg"><defs><linearGradient x1="0%" y1="27.773%" x2="100%" y2="72.227%" id="dga"><stop stop-color="#A4C3FF" offset="0%"/><stop stop-color="#48DAD0" offset="99.937%"/><stop stop-color="#9EDDCC" offset="100%"/></linearGradient></defs><path d="M56.333.653a5.332 5.332 0 015.33 5.113l.004.22v30.227a5.332 5.332 0 01-5.114 5.329l-.22.004H5.667a5.332 5.332 0 01-5.33-5.113l-.004-.22V5.986A5.332 5.332 0 015.447.658l.22-.005h50.666zM35.666 5.876l-.16.15L20.774 20.76l2.52 2.533-1.88 1.88-2.52-2.52L3.613 37.92a2.697 2.697 0 001.852.952l.202.008H36l1.44-1.454 1.44 1.454.013.013.014-.013 17.546-17.56-10-10-14.066 14.053-1.88-1.88L44.56 9.426l-3.4-3.4c-1.455-1.454-3.966-1.504-5.494-.15zM59 22.546L42.667 38.88h13.666c1.41 0 2.574-1.11 2.662-2.499l.005-.168V22.546zm-27.213 9.227l2.826 2.827-1.893 1.893-2.827-2.84 1.894-1.88zm2.84-28.453H5.667c-.581 0-1.11.179-1.547.5l-.16.126L6.333 6.32 4.44 8.2 3 6.76v28L33.613 4.146a6.686 6.686 0 011.014-.826zm-8.507 22.8l2.84 2.826-1.893 1.88L24.24 28l1.88-1.88zm30.213-22.8H42.04c.27.18.533.382.776.602l.237.224L59 20.093V5.986c0-1.466-1.2-2.666-2.667-2.666zM14.813 14.8l2.827 2.826-1.88 1.894-2.827-2.827 1.88-1.893zM9.16 9.146l2.827 2.827-1.894 1.88-2.826-2.827 1.893-1.88z" fill="url(#dga)" fill-rule="nonzero"/></symbol><symbol viewBox="0 0 12 10" id="quotation-mark" xmlns="http://www.w3.org/2000/svg"><path d="M.701 9.306C.234 8.843 0 8.294 0 7.659c0-.291.045-.589.136-.893.091-.304.254-.734.487-1.29L3.156 0h2.143l-1.52 5.794c.624.476.935 1.098.935 1.865a2.27 2.27 0 01-.682 1.647A2.234 2.234 0 012.377 10c-.65 0-1.208-.231-1.676-.694zm6.702 0c-.468-.463-.702-1.012-.702-1.647 0-.291.046-.589.137-.893.09-.304.253-.734.487-1.29L9.857 0H12l-1.52 5.794c.624.476.936 1.098.936 1.865 0 .635-.228 1.184-.682 1.647A2.234 2.234 0 019.078 10c-.65 0-1.208-.231-1.675-.694z" fill="#007E79" fill-rule="evenodd"/></symbol><symbol viewBox="0 0 12 10" id="quotation-mark-dark" xmlns="http://www.w3.org/2000/svg"><path d="M.701 9.306C.234 8.843 0 8.294 0 7.659c0-.291.045-.589.136-.893.091-.304.254-.734.487-1.29L3.156 0h2.143l-1.52 5.794c.624.476.935 1.098.935 1.865a2.27 2.27 0 01-.682 1.647A2.234 2.234 0 012.377 10c-.65 0-1.208-.231-1.676-.694zm6.702 0c-.468-.463-.702-1.012-.702-1.647 0-.291.046-.589.137-.893.09-.304.253-.734.487-1.29L9.857 0H12l-1.52 5.794c.624.476.936 1.098.936 1.865 0 .635-.228 1.184-.682 1.647A2.234 2.234 0 019.078 10c-.65 0-1.208-.231-1.675-.694z" fill="#00908A" fill-rule="evenodd"/></symbol><symbol viewBox="0 0 12 10" id="quotation-mark-light" xmlns="http://www.w3.org/2000/svg"><path d="M.701 9.306C.234 8.843 0 8.294 0 7.659c0-.291.045-.589.136-.893.091-.304.254-.734.487-1.29L3.156 0h2.143l-1.52 5.794c.624.476.935 1.098.935 1.865a2.27 2.27 0 01-.682 1.647A2.234 2.234 0 012.377 10c-.65 0-1.208-.231-1.676-.694zm6.702 0c-.468-.463-.702-1.012-.702-1.647 0-.291.046-.589.137-.893.09-.304.253-.734.487-1.29L9.857 0H12l-1.52 5.794c.624.476.936 1.098.936 1.865 0 .635-.228 1.184-.682 1.647A2.234 2.234 0 019.078 10c-.65 0-1.208-.231-1.675-.694z" fill="#74FFE3" fill-rule="evenodd"/></symbol><symbol viewBox="0 0 16 16" id="reading" xmlns="http://www.w3.org/2000/svg"><g fill-rule="nonzero" fill="none"><path d="M7.965 14.963c-3.858 0-6.997-3.138-6.997-6.997S4.108.968 7.965.968c3.859 0 6.997 3.14 6.997 6.998a7.004 7.004 0 01-6.997 6.997M7.965 0C3.573 0 0 3.573 0 7.966c0 4.392 3.573 7.965 7.965 7.965 4.392 0 7.965-3.573 7.965-7.965C15.93 3.573 12.357 0 7.965 0" fill="#3F454D"/><path d="M11.58 5.645L8.45 7.947v-4.78a.484.484 0 10-.968 0v5.736a.485.485 0 00.77.391l3.902-2.868a.485.485 0 00-.574-.781" fill="#2DD5C9"/></g></symbol><symbol viewBox="0 0 17 18" id="shares" xmlns="http://www.w3.org/2000/svg"><g fill="none" fill-rule="evenodd"><path d="M11.439 4.421l-5.67 3.25M11.439 13.671l-5.67-3.25" stroke="#2DD5C9"/><g transform="translate(1 1)" stroke="#3F454D" stroke-width=".882"><ellipse cx="12.353" cy="2.667" rx="2.647" ry="2.667"/><ellipse cx="12.353" cy="13.333" rx="2.647" ry="2.667"/><ellipse cx="2.647" cy="8" rx="2.647" ry="2.667"/></g></g></symbol><symbol viewBox="0 0 8 15" id="social--facebook" xmlns="http://www.w3.org/2000/svg"><style/><path id="dmFB" d="M5.2 15V8.17h2.37l.35-2.67H5.2V3.8c0-.77.22-1.3 1.35-1.3H8V.12C7.75.09 6.89.02 5.89.02 3.8.02 2.36 1.26 2.36 3.55v1.97H0v2.67h2.36v6.83z" fill="#9fa1a6"/></symbol><symbol viewBox="0 0 22 22" id="social--linkedin" xmlns="http://www.w3.org/2000/svg"><style/><path id="dnLinkedIn" d="M20.2.2H1.79C.91.2.2.9.2 1.76v18.48c0 .86.71 1.56 1.59 1.56H20.2c.88 0 1.6-.7 1.6-1.56V1.76C21.8.9 21.08.2 20.2.2z" fill="#fefefe"/><path id="dnPath" d="M17.61 12.95c0-2.78-.6-4.91-3.84-4.91-1.56 0-2.6.85-3.03 1.67h-.04V8.3H7.63v10.31h3.2v-5.1c0-1.34.25-2.65 1.92-2.65 1.64 0 1.66 1.54 1.66 2.73v5.01h3.2zM4 6.89c1.02 0 1.86-.83 1.86-1.86C5.86 4 5.03 3.17 4 3.17c-1.03 0-1.86.83-1.86 1.86 0 1.03.83 1.86 1.86 1.86zM2.4 18.61h3.21V8.3H2.4z" fill="#9fa1a6"/></symbol><symbol viewBox="0 0 24 24" id="social--reddit" xmlns="http://www.w3.org/2000/svg"><path d="M14.052 15.069a.198.198 0 010 .28c-.427.424-1.095.63-2.046.63L12 15.977l-.007.002c-.95 0-1.62-.206-2.045-.63a.196.196 0 010-.28.2.2 0 01.281 0c.348.346.924.514 1.764.514l.007.002.007-.002c.84 0 1.416-.168 1.764-.514a.2.2 0 01.282 0zm-3.154-2.217a.845.845 0 00-1.691 0 .845.845 0 001.691 0zM23 12c0 6.075-4.925 11-11 11S1 18.075 1 12 5.925 1 12 1s11 4.925 11 11zm-4.583-.118a1.419 1.419 0 00-2.406-1.016c-.968-.637-2.278-1.042-3.727-1.094l.793-2.497 2.148.503-.003.031a1.16 1.16 0 001.162 1.157 1.16 1.16 0 001.162-1.157 1.16 1.16 0 00-2.242-.42l-2.315-.543a.198.198 0 00-.236.133l-.884 2.785c-1.518.019-2.892.427-3.903 1.083a1.417 1.417 0 00-2.383 1.035c0 .519.285.968.704 1.214-.027.15-.045.304-.045.459 0 2.09 2.57 3.792 5.731 3.792s5.732-1.701 5.732-3.792a2.5 2.5 0 00-.04-.433 1.41 1.41 0 00.752-1.24zm-4.466.129a.844.844 0 00-.846.842.845.845 0 001.69 0 .844.844 0 00-.844-.842z" fill="#9FA1A6" fill-rule="nonzero"/></symbol><symbol viewBox="0 0 24 143" id="social--social" xmlns="http://www.w3.org/2000/svg"><defs><filter id="dpflt1"><feColorMatrix in="SourceGraphic" values="0 0 0 0 0.624 0 0 0 0 0.631 0 0 0 0 0.651 0 0 0 1 0"/></filter><image width="512" height="512" id="dpimg1"/></defs><style>.dpshp0{fill:#9fa1a6}</style><path id="dpTwitter" class="dpshp0" d="M17.67 88.63c.52-.38.97-.85 1.33-1.38-.48.21-.99.36-1.53.42.55-.33.97-.85 1.17-1.48-.52.31-1.09.53-1.69.65-.49-.52-1.18-.84-1.95-.84a2.67 2.67 0 00-2.6 3.28 7.556 7.556 0 01-5.5-2.79c-.23.39-.36.85-.36 1.34 0 .93.47 1.74 1.19 2.22-.44-.01-.85-.13-1.21-.33v.03c0 1.29.92 2.37 2.14 2.61a2.687 2.687 0 01-1.2.04 2.661 2.661 0 002.49 1.85c-.91.72-2.06 1.14-3.31 1.14-.22 0-.43-.01-.64-.04 1.18.76 2.58 1.2 4.09 1.2 4.91 0 7.59-4.06 7.59-7.59 0-.12 0-.23-.01-.34"/><use id="dpreddit_742131" transform="matrix(.047 0 0 .047 0 119)" filter="url(#dpflt1)"/><path id="dpLinkedIn" d="M21.2.2H2.79C1.91.2 1.2.9 1.2 1.76v18.48c0 .86.71 1.56 1.59 1.56H21.2c.88 0 1.6-.7 1.6-1.56V1.76C22.8.9 22.08.2 21.2.2z" fill="#fefefe"/><path id="dpPath" class="dpshp0" d="M19.61 12.95c0-2.78-.6-4.91-3.84-4.91-1.56 0-2.6.85-3.03 1.66h-.04V8.29H9.63V18.6h3.2v-5.1c0-1.34.25-2.65 1.92-2.65 1.64 0 1.66 1.54 1.66 2.73v5.01h3.2zM6 6.89c1.03 0 1.86-.83 1.86-1.86C7.86 4 7.03 3.17 6 3.17c-1.03 0-1.86.83-1.86 1.86 0 1.03.83 1.86 1.86 1.86zM4.4 18.61h3.21V8.3H4.4z"/><path id="dpFB" class="dpshp0" d="M13.2 59v-6.83h2.37l.35-2.67H13.2v-1.7c0-.77.22-1.3 1.35-1.3H16v-2.38c-.25-.03-1.11-.11-2.12-.11-2.09 0-3.53 1.24-3.53 3.53v1.97H7.99v2.67h2.36v6.83z"/></symbol><symbol viewBox="0 0 14 11" id="social--twitter" xmlns="http://www.w3.org/2000/svg"><style/><path id="dqTwitter" d="M11.67 2.63c.52-.38.97-.85 1.33-1.38-.48.21-.99.36-1.53.42.55-.33.97-.85 1.17-1.48-.52.31-1.09.53-1.69.65C10.46.32 9.77 0 9 0a2.67 2.67 0 00-2.6 3.28A7.556 7.556 0 01.9.49C.67.88.54 1.34.54 1.83c0 .93.47 1.74 1.19 2.22-.44-.01-.85-.13-1.21-.33v.03c0 1.29.92 2.37 2.14 2.61a2.687 2.687 0 01-1.2.04 2.661 2.661 0 002.49 1.85c-.91.72-2.06 1.14-3.31 1.14-.21 0-.43-.01-.64-.04 1.18.76 2.58 1.2 4.09 1.2 4.91 0 7.59-4.06 7.59-7.59 0-.12 0-.23-.01-.34" fill="#9fa1a6"/></symbol><symbol viewBox="0 0 64 64" id="svg-icon-dark" xmlns="http://www.w3.org/2000/svg"><g transform="translate(0 10)" fill="#3f454d" fill-rule="evenodd"><rect y="28" width="16" height="16" rx="4"/><rect x="24" width="16" height="16" rx="4"/><rect x="48" y="28" width="16" height="16" rx="4"/><path d="M32 6c16.821 0 25.629 9.867 25.989 28.78L58 36h-4c0-17.625-7.179-26-22-26-14.492 0-21.677 8.007-21.99 24.839L10 36H6C6 16.291 14.821 6 32 6z" fill-rule="nonzero"/><circle cx="6" cy="6" r="6"/><circle cx="58" cy="6" r="6"/></g></symbol><symbol viewBox="0 0 64 64" id="svg-icon-light" xmlns="http://www.w3.org/2000/svg"><g transform="translate(0 10)" fill="#FFF" fill-rule="evenodd"><rect y="28" width="16" height="16" rx="4"/><rect x="24" width="16" height="16" rx="4"/><rect x="48" y="28" width="16" height="16" rx="4"/><path d="M32 6c16.821 0 25.629 9.867 25.989 28.78L58 36h-4c0-17.625-7.179-26-22-26-14.492 0-21.677 8.007-21.99 24.839L10 36H6C6 16.291 14.821 6 32 6z" fill-rule="nonzero"/><circle cx="6" cy="6" r="6"/><circle cx="58" cy="6" r="6"/></g></symbol><symbol viewBox="0 0 14 11" id="tw" xmlns="http://www.w3.org/2000/svg"><style/><path id="dtTwitter" d="M11.67 2.63c.52-.38.97-.85 1.33-1.38-.48.21-.99.36-1.53.42.55-.33.97-.85 1.17-1.48-.52.31-1.09.53-1.69.65C10.46.32 9.77 0 9 0a2.67 2.67 0 00-2.6 3.28A7.556 7.556 0 01.9.49C.67.88.54 1.34.54 1.83c0 .93.47 1.74 1.19 2.22-.44-.01-.85-.13-1.21-.33v.03c0 1.29.92 2.37 2.14 2.61a2.687 2.687 0 01-1.2.04 2.661 2.661 0 002.49 1.85c-.91.72-2.06 1.14-3.31 1.14-.21 0-.43-.01-.64-.04 1.18.76 2.58 1.2 4.09 1.2 4.91 0 7.59-4.06 7.59-7.59 0-.12 0-.23-.01-.34" fill="#9fa1a6"/></symbol><symbol viewBox="0 0 24 24" id="twitter" xmlns="http://www.w3.org/2000/svg"><path d="M16.97 9.451c.006.11.008.22.008.332 0 3.388-2.58 7.296-7.297 7.296a7.26 7.26 0 01-3.931-1.152 5.146 5.146 0 003.797-1.062 2.568 2.568 0 01-2.396-1.781 2.559 2.559 0 001.158-.044 2.566 2.566 0 01-2.057-2.514v-.033c.346.192.741.308 1.162.32A2.563 2.563 0 016.62 7.39a7.281 7.281 0 005.286 2.68 2.565 2.565 0 014.37-2.339 5.139 5.139 0 001.629-.623 2.573 2.573 0 01-1.128 1.419 5.119 5.119 0 001.473-.404 5.218 5.218 0 01-1.28 1.328M19.5 2h-15A2.5 2.5 0 002 4.5v15A2.5 2.5 0 004.5 22h15a2.5 2.5 0 002.5-2.5v-15A2.5 2.5 0 0019.5 2" fill-rule="evenodd"/></symbol><symbol viewBox="0 0 16 16" id="video-fullscreen" xmlns="http://www.w3.org/2000/svg"><g stroke="#FFF" stroke-width="1.4" fill="none" fill-rule="evenodd"><path d="M14 8V3.671C14 2.748 13.247 2 12.318 2H8M2 8v4.329C2 13.252 2.753 14 3.682 14H8"/></g></symbol><symbol viewBox="0 0 16 16" id="video-fullscreen-close" xmlns="http://www.w3.org/2000/svg"><g stroke="#FFF" stroke-width="1.4" fill="none" fill-rule="evenodd"><path d="M9 1v4.329C9 6.252 9.753 7 10.682 7H15M7 15v-4.329C7 9.748 6.247 9 5.318 9H1"/></g></symbol><symbol viewBox="0 0 64 64" id="video-icon-dark" xmlns="http://www.w3.org/2000/svg"><defs><path d="M32 16a8 8 0 018 8v16a8 8 0 01-8 8H8a8 8 0 01-8-8V24a8 8 0 018-8h24zm31.53 4.784a4 4 0 01.47 1.883v18.666a4 4 0 01-5.882 3.53l-12-6.4A4 4 0 0144 34.933v-5.866a4 4 0 012.118-3.53l12-6.4a4 4 0 015.411 1.647z" id="dxa"/></defs><use fill="#3f454d" xlink:href="#dxa" fill-rule="evenodd"/></symbol><symbol viewBox="0 0 64 64" id="video-icon-light" xmlns="http://www.w3.org/2000/svg"><defs><path d="M32 16a8 8 0 018 8v16a8 8 0 01-8 8H8a8 8 0 01-8-8V24a8 8 0 018-8h24zm31.53 4.784a4 4 0 01.47 1.883v18.666a4 4 0 01-5.882 3.53l-12-6.4A4 4 0 0144 34.933v-5.866a4 4 0 012.118-3.53l12-6.4a4 4 0 015.411 1.647z" id="dya"/></defs><use fill="#FFF" xlink:href="#dya" fill-rule="evenodd"/></symbol><symbol viewBox="0 0 16 12" id="video-mute" xmlns="http://www.w3.org/2000/svg"><g fill="#FFF" fill-rule="evenodd"><path d="M13.163 7.641l-2.468-2.468a.521.521 0 01.735-.737l2.47 2.468a.521.521 0 01-.736.737"/><path d="M10.695 6.905l2.468-2.469a.52.52 0 11.736.737L11.43 7.64a.521.521 0 01-.736-.737M.595 8.67h2.809a.59.59 0 01.336.105l3.662 2.507a.595.595 0 00.932-.49v-9.39a.595.595 0 00-.932-.491L3.74 3.418a.596.596 0 01-.336.105H.595A.595.595 0 000 4.117v3.958c0 .329.266.596.595.596"/></g></symbol><symbol viewBox="0 0 66 66" id="video-overlay-play" xmlns="http://www.w3.org/2000/svg"><g fill="none" fill-rule="evenodd"><circle cx="32.5" cy="32.5" r="32.5" stroke="#FFF" transform="translate(.5 .5)"/><path d="M29.085 20.645L44.378 31.69a1 1 0 010 1.622L29.085 44.355a1 1 0 01-1.585-.81v-22.09a1 1 0 011.585-.81z" fill="#FFF" fill-rule="nonzero"/></g></symbol><symbol viewBox="0 0 72 72" id="video-pause" xmlns="http://www.w3.org/2000/svg"><g fill-rule="nonzero" fill="none"><circle fill-opacity=".136" fill="#383C45" cx="36" cy="36" r="36"/><g fill="#FFF"><path d="M25 20h5a1 1 0 011 1v30a1 1 0 01-1 1h-5a1 1 0 01-1-1V21a1 1 0 011-1zM42 20h5a1 1 0 011 1v30a1 1 0 01-1 1h-5a1 1 0 01-1-1V21a1 1 0 011-1z"/></g></g></symbol><symbol viewBox="0 0 72 72" id="video-play" xmlns="http://www.w3.org/2000/svg"><g fill="none" fill-rule="evenodd"><circle cx="36" cy="36" r="36" fill="#383C45" fill-opacity=".136" fill-rule="nonzero"/><path d="M25 22.324C25 20.488 26.439 19 28.214 19c.552 0 .901.149 1.516.402l22.548 13.566c1.049.642 1.535 1.675 1.722 2.865v.334c-.187 1.19-.673 2.223-1.722 2.866L29.73 52.598c-.615.254-.964.402-1.515.402C26.439 53 25 51.512 25 49.676V22.324z" fill="#FFF"/></g></symbol><symbol viewBox="0 0 16 12" id="video-unmute" xmlns="http://www.w3.org/2000/svg"><g fill="#FFF" fill-rule="evenodd"><path d="M9.84 8.227a.439.439 0 00.624.002c.571-.569.885-1.326.885-2.132s-.313-1.563-.881-2.132a.442.442 0 00-.625.625c.401.402.624.936.624 1.507 0 .57-.223 1.104-.626 1.506a.44.44 0 000 .624"/><path d="M12.694 6.097a4.339 4.339 0 01-1.278 3.083.442.442 0 00.626.624 5.218 5.218 0 001.535-3.707 5.218 5.218 0 00-1.535-3.707.442.442 0 00-.626.623 4.34 4.34 0 011.278 3.084"/><path d="M15.012 6.097a6.624 6.624 0 01-1.957 4.72.442.442 0 00.624.625 7.504 7.504 0 002.216-5.345c0-2.021-.787-3.92-2.216-5.346a.441.441 0 10-.624.625 6.627 6.627 0 011.957 4.72M.595 8.67h2.809a.59.59 0 01.336.105l3.662 2.507a.595.595 0 00.932-.49v-9.39a.595.595 0 00-.932-.491L3.74 3.418a.596.596 0 01-.336.105H.595A.595.595 0 000 4.117v3.958c0 .329.266.596.595.596"/></g></symbol><symbol viewBox="0 0 20 14" id="views" xmlns="http://www.w3.org/2000/svg"><g fill-rule="nonzero" fill="none"><path d="M19.963 6.859C18.891 2.756 13.946 0 10 0 6.054 0 1.11 2.756.037 6.859L0 7l.037.142C1.109 11.244 6.054 14 10 14c3.946 0 8.891-2.756 9.963-6.859l.037-.14-.037-.142zM10 12.899c-3.426 0-7.868-2.415-8.88-5.899C2.133 3.516 6.575 1.1 10 1.1c3.426 0 7.868 2.416 8.88 5.9-1.012 3.484-5.454 5.9-8.88 5.9z" fill="#3F454D"/><path d="M10.054 3.48c1.968 0 3.568 1.628 3.568 3.63s-1.6 3.63-3.568 3.63c-1.967 0-3.568-1.628-3.568-3.63s1.6-3.63 3.568-3.63zm0 6.16c1.371 0 2.487-1.135 2.487-2.53 0-1.395-1.116-2.53-2.487-2.53S7.567 5.715 7.567 7.11c0 1.395 1.116 2.53 2.487 2.53z" fill="#2DD5C9"/></g></symbol><symbol viewBox="0 0 20 15" id="youtube" xmlns="http://www.w3.org/2000/svg"><path d="M7.94 10.27V4.28c1.8 1 3.59 2 5.4 3.01-1.81 1-3.6 1.99-5.4 2.99zm12.05-2.76c0-.5.02-1 0-1.49-.03-.72-.08-1.44-.13-2.15a7.48 7.48 0 00-.31-1.71c-.27-.88-.81-1.47-1.64-1.76-.43-.15-.88-.17-1.32-.2a89.029 89.029 0 00-4.3-.16c-.52-.01-1.03-.02-1.55-.02-.54 0-1.08 0-1.61.01-.85.01-1.7.03-2.55.04-.36.01-.72.01-1.09.03-.68.03-1.37.06-2.05.1-.36.02-.72.05-1.07.13-.75.16-1.33.58-1.7 1.31-.25.5-.39 1.04-.46 1.6-.12 1-.19 2-.2 3.01-.01.91-.02 1.81 0 2.72.02.76.08 1.53.13 2.29.04.57.15 1.13.33 1.68.28.88.84 1.45 1.69 1.68.36.1.74.16 1.11.19.6.05 1.2.08 1.8.1.72.03 1.44.05 2.16.06 1 .02 2 .04 2.99.04.73 0 1.47-.02 2.2-.03.43-.01.87-.01 1.3-.03.8-.03 1.61-.06 2.41-.1.46-.03.92-.05 1.37-.13.92-.16 1.6-.69 1.96-1.64.21-.56.34-1.15.38-1.75.05-.76.11-1.52.14-2.28.02-.51 0-1.02 0-1.53z"/></symbol></svg>