<svg version="1.1" viewBox="0.000000 0.000000 96.000000 96.000000" xmlns="http://www.w3.org/2000/svg" xmlns:xlink="http://www.w3.org/1999/xlink" overflow="hidden"><defs></defs><g id="Layer_2"><g id="Layer_1-2"><path d=" M 55.000000 69.660004 L 55.000000 71.660004 C 67.300003 73.199997 75.000000 77.199997 75.000000 81.000000 C 75.000000 85.830002 62.540001 91.000000 44.000000 91.000000 C 25.459999 91.000000 13.000000 85.830002 13.000000 81.000000 C 13.000000 77.199997 20.700001 73.199997 33.000000 71.650002 L 33.000000 69.650002 C 20.059999 71.260002 11.000000 75.650002 11.000000 80.989998 C 11.000000 87.720001 25.500000 92.989998 44.000000 92.989998 C 62.500000 92.989998 77.000000 87.720001 77.000000 80.989998 C 77.000000 75.680000 67.940002 71.269997 55.000000 69.660004 Z M 55.000000 74.660004 L 55.000000 76.660004 C 63.570000 77.660004 68.000000 79.779999 68.000000 81.059998 C 68.000000 82.809998 59.759998 86.059998 44.000000 86.059998 C 28.240000 86.059998 20.000000 82.809998 20.000000 81.059998 C 20.000000 79.779999 24.430000 77.690002 33.000000 76.660004 L 33.000000 74.660004 C 24.570000 75.660004 18.000000 77.790001 18.000000 81.050003 C 18.000000 85.650002 31.080000 88.050003 44.000000 88.050003 C 56.919998 88.050003 70.000000 85.650002 70.000000 81.050003 C 70.000000 77.739998 63.430000 75.580002 55.000000 74.610001 Z" fill="#00AFAA"/><path d=" M 44.000000 21.000000 C 40.133999 21.000000 37.000000 17.865999 37.000000 14.000000 L 37.000000 11.000000 C 37.000000 7.134010 40.133999 4.000000 44.000000 4.000000 C 47.866001 4.000000 51.000000 7.134010 51.000000 11.000000 L 51.000000 14.000000 C 51.000000 17.865999 47.866001 21.000000 44.000000 21.000000 Z M 44.000000 6.000000 C 41.238602 6.000000 39.000000 8.238580 39.000000 11.000000 L 39.000000 14.000000 C 39.000000 16.761400 41.238602 19.000000 44.000000 19.000000 C 46.761398 19.000000 49.000000 16.761400 49.000000 14.000000 L 49.000000 11.000000 C 49.000000 8.238580 46.761398 6.000000 44.000000 6.000000 Z M 57.000000 33.000000 C 57.000000 28.029400 52.970600 24.000000 48.000000 24.000000 L 40.000000 24.000000 C 35.029400 24.000000 31.000000 28.029400 31.000000 33.000000 L 31.000000 48.000000 L 33.000000 48.000000 L 33.000000 33.000000 C 33.000000 29.134001 36.133999 26.000000 40.000000 26.000000 L 48.000000 26.000000 C 51.866001 26.000000 55.000000 29.134001 55.000000 33.000000 L 55.000000 48.000000 L 57.000000 48.000000 Z M 38.000000 50.000000 L 36.000000 50.000000 L 36.000000 81.000000 L 38.000000 81.000000 Z M 52.000000 50.000000 L 50.000000 50.000000 L 50.000000 81.000000 L 52.000000 81.000000 Z" fill="#0D1622"/><path d=" M 0.000000 0.000000 L 96.000000 0.000000 L 96.000000 96.000000 L 0.000000 96.000000 Z" fill="none"/></g></g></svg>