<svg version="1.1" viewBox="0.000000 0.000000 96.000000 96.000000" xmlns="http://www.w3.org/2000/svg" xmlns:xlink="http://www.w3.org/1999/xlink" overflow="hidden"><defs></defs><g id="Layer_2"><g id="Layer_1-2"><path d=" M 81.339996 37.919998 L 93.000000 49.590000 L 93.000000 50.410000 L 79.220001 64.190002 C 80.014801 62.629200 80.683601 61.007401 81.220001 59.340000 L 90.589996 50.000000 L 82.339996 41.750000 C 82.079803 40.455299 81.745903 39.176601 81.339996 37.919998 Z M 75.070000 70.480003 L 93.000000 88.419998 L 93.000000 85.580002 L 76.300003 68.889999 C 75.913300 69.430000 75.503304 69.959999 75.070000 70.480003 Z M 30.500000 77.919998 C 29.920000 77.559998 29.350000 77.190002 28.790001 76.790001 L 25.000000 80.580002 L 12.920000 68.500000 L 17.600000 63.820000 C 17.280001 63.189999 16.980000 62.540001 16.700001 61.880001 L 3.000000 75.580002 L 3.000000 78.419998 L 11.500000 69.919998 L 23.580000 82.000000 L 12.580000 93.000000 L 15.420000 93.000000 L 25.000000 83.419998 L 34.580002 93.000000 L 37.419998 93.000000 L 26.420000 82.000000 Z M 34.560001 71.000000 C 35.150002 71.370003 35.750000 71.720001 36.369999 72.000000 L 39.160000 69.209999 L 40.570000 67.800003 L 72.050003 36.369999 C 71.739998 35.750000 71.389999 35.150002 71.050003 34.560001 Z M 76.790001 28.790001 C 77.190002 29.350000 77.559998 29.920000 77.919998 30.500000 L 93.000000 15.420000 L 93.000000 12.580000 Z M 78.419998 3.000000 L 75.580002 3.000000 L 66.059998 12.520000 C 66.629898 12.885400 67.171402 13.293200 67.680000 13.740000 Z M 52.650002 82.750000 L 62.900002 93.000000 L 65.720001 93.000000 L 55.090000 82.370003 C 54.290001 82.519997 53.470001 82.650002 52.650002 82.750000 Z M 16.370001 36.000000 L 8.480000 28.059999 L 8.480000 28.059999 L 24.059999 12.480000 L 30.600000 19.000000 C 31.190001 18.639999 31.790001 18.290001 32.410000 18.000000 L 17.410000 3.000000 L 14.580000 3.000000 L 22.650000 11.070000 L 7.070000 26.650000 L 3.000000 22.580000 L 3.000000 25.420000 L 15.620000 38.000000 C 15.850000 37.330002 16.090000 36.639999 16.370001 36.000000 Z M 23.670000 57.799999 L 45.740002 35.680000 C 45.293201 35.171398 44.885399 34.629902 44.520000 34.060001 L 29.520000 49.060001 L 22.760000 42.299999 C 22.560600 43.083698 22.407000 43.878399 22.299999 44.680000 L 28.100000 50.480000 L 23.000000 55.599998 C 23.182600 56.328701 23.406300 57.046501 23.670000 57.750000 Z M 42.150002 27.799999 L 38.419998 24.000000 C 37.757702 24.265200 37.110100 24.565599 36.480000 24.900000 L 43.240002 31.660000 C 42.701698 30.405001 42.334999 29.083000 42.150002 27.730000 Z M 56.540001 3.000000 L 53.720001 3.000000 L 42.130001 14.590000 C 43.196701 14.390000 44.286701 14.240000 45.400002 14.140000 Z" fill="#0F1621"/><path d=" M 57.570000 20.809999 C 54.935600 20.809999 52.799999 22.945601 52.799999 25.580000 C 52.799999 28.214399 54.935600 30.350000 57.570000 30.350000 C 60.204399 30.350000 62.340000 28.214399 62.340000 25.580000 C 62.340000 25.576700 62.340000 25.573299 62.340000 25.570000 C 62.340000 22.941099 60.208900 20.809999 57.580002 20.809999 C 57.576698 20.809999 57.573299 20.809999 57.570000 20.809999 Z M 57.570000 28.340000 C 56.040199 28.340000 54.799999 27.099800 54.799999 25.570000 C 54.799999 24.040199 56.040199 22.799999 57.570000 22.799999 C 59.099800 22.799999 60.340000 24.040199 60.340000 25.570000 C 60.340000 27.099800 59.099800 28.340000 57.570000 28.340000 Z M 66.459999 16.680000 C 61.550201 11.770200 53.589802 11.770200 48.680000 16.680000 C 43.770199 21.589800 43.770199 29.550200 48.680000 34.459999 C 50.950001 36.720001 56.680000 41.560001 56.930000 41.770000 L 57.570000 42.310001 L 58.220001 41.770000 C 58.459999 41.560001 64.220001 36.720001 66.459999 34.459999 C 71.365601 29.548401 71.365601 21.591600 66.459999 16.680000 Z M 65.050003 33.049999 C 63.279999 34.810001 59.160000 38.340000 57.570000 39.689999 C 55.980000 38.340000 51.860001 34.810001 50.099998 33.049999 C 45.972599 28.921700 45.973400 22.229099 50.101799 18.101801 C 54.230099 13.974400 60.922600 13.975200 65.050003 18.103500 C 69.176697 22.231199 69.176697 28.922400 65.050003 33.049999 Z M 72.849998 28.549999 C 72.689903 29.359800 72.465797 30.155600 72.180000 30.930000 C 81.882599 44.011299 79.143700 62.481400 66.062302 72.183998 C 52.980999 81.886703 34.510899 79.147697 24.808300 66.066299 C 15.105700 52.985001 17.844601 34.514900 30.926001 24.812300 C 34.566299 22.112200 38.780102 20.287500 43.240002 19.480000 C 43.562599 18.708200 43.950699 17.965500 44.400002 17.260000 C 27.119499 19.495899 14.923400 35.317101 17.159300 52.597599 C 19.395201 69.878197 35.216400 82.074303 52.496899 79.838402 C 69.777397 77.602501 81.973503 61.781300 79.737602 44.500702 C 78.979797 38.644001 76.593498 33.117500 72.849998 28.549999 Z" fill="#00B6B2"/><line x1="93.000000" y1="50.410000" x2="93.000000" y2="49.590000" fill="none"/><line x1="93.000000" y1="15.420000" x2="93.000000" y2="12.580000" fill="none"/><path d=" M 0.000000 0.000000 L 96.000000 0.000000 L 96.000000 96.000000 L 0.000000 96.000000 Z" fill="none"/></g></g></svg>